<svg xmlns="http://www.w3.org/2000/svg" viewBox="0 0 1030 280">
  <g>
    <g>
      <text transform="translate(344.9 158.88)" font-size="45" fill="#0092d3" font-weight="200" font-family="'PingFang TC','HeiTi TC','Microsoft JhengHei',sans-serif" letter-spacing="0.08em">有趣無價玩具店</text>
      <text transform="translate(505.26 63.35)" font-size="53.43" fill="#0092d3" font-family="Dosis,sans-serif" font-weight="200">1<tspan x="11.75" y="0" font-size="27.43" font-family="Dosis,sans-serif" font-weight="400" letter-spacing="0em">f</tspan></text>
      <circle cx="514.87" cy="45.02" r="44.47" fill="none" stroke="#069fd5" stroke-miterlimit="10"/>
      <text transform="translate(300.94 198.47)" font-size="14" fill="#666" font-family="'PingFang TC','HeiTi TC','Microsoft JhengHei',sans-serif" letter-spacing="0.02em">價值換算價格的公式我們可能永遠弄不清楚，從產品、計畫到夢想，<tspan x="157.08" y="20">不如讓你來定價。</tspan></text>
    </g>
    <g>
      <rect x="193.02" y="243.03" width="10.78" height="14.32" fill="#fff" stroke="#8acaff" stroke-miterlimit="10"/>
      <rect x="208.82" y="243.03" width="10.78" height="14.32" fill="#fff" stroke="#8acaff" stroke-miterlimit="10"/>
      <rect x="224.61" y="243.03" width="10.78" height="14.32" fill="#fff" stroke="#8acaff" stroke-miterlimit="10"/>
      <rect x="188.63" y="248.53" width="49.7" height="30.57" fill="#fff" stroke="#8acaff" stroke-miterlimit="10"/>
      <line x1="191.47" y1="252.47" x2="233.67" y2="252.47" fill="none" stroke="#8acaff" stroke-miterlimit="10"/>
    </g>
    <g>
      <rect x="242.79" y="243.03" width="10.78" height="14.32" fill="#fff" stroke="#8acaff" stroke-miterlimit="10"/>
      <rect x="258.59" y="243.03" width="10.78" height="14.32" fill="#fff" stroke="#8acaff" stroke-miterlimit="10"/>
      <rect x="274.38" y="243.03" width="10.78" height="14.32" fill="#fff" stroke="#8acaff" stroke-miterlimit="10"/>
      <rect x="238.4" y="248.53" width="49.7" height="30.57" fill="#fff" stroke="#8acaff" stroke-miterlimit="10"/>
      <line x1="242.88" y1="252.47" x2="285.08" y2="252.47" fill="none" stroke="#8acaff" stroke-miterlimit="10"/>
    </g>
    <g>
      <rect x="226.26" y="212.36" width="10.78" height="14.32" fill="#fff" stroke="#8acaff" stroke-miterlimit="10"/>
      <rect x="242.06" y="212.36" width="10.78" height="14.32" fill="#fff" stroke="#8acaff" stroke-miterlimit="10"/>
      <rect x="257.86" y="212.36" width="10.78" height="14.32" fill="#fff" stroke="#8acaff" stroke-miterlimit="10"/>
      <rect x="221.87" y="217.86" width="49.7" height="30.57" fill="#fff" stroke="#8acaff" stroke-miterlimit="10"/>
      <line x1="226.25" y1="222.43" x2="268.44" y2="222.43" fill="none" stroke="#8acaff" stroke-miterlimit="10"/>
    </g>
    <g>
      <rect x="120.51" y="39.65" width="27.19" height="15.47" rx="2.13" ry="2.13" fill="#fff" stroke="#8acaff" stroke-linecap="round" stroke-linejoin="round"/>
      <rect x="115.35" y="91.72" width="37.52" height="15.47" rx="2.5" ry="2.5" fill="#fff" stroke="#8acaff" stroke-linecap="round" stroke-linejoin="round"/>
      <polygon points="168.01 107.18 134.89 107.18 101.77 107.18 89.02 185.14 134.89 185.14 180.77 185.14 168.01 107.18" fill="#fff" stroke="#8acaff" stroke-linecap="round" stroke-linejoin="round"/>
      <rect x="93.67" y="185.14" width="84.21" height="13.17" fill="#8acaff" stroke="#8acaff" stroke-linecap="round" stroke-linejoin="round"/>
      <rect x="93.67" y="198.31" width="84.21" height="28.1" fill="#fff" stroke="#8acaff" stroke-linecap="round" stroke-linejoin="round"/>
      <rect x="93.67" y="226.41" width="37.92" height="52.11" fill="#fff" stroke="#8acaff" stroke-linecap="round" stroke-linejoin="round"/>
      <rect x="91.55" y="259.12" width="42.18" height="19.4" fill="#fff" stroke="#8acaff" stroke-linecap="round" stroke-linejoin="round"/>
      <rect x="139.96" y="226.41" width="37.92" height="52.11" fill="#fff" stroke="#8acaff" stroke-linecap="round" stroke-linejoin="round"/>
      <rect x="137.83" y="259.12" width="42.18" height="19.4" fill="#fff" stroke="#8acaff" stroke-linecap="round" stroke-linejoin="round"/>
      <g>
        <path d="M100.8,113.15s-11.8-2.42-17.27,8.5-17.17,50.16-17.17,50.16a15,15,0,0,0,9.81,7c6.79,1.32,14.24-2.15,14.24-2.15Z" fill="#fff" stroke="#8acaff" stroke-linecap="round" stroke-linejoin="round"/>
        <path d="M68.86,178.14v-4.43s.15-4.64,7.79-3.84,9.55,5.25,9.55,5.25v7.27S75.06,188,68.86,178.14Z" fill="#fff" stroke="#8acaff" stroke-linecap="round" stroke-linejoin="round"/>
        <path d="M54.22,204.87s2.35,4.48,12.14,4.11,10.76-6.54,10.76-6.54-5-22.16-13.79-22.06C63.33,180.38,52.37,182.4,54.22,204.87Z" fill="#fff" stroke="#8acaff" stroke-linecap="round" stroke-linejoin="round"/>
        <path d="M64.88,197.39s.61,8.41,12.65,5.84S92,191.73,92,191.73s3.14-18.41-29.82-13.16C62.17,178.57,69.94,189.05,64.88,197.39Z" fill="#fff" stroke="#8acaff" stroke-linecap="round" stroke-linejoin="round"/>
        <path d="M54.22,204.87s-4.16-16,4.75-24.32,10.52,10.32,8.45,13.82l-2.54,3s3.23-16-2.39-15-7.32,14.08-5.73,20.76Z" fill="#fff" stroke="#8acaff" stroke-linecap="round" stroke-linejoin="round"/>
        <path d="M56.76,203.15s8.71,5.23,16.63.57" fill="#fff" stroke="#8acaff" stroke-linecap="round" stroke-linejoin="round"/>
      </g>
      <g>
        <path d="M169,113.15s11.79-2.42,17.26,8.5,17.17,50.16,17.17,50.16a15,15,0,0,1-9.81,7c-6.79,1.32-14.24-2.15-14.24-2.15Z" fill="#fff" stroke="#8acaff" stroke-linecap="round" stroke-linejoin="round"/>
        <path d="M200.93,178.14v-4.43s-.16-4.64-7.8-3.84-9.55,5.25-9.55,5.25v7.27S194.72,188,200.93,178.14Z" fill="#fff" stroke="#8acaff" stroke-linecap="round" stroke-linejoin="round"/>
        <path d="M215.56,204.87s-2.35,4.48-12.14,4.11-10.76-6.54-10.76-6.54,5-22.16,13.79-22.06C206.45,180.38,217.41,182.4,215.56,204.87Z" fill="#fff" stroke="#8acaff" stroke-linecap="round" stroke-linejoin="round"/>
        <path d="M204.9,197.39s-.6,8.41-12.64,5.84-14.47-11.5-14.47-11.5-3.14-18.41,29.82-13.16C207.61,178.57,199.84,189.05,204.9,197.39Z" fill="#fff" stroke="#8acaff" stroke-linecap="round" stroke-linejoin="round"/>
        <path d="M215.56,204.87s4.17-16-4.74-24.32-10.53,10.32-8.46,13.82l2.54,3s-3.23-16,2.39-15,7.32,14.08,5.73,20.76Z" fill="#fff" stroke="#8acaff" stroke-linecap="round" stroke-linejoin="round"/>
        <path d="M213,203.15s-8.71,5.23-16.63.57" fill="#fff" stroke="#8acaff" stroke-linecap="round" stroke-linejoin="round"/>
      </g>
      <rect x="104.21" y="50.45" width="59.81" height="49" rx="11.15" ry="11.15" fill="#fff" stroke="#8acaff" stroke-linecap="round" stroke-linejoin="round"/>
      <line x1="104.21" y1="61.59" x2="164.01" y2="61.59" fill="none" stroke="#8acaff" stroke-miterlimit="10"/>
      <rect x="131.59" y="197.36" width="8.37" height="29.05" fill="#fff" stroke="#8acaff" stroke-linecap="round" stroke-linejoin="round"/>
      <g>
        <path d="M154.29,148l-3.52-7.75-5.86,6.17,3.21.54a14,14,0,1,1-6.59-13.92,1.54,1.54,0,0,0,.85.25,1.5,1.5,0,0,0,.8-2.78l-.07,0a17,17,0,1,0,8,17Z" fill="#8acaff"/>
        <path d="M149.08,136.46a1.89,1.89,0,1,1-1.89-1.89,1.89,1.89,0,0,1,1.89,1.89" fill="#8acaff"/>
      </g>
      <path d="M123.12,75.49a2.14,2.14,0,1,0,0-3A2.14,2.14,0,0,0,123.12,75.49Z" fill="#8acaff"/>
      <path d="M145.1,75.49a2.14,2.14,0,1,1,0-3A2.14,2.14,0,0,1,145.1,75.49Z" fill="#8acaff"/>
      <path d="M132.59,81.79a2.14,2.14,0,0,0,3.66-1.51H132A2.09,2.09,0,0,0,132.59,81.79Z" fill="#8acaff"/>
    </g>
    <g>
      <path d="M874.42,95.11s-5.28-14.35-1-24c0,0,2.21,18.43,6.5,25.46" fill="#8acaff" stroke="#8acaff" stroke-linecap="round" stroke-linejoin="round"/>
      <path d="M867.36,95.65S863.53,84.1,864.88,74c0,0,3.54,15.51,7.31,20.58" fill="#8acaff" stroke="#8acaff" stroke-linecap="round" stroke-linejoin="round"/>
      <path d="M862,98s-6-10.4-4-21.24c0,0,3.14,14.17,8.4,19" fill="#8acaff" stroke="#8acaff" stroke-linecap="round" stroke-linejoin="round"/>
      <path d="M858.3,104.73a39.7,39.7,0,0,1-9.93-23s5,14.13,11.18,18.65" fill="#8acaff" stroke="#8acaff" stroke-linecap="round" stroke-linejoin="round"/>
      <path d="M885,209.72s3.91,17.8,25.09,31.71A64,64,0,0,0,928.7,249c24,5.1,54.09-3.25,69-26.3,14.18-21.91,14-58.06-7.67-81.71-6.94-7.57-7.61-14.34-6.35-23.71C985.47,104,980,87.57,963.77,80.1c-24.89-11.47-46.54,2.46-52.06,24.91-2.21,9,.29,27.35,15.37,32.8,0,0-13.36-3.32-21.54-9.74-14.26-11.2-16.51-23.55-23.1-30-10.72-10.57-31.93,0-21.81,16.17,0,0,10.43,59.93,36,61" fill="#f7f7f7" stroke="#8acaff" stroke-miterlimit="10"/>
      <path d="M920.81,209.79s6.37-8.62,23.34-10.34c14-1.42,28.43,6.48,28.43,6.48" fill="none" stroke="#8acaff" stroke-miterlimit="10"/>
      <path d="M935.19,215.38c-10.31-4.08-20.9-11.34-50.18-5.66" fill="none" stroke="#8acaff" stroke-miterlimit="10"/>
      <path d="M911.05,109.74C915.73,97,927.08,87.4,942,90.12c19.62,3.59,27.38,20.54,23.44,33.29-3.24,10.5-13.28,15.39-21.89,15.86-15.07.82-21.49-3.52-21.5-3.52" fill="#fff" stroke="#8acaff" stroke-miterlimit="10"/>
      <path d="M962.92,115.06s-5.45-12.74-14.5-12.94c-1.85,0-4,.61-5.08,1.82-1.78,2.06-2.24,5.29,1.15,7.19,2.34,1.32,3.16.29,8.67.77A32,32,0,0,1,962.92,115.06Z" fill="#8acaff"/>
      <path d="M913.23,120.11s2.29-12.77,10.51-14.87a6.52,6.52,0,0,1,5,.59c2.06,1.51,3.16,4.36.47,6.81-1.87,1.7-2.83.93-7.76,2.53A29.78,29.78,0,0,0,913.23,120.11Z" fill="#8acaff"/>
      <circle cx="947.58" cy="106.98" r="3.52" fill="#fff"/>
      <circle cx="947.43" cy="106.98" r="1.96" fill="#8acaff"/>
      <circle cx="925.51" cy="109.51" r="3.05" fill="#fff"/>
      <circle cx="925.38" cy="109.51" r="1.7" fill="#8acaff"/>
      <polygon points="944.08 106.98 951.1 106.98 952.29 104.75 949.14 103.03 945.47 103.38 942.9 106.11 944.08 106.98" fill="#8acaff"/>
      <polyline points="929.54 108.74 921.21 109.96 921.86 107.32 924.22 106.06 928.87 106.32 929.54 108.61" fill="#8acaff"/>
      <path d="M938.17,120.54s4.32-2,3.41-4.43c-1.11-3-8.33-2.54-9.28-.28-1.24,3,3.85,4.71,3.85,4.71Z" fill="#8acaff"/>
      <path d="M944.13,124.91c.35,0,.72,0,1.09,0l-.26-2.77a8,8,0,0,1-7.15-3.1l-2.29,1.57A10.82,10.82,0,0,0,944.13,124.91Z" fill="#8acaff"/>
      <path d="M930.5,125.8c1.56,0,5.61-.53,7.94-5.79l-2.53-1.13c-2,4.58-5.62,4.14-5.66,4.14l-.37,2.75S930.14,125.8,930.5,125.8Z" fill="#8acaff"/>
      <path d="M937,127.89l.5,0a9.32,9.32,0,0,0,6.5-3.62l-2.24-1.63a6.62,6.62,0,0,1-4.42,2.48,5.7,5.7,0,0,1-4.3-1.59L931,125.36A8.51,8.51,0,0,0,937,127.89Z" fill="#8acaff"/>
      <g>
        <rect x="750.57" y="87.27" width="156.25" height="106.36" fill="#fff" stroke="#8acaff" stroke-miterlimit="10"/>
        <g>
          <rect x="749.5" y="94.88" width="146.81" height="101.96" fill="#f7f7f7"/>
          <g>
            <polygon points="821.88 166.1 824.66 171.12 839.06 180.59 865.86 182.27 886.47 169.34 888.95 151 821.88 166.1" fill="#0092d3"/>
            <polyline points="875.18 142.38 883.08 144.59 888.95 151 887.45 156.36 885.52 164.37 865.07 177.64 839.86 175.67 821.88 166.1 819.24 158.57 832.63 153.65 843.05 144.43 860.01 138.93 862.65 138 870 140.67" fill="#fff" stroke="#8acaff" stroke-miterlimit="10"/>
          </g>
          <g>
            <polyline points="870.18 126.25 869.91 158.86 875.41 158.86 874.99 126.25" fill="none" stroke="#8acaff" stroke-miterlimit="10"/>
            <path d="M872.53,122.4s-.34-11.68-9.8-12c-9.83-.3-13.16,10.59-13.16,10.59h2.84" fill="#fff" stroke="#8acaff" stroke-miterlimit="10"/>
            <path d="M872.29,119.73c-.4.84,3.13-7.06,10.06-8.11,6.26-1,10.35,1.24,12.27,9.11l-2.68,1-.87-2.49-1.85.69" fill="#fff" stroke="#8acaff" stroke-miterlimit="10"/>
            <path d="M867.92,112.21s5.32-7.59,10.61.44" fill="#fff" stroke="#8acaff" stroke-miterlimit="10"/>
            <path d="M872.23,122s-7.57-9.15-15-6.3c-6.53,2.5-7.3,13.4-7.3,13.4l5.26-1.22V124.9l1.71-.5v2.86l2-.45.07-2.94,2-.51.23,2.85,2.19-.33-.13-3.11,7.45.4" fill="#fff" stroke="#8acaff" stroke-miterlimit="10"/>
            <path d="M872.79,122s10.28-7.91,15.44-3.09,4,14.8,4,14.8l-4.83-2.47.67-2.85-1.55-.9-.66,2.78-1.84-.93.61-2.86-1.81-1-.88,2.72-2.05-.86.84-3-2.44-.51" fill="#fff" stroke="#8acaff" stroke-miterlimit="10"/>
            <ellipse cx="872.53" cy="125.16" rx="2.67" ry="2.76" fill="#8acaff"/>
            <ellipse cx="868.97" cy="124.73" rx="2.67" ry="2.76" fill="#8acaff"/>
            <path d="M874.18,122.69a2.26,2.26,0,0,1,1.83-1,2.35,2.35,0,0,1,0,4.69,2.11,2.11,0,0,1-1-.24" fill="#8acaff"/>
          </g>
          <path d="M783.71,132.25c1.51,0,1.51,1.56,3,1.56s1.51-1.56,3-1.56,1.51,1.56,3,1.56,1.51-1.56,3-1.56,1.51,1.56,3,1.56,1.51-1.56,3-1.56,1.51,1.56,3,1.56,1.52-1.56,3-1.56,1.51,1.56,3,1.56,1.52-1.56,3-1.56" fill="none" stroke="#8acaff" stroke-miterlimit="10"/>
          <path d="M800.57,144.15c1.13,0,1.13,1.55,2.25,1.55s1.12-1.55,2.24-1.55,1.13,1.55,2.25,1.55,1.13-1.55,2.25-1.55,1.12,1.55,2.25,1.55,1.12-1.55,2.24-1.55,1.13,1.55,2.25,1.55,1.13-1.55,2.25-1.55,1.13,1.55,2.25,1.55,1.13-1.55,2.25-1.55" fill="none" stroke="#8acaff" stroke-miterlimit="10"/>
          <path d="M779.89,160.06c1.51,0,1.51,1.56,3,1.56s1.51-1.56,3-1.56,1.51,1.56,3,1.56,1.51-1.56,3-1.56,1.51,1.56,3,1.56,1.51-1.56,3-1.56,1.51,1.56,3,1.56,1.51-1.56,3-1.56,1.52,1.56,3,1.56,1.51-1.56,3-1.56" fill="none" stroke="#8acaff" stroke-miterlimit="10"/>
        </g>
        <polyline points="776.75 185.92 760.19 185.92 760.19 171.73" fill="none" stroke="#8acaff" stroke-miterlimit="10"/>
        <polyline points="880.67 94.77 897.23 94.77 897.23 108.96" fill="none" stroke="#8acaff" stroke-miterlimit="10"/>
        <g>
          <path d="M851.58,164a5.37,5.37,0,0,1-5.36-5.37h1.24a4.13,4.13,0,0,0,4.12,4.13Z" fill="#8acaff"/>
          <path d="M853.16,164v-1.24a4.14,4.14,0,0,0,1.86-.44l.56,1.11A5.35,5.35,0,0,1,853.16,164Z" fill="#8acaff"/>
          <path d="M855.58,163.44l-.56-1.11a4.12,4.12,0,0,0,2.26-3.69h1.25A5.35,5.35,0,0,1,855.58,163.44Z" fill="#8acaff"/>
          <rect x="851.76" y="161.08" width="1.25" height="4.62" fill="#8acaff"/>
          <path d="M858.53,157h-1.25a4.13,4.13,0,0,0-4.12-4.12v-1.25A5.38,5.38,0,0,1,858.53,157Z" fill="#8acaff"/>
          <path d="M847.46,157h-1.24a5.37,5.37,0,0,1,5.36-5.37v1.25A4.13,4.13,0,0,0,847.46,157Z" fill="#8acaff"/>
          <rect x="851.76" y="149.94" width="1.25" height="4.62" fill="#8acaff"/>
          <rect x="856.1" y="157.18" width="4.62" height="1.25" fill="#8acaff"/>
          <rect x="844.02" y="157.18" width="4.62" height="1.25" fill="#8acaff"/>
        </g>
        <g>
          <text transform="translate(766.07 113.52)" font-size="14.13" fill="#0092d3" font-family="Dosis,sans-serif" font-weight="400" letter-spacing="0.08em">loc<tspan x="20.94" y="0" letter-spacing="0.08em">a</tspan><tspan x="28.87" y="0" letter-spacing="0.08em">tion</tspan></text>
          <rect x="766.84" y="115.84" width="57.1" height="0.84" fill="#0092d3"/>
        </g>
        <rect x="750.57" y="87.27" width="156.25" height="106.36" fill="none" stroke="#8acaff" stroke-miterlimit="10"/>
        <circle cx="899.54" cy="185.92" r="3.22" fill="#8acaff"/>
        <circle cx="759.04" cy="95.57" r="3.22" fill="#8acaff"/>
      </g>
      <path d="M997.71,222.7c-14.92,23.05-45,31.4-69,26.3a64,64,0,0,1-18.6-7.57C888.92,227.52,885,209.72,885,209.72s24.09-6.07,41.37,1.79" fill="#f7f7f7" stroke="#8acaff" stroke-miterlimit="10"/>
      <g>
        <g>
          <rect x="990.63" y="157.38" width="7.17" height="2.78" transform="translate(553.35 1063.92) rotate(-73.1)" fill="#0092d3"/>
          <rect x="983.95" y="157.38" width="7.17" height="2.78" transform="translate(548.61 1057.53) rotate(-73.1)" fill="#0092d3"/>
        </g>
        <g>
          <rect x="996.57" y="168.6" width="7.17" height="2.78" transform="translate(546.82 1077.56) rotate(-73.1)" fill="#0092d3"/>
          <rect x="989.88" y="168.6" width="7.17" height="2.78" transform="translate(542.08 1071.17) rotate(-73.1)" fill="#0092d3"/>
        </g>
        <g>
          <rect x="982.65" y="168.6" width="7.17" height="2.78" transform="translate(536.94 1064.25) rotate(-73.1)" fill="#0092d3"/>
          <rect x="975.96" y="168.6" width="7.17" height="2.78" transform="translate(532.2 1057.85) rotate(-73.1)" fill="#0092d3"/>
        </g>
        <g>
          <rect x="996.57" y="179.83" width="7.17" height="2.78" transform="translate(536.07 1085.53) rotate(-73.1)" fill="#0092d3"/>
          <rect x="989.88" y="179.83" width="7.17" height="2.78" transform="translate(531.33 1079.13) rotate(-73.1)" fill="#0092d3"/>
        </g>
        <g>
          <rect x="982.65" y="179.83" width="7.17" height="2.78" transform="translate(526.2 1072.21) rotate(-73.1)" fill="#0092d3"/>
          <rect x="975.96" y="179.83" width="7.17" height="2.78" transform="translate(521.46 1065.82) rotate(-73.1)" fill="#0092d3"/>
        </g>
        <g>
          <rect x="996.57" y="191.06" width="7.17" height="2.78" transform="translate(525.33 1093.49) rotate(-73.1)" fill="#0092d3"/>
          <rect x="989.88" y="191.06" width="7.17" height="2.78" transform="translate(520.59 1087.1) rotate(-73.1)" fill="#0092d3"/>
        </g>
        <g>
          <rect x="982.65" y="191.06" width="7.17" height="2.78" transform="translate(515.46 1080.17) rotate(-73.1)" fill="#0092d3"/>
          <rect x="975.96" y="191.06" width="7.17" height="2.78" transform="translate(510.72 1073.78) rotate(-73.1)" fill="#0092d3"/>
        </g>
        <g>
          <rect x="996.57" y="202.29" width="7.17" height="2.78" transform="translate(514.59 1101.46) rotate(-73.1)" fill="#0092d3"/>
          <rect x="989.88" y="202.29" width="7.17" height="2.78" transform="translate(509.85 1095.06) rotate(-73.1)" fill="#0092d3"/>
        </g>
        <g>
          <rect x="982.65" y="202.29" width="7.17" height="2.78" transform="translate(504.72 1088.14) rotate(-73.1)" fill="#0092d3"/>
          <rect x="975.96" y="202.29" width="7.17" height="2.78" transform="translate(499.97 1081.74) rotate(-73.1)" fill="#0092d3"/>
        </g>
        <rect x="989.88" y="213.51" width="7.17" height="2.78" transform="translate(499.11 1103.03) rotate(-73.1)" fill="#0092d3"/>
        <g>
          <rect x="982.65" y="213.51" width="7.17" height="2.78" transform="translate(493.97 1096.1) rotate(-73.1)" fill="#0092d3"/>
          <rect x="975.96" y="213.51" width="7.17" height="2.78" transform="translate(489.23 1089.71) rotate(-73.1)" fill="#0092d3"/>
        </g>
        <g>
          <rect x="983.8" y="223.88" width="5.38" height="2.78" transform="translate(484.17 1103.67) rotate(-73.1)" fill="#0092d3"/>
          <rect x="975.96" y="224.74" width="7.17" height="2.78" transform="translate(478.49 1097.67) rotate(-73.1)" fill="#0092d3"/>
        </g>
      </g>
      <path d="M951.79,144.79c2.6-6.88-15.6,22.69-40.16,28.41-26.56,6.17-41.87-4.55-49.2,9.55-6.91,13.31,4.84,28.14,22.58,27,0,0,21.43-5.52,35.8.07,0,0,11.79-11,23.34-10.34" fill="#f7f7f7" stroke="#8acaff" stroke-miterlimit="10"/>
      <path d="M844.12,176.86c2.33,13.68,16.3,15.59,16.3,15.59s3.39,9,5.64,10.92A28.16,28.16,0,0,1,846.31,185" fill="#8acaff" stroke="#8acaff" stroke-miterlimit="10"/>
      <path d="M862,197.73s-14.6-1.52-17.59-19.42" fill="none" stroke="#8acaff" stroke-miterlimit="10"/>
      <g>
        <g>
          <rect x="927.31" y="190.59" width="2.77" height="6.38" transform="translate(679.04 1109.04) rotate(-86.53)" fill="#0092d3"/>
          <rect x="924.99" y="183.64" width="2.77" height="6.38" transform="translate(683.8 1100.19) rotate(-86.53)" fill="#0092d3"/>
          <rect x="922.35" y="177.09" width="2.77" height="6.38" transform="translate(687.86 1091.4) rotate(-86.53)" fill="#0092d3"/>
        </g>
        <g>
          <rect x="915.56" y="192.83" width="2.77" height="6.38" transform="translate(665.76 1099.41) rotate(-86.53)" fill="#0092d3"/>
          <rect x="913.24" y="185.87" width="2.77" height="6.38" transform="translate(670.53 1090.56) rotate(-86.53)" fill="#0092d3"/>
          <rect x="910.6" y="179.32" width="2.77" height="6.38" transform="translate(674.58 1081.77) rotate(-86.53)" fill="#0092d3"/>
        </g>
        <g>
          <rect x="903.8" y="195.07" width="2.77" height="6.38" transform="translate(652.48 1089.77) rotate(-86.53)" fill="#0092d3"/>
          <rect x="901.48" y="188.11" width="2.77" height="6.38" transform="translate(657.25 1080.92) rotate(-86.53)" fill="#0092d3"/>
          <rect x="898.84" y="181.56" width="2.77" height="6.38" transform="translate(661.3 1072.14) rotate(-86.53)" fill="#0092d3"/>
        </g>
        <g>
          <rect x="892.04" y="197.3" width="2.77" height="6.38" transform="translate(639.21 1080.14) rotate(-86.53)" fill="#0092d3"/>
          <rect x="889.72" y="190.35" width="2.77" height="6.38" transform="translate(643.97 1071.29) rotate(-86.53)" fill="#0092d3"/>
          <rect x="887.08" y="183.8" width="2.77" height="6.38" transform="translate(648.03 1062.51) rotate(-86.53)" fill="#0092d3"/>
        </g>
        <g>
          <rect x="880.29" y="199.54" width="2.77" height="6.38" transform="translate(625.93 1070.51) rotate(-86.53)" fill="#0092d3"/>
          <rect x="877.97" y="192.59" width="2.77" height="6.38" transform="translate(630.69 1061.66) rotate(-86.53)" fill="#0092d3"/>
          <rect x="875.33" y="186.04" width="2.77" height="6.38" transform="translate(634.75 1052.87) rotate(-86.53)" fill="#0092d3"/>
        </g>
      </g>
      <line x1="0.31" y1="279.44" x2="1029.69" y2="279.44" fill="none" stroke="#8acaff" stroke-miterlimit="10"/>
    </g>
  </g>
</svg>
