<svg xmlns="http://www.w3.org/2000/svg" xmlns:xlink="http://www.w3.org/1999/xlink" viewBox="0 0 1030 280">
  <defs>
    <clipPath id="a">
      <rect x="102.31" y="158.02" width="68.03" height="68.03" rx="4.74" ry="4.74" fill="none"/>
    </clipPath>
  </defs>
  <g style="isolation: isolate">
    <g>
      <g>
        <path d="M991.87,189.49s-51.11-3.78-72.53,59.33" fill="none" stroke="#8acaff" stroke-miterlimit="10" stroke-width="1.09"/>
        <path d="M978.05,190.82s15.06,3.27,13.34,22.44C991.39,213.26,974.19,203.35,978.05,190.82Z" fill="#0092d3"/>
        <path d="M978.2,190.7s10.77-11.07,2.7-24.14C980.9,166.56,963.27,177,978.2,190.7Z" fill="#0092d3"/>
        <path d="M958,198s11.37-11.69,2.85-25.48C960.88,172.5,942.28,183.5,958,198Z" fill="#0092d3"/>
        <path d="M942.21,210.17s7.06-14.7-5.4-25.06C936.81,185.11,922.67,201.45,942.21,210.17Z" fill="#0092d3"/>
        <path d="M958,198s16.29.77,19.49,16.66C977.52,214.64,956.42,219.31,958,198Z" fill="#0092d3"/>
        <path d="M940,212.62s16.1-2.6,22.5,12.29C962.51,224.91,942.82,233.83,940,212.62Z" fill="#0092d3"/>
      </g>
      <g>
        <path d="M56.08,81.41s68-21.12,101.15,79.17" fill="none" stroke="#8acaff" stroke-miterlimit="10" stroke-width="1.09"/>
        <path d="M69.85,79.59s-13.94,6.58-7.94,24.86C61.91,104.45,76.44,90.92,69.85,79.59Z" fill="#0092d3"/>
        <path d="M69.67,79.51s-13-8.37-8.06-22.91C61.61,56.6,81.13,62.78,69.67,79.51Z" fill="#0092d3"/>
        <path d="M91,82.05s-13.7-8.83-8.51-24.18C82.45,57.87,103.05,64.39,91,82.05Z" fill="#0092d3"/>
        <path d="M109.13,90.35s-10.19-12.72-.39-25.63C108.74,64.72,126.2,77.45,109.13,90.35Z" fill="#0092d3"/>
        <path d="M120.41,98.72s-1.88-16.19,13.28-21.92C133.69,76.8,141.72,96.86,120.41,98.72Z" fill="#0092d3"/>
        <path d="M134.08,114.12S138.75,98.5,155,99.23C155,99.23,154.4,120.83,134.08,114.12Z" fill="#0092d3"/>
        <path d="M91,82.05s-15.69,4.42-15.22,20.62C75.74,102.67,97.35,102.47,91,82.05Z" fill="#0092d3"/>
        <path d="M111.82,92.25s-16.27,1.1-19.14,17C92.68,109.3,113.86,113.55,111.82,92.25Z" fill="#0092d3"/>
        <path d="M144,130.6s-16.27,1.1-19.15,17.05C124.87,147.65,146.06,151.91,144,130.6Z" fill="#0092d3"/>
        <path d="M132,111.45s-16-3-22.8,11.72C109.2,123.17,128.65,132.58,132,111.45Z" fill="#0092d3"/>
        <path d="M173.32,132.62s-16-3-22.8,11.72C150.52,144.34,170,153.75,173.32,132.62Z" fill="#0092d3"/>
      </g>
      <g>
        <text transform="translate(296.3 158.88)" font-size="45" fill="#0092d3" font-family="'PingFang TC','HeiTi TC','Microsoft JhengHei',sans-serif" letter-spacing="0.08em">在地生活到國民外交</text>
        <text transform="translate(497.01 63.35)" font-size="53.43" fill="#0092d3" font-family="Dosis-Light, Dosis">2<tspan x="25" y="0" font-size="27.43" font-family="Dosis-Medium, Dosis">f</tspan></text>
        <circle cx="514.87" cy="45.02" r="44.47" fill="none" stroke="#069fd5" stroke-miterlimit="10"/>
        <text transform="translate(300.21 197.73)" font-size="14" fill="#666" font-family="'PingFang TC','HeiTi TC','Microsoft JhengHei',sans-serif" letter-spacing="0.02em">先好好思考自己和社會、和這片土地的連結，才有可能一起走出去。</text>
      </g>
      <g>
        <rect x="52.12" y="113.21" width="168.4" height="165.66" fill="#fff" stroke="#8acaff" stroke-miterlimit="10" stroke-width="1.25"/>
        <line x1="74.23" y1="154.54" x2="198.78" y2="154.54" fill="none" stroke="#8acaff" stroke-miterlimit="10" stroke-width="1.25"/>
        <line x1="74.23" y1="173.51" x2="198.78" y2="173.51" fill="none" stroke="#8acaff" stroke-miterlimit="10" stroke-width="1.25"/>
        <line x1="74.23" y1="192.49" x2="198.78" y2="192.49" fill="none" stroke="#8acaff" stroke-miterlimit="10" stroke-width="1.25"/>
        <line x1="74.23" y1="211.46" x2="198.78" y2="211.46" fill="none" stroke="#8acaff" stroke-miterlimit="10" stroke-width="1.25"/>
        <line x1="74.23" y1="230.44" x2="198.78" y2="230.44" fill="none" stroke="#8acaff" stroke-miterlimit="10" stroke-width="1.25"/>
        <g>
          <rect x="38.54" y="191.73" width="185.25" height="22.04" transform="translate(355.65 291.74) rotate(144.52)" fill="#f7f7f7"/>
          <rect x="43.88" y="181.02" width="179.36" height="22.04" transform="translate(353.79 270.91) rotate(144.52)" fill="#fff" stroke="#8acaff" stroke-miterlimit="10" stroke-width="1.25"/>
          <line x1="145.38" y1="174.51" x2="97.14" y2="208.9" fill="none" stroke="#8acaff" stroke-miterlimit="10" stroke-width="1.25"/>
          <line x1="106.39" y1="220.28" x2="71.67" y2="245.02" fill="none" stroke="#8acaff" stroke-miterlimit="10" stroke-width="1.25"/>
          <line x1="188.49" y1="161.77" x2="178.6" y2="168.82" fill="none" stroke="#8acaff" stroke-miterlimit="10" stroke-width="1.25"/>
        </g>
        <rect x="5.1" y="181.92" width="115.78" height="21.74" transform="translate(255.78 129.79) rotate(90)" fill="#fff" stroke="#8acaff" stroke-miterlimit="10" stroke-width="1.25"/>
        <line x1="58.79" y1="134.9" x2="58.79" y2="145.52" fill="none" stroke="#8acaff" stroke-miterlimit="10" stroke-width="1.25"/>
        <line x1="65.95" y1="134.9" x2="65.95" y2="155.69" fill="none" stroke="#8acaff" stroke-miterlimit="10" stroke-width="1.25"/>
        <line x1="65.95" y1="250.68" x2="65.95" y2="243.07" fill="none" stroke="#8acaff" stroke-miterlimit="10" stroke-width="1.25"/>
        <line x1="58.79" y1="250.68" x2="58.79" y2="235.78" fill="none" stroke="#8acaff" stroke-miterlimit="10" stroke-width="1.25"/>
        <g>
          <rect x="52.12" y="113.21" width="168.4" height="21.69" fill="#fff" stroke="#8acaff" stroke-miterlimit="10" stroke-width="1.25"/>
          <ellipse cx="62.33" cy="127.64" rx="1.8" ry="1.8" fill="#8acaff"/>
          <ellipse cx="209.65" cy="127.64" rx="1.8" ry="1.8" fill="#8acaff"/>
        </g>
        <rect x="151.76" y="181.92" width="115.78" height="21.74" transform="translate(402.44 -16.87) rotate(90)" fill="#fff" stroke="#8acaff" stroke-miterlimit="10" stroke-width="1.25"/>
        <line x1="206.2" y1="134.9" x2="206.2" y2="145.52" fill="none" stroke="#8acaff" stroke-miterlimit="10" stroke-width="1.25"/>
        <line x1="213.36" y1="134.9" x2="213.36" y2="155.69" fill="none" stroke="#8acaff" stroke-miterlimit="10" stroke-width="1.25"/>
        <line x1="206.2" y1="250.68" x2="206.2" y2="243.07" fill="none" stroke="#8acaff" stroke-miterlimit="10" stroke-width="1.25"/>
        <line x1="213.36" y1="250.68" x2="213.36" y2="235.78" fill="none" stroke="#8acaff" stroke-miterlimit="10" stroke-width="1.25"/>
        <rect x="52.12" y="250.68" width="168.4" height="28.19" fill="#fff" stroke="#8acaff" stroke-miterlimit="10" stroke-width="1.25"/>
        <ellipse cx="62.33" cy="269.77" rx="1.8" ry="1.8" fill="#8acaff"/>
        <ellipse cx="209.65" cy="269.77" rx="1.8" ry="1.8" fill="#8acaff"/>
        <path d="M179.87,220.78v8.47a6,6,0,0,1-6,6H98.78a6,6,0,0,1-6-6V154.16a6,6,0,0,1,6-6h75.09a6,6,0,0,1,6,6Z" fill="#0092d3"/>
        <path d="M176.16,218.3v10.24a3,3,0,0,1-3,3H99.49a3,3,0,0,1-3-3V154.87a3,3,0,0,1,3-3h73.67a3,3,0,0,1,3,3Z" fill="none" stroke="#fff" stroke-miterlimit="10"/>
        <g clip-path="url(#a)">
          <rect x="101.55" y="160.14" width="69.26" height="62.74" rx="4.59" ry="4.59" fill="none"/>
          <g>
            <path d="M123.93,167.4c-.26-2.86,2-3.75,3.4-4,2.31-.78,4.79,1.69,6.29,3.13,1.7,1.63,3.23,3.92,3,6.39-.22,2.19-9.26,3.27-10-.11-.27-1.17-.81-2.65-1.1-4.12Z" fill="#fff" stroke="#8acaff" stroke-miterlimit="10" stroke-width="1.5"/>
            <path d="M48.5,234.45c2.59,12.24,6.5,25.66,17.78,32.44,6.13,3.69,12.71,6.73,19,10.05q7.31,3.82,14.63,7.6c4.58,2.36,10.07,6.54,15.2,7.16a14.6,14.6,0,0,0,4.79-.38A38,38,0,0,0,134,285.13a48.41,48.41,0,0,0,5.29-4.19,6.48,6.48,0,0,0,2.13-3.6c.73-5.09-7.14-4.48-10.19-4-5,.78-8.78,1.3-13.11-1.6a71.6,71.6,0,0,1-9.45-7.94c-4.14-3.94-8.11-8.1-11.85-12.43C96.81,251.35,58.4,214,48.5,234.45Z" fill="#423e3d"/>
            <path d="M-42.32,284c.37-2.66.92-4.87.92-4.87L1.81,237.12l33.4-6c-.19,0-.92,5.24-1,5.6A71.41,71.41,0,0,1,30,249.88a49.13,49.13,0,0,1-9.22,14.46c-7.41,7.8-18.14,11.23-26.37,18-2.6,2.15-7.39,6.82-3.68,10.16,1.42,1.27,3.35,1.77,5,2.65,7,3.65,1.65,9.95-3.88,10.93C-22.79,308.72-34.31,294.47-42.32,284Z" fill="#423e3d"/>
            <path d="M-87.25,288.71a28.78,28.78,0,0,1-.07-5.12c.09-2.27.52-4.52,2.14-6,2.09-2,5.19-1.82,8.13-2.09s6.42-4.47,8.75-7.88c2.47-3.64,4.7-7.6,8-10.6,2.15-2,7.7-4.33,7.55-7.78-1-24.06,15.73-47.39,38.19-55.29,12.12-4.27,23-2.75,35.33-1a66.57,66.57,0,0,0,15.13,0A84.34,84.34,0,0,0,70,182.62a45.67,45.67,0,0,1,12.63-4.35c6.24-1.36,13.78-.59,19.39-3.62,6.28-3.39,13.32-6.65,20.66-6.9A35.42,35.42,0,0,1,143,173.51a24,24,0,0,1,7,7.25c1.79,2.79,2.39,6.12,4.13,8.87a6.46,6.46,0,0,0,1,1.18c-2.43,1-3.48,3.47-4.42,5.76-1.14,2.77-2.22,5-5,6.51-4.17,2.32-10.51,3-11,8.92l-1.36,0c-3.82.23-7.86.11-10.51,3.33-3.71,4.51-6.93,9.9-11.27,14-5,4.79-11.55,6.79-17.68,9.72-8.51,4.06-14.92,10.56-22.73,15.38a75.08,75.08,0,0,1-16.25,7.37c-11.75,3.83-24.21,5.31-36.53,5.55-7.81.14-15.49.05-23.11-.54-5.92,8.56-16.34,14.93-24.78,20-7.82,4.67-15.62,9.25-24.69,11-4.08.8-8.27,1-12.28,2.09l-.09,0a12.08,12.08,0,0,0-3.84,1.93,1.8,1.8,0,0,0-.2.19,7.38,7.38,0,0,0-1.55,4.48c.5,1.78,4,5.24,2.7,7.1a3.6,3.6,0,0,1-2,1.21c-4.62,1.45-8.56.61-11.26-3.35a20.63,20.63,0,0,1-2.81-7.76A75,75,0,0,1-87.25,288.71Z" fill="#fff" stroke="#8acaff" stroke-miterlimit="10" stroke-width="1.5"/>
            <path d="M70.63,217.93S52.37,220.79,40,235.81,0,248.9,0,248.9l-4.33.4-.52,17.58s44.74,4.39,70.57-9.44Z" fill="#0092d3" style="mix-blend-mode: multiply"/>
            <path d="M124.85,240.15c-3.68-2.84-7.68-5.05-11.6-7.94-8.65-6.37-9.5-16-15.94-23.72a15,15,0,0,0-3-2.79c-3.51-2.43-8-2.93-12.27-2.79a48.82,48.82,0,0,0-21.83,6c-4.63,2.55-9,6.1-10.93,11a16.46,16.46,0,0,0-1,7.36,4.33,4.33,0,0,0-.42,1.62l.82,1a22.53,22.53,0,0,0,.74,2.64c1.53,6.78,8.3,27.09,35.13,34h0c10.06,3.72,20.74,2.62,31.59,2.23h0C120.91,266.82,124.83,240.28,124.85,240.15Z" fill="#fff"/>
            <path d="M153.79,249.23s3.64-2.35,5.26-2.36L155,250.71Z" fill="#cececf"/>
            <path d="M156.41,250.46s3.64-2.35,5.26-2.36l-4.06,3.84Z" fill="#cececf"/>
            <path d="M157.19,253.14s3.64-2.35,5.26-2.36l-4.06,3.84Z" fill="#cececf"/>
            <path d="M149.49,249.86c-1.84.77-3.48,2-5.38,2.57a9,9,0,0,1-2.84.4c.82,3.59-1,16.13-3.63,18.3l1.11,0c5.48,0,10.1-2.72,14.44-5.78,3.07-2.16,6.78-5.36,6.43-9.52A7.44,7.44,0,0,0,149.49,249.86Z" fill="#6b6a6a"/>
            <path d="M139.16,274.2s3.64-2.35,5.26-2.36l-4.06,3.84Z" fill="#cececf"/>
            <path d="M139.78,275.65s3.64-2.35,5.26-2.36L141,277.13Z" fill="#cececf"/>
            <path d="M134.79,187.18h-.06l-2.53,0a.31.31,0,0,1-.33-.31.32.32,0,0,1,.32-.33l2.54,0a.31.31,0,0,1,.32.31A.32.32,0,0,1,134.79,187.18Z" fill="#0092d3" style="mix-blend-mode: multiply"/>
            <path d="M133.94,189h-2.32a.32.32,0,0,1,0-.64h2.26a.32.32,0,0,1,.32.32A.32.32,0,0,1,133.94,189Z" fill="#0092d3" style="mix-blend-mode: multiply"/>
            <path d="M133.21,191.36h-2.07a.32.32,0,0,1,0-.64h2a.32.32,0,0,1,.32.32A.32.32,0,0,1,133.21,191.36Z" fill="#0092d3" style="mix-blend-mode: multiply"/>
            <path d="M131.4,194a.32.32,0,0,1-.37-.25.32.32,0,0,1,.24-.38l1.85-.43a.32.32,0,0,1,.38.24.33.33,0,0,1-.24.39l-1.84.42Z" fill="#0092d3" style="mix-blend-mode: multiply"/>
            <path d="M136.9,192.31a.32.32,0,0,1-.37-.24.33.33,0,0,1,.24-.39l1.84-.42a.32.32,0,1,1,.15.62l-1.85.43Z" fill="#0092d3" style="mix-blend-mode: multiply"/>
            <path d="M132.35,196.34a.32.32,0,0,1-.19-.6l1.82-.84a.31.31,0,0,1,.42.15.31.31,0,0,1-.15.43l-1.82.84Z" fill="#0092d3" style="mix-blend-mode: multiply"/>
            <path d="M133.21,198.27a.32.32,0,0,1-.24-.58l1.49-1.07a.31.31,0,0,1,.44.07.31.31,0,0,1-.07.45l-1.49,1.07A.31.31,0,0,1,133.21,198.27Z" fill="#0092d3" style="mix-blend-mode: multiply"/>
            <path d="M134.45,199.85a.31.31,0,0,1-.3-.1.32.32,0,0,1,0-.45l1.44-1.27a.33.33,0,1,1,.43.49l-1.45,1.26A.23.23,0,0,1,134.45,199.85Z" fill="#0092d3" style="mix-blend-mode: multiply"/>
            <path d="M135.88,201.15a.28.28,0,0,1-.25-.06.32.32,0,0,1-.06-.45l1.18-1.53a.33.33,0,0,1,.45-.06.32.32,0,0,1,.06.45L136.08,201A.28.28,0,0,1,135.88,201.15Z" fill="#0092d3" style="mix-blend-mode: multiply"/>
            <path d="M129.58,199.64a.35.35,0,0,1-.34-.17.32.32,0,0,1,.13-.43l1.69-.92a.32.32,0,1,1,.31.56l-1.69.92Z" fill="#0092d3" style="mix-blend-mode: multiply"/>
            <path d="M128.52,198.07a.32.32,0,0,1-.34-.17.33.33,0,0,1,.14-.44l1.83-.93a.32.32,0,0,1,.29.57l-1.83.94Z" fill="#0092d3" style="mix-blend-mode: multiply"/>
            <path d="M127.64,195.67a.32.32,0,0,1-.37-.25.32.32,0,0,1,.24-.38l1.88-.44a.33.33,0,0,1,.38.25.32.32,0,0,1-.24.38l-1.88.43Z" fill="#0092d3" style="mix-blend-mode: multiply"/>
            <path d="M128.43,193.26h0l-1.92.12a.32.32,0,0,1-.34-.3.32.32,0,0,1,.3-.34l1.92-.12a.32.32,0,0,1,.34.3A.32.32,0,0,1,128.43,193.26Z" fill="#0092d3" style="mix-blend-mode: multiply"/>
            <path d="M128.17,191.13h-.07l-2.19,0a.31.31,0,0,1-.31-.32.32.32,0,0,1,.32-.32l2.2.05a.32.32,0,0,1,.31.33A.31.31,0,0,1,128.17,191.13Z" fill="#0092d3" style="mix-blend-mode: multiply"/>
            <path d="M128.46,189.16h-.1l-2.24-.27a.32.32,0,0,1-.28-.36.33.33,0,0,1,.36-.28l2.24.27a.32.32,0,0,1,.28.36A.34.34,0,0,1,128.46,189.16Z" fill="#0092d3" style="mix-blend-mode: multiply"/>
            <path d="M128.62,187.26a.33.33,0,0,1-.14,0l-2.06-.55a.32.32,0,0,1-.23-.39.32.32,0,0,1,.39-.23l2.07.54a.32.32,0,0,1,0,.63Z" fill="#0092d3" style="mix-blend-mode: multiply"/>
            <path d="M129.27,185.62a.33.33,0,0,1-.17,0l-2.15-.76a.31.31,0,0,1-.19-.41.32.32,0,0,1,.41-.19l2.15.75a.33.33,0,0,1,.19.41A.3.3,0,0,1,129.27,185.62Z" fill="#0092d3" style="mix-blend-mode: multiply"/>
            <path d="M130,183.78a.3.3,0,0,1-.16,0l-1.83-.65a.32.32,0,0,1-.19-.41.33.33,0,0,1,.41-.2l1.83.65a.32.32,0,0,1,.19.41A.32.32,0,0,1,130,183.78Z" fill="#0092d3" style="mix-blend-mode: multiply"/>
            <path d="M130.36,182.21a.33.33,0,0,1-.21,0l-1.78-1a.31.31,0,0,1-.13-.43.32.32,0,0,1,.43-.13l1.79,1a.32.32,0,0,1-.1.6Z" fill="#0092d3" style="mix-blend-mode: multiply"/>
            <path d="M131.45,179.63a.39.39,0,0,1-.21,0l-1.79-1a.32.32,0,0,1-.12-.44.32.32,0,0,1,.43-.13l1.79,1a.33.33,0,0,1,.13.44A.3.3,0,0,1,131.45,179.63Z" fill="#0092d3" style="mix-blend-mode: multiply"/>
            <path d="M129.87,175.12a.32.32,0,0,1-.21,0l-1.79-1a.32.32,0,1,1,.31-.56l1.79,1a.32.32,0,0,1,.13.43A.36.36,0,0,1,129.87,175.12Z" fill="#0092d3" style="mix-blend-mode: multiply"/>
            <path d="M132.44,177.6a.32.32,0,0,1-.21,0l-1.79-1a.32.32,0,0,1-.13-.43.32.32,0,0,1,.44-.13l1.79,1a.32.32,0,0,1,.13.43A.36.36,0,0,1,132.44,177.6Z" fill="#0092d3" style="mix-blend-mode: multiply"/>
            <path d="M133.64,175.67a.32.32,0,0,1-.21,0l-1.79-1a.32.32,0,0,1-.12-.44.31.31,0,0,1,.43-.12l1.79,1a.32.32,0,0,1,.13.43A.33.33,0,0,1,133.64,175.67Z" fill="#0092d3" style="mix-blend-mode: multiply"/>
            <g>
              <path d="M138.73,189.69h-2.31a.33.33,0,0,1-.33-.32.32.32,0,0,1,.32-.32h2.26a.32.32,0,0,1,.06.64Z" fill="#0092d3" style="mix-blend-mode: multiply"/>
              <path d="M139,187.65a.35.35,0,0,1-.2,0l-1.7-.91a.32.32,0,0,1-.13-.44.32.32,0,0,1,.43-.13l1.7.91a.32.32,0,0,1,.13.43A.33.33,0,0,1,139,187.65Z" fill="#0092d3" style="mix-blend-mode: multiply"/>
            </g>
            <path d="M123.85,184.13h-.14l-2.23-.6a.31.31,0,0,1-.22-.39.31.31,0,0,1,.39-.23l2.23.6a.32.32,0,0,1,.23.39A.31.31,0,0,1,123.85,184.13Z" fill="#0092d3" style="mix-blend-mode: multiply"/>
            <path d="M123.67,186.55h-.13l-2.83-.65a.32.32,0,0,1,.14-.63l2.83.65a.33.33,0,0,1,.25.38A.35.35,0,0,1,123.67,186.55Z" fill="#0092d3" style="mix-blend-mode: multiply"/>
            <path d="M123.33,189a.22.22,0,0,1-.08,0l-3.32-.2a.32.32,0,1,1,0-.64l3.33.2a.32.32,0,0,1,0,.64Z" fill="#0092d3" style="mix-blend-mode: multiply"/>
            <path d="M123.4,191.19h-.07l-2.5-.11a.32.32,0,0,1,0-.64l2.5.11a.32.32,0,0,1,.3.34A.31.31,0,0,1,123.4,191.19Z" fill="#0092d3" style="mix-blend-mode: multiply"/>
            <path d="M123.58,193.59h0l-2.26.06a.32.32,0,1,1,0-.64l2.26-.06a.32.32,0,0,1,.33.31A.32.32,0,0,1,123.58,193.59Z" fill="#0092d3" style="mix-blend-mode: multiply"/>
            <path d="M124.14,196h0l-2.4.23a.33.33,0,0,1-.35-.29.32.32,0,0,1,.29-.35l2.4-.23a.31.31,0,0,1,.35.29A.32.32,0,0,1,124.14,196Z" fill="#0092d3" style="mix-blend-mode: multiply"/>
            <path d="M123.17,198.47a.32.32,0,0,1-.12-.63l1.81-.42a.32.32,0,1,1,.14.62l-1.81.42Z" fill="#0092d3" style="mix-blend-mode: multiply"/>
            <path d="M124.47,199.93a.32.32,0,0,1-.37-.25.32.32,0,0,1,.24-.38l1.89-.44a.32.32,0,0,1,.39.24.33.33,0,0,1-.24.39l-1.9.43Z" fill="#0092d3" style="mix-blend-mode: multiply"/>
            <path d="M118.36,185.36h-.06l-2.7,0a.33.33,0,1,1,0-.65l2.7,0a.32.32,0,0,1,.32.32A.33.33,0,0,1,118.36,185.36Z" fill="#0092d3" style="mix-blend-mode: multiply"/>
            <path d="M113.13,188.42h0l-3.53.72a.32.32,0,0,1-.13-.63l3.53-.72a.32.32,0,0,1,.38.25A.33.33,0,0,1,113.13,188.42Z" fill="#0092d3" style="mix-blend-mode: multiply"/>
            <path d="M118.05,188.23h-3a.33.33,0,0,1-.28-.32.28.28,0,0,1,.25-.32H118a.32.32,0,0,1,.28.32A.28.28,0,0,1,118.05,188.23Z" fill="#0092d3" style="mix-blend-mode: multiply"/>
            <path d="M118.32,191.13h-3a.31.31,0,0,1-.28-.32.27.27,0,0,1,.24-.32h2.92a.32.32,0,0,1,.28.32A.3.3,0,0,1,118.32,191.13Z" fill="#0092d3" style="mix-blend-mode: multiply"/>
            <path d="M112.53,191.08h0l-3.12.48a.32.32,0,0,1-.37-.27.32.32,0,0,1,.27-.36l3.12-.48a.32.32,0,0,1,.15.62Z" fill="#0092d3" style="mix-blend-mode: multiply"/>
            <path d="M112.82,193.89h-.06l-2.14,0a.32.32,0,1,1,0-.64l2.15,0a.32.32,0,0,1,0,.63Z" fill="#0092d3" style="mix-blend-mode: multiply"/>
            <path d="M110.36,197.11a.32.32,0,1,1-.11-.63l3.08-.55h0a.32.32,0,0,1,.37.26.32.32,0,0,1-.26.37l-3.08.55Z" fill="#0092d3" style="mix-blend-mode: multiply"/>
            <path d="M111.84,199.88a.3.3,0,0,1-.35-.18.32.32,0,0,1,.16-.43l2.61-1.16a.32.32,0,0,1,.26.59l-2.61,1.16Z" fill="#0092d3" style="mix-blend-mode: multiply"/>
            <path d="M113.85,202.38a.32.32,0,0,1-.35-.19.32.32,0,0,1,.17-.42l1.86-.79a.31.31,0,0,1,.42.17.32.32,0,0,1-.16.42l-1.86.79Z" fill="#0092d3" style="mix-blend-mode: multiply"/>
            <path d="M115.49,204.24a.32.32,0,0,1-.32-.14.31.31,0,0,1,.09-.44l2.18-1.44a.32.32,0,0,1,.44.1.31.31,0,0,1-.09.44l-2.18,1.43A.17.17,0,0,1,115.49,204.24Z" fill="#0092d3" style="mix-blend-mode: multiply"/>
            <path d="M119.72,201.93a.32.32,0,0,1-.32-.14.31.31,0,0,1,.09-.44l2.18-1.43a.31.31,0,0,1,.44.09.31.31,0,0,1-.09.44l-2.17,1.44Z" fill="#0092d3" style="mix-blend-mode: multiply"/>
            <path d="M118.07,200a.32.32,0,0,1-.32-.14.32.32,0,0,1,.09-.45l2.18-1.43a.31.31,0,0,1,.44.09.32.32,0,0,1-.09.45l-2.18,1.43Z" fill="#0092d3" style="mix-blend-mode: multiply"/>
            <path d="M116.7,197.43a.32.32,0,0,1-.06-.62l2.49-.78a.32.32,0,0,1,.19.61l-2.49.78A.29.29,0,0,1,116.7,197.43Z" fill="#0092d3" style="mix-blend-mode: multiply"/>
            <path d="M115.69,194.26a.31.31,0,0,1-.23-.27.31.31,0,0,1,.28-.35l2.58-.34a.32.32,0,0,1,.36.27.33.33,0,0,1-.28.37l-2.58.33A.28.28,0,0,1,115.69,194.26Z" fill="#0092d3" style="mix-blend-mode: multiply"/>
            <path d="M117.65,206.11a.32.32,0,0,1-.31-.11.33.33,0,0,1,0-.45l2.26-1.89a.32.32,0,0,1,.41.49l-2.25,1.9A.32.32,0,0,1,117.65,206.11Z" fill="#0092d3" style="mix-blend-mode: multiply"/>
            <path d="M121.76,203.81a.31.31,0,0,1-.3-.11.31.31,0,0,1,0-.45l2.25-1.9a.33.33,0,0,1,.42.5l-2.26,1.89A.34.34,0,0,1,121.76,203.81Z" fill="#0092d3" style="mix-blend-mode: multiply"/>
            <path d="M121,207.8a.31.31,0,0,1-.27-.08.33.33,0,0,1,0-.45l1.92-2.16a.32.32,0,0,1,.48.42l-1.92,2.17A.29.29,0,0,1,121,207.8Z" fill="#0092d3" style="mix-blend-mode: multiply"/>
            <path d="M117.88,213.54a.31.31,0,0,1-.29-.09.33.33,0,0,1,0-.46l3.14-2.91a.33.33,0,0,1,.46,0,.32.32,0,0,1,0,.45L118,213.46A.27.27,0,0,1,117.88,213.54Z" fill="#0092d3" style="mix-blend-mode: multiply"/>
            <path d="M116,211.79a.32.32,0,0,1-.28-.55l2.38-2.36a.32.32,0,0,1,.45,0,.32.32,0,0,1,0,.46l-2.38,2.36A.32.32,0,0,1,116,211.79Z" fill="#0092d3" style="mix-blend-mode: multiply"/>
            <path d="M114.37,209.85a.3.3,0,0,1-.3-.12.32.32,0,0,1,.05-.45l1.52-1.23a.32.32,0,1,1,.41.49l-1.53,1.24A.35.35,0,0,1,114.37,209.85Z" fill="#0092d3" style="mix-blend-mode: multiply"/>
            <path d="M109.34,210.57a.33.33,0,0,1-.31-.11.32.32,0,0,1,0-.45l4.38-3.55a.32.32,0,0,1,.41.5l-4.39,3.55A.35.35,0,0,1,109.34,210.57Z" fill="#0092d3" style="mix-blend-mode: multiply"/>
            <path d="M105.65,208.89a.31.31,0,0,1-.31-.12.32.32,0,0,1,0-.45l5.16-4a.32.32,0,1,1,.39.51l-5.15,4A.35.35,0,0,1,105.65,208.89Z" fill="#0092d3" style="mix-blend-mode: multiply"/>
            <path d="M103.11,206.18a.33.33,0,0,1-.33-.15.32.32,0,0,1,.11-.44l5.68-3.55a.35.35,0,0,1,.45.1.34.34,0,0,1-.11.45l-5.68,3.54A.31.31,0,0,1,103.11,206.18Z" fill="#0092d3" style="mix-blend-mode: multiply"/>
            <path d="M102.17,202.12a.33.33,0,0,1-.35-.19.32.32,0,0,1,.17-.42l5.07-2.2a.32.32,0,0,1,.42.17.32.32,0,0,1-.17.42l-5.07,2.2Z" fill="#0092d3" style="mix-blend-mode: multiply"/>
            <path d="M99.87,193.33a.31.31,0,0,1-.36-.21.33.33,0,0,1,.19-.41l4.77-1.7a.32.32,0,1,1,.21.6l-4.76,1.71Z" fill="#0092d3" style="mix-blend-mode: multiply"/>
            <path d="M97.64,191.34a.34.34,0,0,1-.36-.2.33.33,0,0,1,.18-.42l4.77-1.89a.32.32,0,0,1,.42.18.32.32,0,0,1-.18.41l-4.77,1.9Z" fill="#0092d3" style="mix-blend-mode: multiply"/>
            <path d="M96.9,188.16a.3.3,0,0,1-.35-.2.31.31,0,0,1,.18-.41l2.39-.93a.32.32,0,1,1,.23.6l-2.39.92Z" fill="#0092d3" style="mix-blend-mode: multiply"/>
            <path d="M95.12,186.9a.32.32,0,0,1-.33-.16.31.31,0,0,1,.12-.43l2.46-1.41a.32.32,0,1,1,.32.55l-2.46,1.41Z" fill="#0092d3" style="mix-blend-mode: multiply"/>
            <path d="M102,182.08a.32.32,0,0,1-.15-.62l3.11-1a.32.32,0,0,1,.19.62l-3.11,1Z" fill="#0092d3" style="mix-blend-mode: multiply"/>
            <path d="M100.85,179.08a.32.32,0,0,1-.15-.62l3.12-1a.32.32,0,0,1,.4.22.32.32,0,0,1-.21.4l-3.12,1Z" fill="#0092d3" style="mix-blend-mode: multiply"/>
            <g>
              <path d="M110.05,182.93a.31.31,0,0,1-.36-.22.31.31,0,0,1,.21-.4l3.11-1a.33.33,0,0,1,.41.21.32.32,0,0,1-.22.4l-3.11,1Z" fill="#0092d3" style="mix-blend-mode: multiply"/>
              <path d="M109.32,186.09a.33.33,0,0,1-.37-.22.32.32,0,0,1,.22-.4l3.11-1a.33.33,0,0,1,.4.21.31.31,0,0,1-.21.4l-3.11,1Z" fill="#0092d3" style="mix-blend-mode: multiply"/>
            </g>
            <g>
              <path d="M111.17,175.94a.32.32,0,0,1-.15-.63l3.11-1a.33.33,0,0,1,.41.21.32.32,0,0,1-.22.4l-3.11,1Z" fill="#0092d3" style="mix-blend-mode: multiply"/>
              <path d="M110.44,179.09a.32.32,0,0,1-.15-.62l3.11-1a.32.32,0,0,1,.19.61l-3.11,1Z" fill="#0092d3" style="mix-blend-mode: multiply"/>
            </g>
            <path d="M102.48,184.8a.31.31,0,0,1-.36-.22.31.31,0,0,1,.21-.4l3-.93a.32.32,0,0,1,.4.21.34.34,0,0,1-.21.41l-3,.92Z" fill="#0092d3" style="mix-blend-mode: multiply"/>
            <path d="M103.49,186.89a.32.32,0,0,1-.37-.22.33.33,0,0,1,.22-.4l2.93-.87a.32.32,0,0,1,.18.62l-2.93.87Z" fill="#0092d3" style="mix-blend-mode: multiply"/>
            <path d="M104.93,194.77a.31.31,0,0,1-.36-.24.32.32,0,0,1,.24-.39l2.32-.54a.33.33,0,0,1,.39.25.32.32,0,0,1-.24.38l-2.33.54Z" fill="#0092d3" style="mix-blend-mode: multiply"/>
            <g>
              <path d="M134.6,185.37h-.15l-1.89-.54a.32.32,0,1,1,.18-.62l1.89.54a.32.32,0,0,1,.22.4A.34.34,0,0,1,134.6,185.37Z" fill="#0092d3" style="mix-blend-mode: multiply"/>
              <path d="M134.87,184a.24.24,0,0,1-.2,0L133,183a.32.32,0,1,1,.3-.56l1.7.9a.33.33,0,0,1,.13.44A.3.3,0,0,1,134.87,184Z" fill="#0092d3" style="mix-blend-mode: multiply"/>
              <path d="M135.87,182.84a.35.35,0,0,1-.22,0l-1.47-.92a.31.31,0,0,1-.1-.44.32.32,0,0,1,.44-.11l1.47.92a.32.32,0,0,1,.1.44A.34.34,0,0,1,135.87,182.84Z" fill="#0092d3" style="mix-blend-mode: multiply"/>
            </g>
            <g>
              <path d="M137.27,180.26l-.14,0-1.73-.94a.32.32,0,0,1-.13-.43.31.31,0,0,1,.43-.13l1.73.93a.32.32,0,0,1,.13.44A.32.32,0,0,1,137.27,180.26Z" fill="#0092d3" style="mix-blend-mode: multiply"/>
              <path d="M137.84,178.94a.29.29,0,0,1-.19-.08l-1.46-1.25a.32.32,0,1,1,.42-.49l1.46,1.25a.33.33,0,0,1-.23.57Z" fill="#0092d3" style="mix-blend-mode: multiply"/>
              <path d="M139.06,178.07a.4.4,0,0,1-.21-.09l-1.24-1.22a.32.32,0,0,1,0-.45.31.31,0,0,1,.45,0l1.24,1.21a.33.33,0,0,1-.24.55Z" fill="#0092d3" style="mix-blend-mode: multiply"/>
            </g>
            <g>
              <path d="M140.33,182.92l-.14,0-1.73-.94a.31.31,0,0,1-.12-.43.31.31,0,0,1,.43-.13l1.73.93a.33.33,0,0,1,.13.44A.34.34,0,0,1,140.33,182.92Z" fill="#0092d3" style="mix-blend-mode: multiply"/>
              <path d="M140.91,181.6a.39.39,0,0,1-.2-.08l-1.46-1.25a.33.33,0,0,1,0-.46.32.32,0,0,1,.45,0l1.46,1.25a.32.32,0,0,1,0,.45A.35.35,0,0,1,140.91,181.6Z" fill="#0092d3" style="mix-blend-mode: multiply"/>
              <path d="M142.12,180.72a.3.3,0,0,1-.21-.09l-1.23-1.21a.32.32,0,0,1,0-.45.33.33,0,0,1,.46,0l1.23,1.21a.33.33,0,0,1,0,.46A.3.3,0,0,1,142.12,180.72Z" fill="#0092d3" style="mix-blend-mode: multiply"/>
            </g>
            <path d="M139.37,185.55a.37.37,0,0,1-.23,0l-1.46-.92a.31.31,0,0,1-.11-.44.32.32,0,0,1,.45-.1l1.46.91a.32.32,0,0,1,.1.44A.35.35,0,0,1,139.37,185.55Z" fill="#0092d3" style="mix-blend-mode: multiply"/>
            <path d="M41.78,201.39a.33.33,0,0,1-.14-.57l2.91-2.38a.32.32,0,0,1,.45.05.31.31,0,0,1,0,.45l-2.91,2.38A.34.34,0,0,1,41.78,201.39Z" fill="#0092d3" style="mix-blend-mode: multiply"/>
            <path d="M41.47,205.67a.31.31,0,0,1-.19-.11.32.32,0,0,1,0-.45l3.38-2.73a.33.33,0,0,1,.46.05.32.32,0,0,1-.05.45l-3.39,2.73A.31.31,0,0,1,41.47,205.67Z" fill="#0092d3" style="mix-blend-mode: multiply"/>
            <path d="M40.4,211a.37.37,0,0,1-.2-.12.33.33,0,0,1,.07-.45l3.35-2.51a.33.33,0,0,1,.45.07.32.32,0,0,1-.06.45l-3.36,2.5A.29.29,0,0,1,40.4,211Z" fill="#0092d3" style="mix-blend-mode: multiply"/>
            <path d="M39.49,215.09a.35.35,0,0,1-.19-.13.31.31,0,0,1,.06-.44l3.22-2.4a.32.32,0,0,1,.45.06.33.33,0,0,1-.07.45L39.75,215A.31.31,0,0,1,39.49,215.09Z" fill="#0092d3" style="mix-blend-mode: multiply"/>
            <path d="M40.38,218.05a.32.32,0,0,1-.11-.58l3.64-2.35a.32.32,0,0,1,.35.54L40.62,218A.34.34,0,0,1,40.38,218.05Z" fill="#0092d3" style="mix-blend-mode: multiply"/>
            <path d="M41.94,219.86a.36.36,0,0,1-.22-.16.32.32,0,0,1,.12-.44l2.59-1.45a.32.32,0,1,1,.32.55l-2.59,1.46A.35.35,0,0,1,41.94,219.86Z" fill="#0092d3" style="mix-blend-mode: multiply"/>
            <path d="M42.91,222.41a.32.32,0,0,1-.22-.16.31.31,0,0,1,.12-.43l4-2.23a.32.32,0,0,1,.31.56l-4,2.23A.42.42,0,0,1,42.91,222.41Z" fill="#0092d3" style="mix-blend-mode: multiply"/>
            <path d="M33.59,216.58a.32.32,0,0,1-.22-.16.33.33,0,0,1,.14-.44l2.9-1.53a.33.33,0,0,1,.44.14.32.32,0,0,1-.14.43l-2.91,1.53A.3.3,0,0,1,33.59,216.58Z" fill="#0092d3" style="mix-blend-mode: multiply"/>
            <path d="M33.28,213.14a.32.32,0,0,1-.22-.17.31.31,0,0,1,.13-.43L36.1,211a.31.31,0,0,1,.43.13.32.32,0,0,1-.13.43l-2.91,1.53A.32.32,0,0,1,33.28,213.14Z" fill="#0092d3" style="mix-blend-mode: multiply"/>
            <path d="M33,209.61a.36.36,0,0,1-.23-.17.32.32,0,0,1,.14-.43l2.91-1.53a.32.32,0,0,1,.43.13.34.34,0,0,1-.13.44l-2.91,1.53A.39.39,0,0,1,33,209.61Z" fill="#0092d3" style="mix-blend-mode: multiply"/>
            <path d="M33.2,220.7a.34.34,0,0,1-.22-.17.32.32,0,0,1,.13-.43L36,218.57a.31.31,0,0,1,.43.13.32.32,0,0,1-.13.44l-2.91,1.53A.37.37,0,0,1,33.2,220.7Z" fill="#0092d3" style="mix-blend-mode: multiply"/>
            <path d="M33.21,224.31a.37.37,0,0,1-.23-.18.33.33,0,0,1,.16-.43l3.53-1.62a.32.32,0,0,1,.43.15.33.33,0,0,1-.16.43l-3.53,1.62A.34.34,0,0,1,33.21,224.31Z" fill="#0092d3" style="mix-blend-mode: multiply"/>
            <path d="M31.66,227a.31.31,0,0,1-.24-.22.32.32,0,0,1,.21-.4l4-1.26a.33.33,0,0,1,.2.62l-4,1.25A.29.29,0,0,1,31.66,227Z" fill="#0092d3" style="mix-blend-mode: multiply"/>
            <path d="M64.19,270.19h0l0,0Z" fill="none"/>
            <path d="M63.81,270.42a.65.65,0,0,1-.27.05l.63-.27A1.94,1.94,0,0,1,63.81,270.42Z" fill="#6b6a6a"/>
            <path d="M127.63,177.21s-5-6.81-7.92-5.21,3.18,9.29,3.18,9.29Z" fill="#fff" stroke="#8acaff" stroke-miterlimit="10" stroke-width="1.5"/>
            <path d="M123.49,179.86a1.85,1.85,0,0,1-1-.65,7.18,7.18,0,0,1-.75-1.21,13.67,13.67,0,0,0-.85-1.29l-1.43-4c0-.26.07-.52.11-.76a1.13,1.13,0,0,0-.29.25l0-.06s-4,2.43,2.31,9.76l1-.5-.07-.19a1.08,1.08,0,0,0,.47-.07,2,2,0,0,0,.3-.2l1.06-.84a4.56,4.56,0,0,1,.78-.61A2.61,2.61,0,0,1,123.49,179.86Z" fill="#0092d3"/>
            <path d="M123.37,212l-10.52,5.25c.19-.09-11.18-17.7-11.78-18.51a19.65,19.65,0,0,0-3.45-3.88c-1.51-1.18-3.78-1.94-2.46.85a247.46,247.46,0,0,1,11.73,27.68c.74,2.21,1,5.81,4,2.79A121.22,121.22,0,0,0,123.37,212Z" fill="#fff"/>
            <path d="M145.66,203.08c2.74-1.52,3.82-3.74,5-6.51.94-2.29,2-4.73,4.42-5.76h0c1.87,1.77,4.87,2.86,6.91,4.16s5,3.78,4.68,6.53a4.39,4.39,0,0,1-1.3,2.46,26,26,0,0,1-2.7,2.43,29.14,29.14,0,0,1-13.44,6c-4.92.78-9.7-.42-14.59-.38h0C135.15,206.11,141.49,205.4,145.66,203.08Z" fill="#8acaff" stroke="#8acaff" stroke-miterlimit="10" stroke-width="1.5"/>
            <path d="M162.41,198.21a3.35,3.35,0,0,1,2.72,0c1.46.67,3.42,1.57,1.42,4.11-.84,1.06-2,.82-2.93.07C162.44,201.48,160.72,199.54,162.41,198.21Z" fill="#0092d3"/>
            <path d="M104,224.84l5.85,6a77.92,77.92,0,0,0,11-13.05s2.38-3.75,5.73-5l.18.07,1.39-.32a1.42,1.42,0,0,1-.61,0l.6-.09-.13,0a44.12,44.12,0,0,1,6.6-.43s-9.59-3.29-12.68-5.59c-2-1.51-2.69-1.14-2.9-.71a.3.3,0,0,0,0,.08s0,0,0,.06l0,.11a1.42,1.42,0,0,0,0,.21c0,1.16,1.6,2.49,2.32,3.24a13.41,13.41,0,0,0,3.55,2.64,12.27,12.27,0,0,0-8.26,3.36A98.18,98.18,0,0,1,104,224.84Zm19.89-14.4a13.93,13.93,0,0,1-1.3-1.12Z" fill="#8acaff" style="mix-blend-mode: multiply"/>
            <path d="M88.3,205.89a.32.32,0,0,1-.41,0l-4.81-3.59a.31.31,0,0,1-.07-.45.32.32,0,0,1,.45-.06l4.81,3.58a.33.33,0,0,1,.07.45Z" fill="#0092d3" style="mix-blend-mode: multiply"/>
            <path d="M86.06,206.94a.32.32,0,0,1-.44,0l-2.84-2.65a.32.32,0,0,1,0-.45.32.32,0,0,1,.46,0l2.84,2.65a.32.32,0,0,1,0,.45Z" fill="#0092d3" style="mix-blend-mode: multiply"/>
            <path d="M84.78,208.31h0a.32.32,0,0,1-.45,0l-2.68-2.82a.33.33,0,0,1,0-.45h0a.32.32,0,0,1,.45,0l2.67,2.82A.33.33,0,0,1,84.78,208.31Z" fill="#0092d3" style="mix-blend-mode: multiply"/>
            <path d="M83.55,209.63l0,0a.32.32,0,0,1-.45-.06l-2.55-3.28a.32.32,0,1,1,.51-.4l2.55,3.29A.33.33,0,0,1,83.55,209.63Z" fill="#0092d3" style="mix-blend-mode: multiply"/>
            <path d="M82,211.26a.1.1,0,0,1,0,0,.31.31,0,0,1-.44-.1l-2.78-4.41a.32.32,0,0,1,.54-.34l2.78,4.41A.32.32,0,0,1,82,211.26Z" fill="#0092d3" style="mix-blend-mode: multiply"/>
            <path d="M80.73,198.12a.32.32,0,0,1-.41.07l-5.2-3a.3.3,0,0,1-.12-.43.32.32,0,0,1,.44-.12l5.2,3a.31.31,0,0,1,.12.43Z" fill="#0092d3" style="mix-blend-mode: multiply"/>
            <path d="M78.63,199.43a.32.32,0,0,1-.44,0l-3.13-2.29a.33.33,0,0,1-.07-.45.32.32,0,0,1,.45-.07L78.57,199a.31.31,0,0,1,.07.45Z" fill="#0092d3" style="mix-blend-mode: multiply"/>
            <path d="M77.53,200.94h0a.32.32,0,0,1-.45,0l-3-2.48a.33.33,0,0,1,0-.45h0a.33.33,0,0,1,.45,0l3,2.49A.33.33,0,0,1,77.53,200.94Z" fill="#0092d3" style="mix-blend-mode: multiply"/>
            <path d="M76.46,202.4l0,0a.33.33,0,0,1-.46,0l-2.92-3a.32.32,0,0,1,.45-.45l2.93,3A.32.32,0,0,1,76.46,202.4Z" fill="#0092d3" style="mix-blend-mode: multiply"/>
            <path d="M75.14,204.2l0,.05a.33.33,0,0,1-.46-.05l-3.28-4a.32.32,0,0,1,0-.45.31.31,0,0,1,.45,0l3.28,4A.3.3,0,0,1,75.14,204.2Z" fill="#0092d3" style="mix-blend-mode: multiply"/>
            <path d="M82.4,217.5h0a.32.32,0,0,1-.45,0l-4-4.46a.32.32,0,1,1,.48-.43l4,4.46A.31.31,0,0,1,82.4,217.5Z" fill="#0092d3" style="mix-blend-mode: multiply"/>
            <path d="M80,218.09l0,0a.33.33,0,0,1-.45-.07l-2.26-3.16a.32.32,0,0,1,.07-.45.33.33,0,0,1,.45.07L80,217.67A.31.31,0,0,1,80,218.09Z" fill="#0092d3" style="mix-blend-mode: multiply"/>
            <path d="M78.47,219.18l0,0a.32.32,0,0,1-.44-.1l-2.07-3.3a.32.32,0,0,1,.1-.44.33.33,0,0,1,.45.1l2.06,3.3A.31.31,0,0,1,78.47,219.18Z" fill="#0092d3" style="mix-blend-mode: multiply"/>
            <path d="M77,220.24l-.08,0a.32.32,0,0,1-.43-.14l-1.85-3.73a.32.32,0,0,1,.14-.43.33.33,0,0,1,.43.14l1.86,3.73A.34.34,0,0,1,77,220.24Z" fill="#0092d3" style="mix-blend-mode: multiply"/>
            <path d="M75.19,221.54a.41.41,0,0,1-.11.07.33.33,0,0,1-.42-.19l-1.85-4.87a.31.31,0,0,1,.18-.41.33.33,0,0,1,.42.18l1.85,4.87A.32.32,0,0,1,75.19,221.54Z" fill="#0092d3" style="mix-blend-mode: multiply"/>
            <path d="M95.14,214.46a.32.32,0,0,1-.45,0l-4.23-4.26a.33.33,0,0,1,0-.45.32.32,0,0,1,.46,0L95.14,214a.31.31,0,0,1,0,.45Z" fill="#0092d3" style="mix-blend-mode: multiply"/>
            <path d="M92.77,215.17l0,0a.32.32,0,0,1-.45-.06l-2.41-3a.32.32,0,0,1,.05-.45.33.33,0,0,1,.45.05l2.42,3.05A.33.33,0,0,1,92.77,215.17Z" fill="#0092d3" style="mix-blend-mode: multiply"/>
            <path d="M91.3,216.33l0,0a.31.31,0,0,1-.44-.08l-2.23-3.19a.32.32,0,0,1,.08-.45.33.33,0,0,1,.45.08l2.22,3.19A.33.33,0,0,1,91.3,216.33Z" fill="#0092d3" style="mix-blend-mode: multiply"/>
            <path d="M89.88,217.46l-.06,0a.32.32,0,0,1-.44-.12l-2-3.63a.32.32,0,1,1,.55-.31l2,3.63A.32.32,0,0,1,89.88,217.46Z" fill="#0092d3" style="mix-blend-mode: multiply"/>
            <path d="M88.13,218.84a.31.31,0,0,1-.09.07.32.32,0,0,1-.42-.17L85.52,214a.32.32,0,0,1,.17-.42.32.32,0,0,1,.42.16l2.09,4.77A.3.3,0,0,1,88.13,218.84Z" fill="#0092d3" style="mix-blend-mode: multiply"/>
            <path d="M101.19,223.55l0,0a.33.33,0,0,1-.45-.07l-3.58-4.82a.32.32,0,0,1,.07-.45.33.33,0,0,1,.45.07l3.57,4.82A.32.32,0,0,1,101.19,223.55Z" fill="#0092d3" style="mix-blend-mode: multiply"/>
            <path d="M98.74,223.91l-.06,0a.32.32,0,0,1-.44-.11l-2-3.36a.32.32,0,1,1,.56-.32l2,3.35A.35.35,0,0,1,98.74,223.91Z" fill="#0092d3" style="mix-blend-mode: multiply"/>
            <path d="M97.12,224.85l-.08.06a.32.32,0,0,1-.43-.15l-1.74-3.47a.32.32,0,0,1,.14-.43.31.31,0,0,1,.43.14l1.75,3.47A.34.34,0,0,1,97.12,224.85Z" fill="#0092d3" style="mix-blend-mode: multiply"/>
            <path d="M95.56,225.76a.41.41,0,0,1-.11.07.32.32,0,0,1-.41-.18l-1.5-3.89a.32.32,0,0,1,.6-.23l1.5,3.89A.33.33,0,0,1,95.56,225.76Z" fill="#0092d3" style="mix-blend-mode: multiply"/>
            <path d="M93.63,226.89a.47.47,0,0,1-.14.08.32.32,0,0,1-.39-.23l-1.39-5a.31.31,0,0,1,.22-.39.32.32,0,0,1,.4.22l1.39,5A.34.34,0,0,1,93.63,226.89Z" fill="#0092d3" style="mix-blend-mode: multiply"/>
            <g>
              <path d="M104.89,233.07l-.08.05a.32.32,0,0,1-.43-.14l-2.67-5.38a.32.32,0,0,1,.15-.43.33.33,0,0,1,.43.15l2.66,5.37A.32.32,0,0,1,104.89,233.07Z" fill="#0092d3" style="mix-blend-mode: multiply"/>
              <path d="M102.42,233a.32.32,0,0,1-.12.08.32.32,0,0,1-.41-.2l-1.33-3.64a.34.34,0,0,1,.19-.42.32.32,0,0,1,.41.19l1.33,3.65A.32.32,0,0,1,102.42,233Z" fill="#0092d3" style="mix-blend-mode: multiply"/>
              <path d="M100.66,233.63a.33.33,0,0,1-.13.07.32.32,0,0,1-.4-.21L99,229.75a.32.32,0,0,1,.62-.18l1.1,3.73A.33.33,0,0,1,100.66,233.63Z" fill="#0092d3" style="mix-blend-mode: multiply"/>
              <path d="M99,234.25a.34.34,0,0,1-.17.08.31.31,0,0,1-.37-.25L97.63,230a.33.33,0,0,1,.26-.38.32.32,0,0,1,.37.26l.79,4.08A.35.35,0,0,1,99,234.25Z" fill="#0092d3" style="mix-blend-mode: multiply"/>
              <path d="M96.86,235a.34.34,0,0,1-.2.09.32.32,0,0,1-.35-.29l-.47-5.19a.32.32,0,0,1,.29-.35.34.34,0,0,1,.35.29l.47,5.19A.33.33,0,0,1,96.86,235Z" fill="#0092d3" style="mix-blend-mode: multiply"/>
            </g>
            <g>
              <path d="M113.7,241.29l-.06.08a.32.32,0,0,1-.45,0l-4.32-4.17a.33.33,0,0,1,0-.46.32.32,0,0,1,.45,0l4.31,4.18A.31.31,0,0,1,113.7,241.29Z" fill="#0092d3" style="mix-blend-mode: multiply"/>
              <path d="M111.34,242a.27.27,0,0,1-.08.1.31.31,0,0,1-.45,0l-2.48-3a.33.33,0,0,1,0-.45.32.32,0,0,1,.46,0l2.47,3A.34.34,0,0,1,111.34,242Z" fill="#0092d3" style="mix-blend-mode: multiply"/>
              <path d="M109.9,243.23a.4.4,0,0,1-.1.12.33.33,0,0,1-.45-.07l-2.29-3.15a.32.32,0,1,1,.52-.38l2.29,3.15A.33.33,0,0,1,109.9,243.23Z" fill="#0092d3" style="mix-blend-mode: multiply"/>
              <path d="M108.5,244.39a.37.37,0,0,1-.12.13.32.32,0,0,1-.44-.11l-2.11-3.59a.32.32,0,0,1,.55-.33l2.11,3.59A.31.31,0,0,1,108.5,244.39Z" fill="#0092d3" style="mix-blend-mode: multiply"/>
              <path d="M106.78,245.81a.31.31,0,0,1-.15.15.33.33,0,0,1-.43-.16L104,241.07a.32.32,0,0,1,.59-.27l2.18,4.73A.31.31,0,0,1,106.78,245.81Z" fill="#0092d3" style="mix-blend-mode: multiply"/>
            </g>
            <g>
              <path d="M100.68,247.41s0,.05-.06.07a.31.31,0,0,1-.45,0l-4.31-4.17a.32.32,0,1,1,.44-.46l4.31,4.17A.32.32,0,0,1,100.68,247.41Z" fill="#0092d3" style="mix-blend-mode: multiply"/>
              <path d="M98.32,248.15a.44.44,0,0,1-.08.11.33.33,0,0,1-.45,0l-2.48-3a.32.32,0,0,1,0-.45.33.33,0,0,1,.45,0l2.47,3A.29.29,0,0,1,98.32,248.15Z" fill="#0092d3" style="mix-blend-mode: multiply"/>
              <path d="M96.88,249.35a.35.35,0,0,1-.1.11.31.31,0,0,1-.45-.07L94,246.25a.33.33,0,0,1,.07-.45.32.32,0,0,1,.45.07L96.85,249A.35.35,0,0,1,96.88,249.35Z" fill="#0092d3" style="mix-blend-mode: multiply"/>
              <path d="M95.48,250.5a.32.32,0,0,1-.12.14.34.34,0,0,1-.44-.12l-2.11-3.59a.32.32,0,1,1,.56-.32l2.1,3.59A.29.29,0,0,1,95.48,250.5Z" fill="#0092d3" style="mix-blend-mode: multiply"/>
              <path d="M93.76,251.93a.29.29,0,0,1-.15.14.32.32,0,0,1-.43-.15L91,247.19a.32.32,0,0,1,.15-.43.33.33,0,0,1,.43.16l2.19,4.73A.34.34,0,0,1,93.76,251.93Z" fill="#0092d3" style="mix-blend-mode: multiply"/>
            </g>
            <g>
              <path d="M122.28,247.67l0,.08a.33.33,0,0,1-.46,0l-4.31-4.17a.32.32,0,0,1,.45-.46l4.31,4.17A.32.32,0,0,1,122.28,247.67Z" fill="#0092d3" style="mix-blend-mode: multiply"/>
              <path d="M119.93,248.42a.28.28,0,0,1-.09.1.33.33,0,0,1-.45,0l-2.47-3a.33.33,0,0,1,0-.46.33.33,0,0,1,.45,0l2.48,3A.34.34,0,0,1,119.93,248.42Z" fill="#0092d3" style="mix-blend-mode: multiply"/>
              <path d="M118.48,249.61a.31.31,0,0,1-.09.11.32.32,0,0,1-.45-.06l-2.29-3.15a.32.32,0,0,1,.07-.45.33.33,0,0,1,.45.07l2.29,3.15A.31.31,0,0,1,118.48,249.61Z" fill="#0092d3" style="mix-blend-mode: multiply"/>
              <path d="M117.09,250.76a.29.29,0,0,1-.13.14.33.33,0,0,1-.44-.12l-2.1-3.59a.32.32,0,0,1,.11-.44.32.32,0,0,1,.44.12l2.11,3.59A.32.32,0,0,1,117.09,250.76Z" fill="#0092d3" style="mix-blend-mode: multiply"/>
              <path d="M115.37,252.19a.39.39,0,0,1-.16.15.32.32,0,0,1-.42-.16l-2.19-4.73a.33.33,0,0,1,.16-.43.32.32,0,0,1,.42.16l2.19,4.73A.34.34,0,0,1,115.37,252.19Z" fill="#0092d3" style="mix-blend-mode: multiply"/>
            </g>
            <path d="M70,225.5a.29.29,0,0,1-.14.08.32.32,0,0,1-.4-.22l-1.15-4.3a.31.31,0,0,1,.23-.39.32.32,0,0,1,.39.22l1.15,4.3A.29.29,0,0,1,70,225.5Z" fill="#0092d3" style="mix-blend-mode: multiply"/>
            <path d="M68.21,226.78a.39.39,0,0,1-.14.08.32.32,0,0,1-.4-.22l-1.24-4.38a.34.34,0,0,1,.23-.4.31.31,0,0,1,.39.22l1.24,4.38A.33.33,0,0,1,68.21,226.78Z" fill="#0092d3" style="mix-blend-mode: multiply"/>
            <path d="M66.5,227.78a.22.22,0,0,1-.13.08.32.32,0,0,1-.4-.22l-1.23-4.49a.31.31,0,0,1,.22-.39.32.32,0,0,1,.4.22l1.23,4.49A.3.3,0,0,1,66.5,227.78Z" fill="#0092d3" style="mix-blend-mode: multiply"/>
            <path d="M64.66,228.72a.28.28,0,0,1-.15.08.32.32,0,0,1-.39-.24l-.89-3.92a.32.32,0,0,1,.24-.39.32.32,0,0,1,.38.25l.9,3.92A.3.3,0,0,1,64.66,228.72Z" fill="#0092d3" style="mix-blend-mode: multiply"/>
            <g>
              <path d="M67.22,218.94a.29.29,0,0,1-.14.08.31.31,0,0,1-.39-.23l-1.16-4.29a.32.32,0,0,1,.23-.39.31.31,0,0,1,.39.22l1.16,4.3A.33.33,0,0,1,67.22,218.94Z" fill="#0092d3" style="mix-blend-mode: multiply"/>
              <path d="M65.42,220.22l-.14.08a.33.33,0,0,1-.4-.22l-1.23-4.38a.32.32,0,0,1,.22-.4.31.31,0,0,1,.39.22l1.24,4.38A.31.31,0,0,1,65.42,220.22Z" fill="#0092d3" style="mix-blend-mode: multiply"/>
              <path d="M63.72,221.22a.39.39,0,0,1-.14.08.31.31,0,0,1-.39-.22L62,216.59a.32.32,0,0,1,.23-.39.31.31,0,0,1,.39.22l1.23,4.48A.31.31,0,0,1,63.72,221.22Z" fill="#0092d3" style="mix-blend-mode: multiply"/>
              <path d="M61.87,222.16a.28.28,0,0,1-.15.08.33.33,0,0,1-.39-.24l-.89-3.92a.32.32,0,0,1,.24-.39.32.32,0,0,1,.38.24l.9,3.93A.3.3,0,0,1,61.87,222.16Z" fill="#0092d3" style="mix-blend-mode: multiply"/>
            </g>
            <g>
              <path d="M59.58,228.33l-.14.08a.32.32,0,0,1-.39-.23l-1.16-4.3a.33.33,0,0,1,.23-.39.32.32,0,0,1,.39.23L59.67,228A.34.34,0,0,1,59.58,228.33Z" fill="#0092d3" style="mix-blend-mode: multiply"/>
              <path d="M57.78,229.6a.25.25,0,0,1-.14.08.31.31,0,0,1-.39-.22L56,225.08a.32.32,0,1,1,.61-.17l1.24,4.37A.31.31,0,0,1,57.78,229.6Z" fill="#0092d3" style="mix-blend-mode: multiply"/>
              <path d="M56.08,230.61a.37.37,0,0,1-.14.07.32.32,0,0,1-.4-.22L54.31,226a.33.33,0,0,1,.23-.4.32.32,0,0,1,.39.23l1.23,4.48A.31.31,0,0,1,56.08,230.61Z" fill="#0092d3" style="mix-blend-mode: multiply"/>
              <path d="M54.23,231.54a.29.29,0,0,1-.15.09.33.33,0,0,1-.39-.24l-.89-3.93a.32.32,0,0,1,.24-.38.31.31,0,0,1,.38.24l.9,3.92A.3.3,0,0,1,54.23,231.54Z" fill="#0092d3" style="mix-blend-mode: multiply"/>
            </g>
            <g>
              <path d="M20.63,230.57a.37.37,0,0,1-.07-.14.32.32,0,0,1,.27-.37l4.38-.73a.31.31,0,0,1,.37.26.31.31,0,0,1-.26.37l-4.39.73A.32.32,0,0,1,20.63,230.57Z" fill="#0092d3" style="mix-blend-mode: multiply"/>
              <path d="M21.31,227.23a.35.35,0,0,1-.06-.14.32.32,0,0,1,.26-.38L26,225.9a.33.33,0,1,1,.12.64l-4.48.8A.3.3,0,0,1,21.31,227.23Z" fill="#0092d3" style="mix-blend-mode: multiply"/>
              <path d="M21.8,224.72a.35.35,0,0,1-.07-.15.32.32,0,0,1,.26-.37l4.58-.79a.32.32,0,0,1,.37.26.31.31,0,0,1-.26.37l-4.58.8A.31.31,0,0,1,21.8,224.72Z" fill="#0092d3" style="mix-blend-mode: multiply"/>
              <path d="M22.2,221.21a.28.28,0,0,1-.06-.16.32.32,0,0,1,.27-.36l4-.51a.32.32,0,0,1,.08.64l-4,.51A.31.31,0,0,1,22.2,221.21Z" fill="#0092d3" style="mix-blend-mode: multiply"/>
            </g>
            <g>
              <path d="M22,217.3a.26.26,0,0,1-.07-.15.32.32,0,0,1,.25-.38l4.36-.87a.33.33,0,0,1,.38.25.32.32,0,0,1-.26.38l-4.36.87A.31.31,0,0,1,22,217.3Z" fill="#0092d3" style="mix-blend-mode: multiply"/>
              <path d="M22.6,213.93a.37.37,0,0,1-.07-.14.32.32,0,0,1,.25-.38l4.45-.95a.32.32,0,1,1,.13.62l-4.45,1A.32.32,0,0,1,22.6,213.93Z" fill="#0092d3" style="mix-blend-mode: multiply"/>
              <path d="M23,211.41a.26.26,0,0,1-.07-.15.32.32,0,0,1,.25-.38l4.55-.93a.32.32,0,1,1,.13.62l-4.55.94A.32.32,0,0,1,23,211.41Z" fill="#0092d3" style="mix-blend-mode: multiply"/>
              <path d="M23.3,207.89a.33.33,0,0,1-.07-.16.32.32,0,0,1,.27-.37l4-.64a.32.32,0,1,1,.1.64l-4,.64A.33.33,0,0,1,23.3,207.89Z" fill="#0092d3" style="mix-blend-mode: multiply"/>
            </g>
            <g>
              <path d="M12.78,219a.27.27,0,0,1-.07-.14.31.31,0,0,1,.25-.38l4.36-.87a.32.32,0,0,1,.38.25.33.33,0,0,1-.25.38l-4.37.87A.31.31,0,0,1,12.78,219Z" fill="#0092d3" style="mix-blend-mode: multiply"/>
              <path d="M13.35,215.66a.31.31,0,0,1-.07-.14.32.32,0,0,1,.25-.38l4.45-.95a.32.32,0,0,1,.13.63l-4.45,1A.3.3,0,0,1,13.35,215.66Z" fill="#0092d3" style="mix-blend-mode: multiply"/>
              <path d="M13.76,213.14a.27.27,0,0,1-.07-.14.31.31,0,0,1,.25-.38l4.55-.94a.33.33,0,0,1,.38.25.33.33,0,0,1-.25.38l-4.55.94A.32.32,0,0,1,13.76,213.14Z" fill="#0092d3" style="mix-blend-mode: multiply"/>
              <path d="M14.05,209.62a.26.26,0,0,1-.07-.15.32.32,0,0,1,.27-.37l4-.64a.32.32,0,1,1,.1.63l-4,.64A.3.3,0,0,1,14.05,209.62Z" fill="#0092d3" style="mix-blend-mode: multiply"/>
            </g>
            <g>
              <path d="M11.5,232.71a.31.31,0,0,1-.07-.14.33.33,0,0,1,.25-.38l4.36-.87a.32.32,0,1,1,.13.63l-4.36.87A.3.3,0,0,1,11.5,232.71Z" fill="#0092d3" style="mix-blend-mode: multiply"/>
              <path d="M12.07,229.35a.35.35,0,0,1-.06-.14.31.31,0,0,1,.24-.38l4.45-1a.33.33,0,0,1,.38.25.32.32,0,0,1-.24.38l-4.45.95A.34.34,0,0,1,12.07,229.35Z" fill="#0092d3" style="mix-blend-mode: multiply"/>
              <path d="M12.48,226.83a.41.41,0,0,1-.07-.15.33.33,0,0,1,.25-.38l4.55-.94a.32.32,0,0,1,.38.25.31.31,0,0,1-.25.38l-4.55.94A.32.32,0,0,1,12.48,226.83Z" fill="#0092d3" style="mix-blend-mode: multiply"/>
              <path d="M12.77,223.31a.46.46,0,0,1-.07-.16.32.32,0,0,1,.27-.37l4-.64a.32.32,0,0,1,.37.27.32.32,0,0,1-.27.37l-4,.64A.35.35,0,0,1,12.77,223.31Z" fill="#0092d3" style="mix-blend-mode: multiply"/>
            </g>
            <g>
              <path d="M2.38,233.28a.61.61,0,0,1-.07-.14.32.32,0,0,1,.26-.38l4.36-.87a.32.32,0,0,1,.38.25.33.33,0,0,1-.26.38l-4.36.87A.33.33,0,0,1,2.38,233.28Z" fill="#0092d3" style="mix-blend-mode: multiply"/>
              <path d="M3,229.91a.31.31,0,0,1-.07-.14.32.32,0,0,1,.25-.38l4.45-.95a.32.32,0,0,1,.38.25.33.33,0,0,1-.25.38l-4.45,1A.3.3,0,0,1,3,229.91Z" fill="#0092d3" style="mix-blend-mode: multiply"/>
              <path d="M3.36,227.39a.61.61,0,0,1-.07-.14.33.33,0,0,1,.26-.38l4.55-.94a.32.32,0,1,1,.13.63l-4.56.94A.34.34,0,0,1,3.36,227.39Z" fill="#0092d3" style="mix-blend-mode: multiply"/>
              <path d="M3.66,223.87a.26.26,0,0,1-.07-.15.32.32,0,0,1,.26-.37l4-.64a.31.31,0,0,1,.36.26.32.32,0,0,1-.26.37L4,224A.33.33,0,0,1,3.66,223.87Z" fill="#0092d3" style="mix-blend-mode: multiply"/>
            </g>
            <g>
              <path d="M61.8,236.3a.29.29,0,0,1-.14.08.32.32,0,0,1-.39-.23l-1.16-4.29a.34.34,0,0,1,.23-.4.32.32,0,0,1,.39.23l1.16,4.3A.33.33,0,0,1,61.8,236.3Z" fill="#0092d3" style="mix-blend-mode: multiply"/>
              <path d="M60,237.58a.31.31,0,0,1-.14.07.31.31,0,0,1-.39-.22l-1.24-4.37a.32.32,0,0,1,.22-.4.32.32,0,0,1,.4.22l1.24,4.38A.34.34,0,0,1,60,237.58Z" fill="#0092d3" style="mix-blend-mode: multiply"/>
              <path d="M58.3,238.58l-.14.08a.32.32,0,0,1-.39-.23L56.53,234a.32.32,0,0,1,.23-.39.31.31,0,0,1,.39.22l1.24,4.48A.34.34,0,0,1,58.3,238.58Z" fill="#0092d3" style="mix-blend-mode: multiply"/>
              <path d="M56.45,239.52a.28.28,0,0,1-.15.08.32.32,0,0,1-.38-.24l-.9-3.92a.32.32,0,0,1,.24-.39.33.33,0,0,1,.39.24l.89,3.93A.31.31,0,0,1,56.45,239.52Z" fill="#0092d3" style="mix-blend-mode: multiply"/>
            </g>
            <g>
              <path d="M66.31,243.55a.41.41,0,0,1-.1.13.33.33,0,0,1-.45-.08L63.2,240a.33.33,0,0,1,.08-.45.32.32,0,0,1,.45.08l2.56,3.64A.31.31,0,0,1,66.31,243.55Z" fill="#0092d3" style="mix-blend-mode: multiply"/>
              <path d="M65.06,245.37a.29.29,0,0,1-.1.12.33.33,0,0,1-.45-.07l-2.66-3.69a.31.31,0,0,1,.07-.45.32.32,0,0,1,.44.07L65,245A.33.33,0,0,1,65.06,245.37Z" fill="#0092d3" style="mix-blend-mode: multiply"/>
              <path d="M63.81,246.89a.32.32,0,0,1-.11.12.31.31,0,0,1-.44-.07l-2.7-3.79a.32.32,0,0,1,.08-.45.31.31,0,0,1,.44.08l2.7,3.79A.31.31,0,0,1,63.81,246.89Z" fill="#0092d3" style="mix-blend-mode: multiply"/>
              <path d="M62.4,248.41a.37.37,0,0,1-.12.13.32.32,0,0,1-.44-.09l-2.19-3.38a.32.32,0,0,1,.09-.45.33.33,0,0,1,.45.1l2.19,3.38A.34.34,0,0,1,62.4,248.41Z" fill="#0092d3" style="mix-blend-mode: multiply"/>
            </g>
            <g>
              <path d="M72.34,249.91a.23.23,0,0,1-.1.12.32.32,0,0,1-.45-.08l-2.55-3.63a.32.32,0,1,1,.52-.37l2.56,3.64A.31.31,0,0,1,72.34,249.91Z" fill="#0092d3" style="mix-blend-mode: multiply"/>
              <path d="M71.09,251.73a.53.53,0,0,1-.1.12.32.32,0,0,1-.45-.08l-2.66-3.68a.31.31,0,0,1,.07-.45.33.33,0,0,1,.45.07l2.66,3.69A.33.33,0,0,1,71.09,251.73Z" fill="#0092d3" style="mix-blend-mode: multiply"/>
              <path d="M69.84,253.25a.33.33,0,0,1-.55.05l-2.7-3.79a.32.32,0,0,1,.08-.45.31.31,0,0,1,.44.08l2.7,3.78A.33.33,0,0,1,69.84,253.25Z" fill="#0092d3" style="mix-blend-mode: multiply"/>
              <path d="M68.43,254.77a.49.49,0,0,1-.12.13.32.32,0,0,1-.44-.1l-2.19-3.38a.31.31,0,0,1,.09-.44.33.33,0,0,1,.45.1l2.19,3.37A.36.36,0,0,1,68.43,254.77Z" fill="#0092d3" style="mix-blend-mode: multiply"/>
            </g>
            <g>
              <path d="M80.4,254.33a.25.25,0,0,1-.05.15.33.33,0,0,1-.45.07l-3.58-2.64a.31.31,0,0,1-.07-.45.33.33,0,0,1,.45-.07L80.28,254A.32.32,0,0,1,80.4,254.33Z" fill="#0092d3" style="mix-blend-mode: multiply"/>
              <path d="M79.79,256.45a.3.3,0,0,1-.05.15.33.33,0,0,1-.45.07L75.59,254a.32.32,0,0,1,.37-.52l3.7,2.65A.31.31,0,0,1,79.79,256.45Z" fill="#0092d3" style="mix-blend-mode: multiply"/>
              <path d="M79.09,258.29a.34.34,0,0,1-.06.15.31.31,0,0,1-.45.07l-3.76-2.73a.33.33,0,0,1-.07-.45.31.31,0,0,1,.45-.07L79,258A.34.34,0,0,1,79.09,258.29Z" fill="#0092d3" style="mix-blend-mode: multiply"/>
              <path d="M78.23,260.18a.33.33,0,0,1-.07.16.32.32,0,0,1-.45.05l-3.15-2.51a.32.32,0,0,1,.4-.5l3.15,2.51A.33.33,0,0,1,78.23,260.18Z" fill="#0092d3" style="mix-blend-mode: multiply"/>
            </g>
            <path d="M72.92,233.18l-.1.07a.31.31,0,0,1-.42-.18L70.73,229a.32.32,0,0,1,.17-.42.32.32,0,0,1,.42.18L73,232.83A.32.32,0,0,1,72.92,233.18Z" fill="#0092d3" style="mix-blend-mode: multiply"/>
            <path d="M71.29,234.67a.33.33,0,0,1-.1.06.31.31,0,0,1-.42-.17L69,230.37a.32.32,0,0,1,.17-.42.32.32,0,0,1,.42.17l1.77,4.19A.34.34,0,0,1,71.29,234.67Z" fill="#0092d3" style="mix-blend-mode: multiply"/>
            <path d="M69,235.45a.33.33,0,0,1-.1.06.31.31,0,0,1-.42-.18l-1.67-4.12a.31.31,0,0,1,.17-.41.32.32,0,0,1,.42.17l1.67,4.12A.34.34,0,0,1,69,235.45Z" fill="#0092d3" style="mix-blend-mode: multiply"/>
            <path d="M83.8,226.62l-.07,0a.34.34,0,0,1-.44-.13l-2.81-5.21a.32.32,0,0,1,.13-.44A.32.32,0,0,1,81,221l2.82,5.21A.33.33,0,0,1,83.8,226.62Z" fill="#0092d3" style="mix-blend-mode: multiply"/>
            <path d="M81.2,227.15l-.08.06a.32.32,0,0,1-.43-.15l-2.08-4.31a.32.32,0,1,1,.58-.28l2.08,4.31A.32.32,0,0,1,81.2,227.15Z" fill="#0092d3" style="mix-blend-mode: multiply"/>
            <path d="M85.24,224.25s0,0-.06.05a.32.32,0,0,1-.44-.11l-2.06-3.48a.32.32,0,1,1,.55-.33l2.07,3.48A.32.32,0,0,1,85.24,224.25Z" fill="#0092d3" style="mix-blend-mode: multiply"/>
            <path d="M86.64,222.75a.18.18,0,0,1-.07.05.31.31,0,0,1-.43-.12L84.65,220a.32.32,0,0,1,.12-.44.33.33,0,0,1,.44.13l1.49,2.68A.32.32,0,0,1,86.64,222.75Z" fill="#0092d3" style="mix-blend-mode: multiply"/>
            <path d="M79.15,227.48l-.09.06a.32.32,0,0,1-.42-.16L77.12,224a.32.32,0,0,1,.59-.26l1.51,3.4A.31.31,0,0,1,79.15,227.48Z" fill="#0092d3" style="mix-blend-mode: multiply"/>
            <path d="M87.27,234.38l-.07.05a.32.32,0,0,1-.43-.13L84,229.09a.32.32,0,1,1,.56-.31L87.33,234A.33.33,0,0,1,87.27,234.38Z" fill="#0092d3" style="mix-blend-mode: multiply"/>
            <path d="M84.67,234.91a.16.16,0,0,1-.08.06.32.32,0,0,1-.43-.15l-2.08-4.31a.33.33,0,0,1,.15-.43.32.32,0,0,1,.43.15l2.08,4.31A.32.32,0,0,1,84.67,234.91Z" fill="#0092d3" style="mix-blend-mode: multiply"/>
            <path d="M88.72,232l-.06.05a.32.32,0,0,1-.44-.11l-2.07-3.48a.32.32,0,0,1,.12-.44.33.33,0,0,1,.44.11l2.06,3.48A.32.32,0,0,1,88.72,232Z" fill="#0092d3" style="mix-blend-mode: multiply"/>
            <path d="M90.12,230.51l-.07.05a.32.32,0,0,1-.44-.12l-1.49-2.68a.32.32,0,0,1,.57-.31l1.48,2.68A.3.3,0,0,1,90.12,230.51Z" fill="#0092d3" style="mix-blend-mode: multiply"/>
            <path d="M82.63,235.24l-.09.06a.33.33,0,0,1-.43-.16l-1.51-3.4a.31.31,0,0,1,.16-.42.32.32,0,0,1,.42.16l1.52,3.4A.34.34,0,0,1,82.63,235.24Z" fill="#0092d3" style="mix-blend-mode: multiply"/>
            <path d="M90.55,242l-.07.05a.32.32,0,0,1-.44-.13l-2.82-5.21a.32.32,0,0,1,.14-.43.31.31,0,0,1,.43.13l2.82,5.21A.32.32,0,0,1,90.55,242Z" fill="#0092d3" style="mix-blend-mode: multiply"/>
            <path d="M88,242.49l-.08.06a.33.33,0,0,1-.43-.15l-2.08-4.32a.31.31,0,0,1,.15-.42.32.32,0,0,1,.43.15L88,242.12A.32.32,0,0,1,88,242.49Z" fill="#0092d3" style="mix-blend-mode: multiply"/>
            <path d="M92,239.59l-.06,0a.32.32,0,0,1-.44-.12L89.43,236a.33.33,0,0,1,.11-.44.32.32,0,0,1,.44.12L92,239.19A.32.32,0,0,1,92,239.59Z" fill="#0092d3" style="mix-blend-mode: multiply"/>
            <path d="M93.39,238.09a.18.18,0,0,1-.07,0,.31.31,0,0,1-.43-.12l-1.49-2.68A.32.32,0,1,1,92,235l1.49,2.68A.33.33,0,0,1,93.39,238.09Z" fill="#0092d3" style="mix-blend-mode: multiply"/>
            <path d="M85.9,242.81a.22.22,0,0,1-.09.07.32.32,0,0,1-.42-.16l-1.52-3.4a.32.32,0,1,1,.59-.26L86,242.45A.3.3,0,0,1,85.9,242.81Z" fill="#0092d3" style="mix-blend-mode: multiply"/>
            <path d="M33.66,243.2a.32.32,0,0,1,0,.41l-4.19,4.29a.32.32,0,1,1-.46-.44l4.19-4.3a.34.34,0,0,1,.46,0Z" fill="#0092d3" style="mix-blend-mode: multiply"/>
            <path d="M34.4,245.56a.33.33,0,0,1,0,.44l-3,2.46a.32.32,0,0,1-.41-.5l3-2.46a.32.32,0,0,1,.45.05Z" fill="#0092d3" style="mix-blend-mode: multiply"/>
            <path d="M35.59,247h0a.32.32,0,0,1-.08.45l-3.15,2.27a.31.31,0,0,1-.45-.07.32.32,0,0,1,.07-.45l3.16-2.27A.32.32,0,0,1,35.59,247Z" fill="#0092d3" style="mix-blend-mode: multiply"/>
            <path d="M36.73,248.41l0,0a.32.32,0,0,1-.11.44L33,251a.31.31,0,0,1-.44-.12.32.32,0,0,1,.11-.44l3.6-2.09A.32.32,0,0,1,36.73,248.41Z" fill="#0092d3" style="mix-blend-mode: multiply"/>
            <path d="M38.15,250.14a.33.33,0,0,1,0,.06.31.31,0,0,1-.16.42l-4.74,2.16a.31.31,0,0,1-.42-.15.31.31,0,0,1,.16-.43L37.76,250A.31.31,0,0,1,38.15,250.14Z" fill="#0092d3" style="mix-blend-mode: multiply"/>
            <path d="M41.66,238.65a.32.32,0,0,1,0,.41l-4.2,4.29a.32.32,0,0,1-.45,0,.33.33,0,0,1,0-.46l4.2-4.29a.32.32,0,0,1,.45,0S41.65,238.63,41.66,238.65Z" fill="#0092d3" style="mix-blend-mode: multiply"/>
            <path d="M42.39,241a.33.33,0,0,1,0,.44l-3,2.46a.32.32,0,0,1-.45,0,.31.31,0,0,1,0-.45l3-2.46a.33.33,0,0,1,.45,0Z" fill="#0092d3" style="mix-blend-mode: multiply"/>
            <path d="M43.58,242.46h0a.33.33,0,0,1-.07.45l-3.16,2.27a.32.32,0,0,1-.45-.07.33.33,0,0,1,.07-.45l3.16-2.28A.32.32,0,0,1,43.58,242.46Z" fill="#0092d3" style="mix-blend-mode: multiply"/>
            <path d="M44.73,243.86v0a.32.32,0,0,1-.11.44L41,246.41a.32.32,0,0,1-.33-.55l3.61-2.09A.33.33,0,0,1,44.73,243.86Z" fill="#0092d3" style="mix-blend-mode: multiply"/>
            <path d="M46.14,245.59l0,0a.32.32,0,0,1-.15.43l-4.74,2.16a.31.31,0,0,1-.43-.16.32.32,0,0,1,.16-.42l4.74-2.17A.33.33,0,0,1,46.14,245.59Z" fill="#0092d3" style="mix-blend-mode: multiply"/>
            <g>
              <path d="M31.68,256.88a.47.47,0,0,1,.06.15.33.33,0,0,1-.28.36l-4.41.57a.31.31,0,0,1-.36-.27.32.32,0,0,1,.28-.36l4.41-.57A.31.31,0,0,1,31.68,256.88Z" fill="#0092d3" style="mix-blend-mode: multiply"/>
              <path d="M32.7,258.84a.35.35,0,0,1,.06.14.33.33,0,0,1-.27.37L28,260a.32.32,0,0,1-.36-.27.33.33,0,0,1,.27-.37l4.51-.64A.34.34,0,0,1,32.7,258.84Z" fill="#0092d3" style="mix-blend-mode: multiply"/>
              <path d="M33.47,260.66a.25.25,0,0,1,.05.15.32.32,0,0,1-.27.36l-4.61.62a.32.32,0,1,1-.08-.64l4.6-.62A.33.33,0,0,1,33.47,260.66Z" fill="#0092d3" style="mix-blend-mode: multiply"/>
              <path d="M34.15,262.61a.32.32,0,0,1-.23.51l-4,.37a.32.32,0,0,1-.05-.64l4-.37A.34.34,0,0,1,34.15,262.61Z" fill="#0092d3" style="mix-blend-mode: multiply"/>
            </g>
            <g>
              <path d="M22.8,257.32a.34.34,0,0,1,.06.15.33.33,0,0,1-.28.36l-4.41.57a.32.32,0,1,1-.08-.64l4.41-.57A.34.34,0,0,1,22.8,257.32Z" fill="#0092d3" style="mix-blend-mode: multiply"/>
              <path d="M23.82,259.28a.3.3,0,0,1,.06.14.32.32,0,0,1-.27.36l-4.51.65a.33.33,0,0,1-.36-.28.32.32,0,0,1,.27-.36l4.51-.64A.3.3,0,0,1,23.82,259.28Z" fill="#0092d3" style="mix-blend-mode: multiply"/>
              <path d="M24.59,261.09a.27.27,0,0,1,.05.15.31.31,0,0,1-.27.36l-4.61.62a.32.32,0,0,1-.36-.27.32.32,0,0,1,.28-.36l4.6-.62A.33.33,0,0,1,24.59,261.09Z" fill="#0092d3" style="mix-blend-mode: multiply"/>
              <path d="M25.27,263.05a.28.28,0,0,1,.06.16.32.32,0,0,1-.29.35l-4,.36a.32.32,0,0,1-.35-.29.34.34,0,0,1,.3-.35l4-.36A.31.31,0,0,1,25.27,263.05Z" fill="#0092d3" style="mix-blend-mode: multiply"/>
            </g>
            <g>
              <path d="M13.84,258.06a.34.34,0,0,1,.06.15.32.32,0,0,1-.28.36l-4.41.57a.32.32,0,0,1-.36-.28.33.33,0,0,1,.28-.36l4.41-.57A.34.34,0,0,1,13.84,258.06Z" fill="#0092d3" style="mix-blend-mode: multiply"/>
              <path d="M14.86,260a.35.35,0,0,1,.06.14.31.31,0,0,1-.27.36l-4.51.65a.32.32,0,0,1-.09-.64l4.51-.64A.3.3,0,0,1,14.86,260Z" fill="#0092d3" style="mix-blend-mode: multiply"/>
              <path d="M15.63,261.83a.47.47,0,0,1,.06.15.32.32,0,0,1-.28.36l-4.6.63a.32.32,0,0,1-.36-.28.31.31,0,0,1,.27-.36l4.61-.62A.31.31,0,0,1,15.63,261.83Z" fill="#0092d3" style="mix-blend-mode: multiply"/>
              <path d="M16.31,263.79a.25.25,0,0,1,.06.16.32.32,0,0,1-.29.35l-4,.36a.31.31,0,0,1-.35-.29A.31.31,0,0,1,12,264l4-.37A.31.31,0,0,1,16.31,263.79Z" fill="#0092d3" style="mix-blend-mode: multiply"/>
            </g>
            <g>
              <path d="M4.13,258.26a.34.34,0,0,1,.06.15.32.32,0,0,1-.28.36l-4.41.57a.33.33,0,0,1-.36-.28.33.33,0,0,1,.28-.36l4.41-.57A.34.34,0,0,1,4.13,258.26Z" fill="#0092d3" style="mix-blend-mode: multiply"/>
              <path d="M5.16,260.22a.34.34,0,0,1,0,.14.31.31,0,0,1-.27.36l-4.5.65a.33.33,0,0,1-.37-.28.33.33,0,0,1,.28-.36l4.5-.64A.31.31,0,0,1,5.16,260.22Z" fill="#0092d3" style="mix-blend-mode: multiply"/>
              <path d="M5.92,262a.35.35,0,0,1,.06.14.32.32,0,0,1-.27.36l-4.61.63a.32.32,0,0,1-.09-.64l4.61-.62A.3.3,0,0,1,5.92,262Z" fill="#0092d3" style="mix-blend-mode: multiply"/>
              <path d="M6.61,264a.44.44,0,0,1,.06.16.33.33,0,0,1-.29.35l-4,.36a.32.32,0,0,1-.35-.28.33.33,0,0,1,.29-.36l4-.36A.33.33,0,0,1,6.61,264Z" fill="#0092d3" style="mix-blend-mode: multiply"/>
            </g>
            <path d="M39.54,255.85a.25.25,0,0,1,.05.15.32.32,0,0,1-.27.36l-4.41.57a.32.32,0,0,1-.36-.28.31.31,0,0,1,.27-.36l4.42-.57A.34.34,0,0,1,39.54,255.85Z" fill="#0092d3" style="mix-blend-mode: multiply"/>
            <path d="M40.56,257.8a.39.39,0,0,1,.06.15.32.32,0,0,1-.27.36l-4.51.65a.32.32,0,0,1-.36-.28.32.32,0,0,1,.27-.36l4.5-.64A.32.32,0,0,1,40.56,257.8Z" fill="#0092d3" style="mix-blend-mode: multiply"/>
            <path d="M41.33,259.62a.3.3,0,0,1,.05.15.31.31,0,0,1-.27.36l-4.61.62a.32.32,0,1,1-.08-.63l4.6-.63A.36.36,0,0,1,41.33,259.62Z" fill="#0092d3" style="mix-blend-mode: multiply"/>
            <path d="M42,261.58a.28.28,0,0,1,.06.16.32.32,0,0,1-.29.35l-4,.36a.32.32,0,0,1-.35-.29.34.34,0,0,1,.29-.35l4-.36A.31.31,0,0,1,42,261.58Z" fill="#0092d3" style="mix-blend-mode: multiply"/>
            <path d="M46.31,254a.25.25,0,0,1,0,.07.32.32,0,0,1-.19.42L42,256a.32.32,0,1,1-.22-.6l4.16-1.56A.31.31,0,0,1,46.31,254Z" fill="#0092d3" style="mix-blend-mode: multiply"/>
            <path d="M47.75,255.62a.18.18,0,0,1,0,.07.33.33,0,0,1-.19.42l-4.23,1.65a.32.32,0,0,1-.42-.18.32.32,0,0,1,.18-.42l4.24-1.65A.3.3,0,0,1,47.75,255.62Z" fill="#0092d3" style="mix-blend-mode: multiply"/>
            <path d="M48.92,257.21a.59.59,0,0,1,0,.08.32.32,0,0,1-.19.41l-4.34,1.66a.32.32,0,1,1-.23-.6l4.34-1.66A.34.34,0,0,1,48.92,257.21Z" fill="#0092d3" style="mix-blend-mode: multiply"/>
            <path d="M50,259l0,.09a.33.33,0,0,1-.21.41l-3.82,1.27a.32.32,0,0,1-.4-.21.31.31,0,0,1,.2-.4l3.82-1.27A.31.31,0,0,1,50,259Z" fill="#0092d3" style="mix-blend-mode: multiply"/>
            <path d="M53.29,248.54a.32.32,0,0,1,0,.39l-2.77,3.49A.32.32,0,1,1,50,252l2.77-3.48a.33.33,0,0,1,.45-.05Z" fill="#0092d3" style="mix-blend-mode: multiply"/>
            <path d="M54.65,250.13a.33.33,0,0,1,0,.39l-2.78,3.6a.32.32,0,0,1-.51-.4l2.78-3.6a.33.33,0,0,1,.45-.05Z" fill="#0092d3" style="mix-blend-mode: multiply"/>
            <path d="M56,251.61a.32.32,0,0,1,0,.39l-2.88,3.65a.32.32,0,0,1-.45,0,.33.33,0,0,1-.05-.45l2.87-3.65a.31.31,0,0,1,.45,0A.09.09,0,0,1,56,251.61Z" fill="#0092d3" style="mix-blend-mode: multiply"/>
            <path d="M57.37,253.22a.33.33,0,0,1,0,.4l-2.62,3.05a.32.32,0,0,1-.49-.41l2.62-3.06a.33.33,0,0,1,.46,0Z" fill="#0092d3" style="mix-blend-mode: multiply"/>
            <path d="M148.72,190.39c.68,0,1.2.66,1.51,1.17.17.27,0,.44-.24.57a5.63,5.63,0,0,1-.81.49,1.16,1.16,0,1,1-.46-2.23Z" fill="#0092d3"/>
            <path d="M141.6,252.46c-5-.13-9-4.72-12.27-8.27a35.86,35.86,0,0,0-4.48-4c0,.13-3.94,26.67-8.67,28.59h0l1.48-.05c6.92-.2,13.52,1.81,20.32,2.07C140.58,268.59,142.43,256.05,141.6,252.46Z" fill="#fcfcfc"/>
            <path d="M127.93,242.77s-1.81,21.81-7.75,25.94" fill="none" stroke="#cececf" stroke-miterlimit="10" stroke-width="0.52"/>
            <path d="M130.09,245s1.42,14.53-6,24" fill="none" stroke="#cececf" stroke-miterlimit="10" stroke-width="0.52"/>
            <path d="M133.82,248.77s-.69,16.67-5.93,20.78" fill="none" stroke="#cececf" stroke-miterlimit="10" stroke-width="0.52"/>
            <path d="M137.16,251.19s-2.15,8.73-5.52,11.54" fill="none" stroke="#cececf" stroke-miterlimit="10" stroke-width="0.52"/>
            <path d="M135.72,255.75s-.43,10.64-4.25,14.35" fill="none" stroke="#cececf" stroke-miterlimit="10" stroke-width="0.52"/>
            <path d="M137.71,251.46s1.88,15.17-.6,19.26" fill="none" stroke="#cececf" stroke-miterlimit="10" stroke-width="0.52"/>
            <path d="M163.94,205.46c-.33.32-2.21-.1-2.59-.16A10.74,10.74,0,0,1,157.7,204c-.36-.21-1-.88-1.43-.72s-.29.68-.09,1c.64,1,2.84,3.3,5.72,2.88A17,17,0,0,0,163.94,205.46Z" fill="#0092d3"/>
          </g>
          <rect x="101.36" y="160.92" width="69.26" height="62.74" rx="4.59" ry="4.59" fill="none"/>
        </g>
        <g>
          <g>
            <path d="M187.86,236h-5.28c1.41,6.78,5.28,6.38,5.28,6.38s3.87.4,5.28-6.38Z" fill="#8acaff"/>
            <rect x="187.43" y="240.92" width="0.85" height="5.95" fill="#8acaff"/>
            <rect x="185.79" y="245.72" width="4.13" height="1.15" fill="#8acaff"/>
          </g>
          <g>
            <path d="M173.17,241.63h6.57c-1.76-5.92-6.57-5.58-6.57-5.58s-4.81-.34-6.57,5.58Z" fill="#8acaff"/>
            <rect x="172.62" y="235.17" width="1.11" height="3.33" rx="0.47" ry="0.47" fill="#8acaff"/>
            <g>
              <path d="M171.58,246.84v-1.05a1.07,1.07,0,0,0,1.07-1.07v-5.41h1v5.41A2.12,2.12,0,0,1,171.58,246.84Z" fill="#8acaff"/>
              <path d="M171.58,246.84a2.12,2.12,0,0,1-2.12-2.12h1a1.07,1.07,0,0,0,1.07,1.07Z" fill="#8acaff"/>
            </g>
          </g>
        </g>
      </g>
      <line x1="0.31" y1="279.44" x2="1029.69" y2="279.44" fill="none" stroke="#8acaff" stroke-miterlimit="10"/>
      <g>
        <rect x="131.17" y="46.74" width="137.88" height="66.58" fill="#fff" stroke="#8acaff" stroke-miterlimit="10" stroke-width="1.25"/>
        <rect x="131.17" y="57.27" width="137.88" height="45.51" fill="#fff" stroke="#8acaff" stroke-miterlimit="10" stroke-width="1.25"/>
        <ellipse cx="261.68" cy="52.42" rx="1.8" ry="1.8" fill="#8acaff"/>
        <ellipse cx="261.68" cy="108.2" rx="1.8" ry="1.8" fill="#8acaff"/>
        <ellipse cx="136.44" cy="52.42" rx="1.8" ry="1.8" fill="#8acaff"/>
        <ellipse cx="136.44" cy="108.2" rx="1.8" ry="1.8" fill="#8acaff"/>
        <rect x="176.8" y="32.82" width="32.67" height="101.93" rx="1.64" ry="1.64" transform="translate(276.92 -109.36) rotate(90)" fill="#f7f7f7"/>
        <rect x="183.68" y="29.06" width="32.67" height="101.93" rx="1.64" ry="1.64" transform="translate(280.04 -119.99) rotate(90)" fill="none" stroke="#8acaff" stroke-miterlimit="10" stroke-width="1.25"/>
      </g>
      <rect x="801.41" y="179.96" width="50.22" height="49.21" fill="#f7f7f7"/>
      <g>
        <path d="M767.46,68.46s82.53-42.82,134.1,108" fill="none" stroke="#8acaff" stroke-miterlimit="10" stroke-width="1.09"/>
        <path d="M780.69,64.24s-12.56,8.93-3.43,25.87C777.26,90.11,789.17,74.23,780.69,64.24Z" fill="#0092d3"/>
        <path d="M780.5,64.19s-14.26-5.94-12-21.13C768.52,43.06,788.83,45.7,780.5,64.19Z" fill="#0092d3"/>
        <path d="M801.9,62.93s-15-6.27-12.64-22.3C789.26,40.63,810.69,43.42,801.9,62.93Z" fill="#0092d3"/>
        <path d="M821.25,67.91S809,57.18,816.35,42.75C816.35,42.75,835.78,52.2,821.25,67.91Z" fill="#0092d3"/>
        <path d="M833.83,74.15s-4.71-15.6,9.2-23.92C843,50.23,854.48,68.56,833.83,74.15Z" fill="#0092d3"/>
        <path d="M850,86.89s1.85-16.19,17.92-18.33C867.92,68.56,871.19,89.92,850,86.89Z" fill="#0092d3"/>
        <path d="M801.9,62.93s-14.66,7.12-11.34,23C790.56,85.92,811.79,81.91,801.9,62.93Z" fill="#0092d3"/>
        <path d="M824.23,69.3s-15.81,4-15.83,20.15C808.4,89.45,830,89.9,824.23,69.3Z" fill="#0092d3"/>
        <path d="M862.69,101.37s-15.81,3.95-15.83,20.16C846.86,121.53,868.46,122,862.69,101.37Z" fill="#0092d3"/>
        <path d="M847.48,84.63s-16.3-.12-20.37,15.56C827.11,100.19,847.92,106,847.48,84.63Z" fill="#0092d3"/>
        <path d="M891.89,98.18s-16.3-.12-20.37,15.56C871.52,113.74,892.33,119.58,891.89,98.18Z" fill="#0092d3"/>
      </g>
      <rect x="809.78" y="179.96" width="50.22" height="49.21" fill="none" stroke="#8acaff" stroke-miterlimit="10"/>
      <rect x="868.36" y="130.75" width="50.22" height="49.21" transform="translate(1786.94 310.71) rotate(180)" fill="#f7f7f7"/>
      <rect x="851.63" y="229.17" width="50.22" height="49.21" fill="#f7f7f7"/>
      <rect x="910.21" y="32.32" width="66.95" height="49.21" fill="#fff" stroke="#8acaff" stroke-miterlimit="10"/>
      <rect x="860" y="81.53" width="66.95" height="49.21" fill="#fff" stroke="#8acaff" stroke-miterlimit="10"/>
      <rect x="809.78" y="130.75" width="117.17" height="49.21" fill="none" stroke="#8acaff" stroke-miterlimit="10"/>
      <rect x="809.78" y="179.96" width="117.17" height="49.21" transform="translate(1736.73 409.13) rotate(-180)" fill="none" stroke="#8acaff" stroke-miterlimit="10"/>
      <rect x="860" y="229.17" width="117.17" height="49.21" transform="translate(1837.16 507.56) rotate(-180)" fill="none" stroke="#8acaff" stroke-miterlimit="10"/>
      <rect x="876.73" y="130.75" width="50.22" height="49.21" transform="translate(1803.67 310.71) rotate(180)" fill="none" stroke="#8acaff" stroke-miterlimit="10"/>
      <rect x="860" y="229.17" width="50.22" height="49.21" fill="none" stroke="#8acaff" stroke-miterlimit="10"/>
      <rect x="918.58" y="82" width="50.22" height="48.15" transform="translate(1887.37 212.15) rotate(180)" fill="#f7f7f7"/>
      <rect x="926.95" y="81.53" width="50.22" height="49.21" transform="translate(1904.11 212.28) rotate(180)" fill="none" stroke="#8acaff" stroke-miterlimit="10"/>
      <rect x="968.79" y="32.87" width="49.96" height="48.12" transform="translate(1987.55 113.86) rotate(180)" fill="#f7f7f7"/>
      <rect x="977.12" y="32.32" width="49.96" height="49.21" transform="translate(2004.2 113.85) rotate(180)" fill="none" stroke="#8acaff" stroke-miterlimit="10" stroke-width="1.06"/>
      <rect x="910.21" y="229.17" width="66.95" height="49.21" transform="translate(1887.37 507.56) rotate(-180)" fill="#fff" stroke="#8acaff" stroke-miterlimit="10"/>
      <g>
        <ellipse cx="868.1" cy="181.53" rx="36.8" ry="36.61" fill="#fff" stroke="#8acaff" stroke-miterlimit="10"/>
        <ellipse cx="868.1" cy="181.53" rx="33.62" ry="33.44" fill="#fff" stroke="#8acaff" stroke-miterlimit="10"/>
        <path d="M874.57,158.65s-5.44,1.83-6.26,3-12.63,20.32-12.63,21.54,1.54,15.42,2.67,15.83,5.13,3.57,5.34,4.59,1,4.09,1,4.09,2.25-.92,2.56-2.25.7-5.61,1.9-7.15,7-9.49,7-9.49l4.52-18.08.41-6.63,2.36-3.27s-2.88-1.12-4-2.86S874.67,157.73,874.57,158.65Z" fill="#0092d3"/>
      </g>
    </g>
  </g>
</svg>
