<svg xmlns="http://www.w3.org/2000/svg" xmlns:xlink="http://www.w3.org/1999/xlink" viewBox="0 0 1030 280">
  <defs>
    <clipPath id="a">
      <rect x="1215.75" y="158.02" width="68.03" height="68.03" rx="4.74" ry="4.74" fill="none"/>
    </clipPath>
  </defs>
  <g style="isolation: isolate">
    <g>
      <g>
        <g>
          <path d="M1019.05,147.91s-62.1-12.83-112.9,37.14a50,50,0,1,0,68.38,73.05C1027.75,210.72,1019.05,147.91,1019.05,147.91Z" fill="#fff" stroke="#8acaff" stroke-miterlimit="10"/>
          <path d="M1025.7,156.38s-62.09-12.83-112.89,37.14a50,50,0,0,0,68.37,73.06C1034.4,219.19,1025.7,156.38,1025.7,156.38Z" fill="#f7f7f7"/>
          <line x1="1019.05" y1="147.91" x2="903.81" y2="255.76" fill="none" stroke="#8acaff" stroke-miterlimit="10"/>
          <line x1="911.85" y1="248.24" x2="971.18" y2="261.29" fill="none" stroke="#8acaff" stroke-miterlimit="10"/>
          <line x1="924.41" y1="236.49" x2="983.74" y2="249.54" fill="none" stroke="#8acaff" stroke-miterlimit="10"/>
          <line x1="936.97" y1="224.74" x2="993.66" y2="237.2" fill="none" stroke="#8acaff" stroke-miterlimit="10"/>
          <line x1="949.52" y1="212.98" x2="1001.94" y2="224.51" fill="none" stroke="#8acaff" stroke-miterlimit="10"/>
          <line x1="962.08" y1="201.23" x2="1008.49" y2="211.43" fill="none" stroke="#8acaff" stroke-miterlimit="10"/>
          <line x1="974.64" y1="189.47" x2="1013.45" y2="198.01" fill="none" stroke="#8acaff" stroke-miterlimit="10"/>
          <line x1="987.2" y1="177.72" x2="1016.87" y2="184.24" fill="none" stroke="#8acaff" stroke-miterlimit="10"/>
          <line x1="999.76" y1="165.96" x2="1019" y2="170.19" fill="none" stroke="#8acaff" stroke-miterlimit="10"/>
          <line x1="911.85" y1="248.24" x2="902.75" y2="188.18" fill="none" stroke="#8acaff" stroke-miterlimit="10"/>
          <line x1="924.41" y1="236.49" x2="915.31" y2="176.42" fill="none" stroke="#8acaff" stroke-miterlimit="10"/>
          <line x1="936.97" y1="224.74" x2="928.27" y2="167.34" fill="none" stroke="#8acaff" stroke-miterlimit="10"/>
          <line x1="949.52" y1="212.98" x2="941.49" y2="159.92" fill="none" stroke="#8acaff" stroke-miterlimit="10"/>
          <line x1="962.08" y1="201.23" x2="954.97" y2="154.25" fill="none" stroke="#8acaff" stroke-miterlimit="10"/>
          <line x1="974.64" y1="189.47" x2="968.69" y2="150.18" fill="none" stroke="#8acaff" stroke-miterlimit="10"/>
          <line x1="987.2" y1="177.72" x2="982.65" y2="147.68" fill="none" stroke="#8acaff" stroke-miterlimit="10"/>
          <line x1="999.76" y1="165.96" x2="996.81" y2="146.48" fill="none" stroke="#8acaff" stroke-miterlimit="10"/>
          <path d="M1019.05,147.91s-62.1-12.83-112.9,37.14a50,50,0,1,0,68.38,73.05C1027.75,210.72,1019.05,147.91,1019.05,147.91Z" fill="none" stroke="#8acaff" stroke-miterlimit="10"/>
        </g>
        <g>
          <g>
            <path d="M938.17,113.77s16.12-18.26,31.61-27.2S1014.21,59.1,1015,53.79c0,0-14.2,28.25-45.51,44.12Z" fill="#f7f7f7"/>
            <path d="M936.08,111.94S952.45,80,959,71.21,987.77,34.5,987.77,34.5,971,70.92,962.26,81.43,936.08,111.94,936.08,111.94Z" fill="#f7f7f7"/>
            <path d="M932.54,119.59s30.12-23.15,80.52-7.12c0,0-29.57,3.33-53.83,4.42S932.54,119.59,932.54,119.59Z" fill="#f7f7f7"/>
            <path d="M932.67,122.84s17.88-4.79,36,1.38S1010,145.89,1010,145.89,975.48,137,968,133.9,940.13,121.52,932.67,122.84Z" fill="#f7f7f7"/>
            <path d="M925.39,124s-9.21,36.86-58.65,55.64c0,0,21.09-21,39.42-36.93S925.39,124,925.39,124Z" fill="#f7f7f7"/>
            <path d="M923.27,121.51s-11,14.86-29.06,21.29-45.81,8.69-45.81,8.69,32.55-14.44,40.28-16.66S918.24,127.18,923.27,121.51Z" fill="#f7f7f7"/>
            <path d="M934.68,127.43s24.44,31.7,40.26,41.21C974.94,168.64,963.34,133.17,934.68,127.43Z" fill="#f7f7f7"/>
            <path d="M927.93,126.28s14.46,36,21.26,43.4,15.39,18.87,15.39,18.87S949.15,143.69,927.93,126.28Z" fill="#f7f7f7"/>
            <path d="M928.46,114.26s8.57-19,10.85-37.79,17.23-60.8,17.23-60.8-6.14,53.65-8.82,62.7S933.84,111.79,928.46,114.26Z" fill="#f7f7f7"/>
            <path d="M921.13,110S893.07,87.66,885.75,79.5,855.47,44,855.47,44s32.37,23.67,40.94,34.29S921.13,110,921.13,110Z" fill="#f7f7f7"/>
            <path d="M921.9,118S905,105.8,887,99.84s-56.19-28.93-56.19-28.93S882.2,87.56,890.53,92,920.54,112.2,921.9,118Z" fill="#f7f7f7"/>
            <path d="M928.24,108.77s.63-24.38-.74-43.2S930,12.28,930,12.28,946.66,83.82,928.24,108.77Z" fill="#f7f7f7"/>
            <path d="M901,22.8s23.89,73.13,25.24,91.46C926.23,114.26,929.43,48,901,22.8Z" fill="#f7f7f7"/>
            <path d="M874.43,34.56s44,63.12,50.59,80.27C925,114.83,909,50.51,874.43,34.56Z" fill="#f7f7f7"/>
            <path d="M827.31,114.45s76.94.11,94.77,4.53C922.08,119,860.16,95.3,827.31,114.45Z" fill="#f7f7f7"/>
            <path d="M830.21,143.36s73.69-22.13,92-23.05C922.25,120.31,856.13,115.53,830.21,143.36Z" fill="#f7f7f7"/>
          </g>
          <path d="M937.66,114.43s16.85-17.6,32.68-25.9,45.51-25.65,46.52-30.92c0,0-15.34,27.65-47.27,42.23Z" fill="#fff" stroke="#8acaff" stroke-miterlimit="10"/>
          <path d="M935.65,112.5S953.3,81.26,960.2,72.74s30.23-35.51,30.23-35.51S972.17,72.94,963,83.09,935.65,112.5,935.65,112.5Z" fill="#fff" stroke="#8acaff" stroke-miterlimit="10"/>
          <path d="M931.79,120s31-21.91,80.75-3.85c0,0-29.68,2.12-54,2.23S931.79,120,931.79,120Z" fill="#fff" stroke="#8acaff" stroke-miterlimit="10"/>
          <path d="M931.79,123.26s18.06-4.06,35.91,2.84,40.38,23.33,40.38,23.33S974,139.11,966.69,135.75,939.3,122.24,931.79,123.26Z" fill="#fff" stroke="#8acaff" stroke-miterlimit="10"/>
          <path d="M924.47,124.09s-10.69,36.46-60.85,53.22c0,0,21.92-20.12,40.88-35.3S924.47,124.09,924.47,124.09Z" fill="#fff" stroke="#8acaff" stroke-miterlimit="10"/>
          <path d="M922.45,121.55s-11.62,14.4-29.89,20.1-46.13,6.82-46.13,6.82,33.11-13.11,40.92-15S917.2,127,922.45,121.55Z" fill="#fff" stroke="#8acaff" stroke-miterlimit="10"/>
          <path d="M933.62,127.92s23.13,32.67,38.55,42.81C972.17,170.73,962,134.82,933.62,127.92Z" fill="#fff" stroke="#8acaff" stroke-miterlimit="10"/>
          <path d="M926.92,126.5s13,36.52,19.48,44.23S961,190.21,961,190.21,947.41,144.76,926.92,126.5Z" fill="#fff" stroke="#8acaff" stroke-miterlimit="10"/>
          <path d="M927.94,114.52s9.33-18.65,12.37-37.32,19.68-60,19.68-60-8.31,53.36-11.36,62.28S933.41,112.27,927.94,114.52Z" fill="#fff" stroke="#8acaff" stroke-miterlimit="10"/>
          <path d="M920.78,110S893.65,86.5,886.67,78.06s-28.82-36.67-28.82-36.67,31.39,25,39.52,35.93S920.78,110,920.78,110Z" fill="#fff" stroke="#8acaff" stroke-miterlimit="10"/>
          <path d="M921.23,118S904.8,105.11,887.1,98.43s-55-31.18-55-31.18S882.79,86,890.94,90.72,920.11,112.13,921.23,118Z" fill="#fff" stroke="#8acaff" stroke-miterlimit="10"/>
          <path d="M927.94,109s1.62-24.33,1-43.19,4.67-53.15,4.67-53.15S947.35,84.84,927.94,109Z" fill="#fff" stroke="#8acaff" stroke-miterlimit="10"/>
          <path d="M904.2,22s20.9,74.05,21.51,92.42C925.71,114.43,931.59,48.39,904.2,22Z" fill="#fff" stroke="#8acaff" stroke-miterlimit="10"/>
          <path d="M877.18,32.7s41.4,64.84,47.29,82.25C924.47,115,911,50,877.18,32.7Z" fill="#fff" stroke="#8acaff" stroke-miterlimit="10"/>
          <path d="M826.86,110.6s76.87,3.23,94.51,8.38C921.37,119,860.46,92.8,826.86,110.6Z" fill="#fff" stroke="#8acaff" stroke-miterlimit="10"/>
          <path d="M828.59,139.6s74.52-19.12,92.89-19.29C921.48,120.31,855.61,112.85,828.59,139.6Z" fill="#fff" stroke="#8acaff" stroke-miterlimit="10"/>
          <path d="M933.62,12.68s6.48,77.1-5.68,96.34" fill="none" stroke="#8acaff" stroke-miterlimit="10"/>
          <path d="M933.13,16s-.9,77.69-3.6,90" fill="none" stroke="#8acaff" stroke-miterlimit="10"/>
          <path d="M906.49,24.4s21.32,63.38,19.65,81.54" fill="#fff" stroke="#8acaff" stroke-miterlimit="10"/>
          <path d="M911.7,31.4S925.85,71.91,926,88.92" fill="#fff" stroke="#8acaff" stroke-miterlimit="10"/>
          <path d="M959.22,22s-21.7,80.21-29.23,89.88" fill="none" stroke="#8acaff" stroke-miterlimit="10"/>
          <path d="M957.66,31.67S947.67,93,929,113.33" fill="none" stroke="#8acaff" stroke-miterlimit="10"/>
          <path d="M937.45,110.29s45-67.18,51.33-71.15" fill="none" stroke="#8acaff" stroke-miterlimit="10"/>
          <path d="M882.89,36.19s32.75,42.43,39.46,72.68" fill="none" stroke="#8acaff" stroke-miterlimit="10"/>
          <path d="M878.68,33.5s39.12,56,42.14,72.6" fill="none" stroke="#8acaff" stroke-miterlimit="10"/>
          <path d="M941.12,105.94s43.56-53.69,47.14-64.55" fill="none" stroke="#8acaff" stroke-miterlimit="10"/>
          <path d="M941.12,111S965,94.14,973.24,90.24s38.48-23.6,41.88-29.82" fill="none" stroke="#8acaff" stroke-miterlimit="10"/>
          <path d="M941.48,112.68S968.55,97,971.26,95.77s30.36-17.08,37.11-26.21" fill="none" stroke="#8acaff" stroke-miterlimit="10"/>
          <path d="M935,118.81s26.47-8,49.26-9.27" fill="none" stroke="#8acaff" stroke-miterlimit="10"/>
          <path d="M939.63,117.48s52.36-6.85,72.91-1.32" fill="none" stroke="#8acaff" stroke-miterlimit="10"/>
          <path d="M945.22,116s39.34-4.83,48.5-5.1" fill="none" stroke="#8acaff" stroke-miterlimit="10"/>
          <path d="M935.17,123.37s25.33.76,44.92,8.5" fill="none" stroke="#8acaff" stroke-miterlimit="10"/>
          <path d="M940.39,123.68s59.7,20.41,67,25.24" fill="none" stroke="#8acaff" stroke-miterlimit="10"/>
          <path d="M943.2,124.09s41.88,11,52.8,17.16" fill="none" stroke="#8acaff" stroke-miterlimit="10"/>
          <path d="M933.62,127.92s32.12,34.6,38.55,42.81" fill="none" stroke="#8acaff" stroke-miterlimit="10"/>
          <path d="M935.34,129.48s27.95,20.22,35.41,37.1" fill="none" stroke="#8acaff" stroke-miterlimit="10"/>
          <path d="M936.63,130.44s19.12,11.16,25.89,19.87" fill="none" stroke="#8acaff" stroke-miterlimit="10"/>
          <path d="M926.92,126.5S941.36,152.28,942.7,165" fill="none" stroke="#8acaff" stroke-miterlimit="10"/>
          <path d="M928.54,129.48s6.75,4.86,23.1,47.83" fill="none" stroke="#8acaff" stroke-miterlimit="10"/>
          <path d="M930.65,131.11s20.49,33.39,26.48,53.63" fill="none" stroke="#8acaff" stroke-miterlimit="10"/>
          <path d="M923.58,125.63s-20.08,30.61-38.5,42.18" fill="#fff" stroke="#8acaff" stroke-miterlimit="10"/>
          <path d="M922.15,127.23s-38.85,43.2-56.74,49.47" fill="#fff" stroke="#8acaff" stroke-miterlimit="10"/>
          <path d="M848.85,147.52s54.51-6.84,71.48-23.61" fill="none" stroke="#8acaff" stroke-miterlimit="10"/>
          <path d="M853.33,145.77s51.11-13.1,58.26-18.72" fill="none" stroke="#8acaff" stroke-miterlimit="10"/>
          <path d="M828.59,139.6s59.2-20,89-19.44" fill="none" stroke="#8acaff" stroke-miterlimit="10"/>
          <path d="M830.36,139s41.51-19.78,69.43-19.59" fill="none" stroke="#8acaff" stroke-miterlimit="10"/>
          <path d="M828.59,110.29S888.15,107,916.36,117" fill="none" stroke="#8acaff" stroke-miterlimit="10"/>
          <path d="M830.86,110s33.62-7.18,64.68.3" fill="none" stroke="#8acaff" stroke-miterlimit="10"/>
          <path d="M836.08,69.8s73,32.08,85.29,49.18" fill="none" stroke="#8acaff" stroke-miterlimit="10"/>
          <path d="M852.27,77.23s51.37,18.82,64.09,33.88" fill="none" stroke="#8acaff" stroke-miterlimit="10"/>
          <path d="M860.69,45.06s44.45,49.33,53,57.6" fill="none" stroke="#8acaff" stroke-miterlimit="10"/>
          <path d="M867.35,52.37s31.82,28.71,48.31,53.14" fill="none" stroke="#8acaff" stroke-miterlimit="10"/>
        </g>
        <g>
          <g>
            <path d="M229.26,132.26s16.81-19.06,33-28.37,46.34-28.66,47.17-34.2c0,0-14.82,29.47-47.48,46Z" fill="#f7f7f7"/>
            <path d="M227.08,130.34S244.16,97,251,87.86s30-38.29,30-38.29-17.52,38-26.61,48.95S227.08,130.34,227.08,130.34Z" fill="#f7f7f7"/>
            <path d="M223.38,138.33s31.43-24.15,84-7.44c0,0-30.85,3.48-56.16,4.61S223.38,138.33,223.38,138.33Z" fill="#f7f7f7"/>
            <path d="M223.52,141.71s18.65-5,37.55,1.44,43.06,22.61,43.06,22.61-36-9.31-43.71-12.5S231.3,140.34,223.52,141.71Z" fill="#f7f7f7"/>
            <path d="M215.92,142.89s-9.6,38.45-61.17,58c0,0,22-21.89,41.12-38.52S215.92,142.89,215.92,142.89Z" fill="#f7f7f7"/>
            <path d="M213.71,140.33s-11.5,15.5-30.3,22.21-47.79,9.06-47.79,9.06,33.95-15.06,42-17.38S208.47,146.24,213.71,140.33Z" fill="#f7f7f7"/>
            <path d="M225.62,146.5s25.49,33.06,42,43C267.61,189.48,255.51,152.49,225.62,146.5Z" fill="#f7f7f7"/>
            <path d="M218.58,145.3s15.08,37.51,22.17,45.27,16.05,19.69,16.05,19.69S240.71,163.46,218.58,145.3Z" fill="#f7f7f7"/>
            <path d="M219.13,132.76s8.94-19.83,11.32-39.41,18-63.42,18-63.42-6.41,56-9.2,65.39S224.75,130.19,219.13,132.76Z" fill="#f7f7f7"/>
            <path d="M211.48,128.35S182.21,105,174.58,96.51s-31.59-37-31.59-37,33.77,24.69,42.71,35.77S211.48,128.35,211.48,128.35Z" fill="#f7f7f7"/>
            <path d="M212.29,136.63s-17.67-12.69-36.4-18.9-58.61-30.18-58.61-30.18,53.59,17.37,62.28,22S210.87,130.61,212.29,136.63Z" fill="#f7f7f7"/>
            <path d="M218.9,127s.66-25.43-.77-45.06,2.61-55.59,2.61-55.59S238.11,101,218.9,127Z" fill="#f7f7f7"/>
            <path d="M190.48,37.36s24.91,76.29,26.32,95.4C216.8,132.76,220.14,63.69,190.48,37.36Z" fill="#f7f7f7"/>
            <path d="M162.77,49.64s45.89,65.83,52.77,83.72C215.54,133.36,198.77,66.27,162.77,49.64Z" fill="#f7f7f7"/>
            <path d="M113.62,133s80.25.11,98.86,4.73C212.48,137.69,147.89,113,113.62,133Z" fill="#f7f7f7"/>
            <path d="M116.65,163.11s76.86-23.08,96-24C212.65,139.08,143.68,134.09,116.65,163.11Z" fill="#f7f7f7"/>
          </g>
          <path d="M228.73,132.94s17.57-18.36,34.09-27,47.46-26.75,48.51-32.26c0,0-16,28.85-49.3,44.06Z" fill="#fff" stroke="#8acaff" stroke-miterlimit="10"/>
          <path d="M226.63,130.93S245,98.34,252.23,89.45s31.54-37,31.54-37-19,37.25-28.57,47.83S226.63,130.93,226.63,130.93Z" fill="#fff" stroke="#8acaff" stroke-miterlimit="10"/>
          <path d="M222.6,138.76s32.38-22.85,84.23-4c0,0-31,2.22-56.29,2.33S222.6,138.76,222.6,138.76Z" fill="#fff" stroke="#8acaff" stroke-miterlimit="10"/>
          <path d="M222.6,142.15s18.84-4.23,37.46,3,42.12,24.34,42.12,24.34S266.62,158.69,259,155.18,230.43,141.09,222.6,142.15Z" fill="#fff" stroke="#8acaff" stroke-miterlimit="10"/>
          <path d="M215,143s-11.15,38-63.48,55.51c0,0,22.87-21,42.65-36.82S215,143,215,143Z" fill="#fff" stroke="#8acaff" stroke-miterlimit="10"/>
          <path d="M212.86,140.37s-12.12,15-31.18,21-48.12,7.12-48.12,7.12,34.54-13.67,42.69-15.66S207.39,146.07,212.86,140.37Z" fill="#fff" stroke="#8acaff" stroke-miterlimit="10"/>
          <path d="M224.51,147s24.12,34.07,40.21,44.65C264.72,191.67,254.14,154.21,224.51,147Z" fill="#fff" stroke="#8acaff" stroke-miterlimit="10"/>
          <path d="M217.53,145.54s13.54,38.09,20.31,46.13S253.08,212,253.08,212,238.9,164.58,217.53,145.54Z" fill="#fff" stroke="#8acaff" stroke-miterlimit="10"/>
          <path d="M218.58,133s9.74-19.45,12.91-38.92S252,31.47,252,31.47s-8.68,55.66-11.85,65S224.3,130.69,218.58,133Z" fill="#fff" stroke="#8acaff" stroke-miterlimit="10"/>
          <path d="M211.12,128.32S182.82,103.81,175.53,95s-30.05-38.24-30.05-38.24,32.73,26,41.22,37.47S211.12,128.32,211.12,128.32Z" fill="#fff" stroke="#8acaff" stroke-miterlimit="10"/>
          <path d="M211.59,136.61s-17.14-13.39-35.6-20.36-57.34-32.52-57.34-32.52,52.84,19.52,61.34,24.48S210.42,130.55,211.59,136.61Z" fill="#fff" stroke="#8acaff" stroke-miterlimit="10"/>
          <path d="M218.58,127.3s1.7-25.38,1.06-45,4.87-55.44,4.87-55.44S238.83,102.08,218.58,127.3Z" fill="#fff" stroke="#8acaff" stroke-miterlimit="10"/>
          <path d="M193.82,36.55s21.8,77.23,22.44,96.39C216.26,132.94,222.39,64.06,193.82,36.55Z" fill="#fff" stroke="#8acaff" stroke-miterlimit="10"/>
          <path d="M165.64,47.69s43.18,67.64,49.33,85.8C215,133.49,200.94,65.77,165.64,47.69Z" fill="#fff" stroke="#8acaff" stroke-miterlimit="10"/>
          <path d="M113.15,129s80.18,3.37,98.58,8.74C211.73,137.69,148.2,110.38,113.15,129Z" fill="#fff" stroke="#8acaff" stroke-miterlimit="10"/>
          <path d="M115,159.2s77.73-19.94,96.9-20.12C211.85,139.08,143.14,131.3,115,159.2Z" fill="#fff" stroke="#8acaff" stroke-miterlimit="10"/>
          <path d="M224.51,26.81s6.76,80.42-5.93,100.49" fill="none" stroke="#8acaff" stroke-miterlimit="10"/>
          <path d="M224,30.25s-.94,81-3.75,93.83" fill="none" stroke="#8acaff" stroke-miterlimit="10"/>
          <path d="M196.22,39s22.24,66.1,20.49,85" fill="#fff" stroke="#8acaff" stroke-miterlimit="10"/>
          <path d="M201.65,46.34s14.76,42.25,14.91,60" fill="#fff" stroke="#8acaff" stroke-miterlimit="10"/>
          <path d="M251.22,36.55s-22.64,83.66-30.5,93.74" fill="none" stroke="#8acaff" stroke-miterlimit="10"/>
          <path d="M249.59,46.62s-10.43,64-29.9,85.18" fill="none" stroke="#8acaff" stroke-miterlimit="10"/>
          <path d="M228.51,128.62s47-70.06,53.53-74.21" fill="none" stroke="#8acaff" stroke-miterlimit="10"/>
          <path d="M171.6,51.34s34.16,44.25,41.16,75.8" fill="none" stroke="#8acaff" stroke-miterlimit="10"/>
          <path d="M167.2,48.53s40.81,58.38,44,75.73" fill="none" stroke="#8acaff" stroke-miterlimit="10"/>
          <path d="M232.33,124.08s45.44-56,49.18-67.32" fill="none" stroke="#8acaff" stroke-miterlimit="10"/>
          <path d="M232.33,129.35s24.94-17.57,33.51-21.64S306,83.1,309.53,76.6" fill="none" stroke="#8acaff" stroke-miterlimit="10"/>
          <path d="M232.71,131.12s28.24-16.39,31.06-17.64,31.67-17.81,38.72-27.34" fill="none" stroke="#8acaff" stroke-miterlimit="10"/>
          <path d="M225.9,137.51s27.61-8.35,51.38-9.67" fill="none" stroke="#8acaff" stroke-miterlimit="10"/>
          <path d="M230.78,136.13s54.61-7.15,76-1.39" fill="none" stroke="#8acaff" stroke-miterlimit="10"/>
          <path d="M236.61,134.61s41-5,50.59-5.32" fill="none" stroke="#8acaff" stroke-miterlimit="10"/>
          <path d="M226.13,142.27s26.42.8,46.86,8.87" fill="none" stroke="#8acaff" stroke-miterlimit="10"/>
          <path d="M231.57,142.59s62.28,21.29,69.86,26.32" fill="none" stroke="#8acaff" stroke-miterlimit="10"/>
          <path d="M234.5,143s43.69,11.46,55.07,17.9" fill="none" stroke="#8acaff" stroke-miterlimit="10"/>
          <path d="M224.51,147s33.51,36.09,40.21,44.65" fill="none" stroke="#8acaff" stroke-miterlimit="10"/>
          <path d="M226.31,148.64s29.15,21.09,36.93,38.7" fill="none" stroke="#8acaff" stroke-miterlimit="10"/>
          <path d="M227.65,149.64s19.94,11.65,27,20.72" fill="none" stroke="#8acaff" stroke-miterlimit="10"/>
          <path d="M217.53,145.54s15.06,26.88,16.46,40.19" fill="none" stroke="#8acaff" stroke-miterlimit="10"/>
          <path d="M219.21,148.64s7,5.07,24.09,49.89" fill="none" stroke="#8acaff" stroke-miterlimit="10"/>
          <path d="M221.41,150.34s21.38,34.83,27.63,55.94" fill="none" stroke="#8acaff" stroke-miterlimit="10"/>
          <path d="M214,144.63s-20.94,31.92-40.15,44" fill="#fff" stroke="#8acaff" stroke-miterlimit="10"/>
          <path d="M212.55,146.29s-40.53,45.06-59.18,51.6" fill="#fff" stroke="#8acaff" stroke-miterlimit="10"/>
          <path d="M136.09,167.46s56.86-7.13,74.56-24.63" fill="none" stroke="#8acaff" stroke-miterlimit="10"/>
          <path d="M140.76,165.63S194.07,152,201.53,146.1" fill="none" stroke="#8acaff" stroke-miterlimit="10"/>
          <path d="M115,159.2s61.76-20.84,92.8-20.28" fill="none" stroke="#8acaff" stroke-miterlimit="10"/>
          <path d="M116.81,158.59S160.1,138,189.22,138.16" fill="none" stroke="#8acaff" stroke-miterlimit="10"/>
          <path d="M115,128.62s62.13-3.47,91.56,7" fill="none" stroke="#8acaff" stroke-miterlimit="10"/>
          <path d="M117.33,128.32s35.06-7.49,67.46.3" fill="none" stroke="#8acaff" stroke-miterlimit="10"/>
          <path d="M122.77,86.39s76.2,33.46,89,51.3" fill="none" stroke="#8acaff" stroke-miterlimit="10"/>
          <path d="M139.65,94.14s53.59,19.64,66.86,35.34" fill="none" stroke="#8acaff" stroke-miterlimit="10"/>
          <path d="M148.44,60.59S194.8,112,203.71,120.67" fill="none" stroke="#8acaff" stroke-miterlimit="10"/>
          <path d="M155.39,68.21s33.19,30,50.39,55.42" fill="none" stroke="#8acaff" stroke-miterlimit="10"/>
        </g>
        <text transform="translate(369.07 158.88)" font-size="45" fill="#0092d3" font-weight="200" font-family="'PingFang TC','HeiTi TC','Microsoft JhengHei',sans-serif" letter-spacing="0.08em">生態探索頻道</text>
        <text transform="translate(496.37 63.35)" font-size="53.43" fill="#0092d3" font-family="Dosis,sans-serif" font-weight="200">3<tspan x="25.65" y="0" font-size="27.43" font-family="Dosis,sans-serif" font-weight="400">f</tspan></text>
        <circle cx="514.87" cy="45.02" r="44.47" fill="none" stroke="#069fd5" stroke-miterlimit="10"/>
        <text transform="translate(346.86 197.73)" font-size="14" fill="#666" font-family="'PingFang TC','HeiTi TC','Microsoft JhengHei',sans-serif" letter-spacing="0.02em">嘗試用不同的角度溝通，試著改變人和環境間的關係。</text>
        <g>
          <path d="M41.29,81S20.29,164.41,85,236.14a67.84,67.84,0,1,0,103-88.37C126.88,72.91,41.29,81,41.29,81Z" fill="#fff" stroke="#8acaff" stroke-miterlimit="10"/>
          <path d="M53.15,72.51s-21,83.38,43.74,155.11a67.84,67.84,0,1,0,103-88.37C138.75,64.39,53.15,72.51,53.15,72.51Z" fill="#f7f7f7"/>
          <line x1="41.29" y1="81.03" x2="180.68" y2="243.43" fill="none" stroke="#8acaff" stroke-miterlimit="10"/>
          <line x1="170.97" y1="232.11" x2="192.1" y2="152.49" fill="none" stroke="#8acaff" stroke-miterlimit="10"/>
          <line x1="155.77" y1="214.41" x2="176.91" y2="134.79" fill="none" stroke="#8acaff" stroke-miterlimit="10"/>
          <line x1="140.58" y1="196.71" x2="160.78" y2="120.63" fill="none" stroke="#8acaff" stroke-miterlimit="10"/>
          <line x1="125.39" y1="179.01" x2="144.06" y2="108.68" fill="none" stroke="#8acaff" stroke-miterlimit="10"/>
          <line x1="110.2" y1="161.31" x2="126.73" y2="99.04" fill="none" stroke="#8acaff" stroke-miterlimit="10"/>
          <line x1="95" y1="143.61" x2="108.83" y2="91.53" fill="none" stroke="#8acaff" stroke-miterlimit="10"/>
          <line x1="79.81" y1="125.91" x2="90.38" y2="86.1" fill="none" stroke="#8acaff" stroke-miterlimit="10"/>
          <line x1="64.62" y1="108.21" x2="71.47" y2="82.39" fill="none" stroke="#8acaff" stroke-miterlimit="10"/>
          <line x1="170.97" y1="232.11" x2="89.06" y2="240.93" fill="none" stroke="#8acaff" stroke-miterlimit="10"/>
          <line x1="155.77" y1="214.41" x2="73.87" y2="223.23" fill="none" stroke="#8acaff" stroke-miterlimit="10"/>
          <line x1="140.58" y1="196.71" x2="62.32" y2="205.14" fill="none" stroke="#8acaff" stroke-miterlimit="10"/>
          <line x1="125.39" y1="179.01" x2="53.04" y2="186.81" fill="none" stroke="#8acaff" stroke-miterlimit="10"/>
          <line x1="110.2" y1="161.31" x2="46.14" y2="168.21" fill="none" stroke="#8acaff" stroke-miterlimit="10"/>
          <line x1="95" y1="143.61" x2="41.43" y2="149.38" fill="none" stroke="#8acaff" stroke-miterlimit="10"/>
          <line x1="79.81" y1="125.91" x2="38.86" y2="130.33" fill="none" stroke="#8acaff" stroke-miterlimit="10"/>
          <line x1="64.62" y1="108.21" x2="38.06" y2="111.08" fill="none" stroke="#8acaff" stroke-miterlimit="10"/>
          <path d="M41.29,81S20.29,164.41,85,236.14a67.84,67.84,0,1,0,103-88.37C126.88,72.91,41.29,81,41.29,81Z" fill="none" stroke="#8acaff" stroke-miterlimit="10"/>
        </g>
        <g>
          <path d="M318.78,166.16s-55.36-31.72-119.6.15a50.35,50.35,0,0,0,42.51,91.28C307.42,229,318.78,166.16,318.78,166.16Z" fill="#fff" stroke="#8acaff" stroke-miterlimit="10"/>
          <path d="M322.49,176.35s-55.36-31.72-119.6.15a50.35,50.35,0,0,0,42.51,91.28C311.13,239.14,322.49,176.35,322.49,176.35Z" fill="#f7f7f7"/>
          <line x1="318.78" y1="166.16" x2="174.8" y2="233.2" fill="none" stroke="#8acaff" stroke-miterlimit="10"/>
          <line x1="184.83" y1="228.53" x2="237.49" y2="259.6" fill="none" stroke="#8acaff" stroke-miterlimit="10"/>
          <line x1="200.52" y1="221.22" x2="253.18" y2="252.29" fill="none" stroke="#8acaff" stroke-miterlimit="10"/>
          <line x1="216.22" y1="213.92" x2="266.53" y2="243.6" fill="none" stroke="#8acaff" stroke-miterlimit="10"/>
          <line x1="231.91" y1="206.61" x2="278.42" y2="234.05" fill="none" stroke="#8acaff" stroke-miterlimit="10"/>
          <line x1="247.6" y1="199.3" x2="288.78" y2="223.6" fill="none" stroke="#8acaff" stroke-miterlimit="10"/>
          <line x1="263.3" y1="192" x2="297.74" y2="212.32" fill="none" stroke="#8acaff" stroke-miterlimit="10"/>
          <line x1="278.99" y1="184.69" x2="305.32" y2="200.22" fill="none" stroke="#8acaff" stroke-miterlimit="10"/>
          <line x1="294.68" y1="177.38" x2="311.76" y2="187.46" fill="none" stroke="#8acaff" stroke-miterlimit="10"/>
          <line x1="184.83" y1="228.53" x2="194.95" y2="168.24" fill="none" stroke="#8acaff" stroke-miterlimit="10"/>
          <line x1="200.52" y1="221.22" x2="210.64" y2="160.93" fill="none" stroke="#8acaff" stroke-miterlimit="10"/>
          <line x1="216.22" y1="213.92" x2="225.88" y2="156.31" fill="none" stroke="#8acaff" stroke-miterlimit="10"/>
          <line x1="231.91" y1="206.61" x2="240.85" y2="153.35" fill="none" stroke="#8acaff" stroke-miterlimit="10"/>
          <line x1="247.6" y1="199.3" x2="255.51" y2="152.15" fill="none" stroke="#8acaff" stroke-miterlimit="10"/>
          <line x1="263.3" y1="192" x2="269.91" y2="152.56" fill="none" stroke="#8acaff" stroke-miterlimit="10"/>
          <line x1="278.99" y1="184.69" x2="284.05" y2="154.54" fill="none" stroke="#8acaff" stroke-miterlimit="10"/>
          <line x1="294.68" y1="177.38" x2="297.96" y2="157.83" fill="none" stroke="#8acaff" stroke-miterlimit="10"/>
          <path d="M318.78,166.16s-55.36-31.72-119.6.15a50.35,50.35,0,0,0,42.51,91.28C307.42,229,318.78,166.16,318.78,166.16Z" fill="none" stroke="#8acaff" stroke-miterlimit="10"/>
        </g>
        <g>
          <path d="M33.68,219.15s74-49.92,150,58.48" fill="none" stroke="#8acaff" stroke-miterlimit="10" stroke-width="2"/>
          <path d="M49.55,212S35.2,224.92,49,244.7C49,244.7,61.55,223.21,49.55,212Z" fill="#0092d3" stroke="#8acaff" stroke-miterlimit="10"/>
          <path d="M49.3,212s-18.61-5.34-18-24.58C31.34,187.37,57,187.73,49.3,212Z" fill="#0092d3" stroke="#8acaff" stroke-miterlimit="10"/>
          <path d="M75.78,207.31s-19.64-5.65-19-25.95C56.82,181.36,83.91,181.74,75.78,207.31Z" fill="#0092d3" stroke="#8acaff" stroke-miterlimit="10"/>
          <path d="M100.59,210.72s-16.84-11.59-9.73-30.63C90.86,180.09,116.42,189.06,100.59,210.72Z" fill="#0092d3" stroke="#8acaff" stroke-miterlimit="10"/>
          <path d="M117.15,216.69s-8.11-18.76,8-31.12C125.17,185.57,142.07,206.74,117.15,216.69Z" fill="#0092d3" stroke="#8acaff" stroke-miterlimit="10"/>
          <path d="M139.13,230.22s0-20.43,19.66-25.41C158.79,204.81,165.94,230.94,139.13,230.22Z" fill="#0092d3" stroke="#8acaff" stroke-miterlimit="10"/>
          <path d="M75.78,207.31s-17.24,11-10.82,30.26C65,237.57,90.82,229.52,75.78,207.31Z" fill="#0092d3" stroke="#8acaff" stroke-miterlimit="10"/>
          <path d="M104.5,212s-19.13,7.19-16.82,27.38C87.68,239.4,114.65,236.85,104.5,212Z" fill="#0092d3" stroke="#8acaff" stroke-miterlimit="10"/>
          <path d="M157,246.42s-19.12,7.2-16.81,27.39C140.2,273.81,167.17,271.26,157,246.42Z" fill="#0092d3" stroke="#8acaff" stroke-miterlimit="10"/>
          <path d="M135.66,227.77s-20.32,2.19-23.13,22.31C112.53,250.08,139.29,254.35,135.66,227.77Z" fill="#0092d3" stroke="#8acaff" stroke-miterlimit="10"/>
          <path d="M192.91,238.25s-20.31,2.19-23.12,22.31C169.79,260.56,196.54,264.83,192.91,238.25Z" fill="#0092d3" stroke="#8acaff" stroke-miterlimit="10"/>
        </g>
        <g>
          <path d="M802.87,136.4s63.11-6.17,108.32,48.92a50,50,0,0,1-75.75,65.38C787.55,197.93,802.87,136.4,802.87,136.4Z" fill="#fff" stroke="#8acaff" stroke-miterlimit="10"/>
          <path d="M795.36,144.12S858.46,138,903.67,193a50,50,0,1,1-75.74,65.38C780,205.65,795.36,144.12,795.36,144.12Z" fill="#f7f7f7"/>
          <line x1="802.87" y1="136.4" x2="906" y2="255.88" fill="none" stroke="#8acaff" stroke-miterlimit="10"/>
          <line x1="898.82" y1="247.55" x2="838.43" y2="254.23" fill="none" stroke="#8acaff" stroke-miterlimit="10"/>
          <line x1="887.58" y1="234.53" x2="827.19" y2="241.2" fill="none" stroke="#8acaff" stroke-miterlimit="10"/>
          <line x1="876.34" y1="221.51" x2="818.64" y2="227.89" fill="none" stroke="#8acaff" stroke-miterlimit="10"/>
          <line x1="865.1" y1="208.49" x2="811.75" y2="214.38" fill="none" stroke="#8acaff" stroke-miterlimit="10"/>
          <line x1="853.86" y1="195.46" x2="806.63" y2="200.68" fill="none" stroke="#8acaff" stroke-miterlimit="10"/>
          <line x1="842.62" y1="182.44" x2="803.12" y2="186.81" fill="none" stroke="#8acaff" stroke-miterlimit="10"/>
          <line x1="831.38" y1="169.42" x2="801.18" y2="172.76" fill="none" stroke="#8acaff" stroke-miterlimit="10"/>
          <line x1="820.13" y1="156.4" x2="800.55" y2="158.56" fill="none" stroke="#8acaff" stroke-miterlimit="10"/>
          <line x1="898.82" y1="247.55" x2="914.24" y2="188.79" fill="none" stroke="#8acaff" stroke-miterlimit="10"/>
          <line x1="887.58" y1="234.53" x2="903" y2="175.77" fill="none" stroke="#8acaff" stroke-miterlimit="10"/>
          <line x1="876.34" y1="221.51" x2="891.07" y2="165.36" fill="none" stroke="#8acaff" stroke-miterlimit="10"/>
          <line x1="865.1" y1="208.49" x2="878.72" y2="156.58" fill="none" stroke="#8acaff" stroke-miterlimit="10"/>
          <line x1="853.86" y1="195.46" x2="865.92" y2="149.51" fill="none" stroke="#8acaff" stroke-miterlimit="10"/>
          <line x1="842.62" y1="182.44" x2="852.7" y2="144.01" fill="none" stroke="#8acaff" stroke-miterlimit="10"/>
          <line x1="831.38" y1="169.42" x2="839.09" y2="140.04" fill="none" stroke="#8acaff" stroke-miterlimit="10"/>
          <line x1="820.13" y1="156.4" x2="825.14" y2="137.34" fill="none" stroke="#8acaff" stroke-miterlimit="10"/>
          <path d="M802.87,136.4s63.11-6.17,108.32,48.92a50,50,0,0,1-75.75,65.38C787.55,197.93,802.87,136.4,802.87,136.4Z" fill="none" stroke="#8acaff" stroke-miterlimit="10"/>
        </g>
        <g>
          <g>
            <path d="M744.76,102.8s-4.17-14.52-14.09-12.22-14.09,11.94-10.21,18.26,11.43,5.65,11.43,5.65" fill="#fff" stroke="#8acaff" stroke-miterlimit="10"/>
            <path d="M733.73,112.22s-4.28.38-6.47-3.2.16-9,5.78-10.34,8,6.92,8,6.92S736.14,108.26,733.73,112.22Z" fill="#f7f7f7"/>
            <path d="M947.3,237s1.72,14.21-10.24,38a7.32,7.32,0,0,1-6.54,4h-19a7.3,7.3,0,0,1-7.3-7.49c.43-16.83,1.73-56.91,4.46-66.59,0,0-27,1.54-45.53-3.09,0,0,.62,50-5.5,71.37a8.05,8.05,0,0,1-7.75,5.8H806.8a8.06,8.06,0,0,1-8.06-8.15c.11-9.3-2.83-26.46-19.68-50.89-26.63-38.58-23.92-45.54-23.92-45.54s-55.37-10.17-24.21-67.2c0,0,12.23-26.24,66.53-26.86,43-.49,75.38,0,99.12-8.32s111.68,4.39,111.68,81.17c0,62.39-12.48,106.44-17.17,120.76a7.3,7.3,0,0,1-6.94,5H962.09a7.31,7.31,0,0,1-7.06-5.42c-3.56-13.3-12-48.78-10.83-80.63" fill="#fff" stroke="#8acaff" stroke-miterlimit="10"/>
            <path d="M801.63,203.51s10.15,75.56,15.07,75.56" fill="#fff" stroke="#8acaff" stroke-miterlimit="10"/>
            <path d="M745.09,100.08s18.41-8.14,34.53,1.3" fill="#fff" stroke="#8acaff" stroke-miterlimit="10"/>
            <path d="M781.59,101.8S786.12,86,796.9,88.52s15.3,13,11.09,19.83-12.42,6.14-12.42,6.14" fill="#fff" stroke="#8acaff" stroke-miterlimit="10"/>
            <path d="M795.17,112.38s4.65.42,7-3.47-.18-9.82-6.28-11.23-8.67,7.51-8.67,7.51S792.56,108.08,795.17,112.38Z" fill="#f7f7f7"/>
            <path d="M731.71,106.14s-5.93,8.39-9.55,9.13a3.21,3.21,0,0,0,2.61.54c1.3-.44-4.45,7.13-10.44,7.68,0,0,4.51,2.63,7.83,1.43,0,0-3.14,5.68-7.13,7,0,0-2.81,43.92,43.67,50" fill="#fff" stroke="#8acaff" stroke-miterlimit="10"/>
            <path d="M736.84,126.89s7.86-10.07,25.13-2,5.11,39.89-10.44,39.75S723,140.38,736.84,126.89Z" fill="#f7f7f7"/>
            <path d="M734.59,135.81s2.27-2.73,10.5-1.23-1,8.61-3.67,8.63C738.3,143.24,731.72,139,734.59,135.81Z" fill="#0092d3"/>
            <path d="M736.66,138.21s1.42-1.9,2.15-1.83,1.52,1.31.83,1.83S735.74,139.27,736.66,138.21Z" fill="#fff" stroke="#8acaff" stroke-miterlimit="10"/>
            <path d="M744.54,138.21s-1.42-1.9-2.15-1.83-1.52,1.31-.83,1.83S745.46,139.27,744.54,138.21Z" fill="#fff" stroke="#8acaff" stroke-miterlimit="10"/>
            <g>
              <circle cx="767.42" cy="127.95" r="1.53" fill="#8acaff"/>
              <circle cx="767.42" cy="127.95" r="0.68" fill="#fff"/>
            </g>
            <g>
              <circle cx="733.88" cy="127.95" r="1.53" fill="#8acaff"/>
              <circle cx="733.88" cy="127.95" r="0.68" fill="#fff"/>
            </g>
          </g>
          <path d="M734,138.07s-2.19-8.59,9.93-15.2" fill="none" stroke="#8acaff" stroke-miterlimit="10"/>
          <path d="M734.07,136.38s-1.59,7.77,2.1,9.75c5.35,2.87,23.44,3.11,26-5" fill="none" stroke="#8acaff" stroke-miterlimit="10"/>
          <path d="M741.15,147.69a3.38,3.38,0,0,0,2.45,1.25,8.21,8.21,0,0,0,5.47-1" fill="none" stroke="#8acaff" stroke-miterlimit="10"/>
          <path d="M798.82,118.44s9.12,12.86,13.68,13.95c0,0-7.12,1.21-8.37,0s4.28,3,8.37,2.56c0,0-3,39.54-35.83,44" fill="#fff" stroke="#8acaff" stroke-miterlimit="10"/>
          <path d="M769.74,185.16a1.17,1.17,0,0,0-1.64,1.55c2,3.64,21.15,27.87,27.68,22.28,2-1.68,5.15-11.53,5.14-22.93a1.17,1.17,0,0,0-2.32-.23c-1.22,6-3.14,12.8-5.52,12.06C788.66,196.53,776.27,189.15,769.74,185.16Z" fill="#f7f7f7"/>
          <g>
            <path d="M824.09,270.93c-7,.53-3,8.14-3,8.14h4.45" fill="#fff" stroke="#8acaff" stroke-miterlimit="10"/>
            <path d="M815.89,270.93c-7,.53-3,8.14-3,8.14h4.45" fill="#fff" stroke="#8acaff" stroke-miterlimit="10"/>
            <path d="M832.8,270.93c-7,.53-3,8.14-3,8.14h4.45" fill="#fff" stroke="#8acaff" stroke-miterlimit="10"/>
          </g>
          <g>
            <path d="M969.49,270.93c-7,.53-3,8.14-3,8.14h4.46" fill="#fff" stroke="#8acaff" stroke-miterlimit="10"/>
            <path d="M955,270.93c-7,.53-3,8.14-3,8.14h6.35" fill="#fff" stroke="#8acaff" stroke-miterlimit="10"/>
            <path d="M961.3,270.93c-7,.53-3,8.14-3,8.14h4.46" fill="#fff" stroke="#8acaff" stroke-miterlimit="10"/>
          </g>
          <g>
            <path d="M919,270.93c-7,.53-3,8.14-3,8.14h4.46" fill="#fff" stroke="#8acaff" stroke-miterlimit="10"/>
            <path d="M904.43,270.93c-7,.53-3,8.14-3,8.14h6.35" fill="#fff" stroke="#8acaff" stroke-miterlimit="10"/>
            <path d="M910.78,270.93c-7,.53-3,8.14-3,8.14h4.45" fill="#fff" stroke="#8acaff" stroke-miterlimit="10"/>
          </g>
          <g>
            <path d="M799,270.93c-7,.53-3,8.14-3,8.14h6.34" fill="#fff" stroke="#8acaff" stroke-miterlimit="10"/>
            <path d="M805.37,270.93c-7,.53-3,8.14-3,8.14h4.46" fill="#fff" stroke="#8acaff" stroke-miterlimit="10"/>
          </g>
          <path d="M771.91,184a1.17,1.17,0,0,0-1.64,1.55c2,3.64,21.15,27.87,27.68,22.28,2-1.67,5.15-11.52,5.14-22.93a1.17,1.17,0,0,0-2.32-.22c-1.22,6-3.13,12.79-5.52,12.06C790.83,195.4,778.44,188,771.91,184Z" fill="none" stroke="#8acaff" stroke-miterlimit="10"/>
        </g>
      </g>
      <line x1="0.31" y1="279.44" x2="1029.69" y2="279.44" fill="none" stroke="#8acaff" stroke-miterlimit="10"/>
      <g clip-path="url(#a)">
        <g>
          <path d="M1026.2,288.71a28.89,28.89,0,0,1-.08-5.12c.09-2.27.53-4.52,2.14-6,2.09-2,5.19-1.82,8.14-2.09s6.42-4.47,8.74-7.88c2.47-3.64,4.71-7.6,8-10.6,2.16-2,7.7-4.33,7.56-7.78-1-24.06,15.72-47.39,38.19-55.29,12.12-4.27,23-2.75,35.32-1a66.66,66.66,0,0,0,15.14,0,84.3,84.3,0,0,0,34.14-10.27,45.78,45.78,0,0,1,12.63-4.35c6.24-1.36,13.78-.59,19.4-3.62,6.28-3.39,13.32-6.65,20.65-6.9a35.4,35.4,0,0,1,20.25,5.76,24,24,0,0,1,7,7.25c1.79,2.79,2.4,6.12,4.14,8.87a6.46,6.46,0,0,0,1,1.18c-2.44,1-3.48,3.47-4.42,5.76-1.14,2.77-2.22,5-5,6.51-4.17,2.32-10.52,3-11.06,8.92l-1.35,0c-3.82.23-7.86.11-10.51,3.33-3.71,4.51-6.93,9.9-11.27,14-5,4.79-11.56,6.79-17.69,9.72-8.51,4.06-14.92,10.56-22.73,15.38a75,75,0,0,1-16.24,7.37c-11.76,3.83-24.21,5.31-36.54,5.55-7.8.14-15.48.05-23.11-.54-5.91,8.56-16.33,14.93-24.77,20-7.82,4.67-15.63,9.25-24.7,11-4.07.8-8.26,1-12.28,2.09l-.08,0a12,12,0,0,0-3.84,1.93,1.8,1.8,0,0,0-.2.19,7.38,7.38,0,0,0-1.55,4.48c.5,1.78,4,5.24,2.7,7.1a3.68,3.68,0,0,1-2,1.21c-4.63,1.45-8.57.61-11.27-3.35a20.8,20.8,0,0,1-2.81-7.76A75,75,0,0,1,1026.2,288.71Z" fill="#fff" stroke="#8acaff" stroke-miterlimit="10" stroke-width="1.5"/>
          <path d="M1027.5,304.05a75,75,0,0,1-1.64-15.08,28.67,28.67,0,0,1-.07-5.11c.08-2.28.52-4.53,2.13-6,3.49-3.27,9-.95,12.77-4.12,2.8-2.36,3.58-6.62,6.57-8.67.55.46,1,1.72.24,2.35a23.59,23.59,0,0,1,13-5.12,3.5,3.5,0,0,0,1.54-.34c1.47-.87.7-3.11,0-4.66-2.31-4.86-2.42-10.53-1.36-15.8s3.25-10.24,5.41-15.17a17.08,17.08,0,0,1,3-5.17,10.18,10.18,0,0,1,1.22-1.06,20.06,20.06,0,0,1,4.47-2.29c8.2-3.31,17.94-5.5,25.59-1.05,6.93,4,10.14,12.12,11.52,19.62,1.55,8.42,2.7,17.53-.72,25.66-4.72,11.23-17.57,19.11-27.62,25.11-7.82,4.67-15.63,9.25-24.69,11-4.08.8-8.27,1-12.28,2.09l-.09,0a12.08,12.08,0,0,0-3.84,1.93,1.8,1.8,0,0,0-.2.19,7.38,7.38,0,0,0-1.55,4.48c.5,1.78,4,5.24,2.7,7.1a3.64,3.64,0,0,1-2,1.21c-4.62,1.45-8.56.61-11.27-3.35A20.8,20.8,0,0,1,1027.5,304.05Z" fill="#6b6a6a"/>
        </g>
      </g>
    </g>
  </g>
</svg>
