<svg xmlns="http://www.w3.org/2000/svg" viewBox="0 0 4245.12 555.23">
  <title>bear</title>
  <g>
    <g>
      <path d="M3499.74,292.74s-4.74,43,3.61,72.73,25.23,90.86,75.65,120.59,78.6-96.66,78.6-96.66l247.05,10.12,138.06-80.26-533.93-68.81Z" fill="#fff"/>
      <g>
        <path d="M3874.67,389.16s32.07,112.08,124,144.84c0,0-6.91,14.79,15.36,21.23,0,0,39.24-22.85,67.72-39.12,14.53-8.3,34.35-15.86,15.43-48-8.31-14.09-24.57-53.18-69.49-129" fill="#fff" stroke="#8acaff" stroke-miterlimit="10"/>
        <path d="M4023.59,524.49c-15.26,10.71,4.14,22.77,4.14,22.77" fill="#fff" stroke="#8acaff" stroke-miterlimit="10"/>
        <path d="M4043.56,512.63c-15.26,10.71,4.15,22.77,4.15,22.77" fill="none" stroke="#8acaff" stroke-miterlimit="10"/>
      </g>
      <g>
        <g>
          <path d="M3652.39,530.74c-11.85,14.4,10.07,20.84,10.07,20.84l11.71-12.19" fill="#fff" stroke="#8acaff" stroke-miterlimit="10"/>
          <path d="M3664.1,518.54c-11.85,14.4,10.07,20.85,10.07,20.85l8.22-8.57L3719,492.68c11-14.38,6.44-21.91,3.67-26.57-11.68-19.65-63.85-38.49-107.27-100.64" fill="#fff" stroke="#8acaff" stroke-miterlimit="10"/>
          <path d="M3676.44,505.69c-11.86,14.4,10.06,20.84,10.06,20.84l11.71-12.19" fill="#fff" stroke="#8acaff" stroke-miterlimit="10"/>
        </g>
        <path d="M3499.15,297s-23,168.29,153.24,233.79" fill="#fff" stroke="#8acaff" stroke-miterlimit="10"/>
      </g>
      <path d="M3477.16,88.59S3466.05,49.9,3439.62,56s-37.54,31.79-27.2,48.65,30.46,15,30.46,15" fill="#fff" stroke="#8acaff" stroke-miterlimit="10"/>
      <path d="M3447.77,113.67s-11.39,1-17.25-8.52.43-24.08,15.4-27.55S3467.18,96,3467.18,96,3454.19,103.11,3447.77,113.67Z" fill="#f7f7f7"/>
      <g>
        <path d="M3504.79,279.55s-147.49-27.1-64.49-179c0,0,32.58-69.9,177.26-71.55,114.47-1.3,200.8,0,264-22.16s297.5,11.68,297.5,216.24c0,0,9.63,72-24.44,147.63-27.13,60.24-72.62,65.06-85.26,147.06-5.26,34.16,1.32,40-41,40-33.37,0-87.73.36-87.73.36-10.89-21.06,6.72-20.72,6.72-20.72-16.06-82,39.68-200,39.68-200" fill="#fff" stroke="#8acaff" stroke-miterlimit="10"/>
        <path d="M3964.7,535.33c-18.32,3.49-5.6,22.47-5.6,22.47" fill="#fff" stroke="#8acaff" stroke-miterlimit="10"/>
        <path d="M3987.12,534.48c-18.32,3.48-5.6,22.46-5.6,22.46" fill="none" stroke="#8acaff" stroke-miterlimit="10"/>
      </g>
      <path d="M3478,81.32s49.05-21.66,92,3.48" fill="#fff" stroke="#8acaff" stroke-miterlimit="10"/>
      <path d="M3575.28,85.9s12.06-42,40.77-35.36,40.77,34.53,29.54,52.84-33.08,16.33-33.08,16.33" fill="#fff" stroke="#8acaff" stroke-miterlimit="10"/>
      <path d="M3611.45,114.1s12.37,1.12,18.74-9.25-.47-26.15-16.73-29.92-23.09,20-23.09,20S3604.48,102.64,3611.45,114.1Z" fill="#f7f7f7"/>
      <path d="M3442.4,97.48s-15.8,22.35-25.45,24.31c0,0,3.52,2.62,7,1.45s-11.88,19-27.82,20.46c0,0,12,7,20.86,3.8,0,0-8.36,15.12-19,18.76,0,0-7.49,117,116.33,133.3" fill="#fff" stroke="#8acaff" stroke-miterlimit="10"/>
      <path d="M3456.05,152.75s20.94-26.83,66.94-5.27,13.63,106.27-27.79,105.89S3419.3,188.68,3456.05,152.75Z" fill="#f7f7f7"/>
      <path d="M3450.05,176.53s6-7.28,28-3.28-2.68,22.92-9.76,23C3460,196.31,3442.41,184.9,3450.05,176.53Z" fill="#0092d3"/>
      <path d="M3455.56,182.91s3.79-5.07,5.74-4.88,4,3.48,2.2,4.88S3453.12,185.72,3455.56,182.91Z" fill="#fff" stroke="#8acaff" stroke-miterlimit="10"/>
      <path d="M3476.57,182.91s-3.79-5.07-5.74-4.88-4,3.48-2.2,4.88S3479,185.72,3476.57,182.91Z" fill="#fff" stroke="#8acaff" stroke-miterlimit="10"/>
      <g>
        <circle cx="3537.51" cy="155.57" r="4.07" fill="#8acaff"/>
        <circle cx="3537.51" cy="155.57" r="1.8" fill="#fff"/>
      </g>
      <g>
        <circle cx="3448.17" cy="155.57" r="4.07" fill="#8acaff"/>
        <circle cx="3448.17" cy="155.57" r="1.8" fill="#fff"/>
      </g>
      <path d="M3448.34,182.52s-5.83-22.88,26.47-40.48" fill="none" stroke="#8acaff" stroke-miterlimit="10"/>
      <path d="M3448.67,178s-4.23,20.71,5.59,26c14.25,7.65,62.45,8.27,69.38-13.25" fill="none" stroke="#8acaff" stroke-miterlimit="10"/>
      <path d="M3467.54,208.15s1.38,2.47,6.53,3.34a21.91,21.91,0,0,0,14.58-2.63" fill="none" stroke="#8acaff" stroke-miterlimit="10"/>
      <path d="M3621.16,130.23s24.29,34.26,36.44,37.17c0,0-19,3.23-22.28,0s11.39,8.06,22.28,6.82c0,0-7.85,105.33-95.45,117.09" fill="#fff" stroke="#8acaff" stroke-miterlimit="10"/>
      <path d="M3518.56,319.26s20.73,105.72,264.17,105.3c88.49-.15,90.71,2.27,183.88-34.7" fill="#fff" stroke="#8acaff" stroke-miterlimit="10"/>
      <g>
        <path d="M3538.37,305.6c-2.55-1.65-5.54,1.35-4.11,4.14,5,9.69,40.08,76.3,56.43,61.41,4.92-4.47,25.79-32.76,25.76-63.14,0-3.75-4.4-4-5.81-.6-6.28,15.35-20.74,36.14-26.72,34.18C3572.85,338,3554.73,316.24,3538.37,305.6Z" fill="#f7f7f7"/>
        <path d="M3543.64,305.6c-2.55-1.65-5.54,1.35-4.11,4.14,4.95,9.69,40.08,76.3,56.43,61.41,4.91-4.47,25.78-32.76,25.75-63.14,0-3.75-4.39-4-5.8-.6-6.29,15.35-20.74,36.14-26.72,34.18C3578.12,338,3560,316.24,3543.64,305.6Z" fill="none" stroke="#8acaff" stroke-miterlimit="10" stroke-width="0.97"/>
      </g>
      <g>
        <path d="M3621.71,308s-59.19,94.78-55.7,229.43c0,0-17.61-.34-6.71,20.72,0,0,49.76.4,83.56-.86,24.38-.91,33.08-2.06,37.32-24.41,3-15.6,42.05-102.88,105.49-176" fill="#fff" stroke="#8acaff" stroke-miterlimit="10"/>
        <path d="M3583.87,536.46c-18.6,1.42-8.07,21.7-8.07,21.7" fill="#fff" stroke="#8acaff" stroke-miterlimit="10"/>
        <path d="M3607.1,536.46c-18.6,1.42-8.07,21.7-8.07,21.7" fill="none" stroke="#8acaff" stroke-miterlimit="10"/>
      </g>
    </g>
    <g>
      <path d="M2723.13,541.74c-110.78-94-73-245.73-73-245.73l3.67-33.22L3223.41,296l-72.36,68.17L2782.5,349.32l-36.68,168.44-14.41,34.57Z" fill="#fff"/>
      <g>
        <path d="M3018.4,367.84s15.34,106.7,71.23,171.84c0,0-8.11,3,5.45,19.07,0,0,54.15-16.63,81.49-34.73s30.56-35.22,21.08-53.27c-4.42-8.43-39.12-38.24-47.64-114.83" fill="#fff" stroke="#8acaff" stroke-miterlimit="10"/>
        <path d="M3115.88,528.23c-17,7.61-.26,23.15-.26,23.15" fill="#fff" stroke="#8acaff" stroke-miterlimit="10"/>
        <path d="M3137.75,520.39c-17,7.61-.27,23.15-.27,23.15" fill="none" stroke="#8acaff" stroke-miterlimit="10"/>
      </g>
      <g>
        <path d="M2650.13,296s-37.78,151.7,73,245.73" fill="#fff" stroke="#8acaff" stroke-miterlimit="10"/>
        <path d="M2727.41,534.8c-17.18,7.26-.74,23.14-.74,23.14l16-5.38" fill="#fff" stroke="#8acaff" stroke-miterlimit="10"/>
        <g>
          <path d="M2736.76,531.53c-17.18,7.26-.74,23.14-.74,23.14l11.25-3.77,50.13-16.82a12.08,12.08,0,0,0,8.22-12.08c-1.24-22.82-45.17-106.63-6.89-152.25" fill="#fff" stroke="#8acaff" stroke-miterlimit="10"/>
          <path d="M2753.65,525.87c-17.18,7.26-.74,23.13-.74,23.13l16-5.37" fill="#fff" stroke="#8acaff" stroke-miterlimit="10"/>
        </g>
      </g>
      <path d="M2628.14,87.65S2617,49,2590.6,55.09s-37.54,31.79-27.2,48.65,30.45,15,30.45,15" fill="#fff" stroke="#8acaff" stroke-miterlimit="10"/>
      <path d="M2598.74,112.73s-11.39,1-17.24-8.52.43-24.08,15.4-27.55,21.26,18.44,21.26,18.44S2605.17,102.17,2598.74,112.73Z" fill="#f7f7f7"/>
      <g>
        <path d="M2655.77,278.61s-147.49-27.1-64.5-179c0,0,32.58-69.9,177.26-71.55,114.48-1.3,200.8,0,264-22.16s297.5,11.68,297.5,216.24c0,0,9.63,72-24.44,147.63C3278.51,430,3261,431.3,3242.45,512.16c-5.09,22.18.94,34.77-40.95,40.43-33.07,4.47-85.07,4.63-85.07,4.63-10.9-21.06,6.71-20.72,6.71-20.72-16-82,30.06-208.28,30.06-208.28" fill="#fff" stroke="#8acaff" stroke-miterlimit="10"/>
        <path d="M3140.41,534.39c-18.32,3.49-5.6,22.47-5.6,22.47" fill="#fff" stroke="#8acaff" stroke-miterlimit="10"/>
        <path d="M3162.83,533.54c-18.32,3.48-5.6,22.46-5.6,22.46" fill="none" stroke="#8acaff" stroke-miterlimit="10"/>
      </g>
      <path d="M2629,80.38s49-21.66,92,3.48" fill="#fff" stroke="#8acaff" stroke-miterlimit="10"/>
      <path d="M2726.25,85s12.07-42,40.78-35.36,40.77,34.53,29.54,52.84-33.08,16.33-33.08,16.33" fill="#fff" stroke="#8acaff" stroke-miterlimit="10"/>
      <path d="M2762.43,113.16s12.37,1.12,18.73-9.25-.47-26.15-16.73-29.92-23.09,20-23.09,20S2755.45,101.69,2762.43,113.16Z" fill="#f7f7f7"/>
      <path d="M2593.37,96.54s-15.8,22.35-25.45,24.31c0,0,3.53,2.62,7,1.45s-11.88,19-27.82,20.46c0,0,12,7,20.85,3.8,0,0-8.35,15.12-19,18.76,0,0-7.49,117,116.34,133.3" fill="#fff" stroke="#8acaff" stroke-miterlimit="10"/>
      <path d="M2607,151.81S2628,125,2674,146.54s13.64,106.27-27.79,105.89S2570.28,187.74,2607,151.81Z" fill="#f7f7f7"/>
      <path d="M2601,175.59s6-7.29,28-3.28-2.68,22.92-9.76,23C2610.92,195.37,2593.38,184,2601,175.59Z" fill="#0092d3"/>
      <path d="M2606.54,182s3.78-5.07,5.73-4.88,4.05,3.48,2.21,4.88S2604.1,184.78,2606.54,182Z" fill="#fff" stroke="#8acaff" stroke-miterlimit="10"/>
      <path d="M2627.55,182s-3.79-5.07-5.74-4.88-4,3.48-2.2,4.88S2630,184.78,2627.55,182Z" fill="#fff" stroke="#8acaff" stroke-miterlimit="10"/>
      <g>
        <circle cx="2688.48" cy="154.63" r="4.07" fill="#8acaff"/>
        <circle cx="2688.48" cy="154.63" r="1.8" fill="#fff"/>
      </g>
      <g>
        <circle cx="2599.15" cy="154.63" r="4.07" fill="#8acaff"/>
        <circle cx="2599.15" cy="154.63" r="1.8" fill="#fff"/>
      </g>
      <path d="M2599.32,181.58s-5.84-22.88,26.47-40.48" fill="none" stroke="#8acaff" stroke-miterlimit="10"/>
      <path d="M2599.65,177.09s-4.23,20.71,5.59,26c14.24,7.64,62.45,8.27,69.38-13.26" fill="none" stroke="#8acaff" stroke-miterlimit="10"/>
      <path d="M2618.52,207.21s1.38,2.47,6.53,3.34a21.84,21.84,0,0,0,14.57-2.64" fill="none" stroke="#8acaff" stroke-miterlimit="10"/>
      <path d="M2772.13,129.29s24.3,34.26,36.45,37.17c0,0-19,3.23-22.29,0s11.39,8.06,22.29,6.82c0,0-7.85,105.33-95.46,117.09" fill="#fff" stroke="#8acaff" stroke-miterlimit="10"/>
      <path d="M2669.54,318.32s20.72,105.72,264.17,105.3c88.49-.15,114.52-21.14,207.69-58.1" fill="#fff" stroke="#8acaff" stroke-miterlimit="10"/>
      <g>
        <path d="M2689.35,304.66c-2.55-1.65-5.54,1.35-4.11,4.14,5,9.69,40.07,76.3,56.43,61.41,4.91-4.47,25.78-32.76,25.75-63.14,0-3.75-4.39-4-5.8-.6-6.29,15.35-20.75,36.14-26.72,34.18C2723.83,337,2705.7,315.3,2689.35,304.66Z" fill="#f7f7f7"/>
        <path d="M2694.62,304.66c-2.56-1.65-5.54,1.35-4.11,4.14,4.95,9.69,40.07,76.3,56.43,61.41,4.91-4.47,25.78-32.76,25.75-63.14,0-3.75-4.39-4-5.8-.6-6.29,15.35-20.75,36.14-26.73,34.18C2729.09,337,2711,315.3,2694.62,304.66Z" fill="none" stroke="#8acaff" stroke-miterlimit="10" stroke-width="0.97"/>
      </g>
      <g>
        <path d="M2772.69,307.07s-34.77,94.78-31.28,229.43c0,0-17.61-.34-6.71,20.72,0,0,49.76.4,83.56-.86,24.38-.91,33.07-2.06,37.32-24.41,3-15.6,17.62-102.88,81.06-176" fill="#fff" stroke="#8acaff" stroke-miterlimit="10"/>
        <path d="M2759.27,535.52c-18.6,1.42-8.07,21.7-8.07,21.7" fill="#fff" stroke="#8acaff" stroke-miterlimit="10"/>
        <path d="M2782.5,535.52c-18.6,1.42-8.07,21.7-8.07,21.7" fill="none" stroke="#8acaff" stroke-miterlimit="10"/>
      </g>
    </g>
    <g>
      <path d="M1815.28,557.22h-16.91s-9.78-20,7-21.7c0,0-21.24-60.55-23.06-98.39s-5.53-87.43,18.83-141.12l11.2-35.64,533.4,43.69-27.21,59.21-389.31-8.64-2.28,51.93s-22.35,15.92-28.32,54.09S1815.28,557.22,1815.28,557.22Z" fill="#fff"/>
      <g>
        <path d="M2187.9,352.49s-15,106.74,20.51,184.88c0,0-8.62.62-.09,19.83,0,0,56.64-.87,87.95-10.64s39.16-25.3,35.09-45.27c-1.9-9.33-22.86-87.14-9.69-163.07" fill="#fff" stroke="#8acaff" stroke-miterlimit="10"/>
        <path d="M2236.81,533.69c-18.47,2.57-6.71,22.16-6.71,22.16" fill="#fff" stroke="#8acaff" stroke-miterlimit="10"/>
        <path d="M2260,532.26c-18.48,2.56-6.71,22.15-6.71,22.15" fill="none" stroke="#8acaff" stroke-miterlimit="10"/>
      </g>
      <g>
        <g>
          <path d="M1806.44,535.52c-18.59,1.42-8.07,21.7-8.07,21.7h16.91" fill="#fff" stroke="#8acaff" stroke-miterlimit="10"/>
          <path d="M1823.35,535.52c-18.6,1.42-8.07,21.7-8.07,21.7H1880a12.06,12.06,0,0,0,11.64-8.84c6.09-22-8.9-115.46,41.9-146.53" fill="#fff" stroke="#8acaff" stroke-miterlimit="10"/>
          <path d="M1841.16,535.52c-18.59,1.42-8.06,21.7-8.06,21.7H1850" fill="#fff" stroke="#8acaff" stroke-miterlimit="10"/>
        </g>
        <path d="M1801.11,296s-49.19,91.66,4.23,239.62" fill="#fff" stroke="#8acaff" stroke-miterlimit="10"/>
      </g>
      <path d="M1779.11,87.65S1768,49,1741.57,55.09s-37.54,31.79-27.19,48.65,30.45,15,30.45,15" fill="#fff" stroke="#8acaff" stroke-miterlimit="10"/>
      <path d="M1749.72,112.73s-11.39,1-17.25-8.52.44-24.08,15.41-27.55,21.26,18.44,21.26,18.44S1756.14,102.17,1749.72,112.73Z" fill="#f7f7f7"/>
      <g>
        <path d="M1806.74,278.61s-147.49-27.1-64.49-179c0,0,32.58-69.9,177.26-71.55,114.47-1.3,200.8,0,264-22.16s297.5,11.68,297.5,216.24l-3.9,84.51c-1.36,29.62-44.87,212.41-47.32,225.32-4.24,22.35-12.94,23.5-37.32,24.41-33.8,1.26-83.56.86-83.56.86-10.9-21.06,6.71-20.72,6.71-20.72-17.32-88.79-9.32-210.26-9.32-210.26" fill="#fff" stroke="#8acaff" stroke-miterlimit="10"/>
        <path d="M2333.52,535.52c-18.6,1.42-8.07,21.7-8.07,21.7" fill="#fff" stroke="#8acaff" stroke-miterlimit="10"/>
        <path d="M2356.75,535.52c-18.6,1.42-8.07,21.7-8.07,21.7" fill="none" stroke="#8acaff" stroke-miterlimit="10"/>
      </g>
      <path d="M1780,80.38s49-21.66,92,3.48" fill="#fff" stroke="#8acaff" stroke-miterlimit="10"/>
      <path d="M1877.23,85s12.07-42,40.77-35.36,40.78,34.53,29.54,52.84-33.07,16.33-33.07,16.33" fill="#fff" stroke="#8acaff" stroke-miterlimit="10"/>
      <path d="M1913.41,113.16s12.37,1.12,18.73-9.25-.47-26.15-16.73-29.92-23.09,20-23.09,20S1906.43,101.69,1913.41,113.16Z" fill="#f7f7f7"/>
      <path d="M1744.35,96.54s-15.8,22.35-25.45,24.31c0,0,3.53,2.62,7,1.45s-11.87,19-27.81,20.46c0,0,12,7,20.85,3.8,0,0-8.35,15.12-19,18.76,0,0-7.49,117,116.34,133.3" fill="#fff" stroke="#8acaff" stroke-miterlimit="10"/>
      <path d="M1758,151.81s20.94-26.83,66.94-5.27,13.63,106.27-27.79,105.89S1721.25,187.74,1758,151.81Z" fill="#f7f7f7"/>
      <path d="M1752,175.59s6-7.29,28-3.28-2.68,22.92-9.75,23C1761.9,195.37,1744.36,184,1752,175.59Z" fill="#0092d3"/>
      <path d="M1757.52,182s3.78-5.07,5.73-4.88,4,3.48,2.2,4.88S1755.07,184.78,1757.52,182Z" fill="#fff" stroke="#8acaff" stroke-miterlimit="10"/>
      <path d="M1778.52,182s-3.78-5.07-5.73-4.88-4,3.48-2.2,4.88S1781,184.78,1778.52,182Z" fill="#fff" stroke="#8acaff" stroke-miterlimit="10"/>
      <g>
        <circle cx="1839.46" cy="154.63" r="4.07" fill="#8acaff"/>
        <circle cx="1839.46" cy="154.63" r="1.8" fill="#fff"/>
      </g>
      <g>
        <circle cx="1750.12" cy="154.63" r="4.07" fill="#8acaff"/>
        <circle cx="1750.12" cy="154.63" r="1.8" fill="#fff"/>
      </g>
      <path d="M1750.3,181.58s-5.84-22.88,26.47-40.48" fill="none" stroke="#8acaff" stroke-miterlimit="10"/>
      <path d="M1750.63,177.09s-4.24,20.71,5.59,26c14.24,7.64,62.45,8.27,69.37-13.26" fill="none" stroke="#8acaff" stroke-miterlimit="10"/>
      <path d="M1769.5,207.21s1.38,2.47,6.52,3.34a21.88,21.88,0,0,0,14.58-2.64" fill="none" stroke="#8acaff" stroke-miterlimit="10"/>
      <path d="M1923.11,129.29s24.3,34.26,36.44,37.17c0,0-19,3.23-22.28,0s11.39,8.06,22.28,6.82c0,0-7.85,105.33-95.45,117.09" fill="#fff" stroke="#8acaff" stroke-miterlimit="10"/>
      <path d="M1820.52,318.32s20.72,105.72,264.16,105.3c88.5-.15,128.49-26.75,221.66-63.72" fill="#fff" stroke="#8acaff" stroke-miterlimit="10"/>
      <g>
        <path d="M1840.61,304.66a3.12,3.12,0,0,0-4.37,4.14c5.27,9.69,42.63,76.3,60,61.41,5.23-4.47,27.43-32.76,27.4-63.14,0-3.75-4.68-4-6.18-.6-6.69,15.35-22.07,36.14-28.43,34.18C1877.29,337,1858,315.3,1840.61,304.66Z" fill="#f7f7f7"/>
        <path d="M1846.21,304.66a3.12,3.12,0,0,0-4.37,4.14c5.27,9.69,42.64,76.3,60,61.41,5.23-4.47,27.43-32.76,27.4-63.14,0-3.75-4.68-4-6.17-.6-6.69,15.35-22.07,36.14-28.43,34.18C1882.89,337,1863.61,315.3,1846.21,304.66Z" fill="none" stroke="#8acaff" stroke-miterlimit="10"/>
      </g>
      <g>
        <path d="M1929.27,351.64s-4,139.55-.87,184.86c0,0-17.61-.34-6.71,20.72,0,0,49.76.4,83.56-.86,24.38-.91,33.08-2.06,37.32-24.41,3-15.6,7.47-108.7,45-176" fill="#fff" stroke="#8acaff" stroke-miterlimit="10"/>
        <path d="M1946.26,535.52c-18.59,1.42-8.06,21.7-8.06,21.7" fill="#fff" stroke="#8acaff" stroke-miterlimit="10"/>
        <path d="M1969.49,535.52c-18.59,1.42-8.06,21.7-8.06,21.7" fill="none" stroke="#8acaff" stroke-miterlimit="10"/>
      </g>
    </g>
    <g>
      <path d="M909.24,557.22H892.33s-10.53-20.28,8.07-21.7c0,0-6.41-39.33,5.87-91s39.79-156,55-172.8,602.28,55.81,602.28,55.81-62.77,93.12-71.42,111.52-36.59,81-36.59,81-8.89,24.28-32.21,29.51-82.88,11-96,7.67c0,0-10.69-18.07,4.28-21.06,0,0,10.7-94,42-141.73l-296,6.2s-44,31.12-76.7,100.27C971.16,563.78,909.24,557.22,909.24,557.22Z" fill="#fff"/>
      <path d="M1335.39,535.52c-18.6,1.42-8.07,21.7-8.07,21.7h16.91" fill="#fff" stroke="#8acaff" stroke-miterlimit="10"/>
      <path d="M1352.29,535.52c-18.59,1.42-8.06,21.7-8.06,21.7h26.27" fill="#fff" stroke="#8acaff" stroke-miterlimit="10"/>
      <path d="M1391.38,364.65s-49.54,67.48-59.78,171.51" fill="#fff" stroke="#8acaff" stroke-miterlimit="10"/>
      <path d="M1374.12,535.52c-18.6,1.42-8.07,21.7-8.07,21.7h11.87s41.81-2.18,61-14.53,40.92-86.48,61.07-117.53" fill="#fff" stroke="#8acaff" stroke-miterlimit="10"/>
      <path d="M930.09,87.65S919,49,892.55,55.09,855,86.88,865.35,103.74s30.46,15,30.46,15" fill="#fff" stroke="#8acaff" stroke-miterlimit="10"/>
      <path d="M900.7,112.73s-11.39,1-17.25-8.52.43-24.08,15.4-27.55S920.11,95.1,920.11,95.1,907.12,102.17,900.7,112.73Z" fill="#f7f7f7"/>
      <path d="M957.72,278.61s-147.49-27.1-64.49-179c0,0,32.58-69.9,177.26-71.55,114.47-1.3,200.8,0,264-22.16S1632,17.56,1632,222.12a1209.26,1209.26,0,0,1-9.1,148.94" fill="#fff" stroke="#8acaff" stroke-miterlimit="10"/>
      <path d="M931,80.38s49-21.66,92,3.48" fill="#fff" stroke="#8acaff" stroke-miterlimit="10"/>
      <path d="M1028.21,85s12.06-42,40.77-35.36,40.77,34.53,29.54,52.84-33.08,16.33-33.08,16.33" fill="#fff" stroke="#8acaff" stroke-miterlimit="10"/>
      <path d="M1064.38,113.16s12.38,1.12,18.74-9.25-.47-26.15-16.73-29.92-23.09,20-23.09,20S1057.41,101.69,1064.38,113.16Z" fill="#f7f7f7"/>
      <path d="M895.33,96.54s-15.8,22.35-25.45,24.31c0,0,3.52,2.62,7,1.45S865,141.3,849,142.76c0,0,12,7,20.86,3.8,0,0-8.36,15.12-19,18.76,0,0-7.49,117,116.33,133.3" fill="#fff" stroke="#8acaff" stroke-miterlimit="10"/>
      <path d="M909,151.81s20.94-26.83,66.94-5.27,13.63,106.27-27.79,105.89S872.23,187.74,909,151.81Z" fill="#f7f7f7"/>
      <path d="M903,175.59s6-7.29,28-3.28-2.68,22.92-9.76,23C912.88,195.37,895.34,184,903,175.59Z" fill="#0092d3"/>
      <path d="M908.49,182s3.79-5.07,5.74-4.88,4,3.48,2.2,4.88S906.05,184.78,908.49,182Z" fill="#fff" stroke="#8acaff" stroke-miterlimit="10"/>
      <path d="M929.5,182s-3.79-5.07-5.74-4.88-4,3.48-2.2,4.88S931.94,184.78,929.5,182Z" fill="#fff" stroke="#8acaff" stroke-miterlimit="10"/>
      <g>
        <circle cx="990.44" cy="154.63" r="4.07" fill="#8acaff"/>
        <circle cx="990.44" cy="154.63" r="1.8" fill="#fff"/>
      </g>
      <g>
        <circle cx="901.1" cy="154.63" r="4.07" fill="#8acaff"/>
        <circle cx="901.1" cy="154.63" r="1.8" fill="#fff"/>
      </g>
      <path d="M901.27,181.58s-5.83-22.88,26.48-40.48" fill="none" stroke="#8acaff" stroke-miterlimit="10"/>
      <path d="M901.6,177.09s-4.23,20.71,5.59,26c14.25,7.64,62.45,8.27,69.38-13.26" fill="none" stroke="#8acaff" stroke-miterlimit="10"/>
      <path d="M920.47,207.21s1.38,2.47,6.53,3.34a21.88,21.88,0,0,0,14.58-2.64" fill="none" stroke="#8acaff" stroke-miterlimit="10"/>
      <path d="M1074.09,129.29s24.29,34.26,36.44,37.17c0,0-19,3.23-22.28,0s11.39,8.06,22.28,6.82c0,0-7.85,105.33-95.45,117.09" fill="#fff" stroke="#8acaff" stroke-miterlimit="10"/>
      <g>
        <path d="M900.4,535.52c-18.6,1.42-8.07,21.7-8.07,21.7h16.91" fill="#fff" stroke="#8acaff" stroke-miterlimit="10"/>
        <path d="M917.3,535.52c-18.59,1.42-8.06,21.7-8.06,21.7h60.43a12.06,12.06,0,0,0,11.63-8.84c6.09-22,45.46-115.46,96.26-146.53" fill="#fff" stroke="#8acaff" stroke-miterlimit="10"/>
        <path d="M935.12,535.52c-18.6,1.42-8.07,21.7-8.07,21.7H944" fill="#fff" stroke="#8acaff" stroke-miterlimit="10"/>
      </g>
      <path d="M952,296s-60.87,141.11-52.7,239.6" fill="#fff" stroke="#8acaff" stroke-miterlimit="10"/>
      <path d="M1436.29,295.2s59.85,135.36,87.47,166.33c21.28,23.85,83.57,91.16,84.56,90.5s65.23-46.45,80.58-66.27-68.34-137.58-68.34-137.58" fill="#fff" stroke="#8acaff" stroke-miterlimit="10"/>
      <g>
        <path d="M1627.43,511.27c-14.2,12.09,6.25,22.29,6.25,22.29l14.25-11.15" fill="#fff" stroke="#8acaff" stroke-miterlimit="10"/>
        <path d="M1596.12,534.07c-14.19,12.1,6.26,22.29,6.26,22.29l13.66-10" fill="#fff" stroke="#8acaff" stroke-miterlimit="10"/>
        <path d="M1609.79,524.12c-14.2,12.09,6.25,22.28,6.25,22.28l9.6-7" fill="#fff" stroke="#8acaff" stroke-miterlimit="10"/>
      </g>
      <path d="M975.49,318.32S996.21,424,1239.65,423.62c88.49-.15,128.48-26.75,221.66-63.72" fill="#fff" stroke="#8acaff" stroke-miterlimit="10"/>
      <path d="M996.18,304.66a3.12,3.12,0,0,0-4.37,4.14c5.27,9.69,42.63,76.3,60,61.41,5.23-4.47,27.43-32.76,27.4-63.14,0-3.75-4.68-4-6.17-.6-6.69,15.35-22.07,36.14-28.43,34.18C1032.86,337,1013.58,315.3,996.18,304.66Z" fill="#f7f7f7"/>
      <path d="M1001.79,304.66a3.12,3.12,0,0,0-4.37,4.14c5.27,9.69,42.63,76.3,60,61.41,5.23-4.47,27.43-32.76,27.4-63.14,0-3.75-4.67-4-6.17-.6-6.69,15.35-22.07,36.14-28.43,34.18C1038.46,337,1019.19,315.3,1001.79,304.66Z" fill="none" stroke="#8acaff" stroke-miterlimit="10"/>
      <g>
        <g>
          <path d="M1081.57,355.92s21.09,170.8,31.25,181.51c0,0-8.64.08-1.31,19.79,0,0,56.59,2.63,88.44-5.18s35.53-8.64,37.32-24.41-5.15-106.27,12.69-181.24" fill="#fff" stroke="#8acaff" stroke-miterlimit="10"/>
          <path d="M1141.4,535.52c-18.59,1.42-8.06,21.7-8.06,21.7" fill="#fff" stroke="#8acaff" stroke-miterlimit="10"/>
          <path d="M1164.63,535.52c-18.59,1.42-8.07,21.7-8.07,21.7" fill="none" stroke="#8acaff" stroke-miterlimit="10"/>
        </g>
        <path d="M1109.21,540.4s1.16-4.15,10.3-4.24" fill="#fff" stroke="#8acaff" stroke-miterlimit="10"/>
      </g>
    </g>
    <g>
      <g>
        <path d="M82.67,88.15S71.56,49.46,45.13,55.59,7.59,87.38,17.93,104.24s30.45,15,30.45,15" fill="#fff" stroke="#8acaff" stroke-miterlimit="10"/>
        <path d="M53.27,113.23s-11.39,1-17.24-8.52.43-24.08,15.4-27.55S72.69,95.6,72.69,95.6,59.7,102.67,53.27,113.23Z" fill="#f7f7f7"/>
        <path d="M622.21,445.67s4.61,37.84-27.27,101.28a19.5,19.5,0,0,1-17.41,10.77H527a19.46,19.46,0,0,1-19.46-20c1.16-44.84,4.62-151.6,11.88-177.4,0,0-72,4.11-121.3-8.22,0,0,1.68,133.21-14.63,190.11a21.46,21.46,0,0,1-20.64,15.47H247.94A21.49,21.49,0,0,1,226.45,536c.3-24.79-7.52-70.5-52.42-135.56C103.1,297.66,110.3,279.11,110.3,279.11s-147.49-27.1-64.5-179c0,0,32.59-69.9,177.26-71.55,114.48-1.3,200.81,0,264.05-22.16s297.5,11.68,297.5,216.24c0,166.2-33.25,283.54-45.72,321.7a19.44,19.44,0,0,1-18.49,13.4H661.62a19.47,19.47,0,0,1-18.8-14.44c-9.48-35.43-32.11-130-28.84-214.79" fill="#fff" stroke="#8acaff" stroke-miterlimit="10"/>
        <path d="M234.15,356.42s27,201.3,40.15,201.3" fill="#fff" stroke="#8acaff" stroke-miterlimit="10"/>
        <path d="M83.53,80.88s49.05-21.66,92,3.48" fill="#fff" stroke="#8acaff" stroke-miterlimit="10"/>
        <path d="M180.78,85.46s12.07-42,40.78-35.36,40.77,34.53,29.54,52.84S218,119.27,218,119.27" fill="#fff" stroke="#8acaff" stroke-miterlimit="10"/>
        <path d="M217,113.66s12.37,1.12,18.73-9.25S235.22,78.26,219,74.49s-23.1,20-23.1,20S210,102.19,217,113.66Z" fill="#f7f7f7"/>
        <path d="M47.9,97s-15.8,22.35-25.45,24.31c0,0,3.53,2.62,7,1.45s-11.88,19-27.82,20.46c0,0,12,7,20.85,3.8,0,0-8.35,15.12-19,18.76,0,0-7.48,117,116.34,133.3" fill="#fff" stroke="#8acaff" stroke-miterlimit="10"/>
        <path d="M61.56,152.31S82.5,125.48,128.49,147s13.64,106.27-27.79,105.89S24.81,188.24,61.56,152.31Z" fill="#f7f7f7"/>
        <path d="M55.56,176.09s6-7.29,28-3.28-2.68,22.92-9.76,23C65.45,195.87,47.92,184.46,55.56,176.09Z" fill="#0092d3"/>
        <path d="M61.07,182.47s3.78-5.07,5.73-4.88,4,3.48,2.21,4.88S58.63,185.28,61.07,182.47Z" fill="#fff" stroke="#8acaff" stroke-miterlimit="10"/>
        <path d="M82.08,182.47s-3.79-5.07-5.74-4.88-4,3.48-2.2,4.88S84.52,185.28,82.08,182.47Z" fill="#fff" stroke="#8acaff" stroke-miterlimit="10"/>
        <g>
          <circle cx="143.02" cy="155.13" r="4.07" fill="#8acaff"/>
          <circle cx="143.02" cy="155.13" r="1.8" fill="#fff"/>
        </g>
        <g>
          <circle cx="53.68" cy="155.13" r="4.07" fill="#8acaff"/>
          <circle cx="53.68" cy="155.13" r="1.8" fill="#fff"/>
        </g>
      </g>
      <path d="M53.85,182.08S48,159.2,80.32,141.6" fill="none" stroke="#8acaff" stroke-miterlimit="10"/>
      <path d="M54.18,177.59s-4.23,20.71,5.59,26c14.24,7.64,62.45,8.27,69.38-13.26" fill="none" stroke="#8acaff" stroke-miterlimit="10"/>
      <path d="M73.05,207.71s1.38,2.47,6.53,3.34a21.84,21.84,0,0,0,14.57-2.64" fill="none" stroke="#8acaff" stroke-miterlimit="10"/>
      <path d="M226.66,129.79S251,164.05,263.11,167c0,0-19,3.23-22.28,0s11.39,8.06,22.28,6.82c0,0-7.85,105.33-95.45,117.09" fill="#fff" stroke="#8acaff" stroke-miterlimit="10"/>
      <path d="M149.21,307.53a3.12,3.12,0,0,0-4.37,4.14c5.27,9.69,56.34,74.24,73.74,59.36,5.23-4.48,13.72-30.71,13.69-61.09a3.12,3.12,0,0,0-6.18-.6c-3.25,16.09-8.36,34.08-14.72,32.12C199.6,337.83,166.61,318.17,149.21,307.53Z" fill="#f7f7f7"/>
      <g>
        <path d="M294,536c-18.6,1.42-8.07,21.7-8.07,21.7h11.87" fill="#fff" stroke="#8acaff" stroke-miterlimit="10"/>
        <path d="M272.16,536c-18.6,1.42-8.07,21.7-8.07,21.7H276" fill="#fff" stroke="#8acaff" stroke-miterlimit="10"/>
        <path d="M317.21,536c-18.6,1.42-8.07,21.7-8.07,21.7H321" fill="#fff" stroke="#8acaff" stroke-miterlimit="10"/>
      </g>
      <g>
        <path d="M681.34,536c-18.6,1.42-8.07,21.7-8.07,21.7h11.87" fill="#fff" stroke="#8acaff" stroke-miterlimit="10"/>
        <path d="M642.61,536c-18.6,1.42-8.07,21.7-8.07,21.7h16.91" fill="#fff" stroke="#8acaff" stroke-miterlimit="10"/>
        <path d="M659.52,536c-18.6,1.42-8.07,21.7-8.07,21.7h11.87" fill="#fff" stroke="#8acaff" stroke-miterlimit="10"/>
      </g>
      <g>
        <path d="M546.75,536c-18.6,1.42-8.07,21.7-8.07,21.7h11.87" fill="#fff" stroke="#8acaff" stroke-miterlimit="10"/>
        <path d="M508,536c-18.6,1.42-8.07,21.7-8.07,21.7h16.91" fill="#fff" stroke="#8acaff" stroke-miterlimit="10"/>
        <path d="M524.93,536c-18.6,1.42-8.07,21.7-8.07,21.7h11.87" fill="#fff" stroke="#8acaff" stroke-miterlimit="10"/>
      </g>
      <g>
        <path d="M227.22,536c-18.59,1.42-8.06,21.7-8.06,21.7h16.9" fill="#fff" stroke="#8acaff" stroke-miterlimit="10"/>
        <path d="M244.13,536c-18.6,1.42-8.07,21.7-8.07,21.7h11.87" fill="#fff" stroke="#8acaff" stroke-miterlimit="10"/>
      </g>
      <path d="M155,304.53a3.12,3.12,0,0,0-4.37,4.14c5.27,9.69,56.35,74.24,73.74,59.36,5.23-4.48,13.72-30.71,13.69-61.09a3.12,3.12,0,0,0-6.17-.6c-3.25,16.09-8.36,34.08-14.72,32.12C205.38,334.83,172.39,315.17,155,304.53Z" fill="none" stroke="#8acaff" stroke-miterlimit="10"/>
    </g>
  </g>
</svg>
