<svg xmlns="http://www.w3.org/2000/svg" xmlns:xlink="http://www.w3.org/1999/xlink" viewBox="0 0 752.8 598.3">
  <defs>
    <clipPath id="a">
      <circle cx="488.2" cy="383.1" r="115.4" fill="none"/>
    </clipPath>
  </defs>
  <polygon points="710.2 598.3 62.8 598.3 62.8 98.7 710.2 97.2 710.2 598.3" fill="#fff" stroke="#8acaff" stroke-miterlimit="10"/>
  <g>
    <rect x="571.8" y="130.6" width="19.9" height="10.5" fill="#f7f7f7"/>
    <rect x="540.9" y="141.3" width="19.9" height="10.5" fill="#f7f7f7"/>
    <rect x="673.4" y="143.5" width="19.9" height="10.5" fill="#f7f7f7"/>
    <polyline points="700.6 151.8 688.2 151.8 688.2 141.3" fill="none" stroke="#8acaff" stroke-miterlimit="10"/>
    <polyline points="675.5 151.8 663.1 151.8 663.1 141.3" fill="none" stroke="#8acaff" stroke-miterlimit="10"/>
    <rect x="655.7" y="130.6" width="19.9" height="10.5" fill="#f7f7f7"/>
    <polyline points="691 130.6 691 141.2 671.1 141.2" fill="none" stroke="#8acaff" stroke-miterlimit="10"/>
    <rect x="620.3" y="143.5" width="19.9" height="10.5" fill="#f7f7f7"/>
    <line x1="691" y1="141.2" x2="698.4" y2="141.2" fill="none" stroke="#8acaff" stroke-miterlimit="10"/>
    <polyline points="638 151.8 650.5 151.8 650.5 141.3" fill="none" stroke="#8acaff" stroke-miterlimit="10"/>
    <polyline points="658.1 130.6 658.1 141.2 638.3 141.2" fill="none" stroke="#8acaff" stroke-miterlimit="10"/>
    <line x1="658.1" y1="141.2" x2="665.5" y2="141.2" fill="none" stroke="#8acaff" stroke-miterlimit="10"/>
    <polyline points="669.6 151.9 669.6 162.4 657.3 162.4" fill="none" stroke="#8acaff" stroke-miterlimit="10"/>
    <polyline points="538.4 151.8 550.9 151.8 550.9 141.3" fill="none" stroke="#8acaff" stroke-miterlimit="10"/>
    <polyline points="563.5 151.8 576 151.8 576 141.3" fill="none" stroke="#8acaff" stroke-miterlimit="10"/>
    <polyline points="548.1 130.6 548.1 141.2 568 141.2" fill="none" stroke="#8acaff" stroke-miterlimit="10"/>
    <line x1="548.1" y1="141.2" x2="540.7" y2="141.2" fill="none" stroke="#8acaff" stroke-miterlimit="10"/>
    <polyline points="601 151.8 588.6 151.8 588.6 141.3" fill="none" stroke="#8acaff" stroke-miterlimit="10"/>
    <polyline points="580.9 130.6 580.9 141.2 600.8 141.2" fill="none" stroke="#8acaff" stroke-miterlimit="10"/>
    <line x1="580.9" y1="141.2" x2="573.5" y2="141.2" fill="none" stroke="#8acaff" stroke-miterlimit="10"/>
    <polyline points="569.5 151.9 569.5 162.4 581.8 162.4" fill="none" stroke="#8acaff" stroke-miterlimit="10"/>
    <line x1="669.6" y1="162.4" x2="677" y2="162.4" fill="none" stroke="#8acaff" stroke-miterlimit="10"/>
  </g>
  <g>
    <rect x="415.8" y="141.3" width="19.9" height="10.5" fill="#f7f7f7"/>
    <rect x="355.1" y="143.5" width="19.9" height="10.5" fill="#f7f7f7"/>
    <polyline points="382.3 151.8 369.9 151.8 369.9 141.3" fill="none" stroke="#8acaff" stroke-miterlimit="10"/>
    <polyline points="357.2 151.8 344.8 151.8 344.8 141.3" fill="none" stroke="#8acaff" stroke-miterlimit="10"/>
    <rect x="337.5" y="130.6" width="19.9" height="10.5" fill="#f7f7f7"/>
    <polyline points="372.7 130.6 372.7 141.2 352.8 141.2" fill="none" stroke="#8acaff" stroke-miterlimit="10"/>
    <rect x="302" y="143.5" width="19.9" height="10.5" fill="#f7f7f7"/>
    <line x1="372.7" y1="141.2" x2="380.1" y2="141.2" fill="none" stroke="#8acaff" stroke-miterlimit="10"/>
    <polyline points="319.7 151.8 332.1 151.8 332.1 141.3" fill="none" stroke="#8acaff" stroke-miterlimit="10"/>
    <polyline points="339.9 130.6 339.9 141.2 320 141.2" fill="none" stroke="#8acaff" stroke-miterlimit="10"/>
    <line x1="339.8" y1="141.2" x2="347.3" y2="141.2" fill="none" stroke="#8acaff" stroke-miterlimit="10"/>
    <polyline points="351.3 151.9 351.3 162.4 339 162.4" fill="none" stroke="#8acaff" stroke-miterlimit="10"/>
    <polyline points="413.3 151.8 425.8 151.8 425.8 141.3" fill="none" stroke="#8acaff" stroke-miterlimit="10"/>
    <polyline points="423 130.6 423 141.2 442.8 141.2" fill="none" stroke="#8acaff" stroke-miterlimit="10"/>
    <line x1="423" y1="141.2" x2="415.5" y2="141.2" fill="none" stroke="#8acaff" stroke-miterlimit="10"/>
    <line x1="351.3" y1="162.4" x2="358.7" y2="162.4" fill="none" stroke="#8acaff" stroke-miterlimit="10"/>
  </g>
  <g>
    <rect x="571.8" y="265.5" width="19.9" height="10.5" fill="#f7f7f7"/>
    <rect x="540.9" y="276.1" width="19.9" height="10.5" fill="#f7f7f7"/>
    <rect x="673.4" y="278.4" width="19.9" height="10.5" fill="#f7f7f7"/>
    <polyline points="700.6 286.6 688.2 286.6 688.2 276.1" fill="none" stroke="#8acaff" stroke-miterlimit="10"/>
    <polyline points="675.5 286.6 663.1 286.6 663.1 276.1" fill="none" stroke="#8acaff" stroke-miterlimit="10"/>
    <rect x="655.7" y="265.5" width="19.9" height="10.5" fill="#f7f7f7"/>
    <polyline points="691 265.5 691 276 671.1 276" fill="none" stroke="#8acaff" stroke-miterlimit="10"/>
    <rect x="620.3" y="278.4" width="19.9" height="10.5" fill="#f7f7f7"/>
    <line x1="691" y1="276" x2="698.4" y2="276" fill="none" stroke="#8acaff" stroke-miterlimit="10"/>
    <polyline points="638 286.6 650.5 286.6 650.5 276.1" fill="none" stroke="#8acaff" stroke-miterlimit="10"/>
    <polyline points="658.1 265.5 658.1 276 638.3 276" fill="none" stroke="#8acaff" stroke-miterlimit="10"/>
    <line x1="658.1" y1="276" x2="665.5" y2="276" fill="none" stroke="#8acaff" stroke-miterlimit="10"/>
    <polyline points="669.6 286.7 669.6 297.3 657.3 297.3" fill="none" stroke="#8acaff" stroke-miterlimit="10"/>
    <polyline points="538.4 286.6 550.9 286.6 550.9 276.1" fill="none" stroke="#8acaff" stroke-miterlimit="10"/>
    <polyline points="563.5 286.6 576 286.6 576 276.1" fill="none" stroke="#8acaff" stroke-miterlimit="10"/>
    <polyline points="548.1 265.5 548.1 276 568 276" fill="none" stroke="#8acaff" stroke-miterlimit="10"/>
    <line x1="548.1" y1="276" x2="540.7" y2="276" fill="none" stroke="#8acaff" stroke-miterlimit="10"/>
    <polyline points="601 286.6 588.6 286.6 588.6 276.1" fill="none" stroke="#8acaff" stroke-miterlimit="10"/>
    <polyline points="580.9 265.5 580.9 276 600.8 276" fill="none" stroke="#8acaff" stroke-miterlimit="10"/>
    <line x1="580.9" y1="276" x2="573.5" y2="276" fill="none" stroke="#8acaff" stroke-miterlimit="10"/>
    <polyline points="569.5 286.7 569.5 297.3 581.8 297.3" fill="none" stroke="#8acaff" stroke-miterlimit="10"/>
    <line x1="669.6" y1="297.3" x2="677" y2="297.3" fill="none" stroke="#8acaff" stroke-miterlimit="10"/>
  </g>
  <g>
    <rect x="274.3" y="265.5" width="19.9" height="10.5" fill="#f7f7f7"/>
    <rect x="243.4" y="276.1" width="19.9" height="10.5" fill="#f7f7f7"/>
    <rect x="375.8" y="278.4" width="19.9" height="10.5" fill="#f7f7f7"/>
    <polyline points="403.1 286.6 390.6 286.6 390.6 276.1" fill="none" stroke="#8acaff" stroke-miterlimit="10"/>
    <polyline points="378 286.6 365.5 286.6 365.5 276.1" fill="none" stroke="#8acaff" stroke-miterlimit="10"/>
    <rect x="358.2" y="265.5" width="19.9" height="10.5" fill="#f7f7f7"/>
    <polyline points="393.4 265.5 393.4 276 373.6 276" fill="none" stroke="#8acaff" stroke-miterlimit="10"/>
    <rect x="322.7" y="278.4" width="19.9" height="10.5" fill="#f7f7f7"/>
    <line x1="393.4" y1="276" x2="400.9" y2="276" fill="none" stroke="#8acaff" stroke-miterlimit="10"/>
    <polyline points="340.5 286.6 352.9 286.6 352.9 276.1" fill="none" stroke="#8acaff" stroke-miterlimit="10"/>
    <polyline points="360.6 265.5 360.6 276 340.7 276" fill="none" stroke="#8acaff" stroke-miterlimit="10"/>
    <line x1="360.6" y1="276" x2="368" y2="276" fill="none" stroke="#8acaff" stroke-miterlimit="10"/>
    <polyline points="372 286.7 372 297.3 359.7 297.3" fill="none" stroke="#8acaff" stroke-miterlimit="10"/>
    <polyline points="240.9 286.6 253.4 286.6 253.4 276.1" fill="none" stroke="#8acaff" stroke-miterlimit="10"/>
    <polyline points="266 286.6 278.4 286.6 278.4 276.1" fill="none" stroke="#8acaff" stroke-miterlimit="10"/>
    <polyline points="250.5 265.5 250.5 276 270.4 276" fill="none" stroke="#8acaff" stroke-miterlimit="10"/>
    <line x1="250.5" y1="276" x2="243.1" y2="276" fill="none" stroke="#8acaff" stroke-miterlimit="10"/>
    <polyline points="303.5 286.6 291.1 286.6 291.1 276.1" fill="none" stroke="#8acaff" stroke-miterlimit="10"/>
    <polyline points="283.4 265.5 283.4 276 303.3 276" fill="none" stroke="#8acaff" stroke-miterlimit="10"/>
    <line x1="283.4" y1="276" x2="276" y2="276" fill="none" stroke="#8acaff" stroke-miterlimit="10"/>
    <polyline points="271.9 286.7 271.9 297.3 284.2 297.3" fill="none" stroke="#8acaff" stroke-miterlimit="10"/>
    <line x1="372" y1="297.3" x2="379.5" y2="297.3" fill="none" stroke="#8acaff" stroke-miterlimit="10"/>
  </g>
  <g>
    <rect x="214.8" y="342.3" width="19.9" height="10.5" fill="#f7f7f7"/>
    <rect x="316.3" y="355.2" width="19.9" height="10.5" fill="#f7f7f7"/>
    <polyline points="343.6 363.5 331.1 363.5 331.1 353" fill="none" stroke="#8acaff" stroke-miterlimit="10"/>
    <polyline points="318.5 363.5 306 363.5 306 353" fill="none" stroke="#8acaff" stroke-miterlimit="10"/>
    <rect x="298.7" y="342.3" width="19.9" height="10.5" fill="#f7f7f7"/>
    <polyline points="333.9 342.3 333.9 352.9 314.1 352.9" fill="none" stroke="#8acaff" stroke-miterlimit="10"/>
    <rect x="263.2" y="355.2" width="19.9" height="10.5" fill="#f7f7f7"/>
    <line x1="333.9" y1="352.9" x2="341.4" y2="352.9" fill="none" stroke="#8acaff" stroke-miterlimit="10"/>
    <polyline points="281 363.5 293.4 363.5 293.4 353" fill="none" stroke="#8acaff" stroke-miterlimit="10"/>
    <polyline points="301.1 342.3 301.1 352.9 281.2 352.9" fill="none" stroke="#8acaff" stroke-miterlimit="10"/>
    <line x1="301.1" y1="352.9" x2="308.5" y2="352.9" fill="none" stroke="#8acaff" stroke-miterlimit="10"/>
    <polyline points="312.5 363.6 312.5 374.1 300.2 374.1" fill="none" stroke="#8acaff" stroke-miterlimit="10"/>
    <polyline points="206.5 363.5 218.9 363.5 218.9 353" fill="none" stroke="#8acaff" stroke-miterlimit="10"/>
    <polyline points="244 363.5 231.6 363.5 231.6 353" fill="none" stroke="#8acaff" stroke-miterlimit="10"/>
    <polyline points="223.9 342.3 223.9 352.9 243.8 352.9" fill="none" stroke="#8acaff" stroke-miterlimit="10"/>
    <line x1="223.9" y1="352.9" x2="216.5" y2="352.9" fill="none" stroke="#8acaff" stroke-miterlimit="10"/>
    <polyline points="212.4 363.6 212.4 374.1 224.7 374.1" fill="none" stroke="#8acaff" stroke-miterlimit="10"/>
    <line x1="312.5" y1="374.1" x2="320" y2="374.1" fill="none" stroke="#8acaff" stroke-miterlimit="10"/>
  </g>
  <g>
    <rect x="152.3" y="418.2" width="19.9" height="10.5" fill="#f7f7f7"/>
    <rect x="121.4" y="428.8" width="19.9" height="10.5" fill="#f7f7f7"/>
    <rect x="253.8" y="431.1" width="19.9" height="10.5" fill="#f7f7f7"/>
    <polyline points="281.1 439.4 268.6 439.4 268.6 428.8" fill="none" stroke="#8acaff" stroke-miterlimit="10"/>
    <polyline points="256 439.4 243.5 439.4 243.5 428.8" fill="none" stroke="#8acaff" stroke-miterlimit="10"/>
    <rect x="236.2" y="418.2" width="19.9" height="10.5" fill="#f7f7f7"/>
    <polyline points="271.4 418.2 271.4 428.7 251.6 428.7" fill="none" stroke="#8acaff" stroke-miterlimit="10"/>
    <rect x="200.7" y="431.1" width="19.9" height="10.5" fill="#f7f7f7"/>
    <line x1="271.4" y1="428.7" x2="278.8" y2="428.7" fill="none" stroke="#8acaff" stroke-miterlimit="10"/>
    <polyline points="218.4 439.4 230.9 439.4 230.9 428.8" fill="none" stroke="#8acaff" stroke-miterlimit="10"/>
    <polyline points="238.6 418.2 238.6 428.7 218.7 428.7" fill="none" stroke="#8acaff" stroke-miterlimit="10"/>
    <line x1="238.6" y1="428.7" x2="246" y2="428.7" fill="none" stroke="#8acaff" stroke-miterlimit="10"/>
    <polyline points="250 439.5 250 450 237.7 450" fill="none" stroke="#8acaff" stroke-miterlimit="10"/>
    <polyline points="118.9 439.4 131.3 439.4 131.3 428.8" fill="none" stroke="#8acaff" stroke-miterlimit="10"/>
    <polyline points="144 439.4 156.4 439.4 156.4 428.8" fill="none" stroke="#8acaff" stroke-miterlimit="10"/>
    <polyline points="128.5 418.2 128.5 428.7 148.4 428.7" fill="none" stroke="#8acaff" stroke-miterlimit="10"/>
    <line x1="128.5" y1="428.7" x2="121.1" y2="428.7" fill="none" stroke="#8acaff" stroke-miterlimit="10"/>
    <polyline points="181.5 439.4 169.1 439.4 169.1 428.8" fill="none" stroke="#8acaff" stroke-miterlimit="10"/>
    <polyline points="161.4 418.2 161.4 428.7 181.2 428.7" fill="none" stroke="#8acaff" stroke-miterlimit="10"/>
    <line x1="161.4" y1="428.7" x2="153.9" y2="428.7" fill="none" stroke="#8acaff" stroke-miterlimit="10"/>
    <polyline points="149.9 439.5 149.9 450 162.2 450" fill="none" stroke="#8acaff" stroke-miterlimit="10"/>
    <line x1="250" y1="450" x2="257.5" y2="450" fill="none" stroke="#8acaff" stroke-miterlimit="10"/>
  </g>
  <g>
    <rect x="294.9" y="537.7" width="19.9" height="10.5" fill="#f7f7f7"/>
    <rect x="264" y="548.3" width="19.9" height="10.5" fill="#f7f7f7"/>
    <rect x="396.4" y="550.6" width="19.9" height="10.5" fill="#f7f7f7"/>
    <polyline points="423.7 558.8 411.2 558.8 411.2 548.3" fill="none" stroke="#8acaff" stroke-miterlimit="10"/>
    <polyline points="398.6 558.8 386.2 558.8 386.2 548.3" fill="none" stroke="#8acaff" stroke-miterlimit="10"/>
    <rect x="378.8" y="537.7" width="19.9" height="10.5" fill="#f7f7f7"/>
    <polyline points="414.1 537.7 414.1 548.2 394.2 548.2" fill="none" stroke="#8acaff" stroke-miterlimit="10"/>
    <rect x="343.3" y="550.6" width="19.9" height="10.5" fill="#f7f7f7"/>
    <line x1="414.1" y1="548.2" x2="421.5" y2="548.2" fill="none" stroke="#8acaff" stroke-miterlimit="10"/>
    <polyline points="361.1 558.8 373.5 558.8 373.5 548.3" fill="none" stroke="#8acaff" stroke-miterlimit="10"/>
    <polyline points="381.2 537.7 381.2 548.2 361.4 548.2" fill="none" stroke="#8acaff" stroke-miterlimit="10"/>
    <line x1="381.2" y1="548.2" x2="388.6" y2="548.2" fill="none" stroke="#8acaff" stroke-miterlimit="10"/>
    <polyline points="392.7 559 392.7 569.5 380.4 569.5" fill="none" stroke="#8acaff" stroke-miterlimit="10"/>
    <polyline points="261.5 558.8 274 558.8 274 548.3" fill="none" stroke="#8acaff" stroke-miterlimit="10"/>
    <polyline points="286.6 558.8 299 558.8 299 548.3" fill="none" stroke="#8acaff" stroke-miterlimit="10"/>
    <polyline points="271.1 537.7 271.1 548.2 291 548.2" fill="none" stroke="#8acaff" stroke-miterlimit="10"/>
    <line x1="271.1" y1="548.2" x2="263.7" y2="548.2" fill="none" stroke="#8acaff" stroke-miterlimit="10"/>
    <polyline points="324.1 558.8 311.7 558.8 311.7 548.3" fill="none" stroke="#8acaff" stroke-miterlimit="10"/>
    <polyline points="304 537.7 304 548.2 323.9 548.2" fill="none" stroke="#8acaff" stroke-miterlimit="10"/>
    <line x1="304" y1="548.2" x2="296.6" y2="548.2" fill="none" stroke="#8acaff" stroke-miterlimit="10"/>
    <polyline points="292.5 559 292.5 569.5 304.9 569.5" fill="none" stroke="#8acaff" stroke-miterlimit="10"/>
    <line x1="392.7" y1="569.5" x2="400.1" y2="569.5" fill="none" stroke="#8acaff" stroke-miterlimit="10"/>
  </g>
  <g>
    <rect x="645" y="207.1" width="19.9" height="10.5" fill="#f7f7f7"/>
    <polyline points="672.2 215.3 659.8 215.3 659.8 204.8" fill="none" stroke="#8acaff" stroke-miterlimit="10"/>
    <polyline points="647.1 215.3 634.7 215.3 634.7 204.8" fill="none" stroke="#8acaff" stroke-miterlimit="10"/>
    <rect x="627.3" y="194.2" width="19.9" height="10.5" fill="#f7f7f7"/>
    <polyline points="662.6 194.2 662.6 204.7 642.7 204.7" fill="none" stroke="#8acaff" stroke-miterlimit="10"/>
    <rect x="591.8" y="207.1" width="19.9" height="10.5" fill="#f7f7f7"/>
    <line x1="662.6" y1="204.7" x2="670" y2="204.7" fill="none" stroke="#8acaff" stroke-miterlimit="10"/>
    <polyline points="609.6 215.3 622 215.3 622 204.8" fill="none" stroke="#8acaff" stroke-miterlimit="10"/>
    <polyline points="629.7 194.2 629.7 204.7 609.9 204.7" fill="none" stroke="#8acaff" stroke-miterlimit="10"/>
    <line x1="629.7" y1="204.7" x2="637.2" y2="204.7" fill="none" stroke="#8acaff" stroke-miterlimit="10"/>
    <polyline points="641.2 215.4 641.2 226 628.9 226" fill="none" stroke="#8acaff" stroke-miterlimit="10"/>
    <line x1="641.2" y1="226" x2="648.6" y2="226" fill="none" stroke="#8acaff" stroke-miterlimit="10"/>
  </g>
  <g>
    <rect x="411.5" y="207.1" width="19.9" height="10.5" fill="#f7f7f7"/>
    <polyline points="438.7 215.3 426.3 215.3 426.3 204.8" fill="none" stroke="#8acaff" stroke-miterlimit="10"/>
    <polyline points="413.6 215.3 401.2 215.3 401.2 204.8" fill="none" stroke="#8acaff" stroke-miterlimit="10"/>
    <rect x="393.9" y="194.2" width="19.9" height="10.5" fill="#f7f7f7"/>
    <polyline points="429.1 194.2 429.1 204.7 409.2 204.7" fill="none" stroke="#8acaff" stroke-miterlimit="10"/>
    <rect x="358.4" y="207.1" width="19.9" height="10.5" fill="#f7f7f7"/>
    <line x1="429.1" y1="204.7" x2="436.5" y2="204.7" fill="none" stroke="#8acaff" stroke-miterlimit="10"/>
    <polyline points="376.1 215.3 388.6 215.3 388.6 204.8" fill="none" stroke="#8acaff" stroke-miterlimit="10"/>
    <polyline points="396.3 194.2 396.3 204.7 376.4 204.7" fill="none" stroke="#8acaff" stroke-miterlimit="10"/>
    <line x1="396.3" y1="204.7" x2="403.7" y2="204.7" fill="none" stroke="#8acaff" stroke-miterlimit="10"/>
    <polyline points="407.7 215.4 407.7 226 395.4 226" fill="none" stroke="#8acaff" stroke-miterlimit="10"/>
    <line x1="407.7" y1="226" x2="415.1" y2="226" fill="none" stroke="#8acaff" stroke-miterlimit="10"/>
  </g>
  <g>
    <path d="M221.2,462.2l-8.5-24.7H106.9l-8.5,24.7a166.92,166.92,0,0,0,0,107.7l8.5,24.7H212.8l8.5-24.7C232.8,535.5,230.5,497.4,221.2,462.2Z" fill="#fff" stroke="#8acaff" stroke-miterlimit="10"/>
    <line x1="159.8" y1="437.5" x2="159.8" y2="594.6" fill="none" stroke="#8acaff" stroke-miterlimit="10"/>
    <path d="M127.4,437.5l-8.5,24.7a166.92,166.92,0,0,0,0,107.7l8.5,24.7" fill="none" stroke="#8acaff" stroke-miterlimit="10"/>
    <path d="M144.3,437.5s-24.9,69.5,0,157" fill="none" stroke="#8acaff" stroke-miterlimit="10"/>
    <path d="M192.2,437.5l8.5,24.7a166.92,166.92,0,0,1,0,107.7l-8.5,24.7" fill="none" stroke="#8acaff" stroke-miterlimit="10"/>
    <path d="M175.3,437.5s24.9,69.5,0,157" fill="none" stroke="#8acaff" stroke-miterlimit="10"/>
    <path d="M107.3,434.1h105a3.48,3.48,0,0,1,3.5,3.5h0a3.48,3.48,0,0,1-3.5,3.5h-105a3.48,3.48,0,0,1-3.5-3.5h0A3.48,3.48,0,0,1,107.3,434.1Z" fill="#fff" stroke="#8acaff" stroke-miterlimit="10"/>
    <path d="M107.3,591.1h105a3.48,3.48,0,0,1,3.5,3.5h0a3.48,3.48,0,0,1-3.5,3.5h-105a3.48,3.48,0,0,1-3.5-3.5h0A3.54,3.54,0,0,1,107.3,591.1Z" fill="#fff" stroke="#8acaff" stroke-miterlimit="10"/>
    <path d="M90.1,512.6H229.5a3.48,3.48,0,0,1,3.5,3.5h0a3.48,3.48,0,0,1-3.5,3.5H90.1a3.48,3.48,0,0,1-3.5-3.5h0A3.54,3.54,0,0,1,90.1,512.6Z" fill="#fff" stroke="#8acaff" stroke-miterlimit="10"/>
  </g>
  <line x1="87.2" y1="517.8" x2="232.4" y2="517.8" fill="none" stroke="#8acaff" stroke-miterlimit="10"/>
  <line x1="103.8" y1="439" x2="215.1" y2="439" fill="none" stroke="#8acaff" stroke-miterlimit="10"/>
  <g class="floor-morebtn">
    <path d="M119.7,463.3H200a3.54,3.54,0,0,1,3.5,3.5v68a3.54,3.54,0,0,1-3.5,3.5H119.7a3.54,3.54,0,0,1-3.5-3.5v-68A3.48,3.48,0,0,1,119.7,463.3Z" fill="#fff" stroke="#8acaff" stroke-miterlimit="10"/>
    <path d="M122.7,467.1h74.2a2.11,2.11,0,0,1,2.1,2.1v63.2a2.11,2.11,0,0,1-2.1,2.1H122.7a2.11,2.11,0,0,1-2.1-2.1V469.2A2.18,2.18,0,0,1,122.7,467.1Z" fill="#0092d3"/>
    <text transform="translate(140.54 495.28)" font-size="18" fill="#fff" font-family="MicrosoftJhengHeiRegular, Microsoft JhengHei" style="isolation: isolate">更多</text>
    <text transform="translate(140.54 518.62)" font-size="18" fill="#fff" font-family="MicrosoftJhengHeiRegular, Microsoft JhengHei" style="isolation: isolate">專案</text>
  </g>
  <g>
    <path d="M155.3,377.3l-3.3-2h-9.4l-3.4,2a9.94,9.94,0,0,0-4.9,8.7v44.6a3.16,3.16,0,0,0,3.2,3.2H157a3.16,3.16,0,0,0,3.2-3.2V386A10.41,10.41,0,0,0,155.3,377.3Z" fill="#fff" stroke="#8acaff" stroke-miterlimit="10"/>
    <path d="M151.5,377.3l-3.3-2h-.9V356.6h-8.4v18.7h0l-3.4,2a9.94,9.94,0,0,0-4.9,8.7v44.6a3.16,3.16,0,0,0,3.2,3.2h19.5a3.16,3.16,0,0,0,3.2-3.2V386A10.38,10.38,0,0,0,151.5,377.3Z" fill="#f7f7f7"/>
    <polygon points="150 356.3 142.6 356.3 142.6 363.7 150 363.7 151.8 363.7 151.8 356.3 150 356.3" fill="none" stroke="#8acaff" stroke-miterlimit="10"/>
    <polygon points="150 363.7 142.6 363.7 142.6 375.3 150 375.3 151.8 375.3 151.8 363.7 150 363.7" fill="none" stroke="#8acaff" stroke-miterlimit="10"/>
    <path d="M155.3,377.3l-3.3-2h-9.4l-3.4,2a9.94,9.94,0,0,0-4.9,8.7v44.6a3.16,3.16,0,0,0,3.2,3.2H157a3.16,3.16,0,0,0,3.2-3.2V386A10.41,10.41,0,0,0,155.3,377.3Z" fill="none" stroke="#8acaff" stroke-miterlimit="10"/>
    <rect x="134.2" y="390" width="26" height="20.4" fill="#fff" stroke="#8acaff" stroke-miterlimit="10"/>
    <line x1="137.4" y1="429.9" x2="157.4" y2="429.9" fill="none" stroke="#8acaff" stroke-miterlimit="10"/>
  </g>
  <path d="M628.8,535.9c-2.9-8.7-10.5-14.5-19.2-14.5H323.9c-8.6,0-16.3,5.8-19.1,14.5l-20.5,62.4h365Z" fill="#f7f7f7"/>
  <path d="M649.8,535.9a20.34,20.34,0,0,0-19.2-14.5H344.9c-8.6,0-16.3,5.8-19.1,14.5l-20.5,62.4h365Z" fill="none" stroke="#8acaff" stroke-miterlimit="10"/>
  <g>
    <path d="M183.9,362.2l-3.3-2h-.9V341.5h-8.4v18.7h0l-3.4,2a9.94,9.94,0,0,0-4.9,8.7v59.8a3.2,3.2,0,0,0,3.1,3.2h19.5a3.16,3.16,0,0,0,3.2-3.2V370.9A10.38,10.38,0,0,0,183.9,362.2Z" fill="#f7f7f7"/>
    <polygon points="181.4 341.5 174.6 341.5 174.6 348.9 181.4 348.9 183.1 348.9 183.1 341.5 181.4 341.5" fill="none" stroke="#8acaff" stroke-miterlimit="10"/>
    <polygon points="181.4 348.9 174.6 348.9 174.6 360.1 181.4 360.1 183.1 360.1 183.1 348.9 181.4 348.9" fill="none" stroke="#8acaff" stroke-miterlimit="10"/>
    <path d="M187.3,362.2l-3.3-2h-9.4l-3.4,2a9.94,9.94,0,0,0-4.9,8.7v59.8a3.16,3.16,0,0,0,3.2,3.2H189a3.16,3.16,0,0,0,3.2-3.2V370.9A9.94,9.94,0,0,0,187.3,362.2Z" fill="none" stroke="#8acaff" stroke-miterlimit="10"/>
    <rect x="166.2" y="374.9" width="26" height="20.4" fill="#fff" stroke="#8acaff" stroke-miterlimit="10"/>
    <line x1="169.4" y1="429.9" x2="189.4" y2="429.9" fill="none" stroke="#8acaff" stroke-miterlimit="10"/>
  </g>
  <rect x="85.6" y="353" width="19.9" height="10.5" fill="#f7f7f7"/>
  <polyline points="83.1 363.5 95.5 363.5 95.5 353" fill="none" stroke="#8acaff" stroke-miterlimit="10"/>
  <polyline points="92.7 342.3 92.7 352.9 112.6 352.9" fill="none" stroke="#8acaff" stroke-miterlimit="10"/>
  <line x1="92.7" y1="352.9" x2="85.3" y2="352.9" fill="none" stroke="#8acaff" stroke-miterlimit="10"/>
  <g>
    <path d="M123.3,398.8H107.8l5.2,32.4a3.44,3.44,0,0,0,3.4,2.9H130a3.44,3.44,0,0,0,3.4-2.9l5.2-32.4Z" fill="none" stroke="#8acaff" stroke-miterlimit="10"/>
    <line x1="114" y1="429.9" x2="133.7" y2="429.9" fill="none" stroke="#8acaff" stroke-miterlimit="10"/>
    <polygon points="113 417.7 114.6 427.9 131.9 427.9 133.6 417.7 113 417.7" fill="#8acaff"/>
    <g>
      <rect x="115.31" y="413.82" width="8.9" height="9" transform="translate(-215.74 141.24) rotate(-34.47)" fill="#fff" stroke="#8acaff" stroke-miterlimit="10"/>
      <polyline points="121 412.1 118.9 418.4 121.7 422.5" fill="#fff" stroke="#8acaff" stroke-miterlimit="10"/>
      <line x1="118.9" y1="418.4" x2="113.6" y2="417.1" fill="none" stroke="#8acaff" stroke-miterlimit="10"/>
    </g>
    <g>
      <rect x="123.36" y="412.71" width="9" height="8.9" transform="matrix(0.6, -0.8, 0.8, 0.6, -281.97, 267.45)" fill="#fff" stroke="#8acaff" stroke-miterlimit="10"/>
      <polyline points="134.1 416.3 127.5 416.4 124.5 420.3" fill="#fff" stroke="#8acaff" stroke-miterlimit="10"/>
      <line x1="127.5" y1="416.4" x2="127" y2="410.9" fill="none" stroke="#8acaff" stroke-miterlimit="10"/>
    </g>
  </g>
  <g>
    <circle cx="487.8" cy="385.4" r="163.3" fill="#fff" stroke="#8acaff" stroke-miterlimit="10"/>
    <circle cx="487.8" cy="385.4" r="158.9" fill="#fff" stroke="#8acaff" stroke-miterlimit="10"/>
    <circle cx="487.8" cy="385.4" r="143" fill="#fff" stroke="#8acaff" stroke-miterlimit="10"/>
    <circle cx="487.8" cy="385.4" r="147.4" fill="none" stroke="#8acaff" stroke-miterlimit="10"/>
    <line x1="487.8" y1="242.4" x2="487.8" y2="528.4" fill="none" stroke="#8acaff" stroke-miterlimit="10"/>
    <line x1="534.9" y1="250.3" x2="534.9" y2="520.4" fill="none" stroke="#8acaff" stroke-miterlimit="10"/>
    <line x1="582" y1="277.8" x2="582" y2="493" fill="none" stroke="#8acaff" stroke-miterlimit="10"/>
    <line x1="440.7" y1="250.3" x2="440.7" y2="520.4" fill="none" stroke="#8acaff" stroke-miterlimit="10"/>
    <line x1="393.6" y1="277.8" x2="393.6" y2="493" fill="none" stroke="#8acaff" stroke-miterlimit="10"/>
    <g class="floor-label">
      <g>
        <circle cx="488.2" cy="383.1" r="121.3" fill="#0092d3"/>
        <g clip-path="url(#a)">
          <image width="599" height="596" transform="translate(373.9 263.96) scale(0.4 0.41)" xlink:href="33D4479B.jpg" style="isolation: isolate"/>
        </g>
      </g>
      <g>
        <g>
          <path d="M568.7,533.2v13.7a9.65,9.65,0,0,1-9.7,9.7H415a9.65,9.65,0,0,1-9.7-9.7V490.1a9.65,9.65,0,0,1,9.7-9.7H559a9.65,9.65,0,0,1,9.7,9.7Z" fill="#fff" stroke="#8acaff" stroke-miterlimit="10"/>
          <path d="M562.7,529.2v16.6a4.91,4.91,0,0,1-4.9,4.9H416.2a4.91,4.91,0,0,1-4.9-4.9V491.4a4.91,4.91,0,0,1,4.9-4.9H557.9a4.91,4.91,0,0,1,4.9,4.9v37.8Z" fill="#fff" stroke="#8acaff" stroke-miterlimit="10"/>
        </g>
        <text class="floor-title" text-anchor="middle" transform="translate(487.00 527.17)" font-size="22.64" fill="#666" font-family="'PingFang TC','HeiTi TC','Microsoft JhengHei',sans-serif" style="isolation: isolate">微軟</text>
      </g>
    </g>
    <g>
      <circle cx="420.5" cy="495.6" r="2.7" fill="#8acaff"/>
      <circle cx="420.5" cy="541.5" r="2.7" fill="#8acaff"/>
      <circle cx="555" cy="495.6" r="2.7" fill="#8acaff"/>
      <circle cx="555" cy="541.5" r="2.7" fill="#8acaff"/>
    </g>
  </g>
  <g>
    <rect x="30.7" y="42.6" width="401.8" height="218.7" fill="#fff" stroke="#8acaff" stroke-miterlimit="10"/>
    <rect x="35.6" y="47.2" width="392" height="209.5" fill="#fff" stroke="#8acaff" stroke-miterlimit="10"/>
    <text transform="translate(65.15 198.36)" font-size="18" fill="#666" font-family="MicrosoftJhengHeiRegular, Microsoft JhengHei" style="isolation: isolate">好酒都在這，不同年份、各種釀酒師，若</text>
    <text transform="translate(65.15 225.35)" font-size="18" fill="#666" font-family="MicrosoftJhengHeiRegular, Microsoft JhengHei" style="isolation: isolate">對品嚐有興趣，歡迎填表單留下訊息。</text>
    <text transform="translate(65.15 156.69)" font-size="40" fill="#0092d3" font-family="MicrosoftJhengHeiRegular, Microsoft JhengHei" letter-spacing="0.07em" style="isolation: isolate">喝一口就不想走</text>
    <line x1="132.2" y1="172.3" x2="65.2" y2="172.3" fill="none" stroke="#069fd5" stroke-miterlimit="10"/>
    <text transform="translate(65.15 107.46)" font-size="46.65" fill="#0092d3" font-family="ArialMT, Arial" style="isolation: isolate">B1</text>
    <text transform="translate(119.36 107.46)" font-size="23.95" fill="#0092d3" font-family="ArialMT, Arial" style="isolation: isolate">f</text>
  </g>
  <g class="floor-btn">
    <path d="M297.3,366.1v38.7a6.06,6.06,0,0,0,6.1,6.1H342a6.06,6.06,0,0,0,6.1-6.1V366.1A6.06,6.06,0,0,0,342,360H303.3A6,6,0,0,0,297.3,366.1Z" fill="#fff" stroke="#0092d3" stroke-miterlimit="10"/>
    <path d="M302.9,368.6v33.6a3,3,0,0,0,3,3h33.6a3,3,0,0,0,3-3V368.6a3,3,0,0,0-3-3H305.9A2.89,2.89,0,0,0,302.9,368.6Z" fill="none" stroke="#0092d3" stroke-miterlimit="10"/>
    <polygon points="326.9 378.5 318.5 385.4 326.9 392.3 326.9 378.5" fill="#0092d3" stroke="#0092d3" stroke-miterlimit="10"/>
  </g>
  <g class="floor-btn">
    <path d="M676.8,403.5V364.8a6.06,6.06,0,0,0-6.1-6.1H632a6.06,6.06,0,0,0-6.1,6.1v38.7a6.06,6.06,0,0,0,6.1,6.1h38.7A6.19,6.19,0,0,0,676.8,403.5Z" fill="#fff" stroke="#0092d3" stroke-miterlimit="10"/>
    <path d="M671.3,400.9V367.3a3,3,0,0,0-3-3H634.7a3,3,0,0,0-3,3v33.6a3,3,0,0,0,3,3h33.6A3,3,0,0,0,671.3,400.9Z" fill="none" stroke="#0092d3" stroke-miterlimit="10"/>
    <polygon points="647.2 391.1 655.7 384.1 647.2 377.2 647.2 391.1" fill="#0092d3" stroke="#0092d3" stroke-miterlimit="10"/>
  </g>
</svg>
