<svg xmlns="http://www.w3.org/2000/svg" xmlns:xlink="http://www.w3.org/1999/xlink" viewBox="0 0 751 530.45">
  <defs>
    <clipPath id="a">
      <path d="M724.69,73,639,43.06l-29.84,69.3H549.57a4.5,4.5,0,0,0,0,9H692.71a4.5,4.5,0,0,0,4.5-4.5,4.45,4.45,0,0,0-.65-2.28Z" fill="none"/>
    </clipPath>
  </defs>
  <title>roofgardenmobile</title>
  <g>
    <g>
      <path d="M681.62,462.9c-.11-.45-12.3-45.25-55.07-54.42l.63-2.93c44.6,9.56,57.23,56.13,57.35,56.6Z" fill="#fff" stroke="#8acaff" stroke-miterlimit="10"/>
      <path d="M683.08,457.89a1.47,1.47,0,0,1-.36,0,1.5,1.5,0,0,1-1.1-1.82c.12-.47,12.1-47,55.73-53.88a1.5,1.5,0,0,1,.46,3c-41.68,6.55-53.17,51.18-53.28,51.63A1.49,1.49,0,0,1,683.08,457.89Z" fill="#fff" stroke="#8acaff" stroke-miterlimit="10"/>
      <rect x="681.46" y="408.87" width="4" height="59.69" fill="#fff" stroke="#8acaff" stroke-miterlimit="10"/>
      <polygon points="638.17 473.69 650.56 529.95 680.72 529.95 680.72 528.11 687.95 528.11 687.95 529.95 718.02 529.95 730.41 473.69 638.17 473.69" fill="#fff" stroke="#8acaff" stroke-miterlimit="10"/>
      <path d="M789.29,344.68a47.55,47.55,0,0,0-11.48-31,36.54,36.54,0,0,0-46.28-39.34,36.53,36.53,0,0,0-61.72-13,36.51,36.51,0,0,0-52.29,14.24,47.75,47.75,0,0,0-42.83,79.66,47.75,47.75,0,0,0,44.19,62.93,36.53,36.53,0,0,0,65.49,14.07,47.76,47.76,0,0,0,80.31-45.73A47.75,47.75,0,0,0,789.29,344.68Z" fill="#0092d3" stroke="#8acaff" stroke-miterlimit="10"/>
      <g>
        <path d="M675.23,294.31a19,19,0,0,0-18-.24L666,311Z" fill="#fff" stroke="#8acaff" stroke-miterlimit="10"/>
        <path d="M649.12,319.74a19.05,19.05,0,0,0,25.67,8.14L666,311l-8.76-16.91A19,19,0,0,0,649.12,319.74Z" fill="#8acaff" stroke="#8acaff" stroke-miterlimit="10"/>
        <path d="M666,311l8.76,16.9a19,19,0,0,0,.44-33.57Z" fill="#c2deff" stroke="#8acaff" stroke-miterlimit="10"/>
        <path d="M651.83,301.4a16.66,16.66,0,0,0-.93,17.41" fill="none" stroke="#fff" stroke-miterlimit="10"/>
      </g>
      <g>
        <path d="M637,431.14A15.39,15.39,0,0,0,640.24,417L625.38,421Z" fill="#fff" stroke="#8acaff" stroke-miterlimit="10"/>
        <path d="M621.31,406.17a15.4,15.4,0,0,0-10.79,18.93L625.38,421,640.24,417A15.42,15.42,0,0,0,621.31,406.17Z" fill="#8acaff" stroke="#8acaff" stroke-miterlimit="10"/>
        <path d="M625.38,421l-14.86,4.07a15.4,15.4,0,0,0,26.48,6Z" fill="#c2deff" stroke="#8acaff" stroke-miterlimit="10"/>
        <path d="M635.36,411.42a13.47,13.47,0,0,0-13.62-3.68" fill="none" stroke="#fff" stroke-miterlimit="10"/>
      </g>
      <g>
        <path d="M702.1,415.73a15.36,15.36,0,0,0,3.23-14.17l-14.86,4.06Z" fill="#fff" stroke="#8acaff" stroke-miterlimit="10"/>
        <path d="M686.41,390.76a15.41,15.41,0,0,0-10.8,18.93l14.86-4.07,14.86-4.06A15.4,15.4,0,0,0,686.41,390.76Z" fill="#8acaff" stroke="#8acaff" stroke-miterlimit="10"/>
        <path d="M690.47,405.62l-14.86,4.07a15.41,15.41,0,0,0,26.49,6Z" fill="#c2deff" stroke="#8acaff" stroke-miterlimit="10"/>
        <path d="M700.45,396a13.45,13.45,0,0,0-13.61-3.68" fill="none" stroke="#fff" stroke-miterlimit="10"/>
      </g>
      <g>
        <path d="M753.65,365.42a18.69,18.69,0,0,0,3.92-17.2l-18,4.93Z" fill="#fff" stroke="#8acaff" stroke-miterlimit="10"/>
        <path d="M734.61,335.12a18.69,18.69,0,0,0-13.1,23l18-4.94,18-4.93A18.69,18.69,0,0,0,734.61,335.12Z" fill="#8acaff" stroke="#8acaff" stroke-miterlimit="10"/>
        <path d="M739.54,353.15l-18,4.94a18.7,18.7,0,0,0,32.14,7.33Z" fill="#c2deff" stroke="#8acaff" stroke-miterlimit="10"/>
        <path d="M751.65,341.5A16.33,16.33,0,0,0,735.13,337" fill="none" stroke="#fff" stroke-miterlimit="10"/>
      </g>
      <g>
        <path d="M771.87,296.23a22.83,22.83,0,0,0-20.42,0,8.59,8.59,0,1,0,7.26,15.58A22.83,22.83,0,0,0,771.87,296.23Z" fill="#fff" stroke="#8acaff" stroke-miterlimit="10"/>
        <line x1="771.87" y1="296.23" x2="747.29" y2="307.67" fill="none" stroke="#8acaff" stroke-miterlimit="10"/>
        <line x1="749" y1="306.87" x2="757.99" y2="312.17" fill="none" stroke="#8acaff" stroke-miterlimit="10"/>
        <line x1="749" y1="306.87" x2="750.73" y2="296.58" fill="none" stroke="#8acaff" stroke-miterlimit="10"/>
        <path d="M771.87,296.23a22.83,22.83,0,0,0-20.42,0,8.59,8.59,0,1,0,7.26,15.58A22.83,22.83,0,0,0,771.87,296.23Z" fill="none" stroke="#8acaff" stroke-miterlimit="10"/>
      </g>
      <g>
        <path d="M763.42,392.85a22.81,22.81,0,0,0-20.41,0,8.59,8.59,0,1,0,7.25,15.58A22.83,22.83,0,0,0,763.42,392.85Z" fill="#fff" stroke="#8acaff" stroke-miterlimit="10"/>
        <line x1="763.42" y1="392.85" x2="738.84" y2="404.29" fill="none" stroke="#8acaff" stroke-miterlimit="10"/>
        <line x1="740.56" y1="403.49" x2="749.54" y2="408.8" fill="none" stroke="#8acaff" stroke-miterlimit="10"/>
        <line x1="743.24" y1="402.25" x2="752.22" y2="407.55" fill="none" stroke="#8acaff" stroke-miterlimit="10"/>
        <line x1="745.91" y1="401" x2="754.5" y2="406.07" fill="none" stroke="#8acaff" stroke-miterlimit="10"/>
        <line x1="748.59" y1="399.75" x2="756.53" y2="404.44" fill="none" stroke="#8acaff" stroke-miterlimit="10"/>
        <line x1="740.56" y1="403.49" x2="742.28" y2="393.2" fill="none" stroke="#8acaff" stroke-miterlimit="10"/>
        <line x1="743.24" y1="402.25" x2="744.96" y2="391.96" fill="none" stroke="#8acaff" stroke-miterlimit="10"/>
        <line x1="745.91" y1="401" x2="747.56" y2="391.17" fill="none" stroke="#8acaff" stroke-miterlimit="10"/>
        <line x1="748.59" y1="399.75" x2="750.12" y2="390.66" fill="none" stroke="#8acaff" stroke-miterlimit="10"/>
        <line x1="751.27" y1="398.5" x2="752.62" y2="390.46" fill="none" stroke="#8acaff" stroke-miterlimit="10"/>
        <path d="M763.42,392.85a22.81,22.81,0,0,0-20.41,0,8.59,8.59,0,1,0,7.25,15.58A22.83,22.83,0,0,0,763.42,392.85Z" fill="none" stroke="#8acaff" stroke-miterlimit="10"/>
      </g>
      <g>
        <path d="M652.13,358.06a32.08,32.08,0,0,1,28.71,0A12.08,12.08,0,1,1,670.64,380,32.11,32.11,0,0,1,652.13,358.06Z" fill="#fff" stroke="#8acaff" stroke-miterlimit="10"/>
        <line x1="652.13" y1="358.06" x2="686.7" y2="374.16" fill="none" stroke="#8acaff" stroke-miterlimit="10"/>
        <line x1="684.29" y1="373.04" x2="671.65" y2="380.49" fill="none" stroke="#8acaff" stroke-miterlimit="10"/>
        <line x1="680.52" y1="371.28" x2="667.88" y2="378.74" fill="none" stroke="#8acaff" stroke-miterlimit="10"/>
        <line x1="676.75" y1="369.53" x2="664.68" y2="376.65" fill="none" stroke="#8acaff" stroke-miterlimit="10"/>
        <line x1="672.99" y1="367.77" x2="661.82" y2="374.36" fill="none" stroke="#8acaff" stroke-miterlimit="10"/>
        <line x1="669.22" y1="366.02" x2="659.33" y2="371.85" fill="none" stroke="#8acaff" stroke-miterlimit="10"/>
        <line x1="665.45" y1="364.26" x2="657.18" y2="369.14" fill="none" stroke="#8acaff" stroke-miterlimit="10"/>
        <line x1="661.68" y1="362.51" x2="655.36" y2="366.24" fill="none" stroke="#8acaff" stroke-miterlimit="10"/>
        <line x1="657.92" y1="360.75" x2="653.82" y2="363.17" fill="none" stroke="#8acaff" stroke-miterlimit="10"/>
        <line x1="684.29" y1="373.04" x2="681.86" y2="358.56" fill="none" stroke="#8acaff" stroke-miterlimit="10"/>
        <line x1="680.52" y1="371.28" x2="678.09" y2="356.8" fill="none" stroke="#8acaff" stroke-miterlimit="10"/>
        <line x1="676.75" y1="369.53" x2="674.43" y2="355.69" fill="none" stroke="#8acaff" stroke-miterlimit="10"/>
        <line x1="672.99" y1="367.77" x2="670.84" y2="354.98" fill="none" stroke="#8acaff" stroke-miterlimit="10"/>
        <line x1="669.22" y1="366.02" x2="667.32" y2="354.7" fill="none" stroke="#8acaff" stroke-miterlimit="10"/>
        <line x1="665.45" y1="364.26" x2="663.86" y2="354.79" fill="none" stroke="#8acaff" stroke-miterlimit="10"/>
        <line x1="661.68" y1="362.51" x2="660.47" y2="355.27" fill="none" stroke="#8acaff" stroke-miterlimit="10"/>
        <line x1="657.92" y1="360.75" x2="657.13" y2="356.06" fill="none" stroke="#8acaff" stroke-miterlimit="10"/>
        <path d="M652.13,358.06a32.08,32.08,0,0,1,28.71,0A12.08,12.08,0,1,1,670.64,380,32.11,32.11,0,0,1,652.13,358.06Z" fill="none" stroke="#8acaff" stroke-miterlimit="10"/>
      </g>
      <g>
        <path d="M586.14,261.71a32.13,32.13,0,0,1,28.72,0,12.09,12.09,0,0,1-10.2,21.92A32.12,32.12,0,0,1,586.14,261.71Z" fill="#fff" stroke="#8acaff" stroke-miterlimit="10"/>
        <line x1="586.14" y1="261.71" x2="620.72" y2="277.8" fill="none" stroke="#8acaff" stroke-miterlimit="10"/>
        <line x1="618.31" y1="276.68" x2="605.66" y2="284.14" fill="none" stroke="#8acaff" stroke-miterlimit="10"/>
        <line x1="614.54" y1="274.93" x2="601.9" y2="282.39" fill="none" stroke="#8acaff" stroke-miterlimit="10"/>
        <line x1="610.77" y1="273.17" x2="598.69" y2="280.3" fill="none" stroke="#8acaff" stroke-miterlimit="10"/>
        <line x1="607" y1="271.42" x2="595.83" y2="278.01" fill="none" stroke="#8acaff" stroke-miterlimit="10"/>
        <line x1="603.23" y1="269.66" x2="593.35" y2="275.5" fill="none" stroke="#8acaff" stroke-miterlimit="10"/>
        <line x1="599.47" y1="267.91" x2="591.2" y2="272.79" fill="none" stroke="#8acaff" stroke-miterlimit="10"/>
        <line x1="595.7" y1="266.16" x2="589.38" y2="269.89" fill="none" stroke="#8acaff" stroke-miterlimit="10"/>
        <line x1="591.93" y1="264.4" x2="587.83" y2="266.82" fill="none" stroke="#8acaff" stroke-miterlimit="10"/>
        <line x1="618.31" y1="276.68" x2="615.88" y2="262.21" fill="none" stroke="#8acaff" stroke-miterlimit="10"/>
        <line x1="614.54" y1="274.93" x2="612.11" y2="260.45" fill="none" stroke="#8acaff" stroke-miterlimit="10"/>
        <line x1="610.77" y1="273.17" x2="608.45" y2="259.34" fill="none" stroke="#8acaff" stroke-miterlimit="10"/>
        <line x1="607" y1="271.42" x2="604.86" y2="258.63" fill="none" stroke="#8acaff" stroke-miterlimit="10"/>
        <line x1="603.23" y1="269.66" x2="601.34" y2="258.34" fill="none" stroke="#8acaff" stroke-miterlimit="10"/>
        <line x1="599.47" y1="267.91" x2="597.88" y2="258.44" fill="none" stroke="#8acaff" stroke-miterlimit="10"/>
        <line x1="595.7" y1="266.16" x2="594.48" y2="258.92" fill="none" stroke="#8acaff" stroke-miterlimit="10"/>
        <line x1="591.93" y1="264.4" x2="591.14" y2="259.71" fill="none" stroke="#8acaff" stroke-miterlimit="10"/>
        <path d="M586.14,261.71a32.13,32.13,0,0,1,28.72,0,12.09,12.09,0,0,1-10.2,21.92A32.12,32.12,0,0,1,586.14,261.71Z" fill="none" stroke="#8acaff" stroke-miterlimit="10"/>
      </g>
      <path d="M731.53,274.3s-18.15,5.34-21.29,17.22" fill="none" stroke="#8acaff" stroke-miterlimit="10"/>
      <path d="M711.77,334.33s-18.16,5.34-21.3,17.22" fill="none" stroke="#8acaff" stroke-miterlimit="10"/>
      <path d="M691.74,333a49.52,49.52,0,0,1,8.82,5.4" fill="none" stroke="#8acaff" stroke-miterlimit="10"/>
      <path d="M595.78,340.4s-18.15,5.33-21.29,17.22" fill="none" stroke="#8acaff" stroke-miterlimit="10"/>
      <g>
        <path d="M620.63,345.66a19.34,19.34,0,0,0,4.06-17.8L606,333Z" fill="#fff" stroke="#8acaff" stroke-miterlimit="10"/>
        <path d="M600.92,314.31a19.35,19.35,0,0,0-13.55,23.76L606,333l18.66-5.11A19.35,19.35,0,0,0,600.92,314.31Z" fill="#8acaff" stroke="#8acaff" stroke-miterlimit="10"/>
        <path d="M606,333l-18.66,5.1a19.34,19.34,0,0,0,33.26,7.59Z" fill="#c2deff" stroke="#8acaff" stroke-miterlimit="10"/>
        <path d="M618.56,320.9a16.9,16.9,0,0,0-17.1-4.62" fill="none" stroke="#fff" stroke-miterlimit="10"/>
      </g>
      <rect x="629.18" y="468.56" width="110.22" height="5.13" rx="2.57" ry="2.57" fill="#fff" stroke="#8acaff" stroke-miterlimit="10"/>
      <line x1="649.66" y1="525.85" x2="719.01" y2="525.85" fill="none" stroke="#8acaff" stroke-miterlimit="10"/>
      <path d="M618.88,418.11s-7.6-27.67,16.43-37" fill="none" stroke="#8acaff" stroke-miterlimit="10"/>
      <path d="M626.87,386.09s-1.24-10.95-22.87-14.24" fill="none" stroke="#8acaff" stroke-miterlimit="10"/>
      <path d="M669.81,261.28s-10.73,9.76-10.48,23.51" fill="#fff" stroke="#8acaff" stroke-miterlimit="10"/>
    </g>
    <g>
      <path d="M543.05,462.9c-.12-.45-12.31-45.25-55.07-54.42l.63-2.93c44.6,9.56,57.22,56.13,57.34,56.6Z" fill="#fff" stroke="#8acaff" stroke-miterlimit="10"/>
      <path d="M544.5,457.89a1.47,1.47,0,0,1-.36,0A1.51,1.51,0,0,1,543,456c.12-.47,12.1-47,55.73-53.88a1.5,1.5,0,1,1,.47,3c-41.68,6.55-53.17,51.18-53.28,51.63A1.49,1.49,0,0,1,544.5,457.89Z" fill="#fff" stroke="#8acaff" stroke-miterlimit="10"/>
      <rect x="542.88" y="408.87" width="4" height="59.69" fill="#fff" stroke="#8acaff" stroke-miterlimit="10"/>
      <polygon points="499.6 473.69 511.98 529.95 542.14 529.95 542.14 528.11 549.38 528.11 549.38 529.95 579.45 529.95 591.83 473.69 499.6 473.69" fill="#fff" stroke="#8acaff" stroke-miterlimit="10"/>
      <path d="M451.91,360.1a39.66,39.66,0,0,1,9.59-25.92,29.14,29.14,0,0,1-.21-3.51,30.52,30.52,0,0,1,38.85-29.35,30.51,30.51,0,0,1,51.56-10.87,30.49,30.49,0,0,1,43.67,11.89,39.88,39.88,0,0,1,35.77,66.53,39.87,39.87,0,0,1-36.9,52.57,30.5,30.5,0,0,1-54.7,11.74A39.89,39.89,0,0,1,472.46,395,39.86,39.86,0,0,1,451.91,360.1Z" fill="#0092d3" stroke="#8acaff" stroke-miterlimit="10"/>
      <g>
        <path d="M547.17,318a15.92,15.92,0,0,1,15-.2L554.86,332Z" fill="#fff" stroke="#8acaff" stroke-miterlimit="10"/>
        <path d="M569,339.27a15.9,15.9,0,0,1-21.44,6.81L554.86,332l7.31-14.13A15.91,15.91,0,0,1,569,339.27Z" fill="#8acaff" stroke="#8acaff" stroke-miterlimit="10"/>
        <path d="M554.86,332l-7.32,14.12a15.91,15.91,0,0,1-.37-28.05Z" fill="#c2deff" stroke="#8acaff" stroke-miterlimit="10"/>
        <path d="M566.71,324a13.89,13.89,0,0,1,.78,14.54" fill="none" stroke="#fff" stroke-miterlimit="10"/>
      </g>
      <g>
        <path d="M579.1,432.32a12.86,12.86,0,0,1-2.7-11.84l12.41,3.4Z" fill="#fff" stroke="#8acaff" stroke-miterlimit="10"/>
        <path d="M592.21,411.46a12.87,12.87,0,0,1,9,15.81l-12.41-3.39-12.41-3.4A12.87,12.87,0,0,1,592.21,411.46Z" fill="#8acaff" stroke="#8acaff" stroke-miterlimit="10"/>
        <path d="M588.81,423.88l12.41,3.39a12.86,12.86,0,0,1-22.12,5.05Z" fill="#c2deff" stroke="#8acaff" stroke-miterlimit="10"/>
        <path d="M580.48,415.85a11.25,11.25,0,0,1,11.37-3.08" fill="none" stroke="#fff" stroke-miterlimit="10"/>
      </g>
      <g>
        <path d="M524.73,419.45a12.86,12.86,0,0,1-2.7-11.84L534.44,411Z" fill="#fff" stroke="#8acaff" stroke-miterlimit="10"/>
        <path d="M537.83,398.59a12.87,12.87,0,0,1,9,15.81L534.44,411,522,407.61A12.86,12.86,0,0,1,537.83,398.59Z" fill="#8acaff" stroke="#8acaff" stroke-miterlimit="10"/>
        <path d="M534.44,411l12.41,3.4a12.86,12.86,0,0,1-22.12,5.05Z" fill="#c2deff" stroke="#8acaff" stroke-miterlimit="10"/>
        <path d="M526.1,403a11.27,11.27,0,0,1,11.38-3.08" fill="none" stroke="#fff" stroke-miterlimit="10"/>
      </g>
      <g>
        <path d="M481.67,377.42a15.59,15.59,0,0,1-3.27-14.36l15.06,4.12Z" fill="#fff" stroke="#8acaff" stroke-miterlimit="10"/>
        <path d="M497.58,352.12a15.63,15.63,0,0,1,10.94,19.18l-15.06-4.12-15.06-4.12A15.61,15.61,0,0,1,497.58,352.12Z" fill="#8acaff" stroke="#8acaff" stroke-miterlimit="10"/>
        <path d="M493.46,367.18l15.06,4.12a15.62,15.62,0,0,1-26.85,6.12Z" fill="#c2deff" stroke="#8acaff" stroke-miterlimit="10"/>
        <path d="M483.35,357.44a13.62,13.62,0,0,1,13.79-3.73" fill="none" stroke="#fff" stroke-miterlimit="10"/>
      </g>
      <g>
        <path d="M466.46,319.64a19,19,0,0,1,17.05,0,7.18,7.18,0,1,1-6.06,13A19.06,19.06,0,0,1,466.46,319.64Z" fill="#fff" stroke="#8acaff" stroke-miterlimit="10"/>
        <line x1="466.46" y1="319.64" x2="486.99" y2="329.19" fill="none" stroke="#8acaff" stroke-miterlimit="10"/>
        <line x1="485.55" y1="328.53" x2="478.05" y2="332.96" fill="none" stroke="#8acaff" stroke-miterlimit="10"/>
        <line x1="483.32" y1="327.48" x2="475.81" y2="331.91" fill="none" stroke="#8acaff" stroke-miterlimit="10"/>
        <line x1="481.08" y1="326.44" x2="473.91" y2="330.67" fill="none" stroke="#8acaff" stroke-miterlimit="10"/>
        <line x1="478.84" y1="325.4" x2="472.21" y2="329.31" fill="none" stroke="#8acaff" stroke-miterlimit="10"/>
        <line x1="476.61" y1="324.36" x2="470.74" y2="327.82" fill="none" stroke="#8acaff" stroke-miterlimit="10"/>
        <line x1="474.37" y1="323.32" x2="469.46" y2="326.21" fill="none" stroke="#8acaff" stroke-miterlimit="10"/>
        <line x1="472.13" y1="322.28" x2="468.38" y2="324.49" fill="none" stroke="#8acaff" stroke-miterlimit="10"/>
        <line x1="469.89" y1="321.23" x2="467.46" y2="322.67" fill="none" stroke="#8acaff" stroke-miterlimit="10"/>
        <line x1="485.55" y1="328.53" x2="484.11" y2="319.93" fill="none" stroke="#8acaff" stroke-miterlimit="10"/>
        <line x1="483.32" y1="327.48" x2="481.88" y2="318.89" fill="none" stroke="#8acaff" stroke-miterlimit="10"/>
        <line x1="481.08" y1="326.44" x2="479.7" y2="318.23" fill="none" stroke="#8acaff" stroke-miterlimit="10"/>
        <line x1="478.84" y1="325.4" x2="477.57" y2="317.81" fill="none" stroke="#8acaff" stroke-miterlimit="10"/>
        <line x1="476.61" y1="324.36" x2="475.48" y2="317.64" fill="none" stroke="#8acaff" stroke-miterlimit="10"/>
        <line x1="474.37" y1="323.32" x2="473.43" y2="317.7" fill="none" stroke="#8acaff" stroke-miterlimit="10"/>
        <line x1="472.13" y1="322.28" x2="471.41" y2="317.98" fill="none" stroke="#8acaff" stroke-miterlimit="10"/>
        <line x1="469.89" y1="321.23" x2="469.43" y2="318.45" fill="none" stroke="#8acaff" stroke-miterlimit="10"/>
        <path d="M466.46,319.64a19,19,0,0,1,17.05,0,7.18,7.18,0,1,1-6.06,13A19.06,19.06,0,0,1,466.46,319.64Z" fill="none" stroke="#8acaff" stroke-miterlimit="10"/>
      </g>
      <g>
        <path d="M473.51,400.34a19,19,0,0,1,17.05,0,7.18,7.18,0,1,1-6.06,13A19.06,19.06,0,0,1,473.51,400.34Z" fill="#fff" stroke="#8acaff" stroke-miterlimit="10"/>
        <line x1="473.51" y1="400.34" x2="494.04" y2="409.89" fill="none" stroke="#8acaff" stroke-miterlimit="10"/>
        <line x1="492.61" y1="409.23" x2="485.1" y2="413.66" fill="none" stroke="#8acaff" stroke-miterlimit="10"/>
        <line x1="490.37" y1="408.19" x2="482.87" y2="412.61" fill="none" stroke="#8acaff" stroke-miterlimit="10"/>
        <line x1="488.13" y1="407.14" x2="480.96" y2="411.38" fill="none" stroke="#8acaff" stroke-miterlimit="10"/>
        <line x1="485.9" y1="406.1" x2="479.27" y2="410.01" fill="none" stroke="#8acaff" stroke-miterlimit="10"/>
        <line x1="483.66" y1="405.06" x2="477.79" y2="408.52" fill="none" stroke="#8acaff" stroke-miterlimit="10"/>
        <line x1="481.42" y1="404.02" x2="476.51" y2="406.92" fill="none" stroke="#8acaff" stroke-miterlimit="10"/>
        <line x1="479.19" y1="402.98" x2="475.43" y2="405.19" fill="none" stroke="#8acaff" stroke-miterlimit="10"/>
        <line x1="476.95" y1="401.94" x2="474.51" y2="403.37" fill="none" stroke="#8acaff" stroke-miterlimit="10"/>
        <line x1="492.61" y1="409.23" x2="491.17" y2="400.63" fill="none" stroke="#8acaff" stroke-miterlimit="10"/>
        <line x1="490.37" y1="408.19" x2="488.93" y2="399.59" fill="none" stroke="#8acaff" stroke-miterlimit="10"/>
        <line x1="488.13" y1="407.14" x2="486.76" y2="398.93" fill="none" stroke="#8acaff" stroke-miterlimit="10"/>
        <line x1="485.9" y1="406.1" x2="484.62" y2="398.51" fill="none" stroke="#8acaff" stroke-miterlimit="10"/>
        <line x1="483.66" y1="405.06" x2="482.53" y2="398.34" fill="none" stroke="#8acaff" stroke-miterlimit="10"/>
        <line x1="481.42" y1="404.02" x2="480.48" y2="398.4" fill="none" stroke="#8acaff" stroke-miterlimit="10"/>
        <line x1="479.19" y1="402.98" x2="478.46" y2="398.68" fill="none" stroke="#8acaff" stroke-miterlimit="10"/>
        <line x1="476.95" y1="401.94" x2="476.48" y2="399.15" fill="none" stroke="#8acaff" stroke-miterlimit="10"/>
        <path d="M473.51,400.34a19,19,0,0,1,17.05,0,7.18,7.18,0,1,1-6.06,13A19.06,19.06,0,0,1,473.51,400.34Z" fill="none" stroke="#8acaff" stroke-miterlimit="10"/>
      </g>
      <g>
        <path d="M566.47,371.28a26.85,26.85,0,0,0-24,0A10.1,10.1,0,0,0,551,389.62,26.85,26.85,0,0,0,566.47,371.28Z" fill="#fff" stroke="#8acaff" stroke-miterlimit="10"/>
        <line x1="566.47" y1="371.28" x2="537.59" y2="384.73" fill="none" stroke="#8acaff" stroke-miterlimit="10"/>
        <line x1="539.6" y1="383.79" x2="550.16" y2="390.02" fill="none" stroke="#8acaff" stroke-miterlimit="10"/>
        <line x1="542.75" y1="382.32" x2="553.31" y2="388.55" fill="none" stroke="#8acaff" stroke-miterlimit="10"/>
        <line x1="545.9" y1="380.86" x2="555.99" y2="386.81" fill="none" stroke="#8acaff" stroke-miterlimit="10"/>
        <line x1="549.04" y1="379.39" x2="558.37" y2="384.9" fill="none" stroke="#8acaff" stroke-miterlimit="10"/>
        <line x1="552.19" y1="377.93" x2="560.45" y2="382.8" fill="none" stroke="#8acaff" stroke-miterlimit="10"/>
        <line x1="555.34" y1="376.46" x2="562.25" y2="380.54" fill="none" stroke="#8acaff" stroke-miterlimit="10"/>
        <line x1="558.49" y1="375" x2="563.77" y2="378.11" fill="none" stroke="#8acaff" stroke-miterlimit="10"/>
        <line x1="561.63" y1="373.53" x2="565.06" y2="375.55" fill="none" stroke="#8acaff" stroke-miterlimit="10"/>
        <line x1="539.6" y1="383.79" x2="541.63" y2="371.7" fill="none" stroke="#8acaff" stroke-miterlimit="10"/>
        <line x1="542.75" y1="382.32" x2="544.78" y2="370.23" fill="none" stroke="#8acaff" stroke-miterlimit="10"/>
        <line x1="545.9" y1="380.86" x2="547.84" y2="369.3" fill="none" stroke="#8acaff" stroke-miterlimit="10"/>
        <line x1="549.04" y1="379.39" x2="550.84" y2="368.71" fill="none" stroke="#8acaff" stroke-miterlimit="10"/>
        <line x1="552.19" y1="377.93" x2="553.78" y2="368.47" fill="none" stroke="#8acaff" stroke-miterlimit="10"/>
        <line x1="555.34" y1="376.46" x2="556.67" y2="368.55" fill="none" stroke="#8acaff" stroke-miterlimit="10"/>
        <line x1="558.49" y1="375" x2="559.5" y2="368.95" fill="none" stroke="#8acaff" stroke-miterlimit="10"/>
        <line x1="561.63" y1="373.53" x2="562.29" y2="369.61" fill="none" stroke="#8acaff" stroke-miterlimit="10"/>
        <path d="M566.47,371.28a26.85,26.85,0,0,0-24,0A10.1,10.1,0,0,0,551,389.62,26.85,26.85,0,0,0,566.47,371.28Z" fill="none" stroke="#8acaff" stroke-miterlimit="10"/>
      </g>
      <g>
        <path d="M621.58,290.8a26.84,26.84,0,0,0-24,0,10.1,10.1,0,0,0,8.53,18.31A26.83,26.83,0,0,0,621.58,290.8Z" fill="#fff" stroke="#8acaff" stroke-miterlimit="10"/>
        <line x1="621.58" y1="290.8" x2="592.7" y2="304.25" fill="none" stroke="#8acaff" stroke-miterlimit="10"/>
        <line x1="594.72" y1="303.31" x2="605.27" y2="309.54" fill="none" stroke="#8acaff" stroke-miterlimit="10"/>
        <line x1="597.86" y1="301.85" x2="608.42" y2="308.08" fill="none" stroke="#8acaff" stroke-miterlimit="10"/>
        <line x1="601.01" y1="300.38" x2="611.1" y2="306.33" fill="none" stroke="#8acaff" stroke-miterlimit="10"/>
        <line x1="604.16" y1="298.92" x2="613.48" y2="304.42" fill="none" stroke="#8acaff" stroke-miterlimit="10"/>
        <line x1="607.3" y1="297.45" x2="615.56" y2="302.32" fill="none" stroke="#8acaff" stroke-miterlimit="10"/>
        <line x1="610.45" y1="295.98" x2="617.36" y2="300.06" fill="none" stroke="#8acaff" stroke-miterlimit="10"/>
        <line x1="613.6" y1="294.52" x2="618.88" y2="297.63" fill="none" stroke="#8acaff" stroke-miterlimit="10"/>
        <line x1="616.74" y1="293.05" x2="620.17" y2="295.07" fill="none" stroke="#8acaff" stroke-miterlimit="10"/>
        <line x1="594.72" y1="303.31" x2="596.74" y2="291.22" fill="none" stroke="#8acaff" stroke-miterlimit="10"/>
        <line x1="597.86" y1="301.85" x2="599.89" y2="289.75" fill="none" stroke="#8acaff" stroke-miterlimit="10"/>
        <line x1="601.01" y1="300.38" x2="602.95" y2="288.83" fill="none" stroke="#8acaff" stroke-miterlimit="10"/>
        <line x1="604.16" y1="298.92" x2="605.95" y2="288.23" fill="none" stroke="#8acaff" stroke-miterlimit="10"/>
        <line x1="607.3" y1="297.45" x2="608.89" y2="287.99" fill="none" stroke="#8acaff" stroke-miterlimit="10"/>
        <line x1="610.45" y1="295.98" x2="611.78" y2="288.08" fill="none" stroke="#8acaff" stroke-miterlimit="10"/>
        <line x1="613.6" y1="294.52" x2="614.61" y2="288.47" fill="none" stroke="#8acaff" stroke-miterlimit="10"/>
        <line x1="616.74" y1="293.05" x2="617.4" y2="289.13" fill="none" stroke="#8acaff" stroke-miterlimit="10"/>
        <path d="M621.58,290.8a26.84,26.84,0,0,0-24,0,10.1,10.1,0,0,0,8.53,18.31A26.83,26.83,0,0,0,621.58,290.8Z" fill="none" stroke="#8acaff" stroke-miterlimit="10"/>
      </g>
      <path d="M500.14,301.32s15.17,4.46,17.79,14.39" fill="none" stroke="#8acaff" stroke-miterlimit="10"/>
      <path d="M516.65,351.46s15.17,4.46,17.79,14.39" fill="none" stroke="#8acaff" stroke-miterlimit="10"/>
      <path d="M533.38,350.32a41.49,41.49,0,0,0-7.36,4.51" fill="none" stroke="#8acaff" stroke-miterlimit="10"/>
      <path d="M613.53,356.53s15.16,4.45,17.79,14.38" fill="none" stroke="#8acaff" stroke-miterlimit="10"/>
      <g>
        <path d="M592.78,360.92a16.12,16.12,0,0,1-3.39-14.86L605,350.32Z" fill="#fff" stroke="#8acaff" stroke-miterlimit="10"/>
        <path d="M609.24,334.74a16.15,16.15,0,0,1,11.32,19.85L605,350.32l-15.58-4.26A16.15,16.15,0,0,1,609.24,334.74Z" fill="#8acaff" stroke="#8acaff" stroke-miterlimit="10"/>
        <path d="M605,350.32l15.59,4.27a16.15,16.15,0,0,1-27.78,6.33Z" fill="#c2deff" stroke="#8acaff" stroke-miterlimit="10"/>
        <path d="M594.51,340.25a14.1,14.1,0,0,1,14.28-3.87" fill="none" stroke="#fff" stroke-miterlimit="10"/>
      </g>
      <rect x="490.61" y="468.56" width="110.22" height="5.13" rx="2.57" ry="2.57" fill="#fff" stroke="#8acaff" stroke-miterlimit="10"/>
      <line x1="511.08" y1="525.85" x2="580.44" y2="525.85" fill="none" stroke="#8acaff" stroke-miterlimit="10"/>
      <path d="M594.24,421.44s6.34-23.11-13.72-30.88" fill="none" stroke="#8acaff" stroke-miterlimit="10"/>
      <path d="M587.56,394.69s1-9.14,19.11-11.89" fill="none" stroke="#8acaff" stroke-miterlimit="10"/>
      <path d="M551.7,290.45s9,8.15,8.75,19.64" fill="#fff" stroke="#8acaff" stroke-miterlimit="10"/>
    </g>
    <g>
      <g>
        <path d="M445,317a16.29,16.29,0,0,1-3.43-15l15.74,4.3Z" fill="#fff" stroke="#8acaff" stroke-miterlimit="10"/>
        <path d="M461.58,290.59A16.34,16.34,0,0,1,473,310.64l-15.75-4.31L441.53,302A16.32,16.32,0,0,1,461.58,290.59Z" fill="#8acaff" stroke="#8acaff" stroke-miterlimit="10"/>
        <path d="M457.27,306.33,473,310.64A16.32,16.32,0,0,1,445,317Z" fill="#c2deff" stroke="#8acaff" stroke-miterlimit="10"/>
        <path d="M446.7,296.15a14.28,14.28,0,0,1,14.43-3.9" fill="none" stroke="#fff" stroke-miterlimit="10"/>
      </g>
      <g>
        <path d="M266,77.11-13.88,181.83s48.07,34.9,86.93,33.58c0,0,86.93,28.32,133,19.76,0,0,43.95,15.79,119.87,0,46.1,8.56,133-19.76,133-19.76,38.86,1.32,86.94-33.58,86.94-33.58Z" fill="#f0f9ff" stroke="#8acaff" stroke-miterlimit="10"/>
        <g>
          <path d="M522.92,173.22s-17.78,22.89-74,35c0,0-71.28,22.11-127.11,16.13,0,0-30.81,7.52-55.83,3.9" fill="none" stroke="#8acaff" stroke-miterlimit="10"/>
          <path d="M507,165.37s-16.68,21.47-69.37,32.84c0,0-66.86,20.74-119.23,15.12,0,0-28.9,7.06-52.37,3.66" fill="none" stroke="#8acaff" stroke-miterlimit="10"/>
          <path d="M482.16,157s-15,19.26-62.23,29.45c0,0-60,18.6-106.94,13.57,0,0-25.92,6.33-47,3.28" fill="none" stroke="#8acaff" stroke-miterlimit="10"/>
          <path d="M462.55,148.78S449,166.3,406,175.57c0,0-54.54,16.91-97.25,12.33,0,0-23.57,5.76-42.71,3" fill="none" stroke="#8acaff" stroke-miterlimit="10"/>
          <path d="M442.72,142s-12.23,15.75-50.87,24.08c0,0-49,15.21-87.43,11.09,0,0-21.19,5.18-38.4,2.68" fill="none" stroke="#8acaff" stroke-miterlimit="10"/>
          <path d="M423.38,136S411.09,148,377,155.3c0,0-43.25,13.42-77.12,9.79,0,0-18.69,4.56-33.87,2.36" fill="none" stroke="#8acaff" stroke-miterlimit="10"/>
        </g>
        <g>
          <line x1="269.74" y1="75.92" x2="547.7" y2="182.5" fill="#fff" stroke="#8acaff" stroke-miterlimit="10"/>
          <path d="M547.7,184.33a1.92,1.92,0,0,1-.66-.12l-278-106.58a1.83,1.83,0,0,1,1.31-3.42l278,106.58a1.83,1.83,0,0,1-.65,3.54Z" fill="#fff" stroke="#8acaff" stroke-miterlimit="10"/>
        </g>
        <g>
          <path d="M12.83,173.22s17.79,22.89,74,35c0,0,71.28,22.11,127.11,16.13,0,0,30.81,7.52,55.84,3.9" fill="none" stroke="#8acaff" stroke-miterlimit="10"/>
          <path d="M28.76,165.37s16.68,21.47,69.37,32.84c0,0,66.86,20.74,119.24,15.12,0,0,28.89,7.06,52.37,3.66" fill="none" stroke="#8acaff" stroke-miterlimit="10"/>
          <path d="M53.6,157s15,19.26,62.22,29.45c0,0,60,18.6,106.94,13.57,0,0,25.92,6.33,47,3.28" fill="none" stroke="#8acaff" stroke-miterlimit="10"/>
          <path d="M73.2,148.78s13.61,17.52,56.58,26.79c0,0,54.53,16.91,97.24,12.33,0,0,23.57,5.76,42.72,3" fill="none" stroke="#8acaff" stroke-miterlimit="10"/>
          <path d="M93,142s12.24,15.75,50.87,24.08c0,0,49,15.21,87.43,11.09,0,0,21.19,5.18,38.41,2.68" fill="none" stroke="#8acaff" stroke-miterlimit="10"/>
          <path d="M113,134.36S124.67,148,158.74,155.3c0,0,43.25,13.42,77.12,9.79,0,0,18.69,4.56,33.88,2.36" fill="none" stroke="#8acaff" stroke-miterlimit="10"/>
          <polygon points="129.78 175.57 210.1 224.64 307.98 188.08 448.96 208.23 441.9 142.91 272.84 79.66 31.28 168.05 129.78 175.57" fill="#8acaff" opacity="0.3"/>
        </g>
        <rect x="260.04" y="69.35" width="19.4" height="7.25" rx="3.16" ry="3.16" fill="#fff" stroke="#8acaff" stroke-miterlimit="10"/>
        <path d="M326,237.47A2.31,2.31,0,0,1,323.8,236L263.87,77.92a2.3,2.3,0,0,1,3.48-2.68l193,138.31a2.29,2.29,0,0,1-2.67,3.73L270.86,83.4l57.23,151a2.29,2.29,0,0,1-1.33,3A2.32,2.32,0,0,1,326,237.47Z" fill="#fff" stroke="#8acaff" stroke-miterlimit="10"/>
        <path d="M206.08,237.47a2.3,2.3,0,0,1-2.14-3.11l57.23-151L74.39,217.28a2.3,2.3,0,1,1-2.68-3.73l193-138.31a2.29,2.29,0,0,1,3.48,2.68L208.23,236A2.31,2.31,0,0,1,206.08,237.47Z" fill="#fff" stroke="#8acaff" stroke-miterlimit="10"/>
        <g>
          <line x1="412.4" y1="132.88" x2="272.04" y2="176.18" fill="#fff" stroke="#8acaff" stroke-miterlimit="10"/>
          <path d="M272,178.47a2.23,2.23,0,0,1-.67-4.36L409.43,132a2.25,2.25,0,0,1,2.81,1.48,2.22,2.22,0,0,1-1.48,2.78L272.67,178.37A2.16,2.16,0,0,1,272,178.47Z" fill="#fff" stroke="#8acaff" stroke-miterlimit="10"/>
        </g>
        <g>
          <line x1="129.91" y1="132.88" x2="270.27" y2="176.18" fill="#fff" stroke="#8acaff" stroke-miterlimit="10"/>
          <path d="M270.27,178.47a2.33,2.33,0,0,1-.68-.1l-140.35-43.3a2.29,2.29,0,0,1,1.35-4.38L270.94,174a2.28,2.28,0,0,1-.67,4.47Z" fill="#fff" stroke="#8acaff" stroke-miterlimit="10"/>
        </g>
        <g>
          <path d="M269.1,47.55h1.27a4.3,4.3,0,0,1,4.3,4.3V487.1a0,0,0,0,1,0,0H264.8a0,0,0,0,1,0,0V51.85a4.3,4.3,0,0,1,4.3-4.3Z" fill="#fff" stroke="#8acaff" stroke-miterlimit="10"/>
          <line x1="271.81" y1="224.64" x2="271.81" y2="437.41" fill="none" stroke="#8acaff" stroke-miterlimit="10"/>
        </g>
        <g>
          <rect x="262.02" y="180.78" width="15.43" height="21.71" fill="#fff" stroke="#8acaff" stroke-miterlimit="10"/>
          <rect x="263.45" y="176.18" width="12.57" height="4.6" fill="#fff" stroke="#8acaff" stroke-miterlimit="10"/>
          <line x1="262.02" y1="183.63" x2="277.45" y2="183.63" fill="none" stroke="#8acaff" stroke-miterlimit="10"/>
          <line x1="262.02" y1="185.85" x2="277.45" y2="185.85" fill="none" stroke="#8acaff" stroke-miterlimit="10"/>
          <line x1="262.02" y1="188.08" x2="277.45" y2="188.08" fill="none" stroke="#8acaff" stroke-miterlimit="10"/>
          <line x1="262.02" y1="190.3" x2="277.45" y2="190.3" fill="none" stroke="#8acaff" stroke-miterlimit="10"/>
          <line x1="262.02" y1="192.53" x2="277.45" y2="192.53" fill="none" stroke="#8acaff" stroke-miterlimit="10"/>
          <line x1="262.02" y1="194.75" x2="277.45" y2="194.75" fill="none" stroke="#8acaff" stroke-miterlimit="10"/>
          <line x1="262.02" y1="196.97" x2="277.45" y2="196.97" fill="none" stroke="#8acaff" stroke-miterlimit="10"/>
          <line x1="262.02" y1="199.2" x2="277.45" y2="199.2" fill="none" stroke="#8acaff" stroke-miterlimit="10"/>
        </g>
        <g>
          <line x1="261.62" y1="75.92" x2="-16.34" y2="182.5" fill="#fff" stroke="#8acaff" stroke-miterlimit="10"/>
          <path d="M-16.34,184.33a1.92,1.92,0,0,0,.66-.12l278-106.58A1.83,1.83,0,0,0,261,74.21L-17,180.79A1.83,1.83,0,0,0-18,183.15,1.84,1.84,0,0,0-16.34,184.33Z" fill="#fff" stroke="#8acaff" stroke-miterlimit="10"/>
        </g>
        <path d="M-13.88,179.6S153.18,148.15,263.87,77.92L260,73.71Z" fill="#fff" stroke="#8acaff" stroke-miterlimit="10"/>
        <path d="M545.58,179.6S378.52,148.15,267.82,77.92l6.38-4.4Z" fill="#fff" stroke="#8acaff" stroke-miterlimit="10"/>
        <g>
          <path d="M266.7,71.9,103.2,134.7S179,157.53,266,157c87,.58,164-22.59,164-22.59Z" fill="#fff" stroke="#8acaff" stroke-miterlimit="10"/>
          <path d="M125.24,125.56C149.11,132,204.9,145,266,144.6c61.39.44,117.4-12.69,141.09-19.13" fill="none" stroke="#8acaff" stroke-miterlimit="10"/>
          <path d="M144.18,118.37C172.7,125,217.69,133,266,132.67c48.44.35,93.54-7.75,122.05-14.35" fill="none" stroke="#8acaff" stroke-miterlimit="10"/>
          <path d="M164.34,110.73c27.52,5.34,63.56,10.29,101.68,10,38.25.27,74.42-4.72,102-10.08" fill="none" stroke="#8acaff" stroke-miterlimit="10"/>
          <g>
            <path d="M268.94,73,191.85,99.35a3.64,3.64,0,0,0-.07,7c7.66,2.73,19.05,5.31,31.59,3.08,22.59-4,34.34-6.43,57.83-.27,14.26,3.74,39.38.44,56.9-2.73,5.9-1.06,6.53-8.34.89-10.21Z" fill="#fff" stroke="#8acaff" stroke-miterlimit="10"/>
            <line x1="268.94" y1="72.98" x2="224.98" y2="95.55" fill="#fff" stroke="#8acaff" stroke-miterlimit="10"/>
            <line x1="268.94" y1="72.98" x2="296.85" y2="87.71" fill="#fff" stroke="#8acaff" stroke-miterlimit="10"/>
          </g>
          <g>
            <path d="M269.56,36.54l-1.3-6s-18.26,3.86-17.47,29l8,.18" fill="#f7f7f7" stroke="#8acaff" stroke-linecap="round" stroke-linejoin="round"/>
            <path d="M280.39,75.41a2.13,2.13,0,0,1,2.13,2.13h0a2.13,2.13,0,0,1-2.13,2.12H256a2.12,2.12,0,0,1-2.13-2.12h0A2.13,2.13,0,0,1,256,75.41c3.35-2.2.11-4.08.11-4.08V54.7s.84-15,12.6-18.83L273.92,32l2.19,5.71L288,47.64l.67,5.38-6.35,3L281,53.18l-8.24-.33s5.51,5.4,7.1,18.48C279.84,71.33,277,73.48,280.39,75.41Z" fill="#fff" stroke="#8acaff" stroke-linecap="round" stroke-linejoin="round"/>
            <polygon points="271.23 36.78 273.06 35.34 273.82 37.76 271.23 36.78" fill="#f7f7f7" stroke="#8acaff" stroke-linecap="round" stroke-linejoin="round"/>
            <path d="M273,52l-4.55-.22-1.81-3.14.78,4.57s1.76,0,6.44.4C273.59,53.62,273.55,52.66,273,52Z" fill="#0092d3" stroke="#8acaff" stroke-miterlimit="10"/>
            <path d="M255.74,75.92h24.63c-3.33-2.55-.53-4.79-.53-4.79H256.36S258.36,74.68,255.74,75.92Z" fill="#f7f7f7" stroke="#8acaff" stroke-linecap="round" stroke-linejoin="round"/>
            <ellipse cx="284.69" cy="51.91" rx="1.14" ry="0.49" transform="translate(1.06 109.33) rotate(-21.78)" fill="#0092d3" stroke="#8acaff" stroke-miterlimit="10"/>
            <line x1="256.47" y1="68.05" x2="278.96" y2="68.05" fill="none" stroke="#8acaff" stroke-linecap="round" stroke-linejoin="round"/>
            <path d="M280.39,75.41a2.13,2.13,0,0,1,2.13,2.13h0a2.13,2.13,0,0,1-2.13,2.12H256a2.12,2.12,0,0,1-2.13-2.12h0A2.13,2.13,0,0,1,256,75.41c3.35-2.2.11-4.08.11-4.08V54.7s.84-15,12.6-18.83L273.92,32l2.19,5.71L288,47.64l.67,5.38-6.35,3L281,53.18l-8.24-.33s5.51,5.4,7.1,18.48C279.84,71.33,277,73.48,280.39,75.41Z" fill="none" stroke="#8acaff" stroke-linecap="round" stroke-linejoin="round"/>
          </g>
        </g>
      </g>
      <g>
        <path d="M255.31,387h27.07a0,0,0,0,1,0,0V512.34a4.3,4.3,0,0,1-4.3,4.3H259.61a4.3,4.3,0,0,1-4.3-4.3V387a0,0,0,0,1,0,0Z" fill="#fff" stroke="#8acaff" stroke-miterlimit="10"/>
        <line x1="274.53" y1="448.43" x2="274.53" y2="401.1" fill="none" stroke="#8acaff" stroke-miterlimit="10"/>
        <rect x="151.78" y="508.18" width="234.12" height="8.46" fill="#fff" stroke="#8acaff" stroke-miterlimit="10"/>
      </g>
      <g>
        <g>
          <rect x="429.27" y="9.02" width="66.19" height="44.99" transform="translate(9.79 131.25) rotate(-16.33)" fill="#fff" stroke="#8acaff" stroke-miterlimit="10"/>
          <line x1="462.37" y1="31.51" x2="487.8" y2="0.62" fill="none" stroke="#8acaff" stroke-miterlimit="10"/>
          <line x1="424.28" y1="19.23" x2="462.37" y2="31.51" fill="none" stroke="#8acaff" stroke-miterlimit="10"/>
          <line x1="436.93" y1="62.4" x2="446.47" y2="26.38" fill="none" stroke="#8acaff" stroke-miterlimit="10"/>
          <line x1="500.45" y1="43.79" x2="472.98" y2="18.62" fill="none" stroke="#8acaff" stroke-miterlimit="10"/>
        </g>
        <g>
          <rect x="612.46" y="94.57" width="19.64" height="403.38" fill="#fff" stroke="#8acaff" stroke-miterlimit="10"/>
          <line x1="628.15" y1="203.8" x2="628.15" y2="430.28" fill="none" stroke="#8acaff" stroke-miterlimit="10"/>
        </g>
        <g class="floor-btn">
          <path d="M529.35,98.53H715.2a0,0,0,0,1,0,0v127.6a14.69,14.69,0,0,1-14.69,14.69H544a14.69,14.69,0,0,1-14.69-14.69V98.53a0,0,0,0,1,0,0Z" fill="#fff" stroke="#8acaff" stroke-miterlimit="10"/>
          <rect x="519.87" y="86.5" width="204.82" height="13.75" rx="6.87" ry="6.87" fill="#fff" stroke="#8acaff" stroke-miterlimit="10"/>
          <rect x="545.08" y="113.11" width="152.13" height="8.99" rx="4.49" ry="4.49" fill="#0092d3"/>
          <rect x="545.08" y="138.52" width="159.56" height="90.21" fill="none" stroke="#8acaff" stroke-miterlimit="10"/>
          <rect x="547.36" y="140.86" width="154.99" height="85.53" fill="none" stroke="#8acaff" stroke-miterlimit="10"/>
          <g opacity="0.94">
            <text transform="translate(578.6 214.45)" font-size="18" fill="#666" font-family="'PingFang TC','HeiTi TC','Microsoft JhengHei',sans-serif">我們的服務</text>
          </g>
          <rect x="618.67" y="142.42" width="7.23" height="7.23" rx="3.61" ry="3.61" fill="none" stroke="#c2deff" stroke-miterlimit="10"/>
          <circle cx="553.17" cy="147.1" r="2.03" fill="#c2deff"/>
          <circle cx="553.17" cy="220.49" r="2.03" fill="#c2deff"/>
          <circle cx="695.18" cy="147.1" r="2.03" fill="#c2deff"/>
          <circle cx="695.18" cy="220.49" r="2.03" fill="#c2deff"/>
          <rect x="537.12" y="133.63" width="170.32" height="5.18" rx="2.59" ry="2.59" fill="#fff" stroke="#8acaff" stroke-miterlimit="10"/>
          <g>
            <path d="M643.55,178l-3.79-8.34-6.32,6.64,3.46.59a15.05,15.05,0,1,1-7.1-15h0a1.63,1.63,0,1,0,1.78-2.73l-.08,0a18.29,18.29,0,1,0,8.61,18.27Z" fill="#0092d3"/>
            <path d="M637.93,165.6a2,2,0,1,1-2-2A2,2,0,0,1,637.93,165.6Z" fill="#0092d3"/>
          </g>
        </g>
        <rect x="545.08" y="113.11" width="152.13" height="8.99" rx="4.49" ry="4.49" fill="none" stroke="#8acaff" stroke-miterlimit="10"/>
        <g>
          <g>
            <path d="M595.61,64.89s46,13.17,77.68-11.84c0,0,7.62,13.67-1.58,20.39,0,0,4.82,12.34-10.88,18.27,0,0,1.91,5.62-1.45,8.5s-9.51,4.6-14,2.85c0,0,4,9.62-7.84,14,0,0-21.73-29.37-39.68-32.11Z" fill="#fff" stroke="#8acaff" stroke-miterlimit="10"/>
            <path d="M675,69.59s-5.58,15.78-55.33,9.3" fill="none" stroke="#8acaff" stroke-miterlimit="10"/>
            <path d="M665.56,89.38s-12.38,10.85-40.18-5.06" fill="none" stroke="#8acaff" stroke-miterlimit="10"/>
            <path d="M645.34,103.06s-22.48-15.44-31.07-16.49" fill="none" stroke="#8acaff" stroke-miterlimit="10"/>
            <path d="M553.56,25.29a14.87,14.87,0,0,1-17.09-4.87c-7.39-9.06-12.55-19.13-25.84-17.58s-14.37,15.38,1.5,29,7.61,33.43,27,47.49,64.07,6,64.07,6S601.79,54.71,553.56,25.29Z" fill="#fff" stroke="#8acaff" stroke-miterlimit="10"/>
            <path d="M500.46,12.26S501,18,502.89,21c0,0-7.32-4.45-12.35-2.12C490.54,18.89,494.06,12.41,500.46,12.26Z" fill="#8acaff" stroke="#8acaff" stroke-miterlimit="10"/>
            <g>
              <path d="M554.67,87.06a2.44,2.44,0,0,0-2.28-1.46,5.18,5.18,0,0,0-2.95.86c-2.17,1.43-1.9,5.77,3.15,6.14,0,0-2.28-5.36.69-4.75C554.76,88.16,554.9,87.65,554.67,87.06Z" fill="#8acaff" stroke="#8acaff" stroke-miterlimit="10"/>
              <path d="M559.33,86.84a2.45,2.45,0,0,0-2.49-1.07,5.29,5.29,0,0,0-2.76,1.34c-1.91,1.78-.91,6,4.12,5.54,0,0-3.13-4.91-.1-4.8C559.61,87.91,559.66,87.38,559.33,86.84Z" fill="#8acaff" stroke="#8acaff" stroke-miterlimit="10"/>
            </g>
            <g>
              <g>
                <path d="M594.12,57c14.11,9.46,26.47,7.22,26.47,7.22-19.7-27.81-51.22-38.38-68.22-40.53s-16.28,10.75-16.28,10.75S521.54,43,542.25,64.91s84.42,9.3,86,4.57c0,0-3.93-4.73-7.62-5.22" fill="#fff" stroke="#8acaff" stroke-miterlimit="10"/>
                <path d="M542.39,43.25S581.6,73.77,620.81,64.6" fill="none" stroke="#8acaff" stroke-miterlimit="10"/>
              </g>
              <path d="M548.55,56.82s28.33,26.72,79.66,12.66" fill="none" stroke="#8acaff" stroke-miterlimit="10"/>
            </g>
          </g>
          <g>
            <circle cx="508.19" cy="11.05" r="2.92" fill="#8acaff"/>
            <circle cx="508.19" cy="11.05" r="1.29" fill="#fff"/>
          </g>
          <circle cx="499.93" cy="11.4" r="2.66" fill="#fff" stroke="#8acaff" stroke-miterlimit="10"/>
        </g>
        <g clip-path="url(#a)">
          <g>
            <rect x="598.02" y="79.08" width="111.16" height="75.56" transform="translate(1003.43 -447.47) rotate(111.66)" fill="#fff" stroke="#8acaff" stroke-miterlimit="10"/>
            <line x1="653.6" y1="116.85" x2="668.19" y2="182.46" fill="none" stroke="#8acaff" stroke-miterlimit="10"/>
            <line x1="709.22" y1="79.14" x2="653.6" y2="116.85" fill="none" stroke="#8acaff" stroke-miterlimit="10"/>
            <line x1="639" y1="51.25" x2="676.82" y2="101.11" fill="none" stroke="#8acaff" stroke-miterlimit="10"/>
            <line x1="597.97" y1="154.57" x2="659.69" y2="144.24" fill="none" stroke="#8acaff" stroke-miterlimit="10"/>
          </g>
        </g>
      </g>
      <rect x="74.93" y="378.39" width="351.92" height="10.64" rx="5.32" ry="5.32" fill="#fff" stroke="#8acaff" stroke-miterlimit="10"/>
      <g>
        <path d="M197.13,328.52v-40.6H175v40.6a11,11,0,0,0,9.76,11V365a11.52,11.52,0,0,1-9.56,11.41l-.2,0h22.11l-.2,0A11.52,11.52,0,0,1,187.37,365V339.49A11,11,0,0,0,197.13,328.52Z" fill="#fff" stroke="#8acaff" stroke-linejoin="round"/>
        <line x1="179.45" y1="374.77" x2="192.52" y2="374.77" fill="none" stroke="#8acaff" stroke-miterlimit="10"/>
        <rect x="175.02" y="376.42" width="22.1" height="2.08" fill="#fff" stroke="#8acaff" stroke-linejoin="round"/>
        <path d="M177.67,306.79h16.81a0,0,0,0,1,0,0v21.63a8.4,8.4,0,0,1-8.4,8.4h0a8.4,8.4,0,0,1-8.4-8.4V306.79A0,0,0,0,1,177.67,306.79Z" fill="#8acaff"/>
        <line x1="175.02" y1="291.37" x2="191.01" y2="291.37" fill="none" stroke="#8acaff" stroke-miterlimit="10"/>
        <circle cx="189.62" cy="309.31" r="0.92" fill="#fff"/>
        <circle cx="182.1" cy="311.14" r="0.92" fill="#fff"/>
        <circle cx="189.62" cy="315.82" r="0.92" fill="#fff"/>
      </g>
      <g>
        <path d="M171.44,328.52v-40.6h-22.1v40.6a11,11,0,0,0,9.76,11V365a11.52,11.52,0,0,1-9.57,11.41l-.19,0h22.1l-.19,0A11.52,11.52,0,0,1,161.68,365V339.49A11,11,0,0,0,171.44,328.52Z" fill="#fff" stroke="#8acaff" stroke-linejoin="round"/>
        <line x1="153.76" y1="374.77" x2="166.84" y2="374.77" fill="none" stroke="#8acaff" stroke-miterlimit="10"/>
        <rect x="149.34" y="376.42" width="22.1" height="2.08" fill="#fff" stroke="#8acaff" stroke-linejoin="round"/>
        <path d="M152,314.21h16.81a0,0,0,0,1,0,0v14.21a8.4,8.4,0,0,1-8.4,8.4h0a8.4,8.4,0,0,1-8.4-8.4V314.21a0,0,0,0,1,0,0Z" fill="#8acaff"/>
        <line x1="149.34" y1="291.37" x2="165.33" y2="291.37" fill="none" stroke="#8acaff" stroke-miterlimit="10"/>
        <circle cx="163.93" cy="316.73" r="0.92" fill="#fff"/>
        <circle cx="156.42" cy="318.56" r="0.92" fill="#fff"/>
        <circle cx="163.93" cy="323.24" r="0.92" fill="#fff"/>
      </g>
      <g>
        <g>
          <path d="M240.32,301c-7.65-20.3-5.5-43.63-5.5-43.63H223.08s2.16,23.33-5.49,43.63a92.33,92.33,0,0,0-6.14,30.09v40.8a6.86,6.86,0,0,0,6.86,6.87h21.28a6.87,6.87,0,0,0,6.87-6.87v-40.8A92.33,92.33,0,0,0,240.32,301Z" fill="#fff" stroke="#8acaff" stroke-linejoin="round"/>
          <g>
            <path d="M224.36,327.48h9.18a9.69,9.69,0,0,1,9.69,9.69v16.14A14.28,14.28,0,0,1,229,367.6h0a14.28,14.28,0,0,1-14.28-14.28V337.17a9.69,9.69,0,0,1,9.69-9.69Z" fill="#fff" stroke="#8acaff" stroke-linejoin="round"/>
            <path d="M235.1,259a1.07,1.07,0,0,0,1-1.06v-1.11a1.07,1.07,0,0,0-.81-1v-8.54a1.48,1.48,0,0,0-1.47-1.48h-9.79a1.48,1.48,0,0,0-1.47,1.48v8.54a1.07,1.07,0,0,0-.81,1v1.11a1.06,1.06,0,0,0,1,1.06,165.71,165.71,0,0,1-3.64,37.31,5.57,5.57,0,0,1,4.53,3.45,7.59,7.59,0,0,0,.45,1,5,5,0,0,0,3.2,3.27,5,5,0,0,0,3.18,0,5,5,0,0,0,3.21-3.27,9.16,9.16,0,0,0,.45-1,5.55,5.55,0,0,1,4.53-3.45C235,280.45,235,264.05,235.1,259Z" fill="#fff" stroke="#8acaff" stroke-linejoin="round"/>
            <line x1="225.95" y1="255.67" x2="235.08" y2="255.67" fill="none" stroke="#8acaff" stroke-linecap="round" stroke-linejoin="round"/>
            <line x1="222.8" y1="258.82" x2="231.92" y2="258.82" fill="none" stroke="#8acaff" stroke-linecap="round" stroke-linejoin="round"/>
            <polygon points="222.06 318.81 220.83 314.85 216.7 314.45 224.64 304.7 229.99 309.06 222.06 318.81" fill="#fff" stroke="#8acaff" stroke-linejoin="round"/>
            <polygon points="222.66 315.51 222 313.4 219.81 313.19 224.03 308 226.89 310.32 222.66 315.51" fill="#8acaff" stroke="#8acaff" stroke-miterlimit="10"/>
            <polygon points="235.85 318.81 237.08 314.85 241.21 314.45 233.27 304.7 227.91 309.06 235.85 318.81" fill="#fff" stroke="#8acaff" stroke-linejoin="round"/>
            <polygon points="235.24 315.51 235.9 313.4 238.09 313.19 233.87 308 231.01 310.32 235.24 315.51" fill="#8acaff" stroke="#8acaff" stroke-miterlimit="10"/>
            <path d="M219.81,294.54s6.59.59,7.08,9l2.06.27v-9.25s-2.42-3.28-8.56-4A14.74,14.74,0,0,1,219.81,294.54Z" fill="#8acaff" stroke="#8acaff" stroke-miterlimit="10"/>
            <path d="M238.1,294.54s-6.59.59-7.08,9l-2.07.27v-9.25s2.43-3.28,8.56-4A15,15,0,0,0,238.1,294.54Z" fill="#8acaff" stroke="#8acaff" stroke-miterlimit="10"/>
            <g>
              <circle cx="228.95" cy="305.37" r="5.6" fill="#fff" stroke="#8acaff" stroke-linejoin="round"/>
              <path d="M229,301.91a3.46,3.46,0,0,1,2.39,1" fill="#fff" stroke="#8acaff" stroke-linejoin="round"/>
              <path d="M232,307a3.46,3.46,0,0,1-6.33-.41" fill="#fff" stroke="#8acaff" stroke-linejoin="round"/>
            </g>
            <path d="M225,329.6h7.88a8.32,8.32,0,0,1,8.32,8.32v15.3A12.26,12.26,0,0,1,229,365.47h0a12.26,12.26,0,0,1-12.26-12.26v-15.3A8.32,8.32,0,0,1,225,329.6Z" fill="#fff" stroke="#8acaff" stroke-linejoin="round"/>
            <path d="M243.92,360.21l-.15,10.16s.23,5.6-8.94,6.19c0,0,9.79,1.85,10.44-6.12V360.21Z" fill="#fff"/>
            <path d="M220.58,288.94s6.35.42,8.28,3.65v-2.07s-2.35-3.18-8-3.34Z" fill="#8acaff" stroke="#8acaff" stroke-linecap="round" stroke-linejoin="round"/>
            <path d="M237.22,288.85s-6.43.51-8.36,3.74v-2.07s2.35-3.18,8-3.34Z" fill="#8acaff" stroke="#8acaff" stroke-linecap="round" stroke-linejoin="round"/>
            <path d="M216.3,310.37c.08-.29-4.85,9.86-3.6,24.56C212.7,334.93,213.34,320.87,216.3,310.37Z" fill="#fff"/>
          </g>
        </g>
        <text transform="translate(219.67 351.52)" font-size="7.75" fill="#8acaff" font-family="HelveticaNeue-CondensedBold, HelveticaNeue CondensedBold" font-weight="700">KRUG</text>
        <text transform="translate(221.04 344.33) rotate(-52.58)" font-size="3.89" fill="#8acaff" font-family="HelveticaNeue-CondensedBold, HelveticaNeue CondensedBold" font-weight="700">C</text>
        <text transform="translate(222.31 342.61) rotate(-39.18)" font-size="3.89" fill="#8acaff" font-family="HelveticaNeue-CondensedBold, HelveticaNeue CondensedBold" font-weight="700">H</text>
        <text transform="translate(224.17 341.09) rotate(-25.45)" font-size="3.89" fill="#8acaff" font-family="HelveticaNeue-CondensedBold, HelveticaNeue CondensedBold" font-weight="700">A</text>
        <text transform="matrix(0.98, -0.18, 0.18, 0.98, 226.15, 340.07)" font-size="3.89" fill="#8acaff" font-family="HelveticaNeue-CondensedBold, HelveticaNeue CondensedBold" font-weight="700">M</text>
        <text transform="translate(229.08 339.58) rotate(4.03)" font-size="3.89" fill="#8acaff" font-family="HelveticaNeue-CondensedBold, HelveticaNeue CondensedBold" font-weight="700">P</text>
        <text transform="matrix(0.97, 0.25, -0.25, 0.97, 230.73, 339.64)" font-size="3.89" fill="#8acaff" font-family="HelveticaNeue-CondensedBold, HelveticaNeue CondensedBold" font-weight="700">A</text>
        <text transform="translate(232.86 340.17) rotate(27.83)" font-size="3.89" fill="#8acaff" font-family="HelveticaNeue-CondensedBold, HelveticaNeue CondensedBold" font-weight="700">G</text>
        <text transform="translate(234.98 341.26) rotate(41.9)" font-size="3.89" fill="#8acaff" font-family="HelveticaNeue-CondensedBold, HelveticaNeue CondensedBold" font-weight="700">N</text>
        <text transform="matrix(0.58, 0.81, -0.81, 0.58, 236.77, 342.9)" font-size="3.89" fill="#8acaff" font-family="HelveticaNeue-CondensedBold, HelveticaNeue CondensedBold" font-weight="700">E</text>
      </g>
      <g>
        <rect x="249.74" y="273.5" width="131.77" height="97.66" rx="6.39" ry="6.39" fill="#fff" stroke="#8acaff" stroke-miterlimit="10"/>
        <rect x="255.94" y="278.09" width="119.38" height="88.48" fill="#fff" stroke="#8acaff" stroke-miterlimit="10"/>
        <rect x="257.94" y="280" width="115.37" height="84.66" fill="#8acaff"/>
        <g>
          <rect x="277.33" y="287.3" width="80.6" height="5.09" fill="#fff"/>
          <rect x="277.33" y="356.07" width="80.6" height="3.29" fill="#fff"/>
          <rect x="277.33" y="349.73" width="80.6" height="3.29" fill="#fff"/>
          <polyline points="354.43 340.59 277.55 340.59 277.55 303.17" fill="none" stroke="#fff" stroke-linecap="round" stroke-linejoin="round"/>
          <polyline points="286.84 320.27 301.95 328.24 317.06 312.23 332.17 324.65 347.28 316.28" fill="none" stroke="#fff" stroke-linecap="round" stroke-linejoin="round"/>
          <path d="M289.66,320.27a2.82,2.82,0,1,1-2.82-2.82A2.82,2.82,0,0,1,289.66,320.27Z" fill="#0092d3"/>
          <path d="M304.77,328.24a2.82,2.82,0,1,1-2.82-2.81A2.82,2.82,0,0,1,304.77,328.24Z" fill="#0092d3"/>
          <path d="M319.87,312.23a2.82,2.82,0,1,1-2.81-2.82A2.81,2.81,0,0,1,319.87,312.23Z" fill="#0092d3"/>
          <path d="M335,324.65a2.82,2.82,0,1,1-2.81-2.82A2.82,2.82,0,0,1,335,324.65Z" fill="#0092d3"/>
          <path d="M350.09,316.28a2.82,2.82,0,1,1-2.81-2.81A2.81,2.81,0,0,1,350.09,316.28Z" fill="#0092d3"/>
        </g>
        <rect x="245.76" y="371.16" width="142.59" height="7.47" rx="3.74" ry="3.74" fill="#fff" stroke="#8acaff" stroke-miterlimit="10"/>
        <line x1="245.76" y1="374.31" x2="388.35" y2="374.31" fill="none" stroke="#8acaff" stroke-miterlimit="10"/>
        <path d="M322.57,374.31c0,1.13-2.47,2.05-5.51,2.05s-5.51-.92-5.51-2.05" fill="none" stroke="#8acaff" stroke-miterlimit="10"/>
        <polygon points="322.57 284.91 369.36 284.91 369.36 336.82 322.57 284.91" fill="#fff" opacity="0.3"/>
      </g>
      <g>
        <g>
          <path d="M384.24,374.18S356.3,398,326.17,390.61c0,0-1,12,7.6,13.75,0,0,.55,10.16,13.41,9.31,0,0,.45,4.54,3.72,5.49s8.11.18,10.72-2.48c0,0,.24,8,9.94,7.29,0,0,5.84-27.44,17.52-35.07Z" fill="#fff" stroke="#8acaff" stroke-miterlimit="10"/>
          <path d="M330.23,402.72s8.92,9.26,41.63-11.09" fill="none" stroke="#8acaff" stroke-miterlimit="10"/>
          <path d="M343.14,413.55s12.1,3.64,26.48-16.32" fill="none" stroke="#8acaff" stroke-miterlimit="10"/>
          <path d="M361.62,416.68s10.81-17.95,16.47-21.41" fill="none" stroke="#8acaff" stroke-miterlimit="10"/>
          <path d="M401,333.11a11.41,11.41,0,0,0,10.4-8.84c2.28-8.68,2.68-17.37,12.47-20.51s14.94,6.18,8.18,20.76,5.32,25.79-3.74,41.78-42.89,24.55-42.89,24.55S376.68,369,401,333.11Z" fill="#fff" stroke="#8acaff" stroke-miterlimit="10"/>
          <path d="M434,307.11s1.46,4.16,1.08,6.89c0,0,3.7-5.44,8-5.41C443.06,308.59,438.54,305.18,434,307.11Z" fill="#8acaff" stroke="#8acaff" stroke-miterlimit="10"/>
          <g>
            <path d="M419.92,376.65A1.87,1.87,0,0,1,421,374.9a4,4,0,0,1,2.34-.34c2,.31,3.16,3.43-.24,5.3,0,0-.12-4.47-2-3.1C420.2,377.45,419.94,377.13,419.92,376.65Z" fill="#8acaff" stroke="#8acaff" stroke-miterlimit="10"/>
            <path d="M416.59,378a1.86,1.86,0,0,1,1.4-1.54,4,4,0,0,1,2.36.06c1.89.63,2.54,3.91-1.13,5.18,0,0,.63-4.43-1.45-3.39C416.73,378.81,416.53,378.46,416.59,378Z" fill="#8acaff" stroke="#8acaff" stroke-miterlimit="10"/>
          </g>
          <g>
            <g>
              <path d="M382.79,368.22c-6.86,11.09-16.21,13.46-16.21,13.46,4.92-25.71,23.59-43.12,34.79-50S416.18,334,416.18,334s12.87,1.31,5.37,23.23-56.05,33.36-58.64,30.54c0,0,1.25-4.55,3.67-6.07" fill="#fff" stroke="#8acaff" stroke-miterlimit="10"/>
              <path d="M414.56,342.12s-17.7,33.81-48,39.87" fill="none" stroke="#8acaff" stroke-miterlimit="10"/>
            </g>
            <path d="M414.58,353.56s-11.31,27.69-51.67,34.19" fill="none" stroke="#8acaff" stroke-miterlimit="10"/>
          </g>
        </g>
        <g>
          <circle cx="428.23" cy="308.72" r="2.25" fill="#8acaff"/>
          <circle cx="428.23" cy="308.72" r="0.99" fill="#fff"/>
        </g>
        <circle cx="434.12" cy="306.34" r="2.04" fill="#fff" stroke="#8acaff" stroke-miterlimit="10"/>
      </g>
      <g>
        <path d="M90,365.31A17.69,17.69,0,0,1,86.26,349l17.08,4.67Z" fill="#fff" stroke="#8acaff" stroke-miterlimit="10"/>
        <path d="M108,336.61a17.71,17.71,0,0,1,12.41,21.75l-17.08-4.67L86.26,349A17.7,17.7,0,0,1,108,336.61Z" fill="#8acaff" stroke="#8acaff" stroke-miterlimit="10"/>
        <path d="M103.34,353.69l17.08,4.67A17.71,17.71,0,0,1,90,365.31Z" fill="#c2deff" stroke="#8acaff" stroke-miterlimit="10"/>
        <path d="M91.87,342.65a15.47,15.47,0,0,1,15.65-4.24" fill="none" stroke="#fff" stroke-miterlimit="10"/>
      </g>
      <g>
        <path d="M118.65,364.77a15.92,15.92,0,0,1-3.34-14.66l15.37,4.2Z" fill="#fff" stroke="#8acaff" stroke-miterlimit="10"/>
        <path d="M134.89,338.94a16,16,0,0,1,11.17,19.58l-15.38-4.21-15.37-4.2A15.94,15.94,0,0,1,134.89,338.94Z" fill="#8acaff" stroke="#8acaff" stroke-miterlimit="10"/>
        <path d="M130.68,354.31l15.38,4.21a15.94,15.94,0,0,1-27.41,6.25Z" fill="#c2deff" stroke="#8acaff" stroke-miterlimit="10"/>
        <path d="M120.36,344.37a13.93,13.93,0,0,1,14.09-3.81" fill="none" stroke="#fff" stroke-miterlimit="10"/>
      </g>
      <rect x="92.19" y="368.08" width="82.64" height="10.57" rx="4.67" ry="4.67" fill="#fff" stroke="#8acaff" stroke-miterlimit="10"/>
      <g>
        <path d="M222.81,328.52v-40.6h-22.1v40.6a11,11,0,0,0,9.76,11V365a11.52,11.52,0,0,1-9.57,11.41l-.19,0h22.1l-.19,0A11.52,11.52,0,0,1,213.05,365V339.49A11,11,0,0,0,222.81,328.52Z" fill="#fff" stroke="#8acaff" stroke-linejoin="round"/>
        <line x1="205.13" y1="374.77" x2="218.21" y2="374.77" fill="none" stroke="#8acaff" stroke-miterlimit="10"/>
        <rect x="200.71" y="376.42" width="22.1" height="2.08" fill="#fff" stroke="#8acaff" stroke-linejoin="round"/>
        <path d="M203.36,299.48h16.81a0,0,0,0,1,0,0v28.94a8.4,8.4,0,0,1-8.4,8.4h0a8.4,8.4,0,0,1-8.4-8.4V299.48A0,0,0,0,1,203.36,299.48Z" fill="#8acaff"/>
        <line x1="200.71" y1="291.37" x2="216.7" y2="291.37" fill="none" stroke="#8acaff" stroke-miterlimit="10"/>
        <circle cx="215.3" cy="302" r="0.92" fill="#fff"/>
        <circle cx="207.79" cy="303.83" r="0.92" fill="#fff"/>
        <circle cx="215.3" cy="308.51" r="0.92" fill="#fff"/>
      </g>
      <g>
        <path d="M161.69,343.69a13.26,13.26,0,0,1,8.49,9.21l-12.85,3.34Z" fill="#fff" stroke="#8acaff" stroke-miterlimit="10"/>
        <path d="M160.67,369.09a13.28,13.28,0,0,1-16.19-9.52l12.85-3.33,12.85-3.34A13.27,13.27,0,0,1,160.67,369.09Z" fill="#8acaff" stroke="#8acaff" stroke-miterlimit="10"/>
        <path d="M157.33,356.24l-12.85,3.33a13.29,13.29,0,0,1,17.21-15.88Z" fill="#c2deff" stroke="#8acaff" stroke-miterlimit="10"/>
        <path d="M168.91,359.14a11.58,11.58,0,0,1-8.59,8.59" fill="none" stroke="#fff" stroke-miterlimit="10"/>
      </g>
      <path d="M178.45,374H88.57c-3.58,0-16.82-2.9-16.82-6.48H195.26C195.26,371.06,182,374,178.45,374Z" fill="#fff" stroke="#8acaff" stroke-linecap="round" stroke-linejoin="round"/>
      <line x1="192.05" y1="370.26" x2="138.23" y2="370.26" fill="#fff" stroke="#8acaff" stroke-linecap="round" stroke-linejoin="round"/>
      <g>
        <path d="M74.61,518.92h0a3.56,3.56,0,0,0,4.74-1.66l27.94-49.76a3.56,3.56,0,0,0-1.65-4.74h0a3.56,3.56,0,0,0-4.74,1.66L73,514.18A3.56,3.56,0,0,0,74.61,518.92Z" fill="#fff" stroke="#8acaff" stroke-miterlimit="10"/>
        <path d="M407.4,518.92h0a3.55,3.55,0,0,1-4.73-1.66l-21.83-37.45a3.56,3.56,0,0,1,1.66-4.74h0a3.54,3.54,0,0,1,4.73,1.65l21.83,37.46A3.56,3.56,0,0,1,407.4,518.92Z" fill="#fff" stroke="#8acaff" stroke-miterlimit="10"/>
        <path d="M13.88,301.37l77.77,157A23,23,0,0,0,109.34,471l285.22,9.8a3.6,3.6,0,0,0,4.06-3.57h0a3.61,3.61,0,0,0-3.15-3.58l-282-9.18A23,23,0,0,1,95.7,451.82L20.1,298.29A3.47,3.47,0,0,0,16,296.51h0A3.47,3.47,0,0,0,13.88,301.37Z" fill="#fff" stroke="#8acaff" stroke-miterlimit="10"/>
        <path d="M116.4,448.72c-7.53-3.65-12-10.5-15.93-18.13l-9.94,5.09,2.72,5.5c3.87,7.81,8.4,14.82,16,18.56,5,2.44,12.18,2.81,17.69,3l11.33.39.39-11.35-4.76-.15C128.48,451.45,121.3,451.1,116.4,448.72Z" fill="#fff" stroke="#8acaff" stroke-miterlimit="10"/>
        <path d="M32.61,290.81h.44a11.33,11.33,0,0,1,11.33,11.33v36.75a0,0,0,0,1,0,0H32.61a0,0,0,0,1,0,0V290.81a0,0,0,0,1,0,0Z" transform="translate(-132.37 47.61) rotate(-25.62)" fill="#fff" stroke="#8acaff" stroke-miterlimit="10"/>
        <rect x="55.44" y="338.4" width="11.77" height="48.08" transform="translate(-150.71 62.17) rotate(-25.62)" fill="#fff" stroke="#8acaff" stroke-miterlimit="10"/>
        <rect x="77.73" y="384.87" width="11.77" height="48.08" transform="translate(-168.62 76.38) rotate(-25.62)" fill="#fff" stroke="#8acaff" stroke-miterlimit="10"/>
        <polygon points="191.2 452.67 190.75 464.44 141.23 463.51 141.68 451.74 191.2 452.67" fill="#fff" stroke="#8acaff" stroke-miterlimit="10"/>
        <rect x="213.9" y="435.63" width="11.77" height="48.08" transform="matrix(0.04, -1, 1, 0.04, -248.05, 661.49)" fill="#fff" stroke="#8acaff" stroke-miterlimit="10"/>
        <rect x="266.05" y="437.23" width="11.77" height="48.08" transform="matrix(0.04, -1, 1, 0.04, -199.52, 715.13)" fill="#fff" stroke="#8acaff" stroke-miterlimit="10"/>
        <rect x="318.89" y="439.28" width="11.77" height="48.08" transform="translate(-150.78 769.9) rotate(-87.78)" fill="#fff" stroke="#8acaff" stroke-miterlimit="10"/>
        <path d="M367.71,443.32h11.77a0,0,0,0,1,0,0v32a11.33,11.33,0,0,1-11.33,11.33h-.44a0,0,0,0,1,0,0V443.32A0,0,0,0,1,367.71,443.32Z" transform="translate(-105.53 820.31) rotate(-87.78)" fill="#fff" stroke="#8acaff" stroke-miterlimit="10"/>
      </g>
    </g>
  </g>
</svg>
