<svg xmlns="http://www.w3.org/2000/svg" xmlns:xlink="http://www.w3.org/1999/xlink" viewBox="0 0 1151.32 531.03">
  <defs>
    <clipPath id="a">
      <path d="M1029.85,95.38,944.17,65.5l-29.85,69.3H854.74a4.5,4.5,0,1,0,0,9H997.88a4.48,4.48,0,0,0,3.85-6.79Z" fill="none"/>
    </clipPath>
  </defs>
  <g>
    <g>
      <path d="M422.17,325.52V281.16H398v44.36a12.08,12.08,0,0,0,10.66,12v27.83a12.59,12.59,0,0,1-10.45,12.47l-.21,0h24.14l-.21,0a12.58,12.58,0,0,1-10.45-12.47V337.51A12.08,12.08,0,0,0,422.17,325.52Z" fill="#fff" stroke="#8acaff" stroke-linejoin="round"/>
      <line x1="402.86" y1="376.04" x2="417.14" y2="376.04" fill="none" stroke="#8acaff" stroke-miterlimit="10"/>
      <rect x="398.03" y="377.84" width="24.15" height="2.27" fill="#fff" stroke="#8acaff" stroke-linejoin="round"/>
      <path d="M400.92,301.78h18.36a0,0,0,0,1,0,0v23.63a9.18,9.18,0,0,1-9.18,9.18h0a9.18,9.18,0,0,1-9.18-9.18V301.78A0,0,0,0,1,400.92,301.78Z" fill="#8acaff"/>
      <line x1="398.03" y1="284.93" x2="415.5" y2="284.93" fill="none" stroke="#8acaff" stroke-miterlimit="10"/>
      <circle cx="413.97" cy="304.53" r="1" fill="#fff"/>
      <circle cx="405.76" cy="306.53" r="1" fill="#fff"/>
      <circle cx="413.97" cy="311.64" r="1" fill="#fff"/>
    </g>
    <g>
      <path d="M394.11,325.52V281.16H370v44.36a12.08,12.08,0,0,0,10.66,12v27.83a12.59,12.59,0,0,1-10.45,12.47l-.21,0h24.14l-.21,0a12.58,12.58,0,0,1-10.45-12.47V337.51A12.08,12.08,0,0,0,394.11,325.52Z" fill="#fff" stroke="#8acaff" stroke-linejoin="round"/>
      <line x1="374.8" y1="376.04" x2="389.08" y2="376.04" fill="none" stroke="#8acaff" stroke-miterlimit="10"/>
      <rect x="369.97" y="377.84" width="24.15" height="2.27" fill="#fff" stroke="#8acaff" stroke-linejoin="round"/>
      <path d="M372.86,309.89h18.36a0,0,0,0,1,0,0v15.52a9.18,9.18,0,0,1-9.18,9.18h0a9.18,9.18,0,0,1-9.18-9.18V309.89A0,0,0,0,1,372.86,309.89Z" fill="#8acaff"/>
      <line x1="369.97" y1="284.93" x2="387.43" y2="284.93" fill="none" stroke="#8acaff" stroke-miterlimit="10"/>
      <circle cx="385.91" cy="312.64" r="1" fill="#fff"/>
      <circle cx="377.7" cy="314.64" r="1" fill="#fff"/>
      <circle cx="385.91" cy="319.75" r="1" fill="#fff"/>
    </g>
    <g>
      <path d="M969.09,460.35c-.11-.45-12.3-45.25-55.07-54.42l.63-2.93c44.6,9.56,57.22,56.13,57.35,56.6Z" fill="#fff" stroke="#8acaff" stroke-miterlimit="10"/>
      <path d="M970.55,455.34a1.47,1.47,0,0,1-.36,0,1.5,1.5,0,0,1-1.1-1.82c.12-.47,12.1-47,55.73-53.88a1.5,1.5,0,0,1,.46,3c-41.68,6.54-53.17,51.18-53.28,51.63A1.49,1.49,0,0,1,970.55,455.34Z" fill="#fff" stroke="#8acaff" stroke-miterlimit="10"/>
      <rect x="968.93" y="406.32" width="4" height="59.69" fill="#fff" stroke="#8acaff" stroke-miterlimit="10"/>
      <polygon points="925.64 471.14 938.03 527.4 968.19 527.4 968.19 525.55 975.42 525.55 975.42 527.4 1005.49 527.4 1017.88 471.14 925.64 471.14" fill="#fff" stroke="#8acaff" stroke-miterlimit="10"/>
      <path d="M1076.76,342.13a47.55,47.55,0,0,0-11.48-31A36.54,36.54,0,0,0,1019,271.75a36.53,36.53,0,0,0-61.72-13A36.51,36.51,0,0,0,905,273a47.75,47.75,0,0,0-42.83,79.66,47.75,47.75,0,0,0,44.19,62.93,36.53,36.53,0,0,0,65.49,14.07,47.76,47.76,0,0,0,80.31-45.73A47.75,47.75,0,0,0,1076.76,342.13Z" fill="#0092d3" stroke="#8acaff" stroke-miterlimit="10"/>
      <g>
        <path d="M962.7,291.76a19,19,0,0,0-18-.24l8.76,16.91Z" fill="#fff" stroke="#8acaff" stroke-miterlimit="10"/>
        <path d="M936.59,317.18a19,19,0,0,0,25.67,8.15l-8.76-16.9-8.76-16.91A19,19,0,0,0,936.59,317.18Z" fill="#8acaff" stroke="#8acaff" stroke-miterlimit="10"/>
        <path d="M953.5,308.43l8.76,16.9a19,19,0,0,0,.44-33.57Z" fill="#c2deff" stroke="#8acaff" stroke-miterlimit="10"/>
        <path d="M939.3,298.85a16.66,16.66,0,0,0-.93,17.41" fill="none" stroke="#fff" stroke-miterlimit="10"/>
      </g>
      <g>
        <path d="M924.47,428.59a15.41,15.41,0,0,0,3.24-14.18l-14.86,4.07Z" fill="#fff" stroke="#8acaff" stroke-miterlimit="10"/>
        <path d="M908.78,403.62A15.4,15.4,0,0,0,898,422.55l14.86-4.07,14.86-4.07A15.41,15.41,0,0,0,908.78,403.62Z" fill="#8acaff" stroke="#8acaff" stroke-miterlimit="10"/>
        <path d="M912.85,418.48,898,422.55a15.4,15.4,0,0,0,26.48,6Z" fill="#c2deff" stroke="#8acaff" stroke-miterlimit="10"/>
        <path d="M922.82,408.87a13.45,13.45,0,0,0-13.61-3.68" fill="none" stroke="#fff" stroke-miterlimit="10"/>
      </g>
      <g>
        <path d="M989.57,413.18A15.4,15.4,0,0,0,992.8,399l-14.86,4.07Z" fill="#fff" stroke="#8acaff" stroke-miterlimit="10"/>
        <path d="M973.88,388.21a15.41,15.41,0,0,0-10.8,18.93l14.86-4.07L992.8,399A15.4,15.4,0,0,0,973.88,388.21Z" fill="#8acaff" stroke="#8acaff" stroke-miterlimit="10"/>
        <path d="M977.94,403.07l-14.86,4.07a15.41,15.41,0,0,0,26.49,6Z" fill="#c2deff" stroke="#8acaff" stroke-miterlimit="10"/>
        <path d="M987.92,393.46a13.45,13.45,0,0,0-13.61-3.68" fill="none" stroke="#fff" stroke-miterlimit="10"/>
      </g>
      <g>
        <path d="M1041.12,362.87a18.69,18.69,0,0,0,3.92-17.2l-18,4.93Z" fill="#fff" stroke="#8acaff" stroke-miterlimit="10"/>
        <path d="M1022.08,332.57a18.69,18.69,0,0,0-13.1,23l18-4.94,18-4.93A18.69,18.69,0,0,0,1022.08,332.57Z" fill="#8acaff" stroke="#8acaff" stroke-miterlimit="10"/>
        <path d="M1027,350.6l-18,4.94a18.7,18.7,0,0,0,32.14,7.33Z" fill="#c2deff" stroke="#8acaff" stroke-miterlimit="10"/>
        <path d="M1039.12,338.94a16.34,16.34,0,0,0-16.52-4.47" fill="none" stroke="#fff" stroke-miterlimit="10"/>
      </g>
      <g>
        <path d="M1059.33,293.68a22.81,22.81,0,0,0-20.41,0,8.59,8.59,0,1,0,7.26,15.58A22.8,22.8,0,0,0,1059.33,293.68Z" fill="#fff" stroke="#8acaff" stroke-miterlimit="10"/>
        <line x1="1059.33" y1="293.68" x2="1034.76" y2="305.12" fill="none" stroke="#8acaff" stroke-miterlimit="10"/>
        <line x1="1036.47" y1="304.32" x2="1045.46" y2="309.62" fill="none" stroke="#8acaff" stroke-miterlimit="10"/>
        <line x1="1039.15" y1="303.07" x2="1048.14" y2="308.38" fill="none" stroke="#8acaff" stroke-miterlimit="10"/>
        <line x1="1041.83" y1="301.83" x2="1050.42" y2="306.89" fill="none" stroke="#8acaff" stroke-miterlimit="10"/>
        <line x1="1044.51" y1="300.58" x2="1052.45" y2="305.26" fill="none" stroke="#8acaff" stroke-miterlimit="10"/>
        <line x1="1047.19" y1="299.33" x2="1054.21" y2="303.48" fill="none" stroke="#8acaff" stroke-miterlimit="10"/>
        <line x1="1049.86" y1="298.09" x2="1055.74" y2="301.55" fill="none" stroke="#8acaff" stroke-miterlimit="10"/>
        <line x1="1052.54" y1="296.84" x2="1057.04" y2="299.49" fill="none" stroke="#8acaff" stroke-miterlimit="10"/>
        <line x1="1055.22" y1="295.59" x2="1058.14" y2="297.31" fill="none" stroke="#8acaff" stroke-miterlimit="10"/>
        <line x1="1036.47" y1="304.32" x2="1038.2" y2="294.03" fill="none" stroke="#8acaff" stroke-miterlimit="10"/>
        <line x1="1039.15" y1="303.07" x2="1040.88" y2="292.78" fill="none" stroke="#8acaff" stroke-miterlimit="10"/>
        <line x1="1041.83" y1="301.83" x2="1043.48" y2="291.99" fill="none" stroke="#8acaff" stroke-miterlimit="10"/>
        <line x1="1044.51" y1="300.58" x2="1046.03" y2="291.49" fill="none" stroke="#8acaff" stroke-miterlimit="10"/>
        <line x1="1047.19" y1="299.33" x2="1048.54" y2="291.28" fill="none" stroke="#8acaff" stroke-miterlimit="10"/>
        <line x1="1049.86" y1="298.09" x2="1050.99" y2="291.35" fill="none" stroke="#8acaff" stroke-miterlimit="10"/>
        <line x1="1052.54" y1="296.84" x2="1053.41" y2="291.69" fill="none" stroke="#8acaff" stroke-miterlimit="10"/>
        <line x1="1055.22" y1="295.59" x2="1055.78" y2="292.25" fill="none" stroke="#8acaff" stroke-miterlimit="10"/>
        <path d="M1059.33,293.68a22.81,22.81,0,0,0-20.41,0,8.59,8.59,0,1,0,7.26,15.58A22.8,22.8,0,0,0,1059.33,293.68Z" fill="none" stroke="#8acaff" stroke-miterlimit="10"/>
      </g>
      <g>
        <path d="M1050.89,390.3a22.81,22.81,0,0,0-20.41,0,8.59,8.59,0,1,0,7.25,15.58A22.83,22.83,0,0,0,1050.89,390.3Z" fill="#fff" stroke="#8acaff" stroke-miterlimit="10"/>
        <line x1="1050.89" y1="390.3" x2="1026.31" y2="401.74" fill="none" stroke="#8acaff" stroke-miterlimit="10"/>
        <line x1="1028.03" y1="400.94" x2="1037.01" y2="406.25" fill="none" stroke="#8acaff" stroke-miterlimit="10"/>
        <line x1="1030.7" y1="399.7" x2="1039.69" y2="405" fill="none" stroke="#8acaff" stroke-miterlimit="10"/>
        <line x1="1033.38" y1="398.45" x2="1041.97" y2="403.51" fill="none" stroke="#8acaff" stroke-miterlimit="10"/>
        <line x1="1036.06" y1="397.2" x2="1044" y2="401.89" fill="none" stroke="#8acaff" stroke-miterlimit="10"/>
        <line x1="1038.74" y1="395.95" x2="1045.77" y2="400.1" fill="none" stroke="#8acaff" stroke-miterlimit="10"/>
        <line x1="1041.42" y1="394.71" x2="1047.3" y2="398.18" fill="none" stroke="#8acaff" stroke-miterlimit="10"/>
        <line x1="1044.1" y1="393.46" x2="1048.59" y2="396.11" fill="none" stroke="#8acaff" stroke-miterlimit="10"/>
        <line x1="1046.78" y1="392.21" x2="1049.69" y2="393.93" fill="none" stroke="#8acaff" stroke-miterlimit="10"/>
        <line x1="1028.03" y1="400.94" x2="1029.75" y2="390.65" fill="none" stroke="#8acaff" stroke-miterlimit="10"/>
        <line x1="1030.7" y1="399.7" x2="1032.43" y2="389.4" fill="none" stroke="#8acaff" stroke-miterlimit="10"/>
        <line x1="1033.38" y1="398.45" x2="1035.03" y2="388.62" fill="none" stroke="#8acaff" stroke-miterlimit="10"/>
        <line x1="1036.06" y1="397.2" x2="1037.59" y2="388.11" fill="none" stroke="#8acaff" stroke-miterlimit="10"/>
        <line x1="1038.74" y1="395.95" x2="1040.09" y2="387.91" fill="none" stroke="#8acaff" stroke-miterlimit="10"/>
        <line x1="1041.42" y1="394.71" x2="1042.55" y2="387.98" fill="none" stroke="#8acaff" stroke-miterlimit="10"/>
        <line x1="1044.1" y1="393.46" x2="1044.96" y2="388.31" fill="none" stroke="#8acaff" stroke-miterlimit="10"/>
        <line x1="1046.78" y1="392.21" x2="1047.34" y2="388.88" fill="none" stroke="#8acaff" stroke-miterlimit="10"/>
        <path d="M1050.89,390.3a22.81,22.81,0,0,0-20.41,0,8.59,8.59,0,1,0,7.25,15.58A22.83,22.83,0,0,0,1050.89,390.3Z" fill="none" stroke="#8acaff" stroke-miterlimit="10"/>
      </g>
      <g>
        <path d="M939.6,355.51a32.08,32.08,0,0,1,28.71,0,12.08,12.08,0,1,1-10.2,21.91A32.08,32.08,0,0,1,939.6,355.51Z" fill="#fff" stroke="#8acaff" stroke-miterlimit="10"/>
        <line x1="939.6" y1="355.51" x2="974.17" y2="371.61" fill="none" stroke="#8acaff" stroke-miterlimit="10"/>
        <line x1="971.76" y1="370.48" x2="959.12" y2="377.94" fill="none" stroke="#8acaff" stroke-miterlimit="10"/>
        <line x1="967.99" y1="368.73" x2="955.35" y2="376.19" fill="none" stroke="#8acaff" stroke-miterlimit="10"/>
        <line x1="964.22" y1="366.98" x2="952.14" y2="374.1" fill="none" stroke="#8acaff" stroke-miterlimit="10"/>
        <line x1="960.46" y1="365.22" x2="949.29" y2="371.81" fill="none" stroke="#8acaff" stroke-miterlimit="10"/>
        <line x1="956.69" y1="363.47" x2="946.8" y2="369.3" fill="none" stroke="#8acaff" stroke-miterlimit="10"/>
        <line x1="952.92" y1="361.71" x2="944.65" y2="366.59" fill="none" stroke="#8acaff" stroke-miterlimit="10"/>
        <line x1="949.15" y1="359.96" x2="942.83" y2="363.69" fill="none" stroke="#8acaff" stroke-miterlimit="10"/>
        <line x1="945.38" y1="358.2" x2="941.28" y2="360.62" fill="none" stroke="#8acaff" stroke-miterlimit="10"/>
        <line x1="971.76" y1="370.48" x2="969.33" y2="356.01" fill="none" stroke="#8acaff" stroke-miterlimit="10"/>
        <line x1="967.99" y1="368.73" x2="965.56" y2="354.25" fill="none" stroke="#8acaff" stroke-miterlimit="10"/>
        <line x1="964.22" y1="366.98" x2="961.9" y2="353.14" fill="none" stroke="#8acaff" stroke-miterlimit="10"/>
        <line x1="960.46" y1="365.22" x2="958.31" y2="352.43" fill="none" stroke="#8acaff" stroke-miterlimit="10"/>
        <line x1="956.69" y1="363.47" x2="954.79" y2="352.15" fill="none" stroke="#8acaff" stroke-miterlimit="10"/>
        <line x1="952.92" y1="361.71" x2="951.33" y2="352.24" fill="none" stroke="#8acaff" stroke-miterlimit="10"/>
        <line x1="949.15" y1="359.96" x2="947.94" y2="352.72" fill="none" stroke="#8acaff" stroke-miterlimit="10"/>
        <line x1="945.38" y1="358.2" x2="944.6" y2="353.51" fill="none" stroke="#8acaff" stroke-miterlimit="10"/>
        <path d="M939.6,355.51a32.08,32.08,0,0,1,28.71,0,12.08,12.08,0,1,1-10.2,21.91A32.08,32.08,0,0,1,939.6,355.51Z" fill="none" stroke="#8acaff" stroke-miterlimit="10"/>
      </g>
      <g>
        <path d="M873.61,259.16a32.13,32.13,0,0,1,28.72,0,12.09,12.09,0,1,1-10.21,21.92A32.13,32.13,0,0,1,873.61,259.16Z" fill="#fff" stroke="#8acaff" stroke-miterlimit="10"/>
        <line x1="873.61" y1="259.16" x2="908.19" y2="275.25" fill="none" stroke="#8acaff" stroke-miterlimit="10"/>
        <line x1="905.78" y1="274.13" x2="893.13" y2="281.59" fill="none" stroke="#8acaff" stroke-miterlimit="10"/>
        <line x1="902.01" y1="272.38" x2="889.36" y2="279.84" fill="none" stroke="#8acaff" stroke-miterlimit="10"/>
        <line x1="898.24" y1="270.62" x2="886.16" y2="277.75" fill="none" stroke="#8acaff" stroke-miterlimit="10"/>
        <line x1="894.47" y1="268.87" x2="883.3" y2="275.46" fill="none" stroke="#8acaff" stroke-miterlimit="10"/>
        <line x1="890.7" y1="267.11" x2="880.82" y2="272.95" fill="none" stroke="#8acaff" stroke-miterlimit="10"/>
        <line x1="886.94" y1="265.36" x2="878.67" y2="270.24" fill="none" stroke="#8acaff" stroke-miterlimit="10"/>
        <line x1="883.17" y1="263.6" x2="876.85" y2="267.33" fill="none" stroke="#8acaff" stroke-miterlimit="10"/>
        <line x1="879.4" y1="261.85" x2="875.3" y2="264.27" fill="none" stroke="#8acaff" stroke-miterlimit="10"/>
        <line x1="905.78" y1="274.13" x2="903.35" y2="259.65" fill="none" stroke="#8acaff" stroke-miterlimit="10"/>
        <line x1="902.01" y1="272.38" x2="899.58" y2="257.9" fill="none" stroke="#8acaff" stroke-miterlimit="10"/>
        <line x1="898.24" y1="270.62" x2="895.92" y2="256.79" fill="none" stroke="#8acaff" stroke-miterlimit="10"/>
        <line x1="894.47" y1="268.87" x2="892.33" y2="256.08" fill="none" stroke="#8acaff" stroke-miterlimit="10"/>
        <line x1="890.7" y1="267.11" x2="888.8" y2="255.79" fill="none" stroke="#8acaff" stroke-miterlimit="10"/>
        <line x1="886.94" y1="265.36" x2="885.35" y2="255.89" fill="none" stroke="#8acaff" stroke-miterlimit="10"/>
        <line x1="883.17" y1="263.6" x2="881.95" y2="256.37" fill="none" stroke="#8acaff" stroke-miterlimit="10"/>
        <line x1="879.4" y1="261.85" x2="878.61" y2="257.16" fill="none" stroke="#8acaff" stroke-miterlimit="10"/>
        <path d="M873.61,259.16a32.13,32.13,0,0,1,28.72,0,12.09,12.09,0,1,1-10.21,21.92A32.13,32.13,0,0,1,873.61,259.16Z" fill="none" stroke="#8acaff" stroke-miterlimit="10"/>
      </g>
      <path d="M1019,271.75s-18.15,5.33-21.29,17.22" fill="none" stroke="#8acaff" stroke-miterlimit="10"/>
      <path d="M999.24,331.78s-18.16,5.34-21.3,17.22" fill="none" stroke="#8acaff" stroke-miterlimit="10"/>
      <path d="M979.21,330.42a49.52,49.52,0,0,1,8.82,5.4" fill="none" stroke="#8acaff" stroke-miterlimit="10"/>
      <path d="M883.25,337.85s-18.16,5.33-21.3,17.22" fill="none" stroke="#8acaff" stroke-miterlimit="10"/>
      <g>
        <path d="M908.1,343.11a19.34,19.34,0,0,0,4.06-17.8l-18.66,5.11Z" fill="#fff" stroke="#8acaff" stroke-miterlimit="10"/>
        <path d="M888.39,311.76a19.33,19.33,0,0,0-13.55,23.76l18.66-5.1,18.66-5.11A19.35,19.35,0,0,0,888.39,311.76Z" fill="#8acaff" stroke="#8acaff" stroke-miterlimit="10"/>
        <path d="M893.5,330.42l-18.66,5.1a19.34,19.34,0,0,0,33.26,7.59Z" fill="#c2deff" stroke="#8acaff" stroke-miterlimit="10"/>
        <path d="M906,318.35a16.9,16.9,0,0,0-17.1-4.62" fill="none" stroke="#fff" stroke-miterlimit="10"/>
      </g>
      <rect x="916.65" y="466.01" width="110.22" height="5.13" rx="2.57" ry="2.57" fill="#fff" stroke="#8acaff" stroke-miterlimit="10"/>
      <line x1="937.13" y1="523.3" x2="1006.48" y2="523.3" fill="none" stroke="#8acaff" stroke-miterlimit="10"/>
      <path d="M906.35,415.56s-7.6-27.67,16.43-37" fill="none" stroke="#8acaff" stroke-miterlimit="10"/>
      <path d="M914.34,383.54s-1.24-11-22.87-14.24" fill="none" stroke="#8acaff" stroke-miterlimit="10"/>
      <path d="M957.28,258.73s-10.73,9.76-10.48,23.51" fill="#fff" stroke="#8acaff" stroke-miterlimit="10"/>
    </g>
    <g>
      <g>
        <path d="M469.36,295.42c-8.36-22.19-6-47.67-6-47.67H450.53s2.35,25.48-6,47.67c-6.83,18.13-6.71,32.87-6.71,32.87v44.57a7.5,7.5,0,0,0,7.5,7.5h23.24a7.5,7.5,0,0,0,7.51-7.5V328.29S476.19,313.55,469.36,295.42Z" fill="#fff" stroke="#8acaff" stroke-linejoin="round"/>
        <g>
          <path d="M451.93,324.38h10A10.59,10.59,0,0,1,472.55,335v17.63a15.6,15.6,0,0,1-15.6,15.6h0a15.6,15.6,0,0,1-15.6-15.6V335A10.59,10.59,0,0,1,451.93,324.38Z" fill="#fff" stroke="#8acaff" stroke-linejoin="round"/>
          <path d="M463.65,249.51a1.15,1.15,0,0,0,1.13-1.15v-1.22a1.17,1.17,0,0,0-.88-1.12v-9.33a1.62,1.62,0,0,0-1.61-1.61H451.6a1.61,1.61,0,0,0-1.61,1.61V246a1.16,1.16,0,0,0-.88,1.12v1.22a1.15,1.15,0,0,0,1.13,1.15,180.43,180.43,0,0,1-4,40.77,6,6,0,0,1,4.95,3.76,8.53,8.53,0,0,0,.5,1.1,5.48,5.48,0,0,0,5.23,3.85,5.56,5.56,0,0,0,1.74-.28,5.49,5.49,0,0,0,3.5-3.57,8.51,8.51,0,0,0,.49-1.1,6.07,6.07,0,0,1,4.95-3.76C463.5,273,463.53,255.09,463.65,249.51Z" fill="#fff" stroke="#8acaff" stroke-linejoin="round"/>
          <line x1="453.66" y1="245.93" x2="463.63" y2="245.93" fill="none" stroke="#8acaff" stroke-linecap="round" stroke-linejoin="round"/>
          <line x1="450.22" y1="249.38" x2="460.19" y2="249.38" fill="none" stroke="#8acaff" stroke-linecap="round" stroke-linejoin="round"/>
          <polygon points="449.41 314.92 448.06 310.59 443.55 310.15 452.23 299.5 458.08 304.27 449.41 314.92" fill="#fff" stroke="#8acaff" stroke-linejoin="round"/>
          <polygon points="450.07 311.31 449.35 309.01 446.95 308.77 451.57 303.1 454.69 305.64 450.07 311.31" fill="#8acaff" stroke="#8acaff" stroke-miterlimit="10"/>
          <polygon points="464.48 314.92 465.82 310.59 470.33 310.15 461.66 299.5 455.81 304.27 464.48 314.92" fill="#fff" stroke="#8acaff" stroke-linejoin="round"/>
          <polygon points="463.81 311.31 464.53 309.01 466.93 308.77 462.31 303.1 459.2 305.64 463.81 311.31" fill="#8acaff" stroke="#8acaff" stroke-miterlimit="10"/>
          <path d="M447,288.4s7.2.64,7.74,9.81l2.25.3V288.4s-2.65-3.59-9.35-4.39A16.21,16.21,0,0,1,447,288.4Z" fill="#8acaff" stroke="#8acaff" stroke-miterlimit="10"/>
          <path d="M466.94,288.4s-7.21.64-7.74,9.81l-2.26.3V288.4s2.65-3.59,9.36-4.39A16.21,16.21,0,0,0,466.94,288.4Z" fill="#8acaff" stroke="#8acaff" stroke-miterlimit="10"/>
          <g>
            <circle cx="456.94" cy="300.23" r="6.12" fill="#fff" stroke="#8acaff" stroke-linejoin="round"/>
            <path d="M456.94,296.45a3.77,3.77,0,0,1,2.62,1.05" fill="#fff" stroke="#8acaff" stroke-linejoin="round"/>
            <path d="M460.3,302a3.77,3.77,0,0,1-6.91-.45" fill="#fff" stroke="#8acaff" stroke-linejoin="round"/>
          </g>
          <path d="M452.64,326.7h8.6a9.09,9.09,0,0,1,9.09,9.09V352.5a13.39,13.39,0,0,1-13.39,13.39h0a13.39,13.39,0,0,1-13.39-13.39V335.79A9.09,9.09,0,0,1,452.64,326.7Z" fill="#fff" stroke="#8acaff" stroke-linejoin="round"/>
          <path d="M473.3,360.14l-.17,11.1s.26,6.12-9.76,6.76c0,0,10.69,2,11.4-6.68V360.14Z" fill="#fff"/>
          <path d="M447.8,282.28s6.94.46,9.05,4V284s-2.57-3.48-8.75-3.65Z" fill="#8acaff" stroke="#8acaff" stroke-linecap="round" stroke-linejoin="round"/>
          <path d="M466,282.18s-7,.56-9.13,4.09V284s2.56-3.48,8.74-3.65Z" fill="#8acaff" stroke="#8acaff" stroke-linecap="round" stroke-linejoin="round"/>
          <path d="M443.13,305.69c.08-.31-5.31,10.77-3.95,26.83C439.18,332.52,439.89,317.17,443.13,305.69Z" fill="#fff"/>
        </g>
      </g>
      <text transform="translate(446.8 350.64)" font-size="8.47" fill="#8acaff" font-family="HelveticaNeue-CondensedBold, HelveticaNeue CondensedBold" font-weight="700">KRUG</text>
      <text transform="matrix(0.62, -0.79, 0.79, 0.62, 448.35, 342.65)" font-size="4.25" fill="#8acaff" font-family="HelveticaNeue-CondensedBold, HelveticaNeue CondensedBold" font-weight="700">C</text>
      <text transform="translate(449.74 340.82) rotate(-38.67)" font-size="4.25" fill="#8acaff" font-family="HelveticaNeue-CondensedBold, HelveticaNeue CondensedBold" font-weight="700">H</text>
      <text transform="translate(451.74 339.2) rotate(-25.28)" font-size="4.25" fill="#8acaff" font-family="HelveticaNeue-CondensedBold, HelveticaNeue CondensedBold" font-weight="700">A</text>
      <text transform="translate(453.9 338.1) rotate(-10.25)" font-size="4.25" fill="#8acaff" font-family="HelveticaNeue-CondensedBold, HelveticaNeue CondensedBold" font-weight="700">M</text>
      <text transform="matrix(1, 0.07, -0.07, 1, 457.07, 337.57)" font-size="4.25" fill="#8acaff" font-family="HelveticaNeue-CondensedBold, HelveticaNeue CondensedBold" font-weight="700">P</text>
      <text transform="translate(458.84 337.64) rotate(14.47)" font-size="4.25" fill="#8acaff" font-family="HelveticaNeue-CondensedBold, HelveticaNeue CondensedBold" font-weight="700">A</text>
      <text transform="translate(461.14 338.19) rotate(27.49)" font-size="4.25" fill="#8acaff" font-family="HelveticaNeue-CondensedBold, HelveticaNeue CondensedBold" font-weight="700">G</text>
      <text transform="matrix(0.75, 0.66, -0.66, 0.75, 463.41, 339.34)" font-size="4.25" fill="#8acaff" font-family="HelveticaNeue-CondensedBold, HelveticaNeue CondensedBold" font-weight="700">N</text>
      <text transform="translate(465.39 341.1) rotate(53.63)" font-size="4.25" fill="#8acaff" font-family="HelveticaNeue-CondensedBold, HelveticaNeue CondensedBold" font-weight="700">E</text>
    </g>
    <g>
      <path d="M830.52,460.35c-.12-.45-12.31-45.25-55.07-54.42l.63-2.93c44.6,9.56,57.22,56.13,57.34,56.6Z" fill="#fff" stroke="#8acaff" stroke-miterlimit="10"/>
      <path d="M832,455.34a1.47,1.47,0,0,1-.36,0,1.51,1.51,0,0,1-1.1-1.82c.12-.47,12.1-47,55.73-53.88a1.5,1.5,0,0,1,.47,3c-41.68,6.54-53.17,51.18-53.28,51.63A1.5,1.5,0,0,1,832,455.34Z" fill="#fff" stroke="#8acaff" stroke-miterlimit="10"/>
      <rect x="830.35" y="406.32" width="4" height="59.69" fill="#fff" stroke="#8acaff" stroke-miterlimit="10"/>
      <polygon points="787.07 471.14 799.45 527.4 829.61 527.4 829.61 525.55 836.85 525.55 836.85 527.4 866.92 527.4 879.3 471.14 787.07 471.14" fill="#fff" stroke="#8acaff" stroke-miterlimit="10"/>
      <path d="M739.38,357.55A39.7,39.7,0,0,1,749,331.63a31.49,31.49,0,0,1-.2-3.51,30.52,30.52,0,0,1,38.85-29.35,30.52,30.52,0,0,1,51.56-10.88,30.51,30.51,0,0,1,43.67,11.9,39.88,39.88,0,0,1,35.77,66.53,39.86,39.86,0,0,1-36.9,52.56A30.5,30.5,0,0,1,827,430.63a39.89,39.89,0,0,1-67.08-38.19A39.87,39.87,0,0,1,739.38,357.55Z" fill="#0092d3" stroke="#8acaff" stroke-miterlimit="10"/>
      <g>
        <path d="M834.64,315.48a15.89,15.89,0,0,1,15-.2l-7.31,14.12Z" fill="#fff" stroke="#8acaff" stroke-miterlimit="10"/>
        <path d="M856.45,336.72A15.9,15.9,0,0,1,835,343.53l7.32-14.13,7.31-14.12A15.91,15.91,0,0,1,856.45,336.72Z" fill="#8acaff" stroke="#8acaff" stroke-miterlimit="10"/>
        <path d="M842.33,329.4,835,343.53a15.91,15.91,0,0,1-.37-28Z" fill="#c2deff" stroke="#8acaff" stroke-miterlimit="10"/>
        <path d="M854.18,321.41A13.89,13.89,0,0,1,855,336" fill="none" stroke="#fff" stroke-miterlimit="10"/>
      </g>
      <g>
        <path d="M866.57,429.77a12.86,12.86,0,0,1-2.7-11.84l12.41,3.39Z" fill="#fff" stroke="#8acaff" stroke-miterlimit="10"/>
        <path d="M879.67,408.91a12.87,12.87,0,0,1,9,15.81l-12.41-3.4-12.41-3.39A12.86,12.86,0,0,1,879.67,408.91Z" fill="#8acaff" stroke="#8acaff" stroke-miterlimit="10"/>
        <path d="M876.28,421.32l12.41,3.4a12.86,12.86,0,0,1-22.12,5Z" fill="#c2deff" stroke="#8acaff" stroke-miterlimit="10"/>
        <path d="M867.94,413.3a11.27,11.27,0,0,1,11.38-3.08" fill="none" stroke="#fff" stroke-miterlimit="10"/>
      </g>
      <g>
        <path d="M812.2,416.9a12.84,12.84,0,0,1-2.7-11.84l12.41,3.39Z" fill="#fff" stroke="#8acaff" stroke-miterlimit="10"/>
        <path d="M825.3,396a12.87,12.87,0,0,1,9,15.81l-12.41-3.4-12.41-3.39A12.86,12.86,0,0,1,825.3,396Z" fill="#8acaff" stroke="#8acaff" stroke-miterlimit="10"/>
        <path d="M821.91,408.45l12.41,3.4a12.86,12.86,0,0,1-22.12,5Z" fill="#c2deff" stroke="#8acaff" stroke-miterlimit="10"/>
        <path d="M813.57,400.43A11.25,11.25,0,0,1,825,397.35" fill="none" stroke="#fff" stroke-miterlimit="10"/>
      </g>
      <g>
        <path d="M769.14,374.87a15.59,15.59,0,0,1-3.27-14.36l15.06,4.12Z" fill="#fff" stroke="#8acaff" stroke-miterlimit="10"/>
        <path d="M785.05,349.57A15.63,15.63,0,0,1,796,368.75l-15.06-4.12-15.06-4.12A15.61,15.61,0,0,1,785.05,349.57Z" fill="#8acaff" stroke="#8acaff" stroke-miterlimit="10"/>
        <path d="M780.93,364.63,796,368.75a15.62,15.62,0,0,1-26.85,6.12Z" fill="#c2deff" stroke="#8acaff" stroke-miterlimit="10"/>
        <path d="M770.81,354.89a13.65,13.65,0,0,1,13.8-3.73" fill="none" stroke="#fff" stroke-miterlimit="10"/>
      </g>
      <g>
        <path d="M753.93,317.08a19.06,19.06,0,0,1,17.05,0,7.18,7.18,0,0,1-6.06,13A19.07,19.07,0,0,1,753.93,317.08Z" fill="#fff" stroke="#8acaff" stroke-miterlimit="10"/>
        <line x1="753.93" y1="317.08" x2="774.45" y2="326.64" fill="none" stroke="#8acaff" stroke-miterlimit="10"/>
        <line x1="773.02" y1="325.98" x2="765.52" y2="330.4" fill="none" stroke="#8acaff" stroke-miterlimit="10"/>
        <line x1="770.79" y1="324.93" x2="763.28" y2="329.36" fill="none" stroke="#8acaff" stroke-miterlimit="10"/>
        <line x1="768.55" y1="323.89" x2="761.38" y2="328.12" fill="none" stroke="#8acaff" stroke-miterlimit="10"/>
        <line x1="766.31" y1="322.85" x2="759.68" y2="326.76" fill="none" stroke="#8acaff" stroke-miterlimit="10"/>
        <line x1="764.08" y1="321.81" x2="758.2" y2="325.27" fill="none" stroke="#8acaff" stroke-miterlimit="10"/>
        <line x1="761.84" y1="320.77" x2="756.93" y2="323.66" fill="none" stroke="#8acaff" stroke-miterlimit="10"/>
        <line x1="759.6" y1="319.73" x2="755.85" y2="321.94" fill="none" stroke="#8acaff" stroke-miterlimit="10"/>
        <line x1="757.36" y1="318.68" x2="754.93" y2="320.12" fill="none" stroke="#8acaff" stroke-miterlimit="10"/>
        <line x1="773.02" y1="325.98" x2="771.58" y2="317.38" fill="none" stroke="#8acaff" stroke-miterlimit="10"/>
        <line x1="770.79" y1="324.93" x2="769.34" y2="316.34" fill="none" stroke="#8acaff" stroke-miterlimit="10"/>
        <line x1="768.55" y1="323.89" x2="767.17" y2="315.68" fill="none" stroke="#8acaff" stroke-miterlimit="10"/>
        <line x1="766.31" y1="322.85" x2="765.04" y2="315.26" fill="none" stroke="#8acaff" stroke-miterlimit="10"/>
        <line x1="764.08" y1="321.81" x2="762.95" y2="315.09" fill="none" stroke="#8acaff" stroke-miterlimit="10"/>
        <line x1="761.84" y1="320.77" x2="760.89" y2="315.15" fill="none" stroke="#8acaff" stroke-miterlimit="10"/>
        <line x1="759.6" y1="319.73" x2="758.88" y2="315.43" fill="none" stroke="#8acaff" stroke-miterlimit="10"/>
        <line x1="757.36" y1="318.68" x2="756.9" y2="315.9" fill="none" stroke="#8acaff" stroke-miterlimit="10"/>
        <path d="M753.93,317.08a19.06,19.06,0,0,1,17.05,0,7.18,7.18,0,0,1-6.06,13A19.07,19.07,0,0,1,753.93,317.08Z" fill="none" stroke="#8acaff" stroke-miterlimit="10"/>
      </g>
      <g>
        <path d="M761,397.78a19.06,19.06,0,0,1,17,0,7.18,7.18,0,1,1-6.06,13A19.07,19.07,0,0,1,761,397.78Z" fill="#fff" stroke="#8acaff" stroke-miterlimit="10"/>
        <line x1="760.98" y1="397.78" x2="781.51" y2="407.34" fill="none" stroke="#8acaff" stroke-miterlimit="10"/>
        <line x1="780.08" y1="406.68" x2="772.57" y2="411.11" fill="none" stroke="#8acaff" stroke-miterlimit="10"/>
        <line x1="777.84" y1="405.63" x2="770.33" y2="410.06" fill="none" stroke="#8acaff" stroke-miterlimit="10"/>
        <line x1="775.6" y1="404.59" x2="768.43" y2="408.82" fill="none" stroke="#8acaff" stroke-miterlimit="10"/>
        <line x1="773.37" y1="403.55" x2="766.74" y2="407.46" fill="none" stroke="#8acaff" stroke-miterlimit="10"/>
        <line x1="771.13" y1="402.51" x2="765.26" y2="405.97" fill="none" stroke="#8acaff" stroke-miterlimit="10"/>
        <line x1="768.89" y1="401.47" x2="763.98" y2="404.36" fill="none" stroke="#8acaff" stroke-miterlimit="10"/>
        <line x1="766.66" y1="400.43" x2="762.9" y2="402.64" fill="none" stroke="#8acaff" stroke-miterlimit="10"/>
        <line x1="764.42" y1="399.38" x2="761.98" y2="400.82" fill="none" stroke="#8acaff" stroke-miterlimit="10"/>
        <line x1="780.08" y1="406.68" x2="778.64" y2="398.08" fill="none" stroke="#8acaff" stroke-miterlimit="10"/>
        <line x1="777.84" y1="405.63" x2="776.4" y2="397.04" fill="none" stroke="#8acaff" stroke-miterlimit="10"/>
        <line x1="775.6" y1="404.59" x2="774.23" y2="396.38" fill="none" stroke="#8acaff" stroke-miterlimit="10"/>
        <line x1="773.37" y1="403.55" x2="772.09" y2="395.96" fill="none" stroke="#8acaff" stroke-miterlimit="10"/>
        <line x1="771.13" y1="402.51" x2="770" y2="395.79" fill="none" stroke="#8acaff" stroke-miterlimit="10"/>
        <line x1="768.89" y1="401.47" x2="767.95" y2="395.85" fill="none" stroke="#8acaff" stroke-miterlimit="10"/>
        <line x1="766.66" y1="400.43" x2="765.93" y2="396.13" fill="none" stroke="#8acaff" stroke-miterlimit="10"/>
        <line x1="764.42" y1="399.38" x2="763.95" y2="396.6" fill="none" stroke="#8acaff" stroke-miterlimit="10"/>
        <path d="M761,397.78a19.06,19.06,0,0,1,17,0,7.18,7.18,0,1,1-6.06,13A19.07,19.07,0,0,1,761,397.78Z" fill="none" stroke="#8acaff" stroke-miterlimit="10"/>
      </g>
      <g>
        <path d="M853.93,368.73a26.82,26.82,0,0,0-24,0,10.1,10.1,0,0,0,8.52,18.31A26.81,26.81,0,0,0,853.93,368.73Z" fill="#fff" stroke="#8acaff" stroke-miterlimit="10"/>
        <line x1="853.93" y1="368.73" x2="825.06" y2="382.17" fill="none" stroke="#8acaff" stroke-miterlimit="10"/>
        <line x1="827.07" y1="381.24" x2="837.63" y2="387.47" fill="none" stroke="#8acaff" stroke-miterlimit="10"/>
        <line x1="830.22" y1="379.77" x2="840.78" y2="386" fill="none" stroke="#8acaff" stroke-miterlimit="10"/>
        <line x1="833.37" y1="378.31" x2="843.46" y2="384.26" fill="none" stroke="#8acaff" stroke-miterlimit="10"/>
        <line x1="836.51" y1="376.84" x2="845.84" y2="382.34" fill="none" stroke="#8acaff" stroke-miterlimit="10"/>
        <line x1="839.66" y1="375.38" x2="847.92" y2="380.25" fill="none" stroke="#8acaff" stroke-miterlimit="10"/>
        <line x1="842.81" y1="373.91" x2="849.71" y2="377.99" fill="none" stroke="#8acaff" stroke-miterlimit="10"/>
        <line x1="845.96" y1="372.45" x2="851.23" y2="375.56" fill="none" stroke="#8acaff" stroke-miterlimit="10"/>
        <line x1="849.1" y1="370.98" x2="852.53" y2="373" fill="none" stroke="#8acaff" stroke-miterlimit="10"/>
        <line x1="827.07" y1="381.24" x2="829.1" y2="369.15" fill="none" stroke="#8acaff" stroke-miterlimit="10"/>
        <line x1="830.22" y1="379.77" x2="832.25" y2="367.68" fill="none" stroke="#8acaff" stroke-miterlimit="10"/>
        <line x1="833.37" y1="378.31" x2="835.31" y2="366.75" fill="none" stroke="#8acaff" stroke-miterlimit="10"/>
        <line x1="836.51" y1="376.84" x2="838.31" y2="366.16" fill="none" stroke="#8acaff" stroke-miterlimit="10"/>
        <line x1="839.66" y1="375.38" x2="841.25" y2="365.92" fill="none" stroke="#8acaff" stroke-miterlimit="10"/>
        <line x1="842.81" y1="373.91" x2="844.13" y2="366" fill="none" stroke="#8acaff" stroke-miterlimit="10"/>
        <line x1="845.96" y1="372.45" x2="846.97" y2="366.4" fill="none" stroke="#8acaff" stroke-miterlimit="10"/>
        <line x1="849.1" y1="370.98" x2="849.76" y2="367.06" fill="none" stroke="#8acaff" stroke-miterlimit="10"/>
        <path d="M853.93,368.73a26.82,26.82,0,0,0-24,0,10.1,10.1,0,0,0,8.52,18.31A26.81,26.81,0,0,0,853.93,368.73Z" fill="none" stroke="#8acaff" stroke-miterlimit="10"/>
      </g>
      <g>
        <path d="M909.05,288.25a26.85,26.85,0,0,0-24,0,10.1,10.1,0,0,0,8.53,18.31A26.85,26.85,0,0,0,909.05,288.25Z" fill="#fff" stroke="#8acaff" stroke-miterlimit="10"/>
        <line x1="909.05" y1="288.25" x2="880.17" y2="301.7" fill="none" stroke="#8acaff" stroke-miterlimit="10"/>
        <line x1="882.18" y1="300.76" x2="892.74" y2="306.99" fill="none" stroke="#8acaff" stroke-miterlimit="10"/>
        <line x1="885.33" y1="299.3" x2="895.89" y2="305.53" fill="none" stroke="#8acaff" stroke-miterlimit="10"/>
        <line x1="888.48" y1="297.83" x2="898.57" y2="303.78" fill="none" stroke="#8acaff" stroke-miterlimit="10"/>
        <line x1="891.63" y1="296.36" x2="900.95" y2="301.87" fill="none" stroke="#8acaff" stroke-miterlimit="10"/>
        <line x1="894.77" y1="294.9" x2="903.03" y2="299.77" fill="none" stroke="#8acaff" stroke-miterlimit="10"/>
        <line x1="897.92" y1="293.43" x2="904.83" y2="297.51" fill="none" stroke="#8acaff" stroke-miterlimit="10"/>
        <line x1="901.07" y1="291.97" x2="906.35" y2="295.08" fill="none" stroke="#8acaff" stroke-miterlimit="10"/>
        <line x1="904.21" y1="290.5" x2="907.64" y2="292.52" fill="none" stroke="#8acaff" stroke-miterlimit="10"/>
        <line x1="882.18" y1="300.76" x2="884.21" y2="288.67" fill="none" stroke="#8acaff" stroke-miterlimit="10"/>
        <line x1="885.33" y1="299.3" x2="887.36" y2="287.2" fill="none" stroke="#8acaff" stroke-miterlimit="10"/>
        <line x1="888.48" y1="297.83" x2="890.42" y2="286.28" fill="none" stroke="#8acaff" stroke-miterlimit="10"/>
        <line x1="891.63" y1="296.36" x2="893.42" y2="285.68" fill="none" stroke="#8acaff" stroke-miterlimit="10"/>
        <line x1="894.77" y1="294.9" x2="896.36" y2="285.44" fill="none" stroke="#8acaff" stroke-miterlimit="10"/>
        <line x1="897.92" y1="293.43" x2="899.25" y2="285.52" fill="none" stroke="#8acaff" stroke-miterlimit="10"/>
        <line x1="901.07" y1="291.97" x2="902.08" y2="285.92" fill="none" stroke="#8acaff" stroke-miterlimit="10"/>
        <line x1="904.21" y1="290.5" x2="904.87" y2="286.58" fill="none" stroke="#8acaff" stroke-miterlimit="10"/>
        <path d="M909.05,288.25a26.85,26.85,0,0,0-24,0,10.1,10.1,0,0,0,8.53,18.31A26.85,26.85,0,0,0,909.05,288.25Z" fill="none" stroke="#8acaff" stroke-miterlimit="10"/>
      </g>
      <path d="M787.61,298.77s15.17,4.46,17.79,14.39" fill="none" stroke="#8acaff" stroke-miterlimit="10"/>
      <path d="M804.12,348.91s15.17,4.46,17.79,14.39" fill="none" stroke="#8acaff" stroke-miterlimit="10"/>
      <path d="M820.85,347.77a41.76,41.76,0,0,0-7.37,4.51" fill="none" stroke="#8acaff" stroke-miterlimit="10"/>
      <path d="M901,354s15.16,4.45,17.79,14.38" fill="none" stroke="#8acaff" stroke-miterlimit="10"/>
      <g>
        <path d="M880.25,358.37a16.12,16.12,0,0,1-3.39-14.86l15.58,4.26Z" fill="#fff" stroke="#8acaff" stroke-miterlimit="10"/>
        <path d="M896.71,332.19A16.15,16.15,0,0,1,908,352l-15.59-4.27-15.58-4.26A16.15,16.15,0,0,1,896.71,332.19Z" fill="#8acaff" stroke="#8acaff" stroke-miterlimit="10"/>
        <path d="M892.44,347.77,908,352a16.15,16.15,0,0,1-27.78,6.33Z" fill="#c2deff" stroke="#8acaff" stroke-miterlimit="10"/>
        <path d="M882,337.7a14.1,14.1,0,0,1,14.28-3.87" fill="none" stroke="#fff" stroke-miterlimit="10"/>
      </g>
      <rect x="778.08" y="466.01" width="110.22" height="5.13" rx="2.57" ry="2.57" fill="#fff" stroke="#8acaff" stroke-miterlimit="10"/>
      <line x1="798.55" y1="523.3" x2="867.91" y2="523.3" fill="none" stroke="#8acaff" stroke-miterlimit="10"/>
      <path d="M881.71,418.88S888.05,395.77,868,388" fill="none" stroke="#8acaff" stroke-miterlimit="10"/>
      <path d="M875,392.14s1-9.14,19.11-11.89" fill="none" stroke="#8acaff" stroke-miterlimit="10"/>
      <path d="M839.17,287.89s9,8.16,8.75,19.64" fill="#fff" stroke="#8acaff" stroke-miterlimit="10"/>
    </g>
    <g>
      <path d="M497.43,50.86,191.65,165.26s52.52,38.13,95,36.69c0,0,95,30.94,145.34,21.59,0,0,48,17.25,131,0C613.27,232.89,708.25,202,708.25,202c42.45,1.44,95-36.69,95-36.69Z" fill="#f0f9ff" stroke="#8acaff" stroke-miterlimit="10"/>
      <g>
        <path d="M778.1,155.86s-19.44,25-80.8,38.25c0,0-77.87,24.16-138.87,17.62,0,0-33.66,8.21-61,4.26" fill="none" stroke="#8acaff" stroke-miterlimit="10"/>
        <path d="M760.7,147.28s-18.23,23.46-75.79,35.88c0,0-73,22.65-130.26,16.52,0,0-31.57,7.71-57.22,4" fill="none" stroke="#8acaff" stroke-miterlimit="10"/>
        <path d="M733.56,138.08s-16.35,21-68,32.18c0,0-65.51,20.32-116.83,14.82,0,0-28.31,6.91-51.32,3.58" fill="none" stroke="#8acaff" stroke-miterlimit="10"/>
        <path d="M712.15,129.16s-14.87,19.13-61.81,29.26c0,0-59.58,18.48-106.24,13.48,0,0-25.75,6.28-46.67,3.26" fill="none" stroke="#8acaff" stroke-miterlimit="10"/>
        <path d="M690.48,121.73s-13.37,17.2-55.57,26.31c0,0-53.57,16.61-95.52,12.12,0,0-23.15,5.65-42,2.92" fill="none" stroke="#8acaff" stroke-miterlimit="10"/>
        <path d="M669.35,115.18s-13.43,13.07-50.66,21.11c0,0-47.25,14.65-84.25,10.68,0,0-20.42,5-37,2.59" fill="none" stroke="#8acaff" stroke-miterlimit="10"/>
      </g>
      <g>
        <line x1="501.5" y1="49.56" x2="805.16" y2="166" fill="#fff" stroke="#8acaff" stroke-miterlimit="10"/>
        <path d="M805.16,168a2,2,0,0,1-.71-.14L500.78,51.43a2,2,0,0,1,1.43-3.74L805.88,164.13a2,2,0,0,1-.72,3.87Z" fill="#fff" stroke="#8acaff" stroke-miterlimit="10"/>
      </g>
      <g>
        <path d="M220.84,155.86s19.43,25,80.79,38.25c0,0,77.88,24.16,138.87,17.62,0,0,33.66,8.21,61,4.26" fill="none" stroke="#8acaff" stroke-miterlimit="10"/>
        <path d="M238.24,147.28s18.22,23.46,75.78,35.88c0,0,73.05,22.65,130.26,16.52,0,0,31.57,7.71,57.22,4" fill="none" stroke="#8acaff" stroke-miterlimit="10"/>
        <path d="M265.37,138.08s16.35,21,68,32.18c0,0,65.52,20.32,116.83,14.82,0,0,28.32,6.91,51.32,3.58" fill="none" stroke="#8acaff" stroke-miterlimit="10"/>
        <path d="M286.79,129.16s14.86,19.13,61.81,29.26c0,0,59.57,18.48,106.24,13.48,0,0,25.74,6.28,46.66,3.26" fill="none" stroke="#8acaff" stroke-miterlimit="10"/>
        <path d="M308.45,121.73S321.82,138.93,364,148c0,0,53.56,16.61,95.51,12.12,0,0,23.15,5.65,42,2.92" fill="none" stroke="#8acaff" stroke-miterlimit="10"/>
        <path d="M330.25,113.41s12.76,14.84,50,22.88c0,0,47.25,14.65,84.25,10.68,0,0,20.42,5,37,2.59" fill="none" stroke="#8acaff" stroke-miterlimit="10"/>
        <polygon points="348.6 158.42 436.35 212.03 543.28 172.09 697.3 194.11 689.58 122.75 504.89 53.65 241 150.21 348.6 158.42" fill="#8acaff" opacity="0.3"/>
      </g>
      <rect x="490.9" y="42.39" width="21.19" height="7.92" rx="3.16" ry="3.16" fill="#fff" stroke="#8acaff" stroke-miterlimit="10"/>
      <path d="M562.91,226.05a2.52,2.52,0,0,1-2.35-1.62L495.09,51.75a2.5,2.5,0,0,1,3.8-2.93l210.82,151.1a2.51,2.51,0,0,1-2.93,4.07L502.72,57.74l62.53,164.91a2.5,2.5,0,0,1-1.45,3.23A2.38,2.38,0,0,1,562.91,226.05Z" fill="#fff" stroke="#8acaff" stroke-miterlimit="10"/>
      <path d="M432,226.05a2.31,2.31,0,0,1-.89-.17,2.5,2.5,0,0,1-1.45-3.23L492.14,57.74,288.08,204a2.5,2.5,0,1,1-2.92-4.07L496,48.82a2.51,2.51,0,0,1,3.81,2.93L434.31,224.43A2.53,2.53,0,0,1,432,226.05Z" fill="#fff" stroke="#8acaff" stroke-miterlimit="10"/>
      <g>
        <line x1="657.35" y1="111.79" x2="504.02" y2="159.1" fill="#fff" stroke="#8acaff" stroke-miterlimit="10"/>
        <path d="M504,161.6a2.46,2.46,0,0,1-2.35-1.72,2.42,2.42,0,0,1,1.62-3l150.86-46.06a2.46,2.46,0,0,1,3.07,1.6,2.43,2.43,0,0,1-1.62,3.05L504.7,161.49A2.57,2.57,0,0,1,504,161.6Z" fill="#fff" stroke="#8acaff" stroke-miterlimit="10"/>
      </g>
      <g>
        <line x1="348.75" y1="111.79" x2="502.08" y2="159.1" fill="#fff" stroke="#8acaff" stroke-miterlimit="10"/>
        <path d="M502.08,161.6a2.43,2.43,0,0,1-.74-.12L348,114.18a2.5,2.5,0,0,1,1.47-4.78l153.34,47.31a2.5,2.5,0,0,1-.74,4.89Z" fill="#fff" stroke="#8acaff" stroke-miterlimit="10"/>
      </g>
      <g>
        <path d="M500.41,18.57h2.18a4.3,4.3,0,0,1,4.3,4.3V498.76a0,0,0,0,1,0,0H496.11a0,0,0,0,1,0,0V22.87a4.3,4.3,0,0,1,4.3-4.3Z" fill="#fff" stroke="#8acaff" stroke-miterlimit="10"/>
        <line x1="503.76" y1="212.04" x2="503.76" y2="444.47" fill="none" stroke="#8acaff" stroke-miterlimit="10"/>
      </g>
      <g>
        <rect x="493.07" y="164.12" width="16.86" height="23.72" fill="#fff" stroke="#8acaff" stroke-miterlimit="10"/>
        <rect x="494.63" y="159.1" width="13.73" height="5.03" fill="#fff" stroke="#8acaff" stroke-miterlimit="10"/>
        <line x1="493.07" y1="167.23" x2="509.93" y2="167.23" fill="none" stroke="#8acaff" stroke-miterlimit="10"/>
        <line x1="493.07" y1="169.66" x2="509.93" y2="169.66" fill="none" stroke="#8acaff" stroke-miterlimit="10"/>
        <line x1="493.07" y1="172.09" x2="509.93" y2="172.09" fill="none" stroke="#8acaff" stroke-miterlimit="10"/>
        <line x1="493.07" y1="174.52" x2="509.93" y2="174.52" fill="none" stroke="#8acaff" stroke-miterlimit="10"/>
        <line x1="493.07" y1="176.95" x2="509.93" y2="176.95" fill="none" stroke="#8acaff" stroke-miterlimit="10"/>
        <line x1="493.07" y1="179.38" x2="509.93" y2="179.38" fill="none" stroke="#8acaff" stroke-miterlimit="10"/>
        <line x1="493.07" y1="181.81" x2="509.93" y2="181.81" fill="none" stroke="#8acaff" stroke-miterlimit="10"/>
        <line x1="493.07" y1="184.24" x2="509.93" y2="184.24" fill="none" stroke="#8acaff" stroke-miterlimit="10"/>
      </g>
      <g>
        <line x1="492.63" y1="49.56" x2="188.97" y2="166" fill="#fff" stroke="#8acaff" stroke-miterlimit="10"/>
        <path d="M189,168a2,2,0,0,0,.72-.14L493.35,51.43a2,2,0,0,0-1.43-3.74L188.25,164.13A2,2,0,0,0,189,168Z" fill="#fff" stroke="#8acaff" stroke-miterlimit="10"/>
      </g>
      <path d="M191.65,162.83S374.16,128.47,495.09,51.75l-4.19-4.6Z" fill="#fff" stroke="#8acaff" stroke-miterlimit="10"/>
      <path d="M802.85,162.83S620.34,128.47,499.41,51.75l7-4.81Z" fill="#fff" stroke="#8acaff" stroke-miterlimit="10"/>
      <g>
        <path d="M498.18,45.17,319.56,113.78s82.79,24.94,177.87,24.3c95.09.64,179.15-24.67,179.15-24.67Z" fill="#fff" stroke="#8acaff" stroke-miterlimit="10"/>
        <path d="M343.64,103.79c26.08,7.07,87,21.28,153.79,20.8,67.07.48,128.26-13.86,154.14-20.89" fill="none" stroke="#8acaff" stroke-miterlimit="10"/>
        <path d="M364.34,95.94c31.15,7.2,80.3,16,133.09,15.62,52.93.38,102.2-8.47,133.34-15.68" fill="none" stroke="#8acaff" stroke-miterlimit="10"/>
        <path d="M386.36,87.59c30.06,5.83,69.44,11.24,111.07,10.94,41.8.3,81.31-5.15,111.42-11" fill="none" stroke="#8acaff" stroke-miterlimit="10"/>
        <g>
          <path d="M500.63,46.35,416.41,75.16a4,4,0,0,0-.08,7.69c8.37,3,20.82,5.8,34.51,3.36,24.68-4.39,37.52-7,63.18-.29,15.58,4.08,43,.48,62.16-3,6.45-1.17,7.13-9.11,1-11.16Z" fill="#fff" stroke="#8acaff" stroke-miterlimit="10"/>
          <line x1="500.63" y1="46.35" x2="452.61" y2="71" fill="#fff" stroke="#8acaff" stroke-miterlimit="10"/>
          <line x1="500.63" y1="46.35" x2="531.12" y2="62.44" fill="#fff" stroke="#8acaff" stroke-miterlimit="10"/>
        </g>
        <g>
          <path d="M501.31,6.54,499.89,0S479.94,4.22,480.8,31.66l8.7.19" fill="#f7f7f7" stroke="#8acaff" stroke-linecap="round" stroke-linejoin="round"/>
          <path d="M513.14,49a2.32,2.32,0,0,1,2.32,2.32h0a2.32,2.32,0,0,1-2.32,2.32H486.48a2.32,2.32,0,0,1-2.32-2.32h0A2.32,2.32,0,0,1,486.48,49c3.66-2.41.12-4.46.12-4.46V26.38S487.52,10,500.37,5.8l5.69-4.22,2.4,6.24,13,10.84.74,5.88-6.94,3.31-1.51-3.13-9-.37s6,5.9,7.76,20.2C512.54,44.55,509.41,46.9,513.14,49Z" fill="#fff" stroke="#8acaff" stroke-linecap="round" stroke-linejoin="round"/>
          <polygon points="503.13 6.8 505.13 5.23 505.96 7.87 503.13 6.8" fill="#f7f7f7" stroke="#8acaff" stroke-linecap="round" stroke-linejoin="round"/>
          <path d="M505.08,23.47l-5-.23-2-3.44.86,5s1.93,0,7,.43C505.7,25.2,505.66,24.15,505.08,23.47Z" fill="#0092d3" stroke="#8acaff" stroke-miterlimit="10"/>
          <path d="M486.2,49.56h26.91c-3.63-2.79-.57-5.23-.57-5.23H486.89S489.07,48.2,486.2,49.56Z" fill="#f7f7f7" stroke="#8acaff" stroke-linecap="round" stroke-linejoin="round"/>
          <ellipse cx="517.84" cy="23.33" rx="1.25" ry="0.54" transform="translate(28.3 193.79) rotate(-21.78)" fill="#0092d3" stroke="#8acaff" stroke-miterlimit="10"/>
          <line x1="487.01" y1="40.96" x2="511.57" y2="40.96" fill="none" stroke="#8acaff" stroke-linecap="round" stroke-linejoin="round"/>
          <path d="M513.14,49a2.32,2.32,0,0,1,2.32,2.32h0a2.32,2.32,0,0,1-2.32,2.32H486.48a2.32,2.32,0,0,1-2.32-2.32h0A2.32,2.32,0,0,1,486.48,49c3.66-2.41.12-4.46.12-4.46V26.38S487.52,10,500.37,5.8l5.69-4.22,2.4,6.24,13,10.84.74,5.88-6.94,3.31-1.51-3.13-9-.37s6,5.9,7.76,20.2C512.54,44.55,509.41,46.9,513.14,49Z" fill="none" stroke="#8acaff" stroke-linecap="round" stroke-linejoin="round"/>
        </g>
      </g>
    </g>
    <g>
      <g>
        <rect x="734.44" y="31.45" width="66.19" height="44.99" transform="translate(15.79 217.93) rotate(-16.33)" fill="#fff" stroke="#8acaff" stroke-miterlimit="10"/>
        <line x1="767.53" y1="53.95" x2="792.97" y2="23.06" fill="none" stroke="#8acaff" stroke-miterlimit="10"/>
        <line x1="729.45" y1="41.66" x2="767.53" y2="53.95" fill="none" stroke="#8acaff" stroke-miterlimit="10"/>
        <line x1="742.09" y1="84.84" x2="751.63" y2="48.82" fill="none" stroke="#8acaff" stroke-miterlimit="10"/>
        <line x1="805.61" y1="66.23" x2="778.15" y2="41.05" fill="none" stroke="#8acaff" stroke-miterlimit="10"/>
      </g>
      <g>
        <rect x="917.62" y="117.01" width="19.64" height="403.38" fill="#fff" stroke="#8acaff" stroke-miterlimit="10"/>
        <line x1="933.32" y1="226.24" x2="933.32" y2="452.71" fill="none" stroke="#8acaff" stroke-miterlimit="10"/>
      </g>
      <g>
        <path d="M834.52,121h185.85a0,0,0,0,1,0,0v127.6a14.69,14.69,0,0,1-14.69,14.69H849.21a14.69,14.69,0,0,1-14.69-14.69V121a0,0,0,0,1,0,0Z" fill="#fff" stroke="#8acaff" stroke-miterlimit="10"/>
        <rect x="825.03" y="108.94" width="204.82" height="13.75" rx="6.87" ry="6.87" fill="#fff" stroke="#8acaff" stroke-miterlimit="10"/>
        <rect x="850.24" y="135.55" width="152.13" height="8.99" rx="4.49" ry="4.49" fill="#0092d3"/>
        <g>
          <g opacity="0.94" class="floor-btn">
            <rect x="850.24" y="160.96" width="159.56" height="90.21" fill="white" stroke="#8acaff" stroke-miterlimit="10"/>
            <rect x="852.53" y="163.3" width="154.99" height="85.53" fill="none" stroke="#8acaff" stroke-miterlimit="10"/>
            <text transform="translate(883.76 236.89)" font-size="18" fill="#666" font-family="'PingFang TC','HeiTi TC','Microsoft JhengHei',sans-serif">我們的服務</text>
            <path d="M948.71,200.47l-3.79-8.34-6.32,6.64,3.46.58a15.07,15.07,0,1,1-7.1-15h0a1.65,1.65,0,0,0,.91.27,1.62,1.62,0,0,0,.87-3l-.07,0a18.3,18.3,0,1,0,8.6,18.28Z" fill="#0092d3"/>
          </g>
          <rect x="923.83" y="164.85" width="7.23" height="7.23" rx="3.61" ry="3.61" fill="none" stroke="#c2deff" stroke-miterlimit="10"/>
          <circle cx="858.34" cy="169.54" r="2.03" fill="#c2deff"/>
          <circle cx="858.34" cy="242.92" r="2.03" fill="#c2deff"/>
          <circle cx="1000.34" cy="169.54" r="2.03" fill="#c2deff"/>
          <circle cx="1000.34" cy="242.92" r="2.03" fill="#c2deff"/>
        </g>
        <rect x="842.28" y="156.06" width="170.32" height="5.18" rx="2.59" ry="2.59" fill="#fff" stroke="#8acaff" stroke-miterlimit="10"/>
        <g>
          <path d="M943.09,188a2,2,0,1,1-2-2A2,2,0,0,1,943.09,188Z" fill="#0092d3"/>
        </g>
      </g>
      <rect x="850.24" y="135.55" width="152.13" height="8.99" rx="4.49" ry="4.49" fill="none" stroke="#8acaff" stroke-miterlimit="10"/>
      <g>
        <g>
          <path d="M900.77,87.33s46,13.17,77.68-11.84c0,0,7.63,13.67-1.58,20.39,0,0,4.82,12.34-10.88,18.26,0,0,1.91,5.63-1.45,8.51s-9.51,4.59-14,2.84c0,0,4,9.63-7.84,14,0,0-21.72-29.36-39.68-32.11Z" fill="#fff" stroke="#8acaff" stroke-miterlimit="10"/>
          <path d="M980.18,92s-5.58,15.79-55.32,9.31" fill="none" stroke="#8acaff" stroke-miterlimit="10"/>
          <path d="M970.72,111.81s-12.37,10.85-40.18-5" fill="none" stroke="#8acaff" stroke-miterlimit="10"/>
          <path d="M950.5,125.49S928,110.06,919.44,109" fill="none" stroke="#8acaff" stroke-miterlimit="10"/>
          <path d="M858.72,47.72a14.86,14.86,0,0,1-17.09-4.87c-7.38-9.05-12.54-19.13-25.83-17.57s-14.38,15.38,1.5,29,7.61,33.44,27,47.5,64.07,6,64.07,6S907,77.15,858.72,47.72Z" fill="#fff" stroke="#8acaff" stroke-miterlimit="10"/>
          <path d="M805.63,34.7s.5,5.71,2.43,8.74c0,0-7.33-4.44-12.35-2.12C795.71,41.32,799.23,34.85,805.63,34.7Z" fill="#8acaff" stroke="#8acaff" stroke-miterlimit="10"/>
          <g>
            <path d="M859.83,109.5a2.44,2.44,0,0,0-2.27-1.47,5.18,5.18,0,0,0-2.95.86c-2.18,1.43-1.9,5.78,3.14,6.15,0,0-2.27-5.36.69-4.75C859.93,110.6,860.07,110.09,859.83,109.5Z" fill="#8acaff" stroke="#8acaff" stroke-miterlimit="10"/>
            <path d="M864.5,109.28a2.45,2.45,0,0,0-2.49-1.07,5.2,5.2,0,0,0-2.77,1.34c-1.9,1.77-.91,6,4.13,5.53,0,0-3.14-4.9-.11-4.79C864.78,110.34,864.83,109.82,864.5,109.28Z" fill="#8acaff" stroke="#8acaff" stroke-miterlimit="10"/>
          </g>
          <g>
            <g>
              <path d="M899.29,79.48c14.1,9.45,26.46,7.22,26.46,7.22-19.69-27.81-51.21-38.38-68.21-40.54s-16.28,10.76-16.28,10.76-14.56,8.49,6.15,30.42,84.42,9.3,86,4.58c0,0-3.93-4.73-7.62-5.22" fill="#fff" stroke="#8acaff" stroke-miterlimit="10"/>
              <path d="M847.56,65.69S886.77,96.21,926,87" fill="none" stroke="#8acaff" stroke-miterlimit="10"/>
            </g>
            <path d="M853.71,79.26S882,106,933.37,91.92" fill="none" stroke="#8acaff" stroke-miterlimit="10"/>
          </g>
        </g>
        <g>
          <circle cx="813.35" cy="33.49" r="2.92" fill="#8acaff"/>
          <circle cx="813.35" cy="33.49" r="1.29" fill="#fff"/>
        </g>
        <circle cx="805.09" cy="33.84" r="2.66" fill="#fff" stroke="#8acaff" stroke-miterlimit="10"/>
      </g>
      <g clip-path="url(#a)">
        <g>
          <rect x="903.18" y="101.51" width="111.16" height="75.56" transform="translate(1442.08 -700.37) rotate(111.66)" fill="#fff" stroke="#8acaff" stroke-miterlimit="10"/>
          <line x1="958.76" y1="139.29" x2="973.36" y2="204.89" fill="none" stroke="#8acaff" stroke-miterlimit="10"/>
          <line x1="1014.39" y1="101.58" x2="958.76" y2="139.29" fill="none" stroke="#8acaff" stroke-miterlimit="10"/>
          <line x1="944.17" y1="73.69" x2="981.98" y2="123.55" fill="none" stroke="#8acaff" stroke-miterlimit="10"/>
          <line x1="903.14" y1="177.01" x2="964.85" y2="166.67" fill="none" stroke="#8acaff" stroke-miterlimit="10"/>
        </g>
      </g>
    </g>
    <g>
      <path d="M485.74,389.37h29.57a0,0,0,0,1,0,0V526.73A4.3,4.3,0,0,1,511,531H490a4.3,4.3,0,0,1-4.3-4.3V389.37a0,0,0,0,1,0,0Z" fill="#fff" stroke="#8acaff" stroke-miterlimit="10"/>
      <line x1="506.74" y1="456.52" x2="506.74" y2="404.82" fill="none" stroke="#8acaff" stroke-miterlimit="10"/>
      <rect x="372.64" y="521.79" width="255.77" height="9.24" fill="#fff" stroke="#8acaff" stroke-miterlimit="10"/>
    </g>
    <g>
      <path d="M220.24,530.74h0a4.24,4.24,0,0,0,5.64-2l33.23-59.18a4.24,4.24,0,0,0-2-5.64h0a4.23,4.23,0,0,0-5.63,2L218.27,525.1A4.25,4.25,0,0,0,220.24,530.74Z" fill="#fff" stroke="#8acaff" stroke-miterlimit="10"/>
      <path d="M616,530.74h0a4.24,4.24,0,0,1-5.64-2l-26-44.55a4.22,4.22,0,0,1,2-5.63h0a4.24,4.24,0,0,1,5.64,2l26,44.55A4.24,4.24,0,0,1,616,530.74Z" fill="#fff" stroke="#8acaff" stroke-miterlimit="10"/>
      <path d="M148,272,240.5,458.77a27.35,27.35,0,0,0,21,15l339.2,11.66a4.29,4.29,0,0,0,4.83-4.25h0a4.28,4.28,0,0,0-3.74-4.25L266.41,466a27.34,27.34,0,0,1-21.08-15.06L155.42,268.36a4.12,4.12,0,0,0-4.91-2.12h0A4.13,4.13,0,0,0,148,272Z" fill="#fff" stroke="#8acaff" stroke-miterlimit="10"/>
      <path d="M269.94,447.26c-9-4.35-14.28-12.5-18.95-21.57l-11.81,6.06,3.23,6.53c4.6,9.3,10,17.63,19,22.08,5.88,2.9,14.49,3.34,21,3.57l13.47.46.46-13.5-5.65-.18C284.3,450.5,275.76,450.09,269.94,447.26Z" fill="#fff" stroke="#8acaff" stroke-miterlimit="10"/>
      <path d="M170.3,259.45h2.52a11.48,11.48,0,0,1,11.48,11.48v45.7a0,0,0,0,1,0,0h-14a0,0,0,0,1,0,0V259.45A0,0,0,0,1,170.3,259.45Z" transform="translate(-107.13 105) rotate(-25.62)" fill="#fff" stroke="#8acaff" stroke-miterlimit="10"/>
      <rect x="197.44" y="316.05" width="14" height="57.18" transform="translate(-128.94 122.31) rotate(-25.62)" fill="#fff" stroke="#8acaff" stroke-miterlimit="10"/>
      <rect x="223.95" y="371.32" width="14" height="57.18" transform="translate(-150.23 139.21) rotate(-25.62)" fill="#fff" stroke="#8acaff" stroke-miterlimit="10"/>
      <polygon points="358.9 451.95 358.36 465.94 299.47 464.84 300.01 450.85 358.9 451.95" fill="#fff" stroke="#8acaff" stroke-miterlimit="10"/>
      <rect x="385.9" y="431.69" width="14" height="57.18" transform="translate(-82.25 835.05) rotate(-87.78)" fill="#fff" stroke="#8acaff" stroke-miterlimit="10"/>
      <rect x="447.91" y="433.59" width="14" height="57.18" transform="translate(-24.54 898.85) rotate(-87.78)" fill="#fff" stroke="#8acaff" stroke-miterlimit="10"/>
      <rect x="510.75" y="436.03" width="14" height="57.18" transform="translate(33.42 963.98) rotate(-87.78)" fill="#fff" stroke="#8acaff" stroke-miterlimit="10"/>
      <path d="M568.81,440.84h14a0,0,0,0,1,0,0v40.08a11.48,11.48,0,0,1-11.48,11.48h-2.52a0,0,0,0,1,0,0V440.84A0,0,0,0,1,568.81,440.84Z" transform="translate(87.24 1023.92) rotate(-87.78)" fill="#fff" stroke="#8acaff" stroke-miterlimit="10"/>
    </g>
    <rect x="265.69" y="380.11" width="448.15" height="10.64" rx="5.32" ry="5.32" fill="#fff" stroke="#8acaff" stroke-miterlimit="10"/>
    <g>
      <rect x="479.66" y="265.41" width="143.96" height="106.69" rx="6.39" ry="6.39" fill="#fff" stroke="#8acaff" stroke-miterlimit="10"/>
      <rect x="486.42" y="270.42" width="130.42" height="96.66" fill="#fff" stroke="#8acaff" stroke-miterlimit="10"/>
      <rect x="488.62" y="272.51" width="126.04" height="92.49" fill="#8acaff"/>
      <g>
        <rect x="509.79" y="280.49" width="88.06" height="5.56" fill="#fff"/>
        <rect x="509.79" y="355.62" width="88.06" height="3.59" fill="#fff"/>
        <rect x="509.79" y="348.69" width="88.06" height="3.59" fill="#fff"/>
        <polyline points="594.02 338.71 510.04 338.71 510.04 297.82" fill="none" stroke="#fff" stroke-linecap="round" stroke-linejoin="round"/>
        <polyline points="520.18 316.51 536.69 325.22 553.2 307.72 569.7 321.29 586.21 312.15" fill="none" stroke="#fff" stroke-linecap="round" stroke-linejoin="round"/>
        <path d="M523.26,316.51a3.08,3.08,0,1,1-3.08-3.08A3.08,3.08,0,0,1,523.26,316.51Z" fill="#0092d3"/>
        <path d="M539.77,325.22a3.08,3.08,0,1,1-3.08-3.08A3.07,3.07,0,0,1,539.77,325.22Z" fill="#0092d3"/>
        <path d="M556.27,307.72a3.08,3.08,0,1,1-3.07-3.08A3.07,3.07,0,0,1,556.27,307.72Z" fill="#0092d3"/>
        <path d="M572.78,321.29a3.08,3.08,0,1,1-3.08-3.08A3.08,3.08,0,0,1,572.78,321.29Z" fill="#0092d3"/>
        <path d="M589.29,312.15a3.08,3.08,0,1,1-3.08-3.08A3.08,3.08,0,0,1,589.29,312.15Z" fill="#0092d3"/>
      </g>
      <rect x="475.31" y="372.1" width="155.77" height="8.17" rx="4.08" ry="4.08" fill="#fff" stroke="#8acaff" stroke-miterlimit="10"/>
      <line x1="475.31" y1="375.54" x2="631.08" y2="375.54" fill="none" stroke="#8acaff" stroke-miterlimit="10"/>
      <path d="M559.22,375.54c0,1.24-2.7,2.24-6,2.24s-6-1-6-2.24" fill="none" stroke="#8acaff" stroke-miterlimit="10"/>
      <polygon points="559.22 277.88 610.34 277.88 610.34 334.59 559.22 277.88" fill="#fff" opacity="0.3"/>
    </g>
    <g>
      <path d="M688.23,312.41a16.29,16.29,0,0,1-3.43-15l15.74,4.3Z" fill="#fff" stroke="#8acaff" stroke-miterlimit="10"/>
      <path d="M704.85,286A16.34,16.34,0,0,1,716.29,306l-15.75-4.31-15.74-4.3A16.32,16.32,0,0,1,704.85,286Z" fill="#8acaff" stroke="#8acaff" stroke-miterlimit="10"/>
      <path d="M700.54,301.7,716.29,306a16.32,16.32,0,0,1-28.06,6.4Z" fill="#c2deff" stroke="#8acaff" stroke-miterlimit="10"/>
      <path d="M690,291.53a14.26,14.26,0,0,1,14.43-3.91" fill="none" stroke="#fff" stroke-miterlimit="10"/>
    </g>
    <g>
      <g>
        <path d="M626.59,375.4s-30.53,26-63.43,18c0,0-1.08,13.09,8.29,15,0,0,.6,11.1,14.66,10.16,0,0,.49,5,4.06,6s8.86.2,11.71-2.71c0,0,.26,8.75,10.86,8,0,0,6.38-30,19.14-38.31Z" fill="#fff" stroke="#8acaff" stroke-miterlimit="10"/>
        <path d="M567.58,406.58s9.75,10.12,45.49-12.12" fill="none" stroke="#8acaff" stroke-miterlimit="10"/>
        <path d="M581.69,418.41s13.22,4,28.92-17.83" fill="none" stroke="#8acaff" stroke-miterlimit="10"/>
        <path d="M601.88,421.83s11.81-19.6,18-23.39" fill="none" stroke="#8acaff" stroke-miterlimit="10"/>
        <path d="M644.94,330.54a12.48,12.48,0,0,0,11.36-9.66c2.5-9.49,2.94-19,13.62-22.4s16.33,6.74,8.94,22.67,5.81,28.18-4.08,45.64-46.85,26.82-46.85,26.82S618.33,369.77,644.94,330.54Z" fill="#fff" stroke="#8acaff" stroke-miterlimit="10"/>
        <path d="M681,302.13s1.6,4.54,1.18,7.53c0,0,4.05-5.94,8.7-5.91C690.85,303.75,685.91,300,681,302.13Z" fill="#8acaff" stroke="#8acaff" stroke-miterlimit="10"/>
        <g>
          <path d="M665.57,378.1a2,2,0,0,1,1.23-1.91,4.41,4.41,0,0,1,2.55-.37c2.16.34,3.46,3.75-.27,5.79,0,0-.12-4.89-2.18-3.39C665.88,379,665.59,378.63,665.57,378.1Z" fill="#8acaff" stroke="#8acaff" stroke-miterlimit="10"/>
          <path d="M661.93,379.55a2,2,0,0,1,1.53-1.68,4.44,4.44,0,0,1,2.57.06c2.08.7,2.79,4.28-1.22,5.66,0,0,.69-4.83-1.59-3.69C662.09,380.46,661.86,380.08,661.93,379.55Z" fill="#8acaff" stroke="#8acaff" stroke-miterlimit="10"/>
        </g>
        <g>
          <g>
            <path d="M625,368.89c-7.48,12.12-17.7,14.71-17.7,14.71,5.37-28.09,25.77-47.11,38-54.67s16.17,2.56,16.17,2.56,14.06,1.42,5.87,25.37-61.24,36.45-64.06,33.37c0,0,1.36-5,4-6.63" fill="#fff" stroke="#8acaff" stroke-miterlimit="10"/>
            <path d="M659.72,340.38s-19.34,36.93-52.48,43.56" fill="none" stroke="#8acaff" stroke-miterlimit="10"/>
          </g>
          <path d="M659.73,352.88s-12.35,30.25-56.44,37.35" fill="none" stroke="#8acaff" stroke-miterlimit="10"/>
        </g>
      </g>
      <g>
        <circle cx="674.65" cy="303.89" r="2.45" fill="#8acaff"/>
        <circle cx="674.65" cy="303.89" r="1.09" fill="#fff"/>
      </g>
      <circle cx="681.08" cy="301.29" r="2.23" fill="#fff" stroke="#8acaff" stroke-miterlimit="10"/>
    </g>
    <g>
      <path d="M305.11,365.71a19.34,19.34,0,0,1-4.06-17.8L319.71,353Z" fill="#fff" stroke="#8acaff" stroke-miterlimit="10"/>
      <path d="M324.81,334.36a19.35,19.35,0,0,1,13.56,23.76L319.71,353l-18.66-5.11A19.34,19.34,0,0,1,324.81,334.36Z" fill="#8acaff" stroke="#8acaff" stroke-miterlimit="10"/>
      <path d="M319.71,353l18.66,5.1a19.34,19.34,0,0,1-33.26,7.59Z" fill="#c2deff" stroke="#8acaff" stroke-miterlimit="10"/>
      <path d="M307.18,341a16.89,16.89,0,0,1,17.1-4.62" fill="none" stroke="#fff" stroke-miterlimit="10"/>
    </g>
    <g>
      <path d="M336.45,365.12a17.39,17.39,0,0,1-3.66-16l16.8,4.6Z" fill="#fff" stroke="#8acaff" stroke-miterlimit="10"/>
      <path d="M354.18,336.9a17.42,17.42,0,0,1,12.2,21.39l-16.79-4.59-16.8-4.6A17.43,17.43,0,0,1,354.18,336.9Z" fill="#8acaff" stroke="#8acaff" stroke-miterlimit="10"/>
      <path d="M349.59,353.7l16.79,4.59a17.41,17.41,0,0,1-29.93,6.83Z" fill="#c2deff" stroke="#8acaff" stroke-miterlimit="10"/>
      <path d="M338.31,342.84a15.23,15.23,0,0,1,15.39-4.17" fill="none" stroke="#fff" stroke-miterlimit="10"/>
    </g>
    <rect x="307.53" y="368.74" width="90.28" height="11.55" rx="4.67" ry="4.67" fill="#fff" stroke="#8acaff" stroke-miterlimit="10"/>
    <g>
      <path d="M450.23,325.52V281.16H426.09v44.36a12.08,12.08,0,0,0,10.66,12v27.83a12.59,12.59,0,0,1-10.45,12.47l-.21,0h24.14l-.21,0a12.58,12.58,0,0,1-10.45-12.47V337.51A12.08,12.08,0,0,0,450.23,325.52Z" fill="#fff" stroke="#8acaff" stroke-linejoin="round"/>
      <line x1="430.92" y1="376.04" x2="445.2" y2="376.04" fill="none" stroke="#8acaff" stroke-miterlimit="10"/>
      <rect x="426.09" y="377.84" width="24.15" height="2.27" fill="#fff" stroke="#8acaff" stroke-linejoin="round"/>
      <path d="M429,293.8h18.36a0,0,0,0,1,0,0v31.61a9.18,9.18,0,0,1-9.18,9.18h0a9.18,9.18,0,0,1-9.18-9.18V293.8A0,0,0,0,1,429,293.8Z" fill="#8acaff"/>
      <line x1="426.09" y1="284.93" x2="443.56" y2="284.93" fill="none" stroke="#8acaff" stroke-miterlimit="10"/>
      <circle cx="442.03" cy="296.55" r="1" fill="#fff"/>
      <circle cx="433.82" cy="298.55" r="1" fill="#fff"/>
      <circle cx="442.03" cy="303.66" r="1" fill="#fff"/>
    </g>
    <g>
      <path d="M383.46,342.1a14.49,14.49,0,0,1,9.28,10l-14,3.65Z" fill="#fff" stroke="#8acaff" stroke-miterlimit="10"/>
      <path d="M382.35,369.84a14.51,14.51,0,0,1-17.69-10.4l14-3.64,14-3.65A14.51,14.51,0,0,1,382.35,369.84Z" fill="#8acaff" stroke="#8acaff" stroke-miterlimit="10"/>
      <path d="M378.7,355.8l-14,3.64a14.5,14.5,0,0,1,18.8-17.34Z" fill="#c2deff" stroke="#8acaff" stroke-miterlimit="10"/>
      <path d="M391.35,359a12.68,12.68,0,0,1-9.39,9.39" fill="none" stroke="#fff" stroke-miterlimit="10"/>
    </g>
    <path d="M401.77,375.16H303.58c-3.91,0-18.37-3.17-18.37-7.08H420.13C420.13,372,405.68,375.16,401.77,375.16Z" fill="#fff" stroke="#8acaff" stroke-linecap="round" stroke-linejoin="round"/>
    <line x1="416.63" y1="371.12" x2="357.84" y2="371.12" fill="#fff" stroke="#8acaff" stroke-linecap="round" stroke-linejoin="round"/>
  </g>
</svg>
